<svg width="323mm" height="132.743mm" viewBox="0 0 323 132.743" xmlns="http://www.w3.org/2000/svg"><g id="svgGroup" stroke-linecap="round" fill-rule="evenodd" font-size="9pt" stroke="#000" stroke-width="0.25mm" fill="none" style="stroke:#000;stroke-width:0.25mm;fill:none"><path d="M 111.682 113.843 L 125.97 89.096 L 141.558 98.096 L 127.271 122.843 L 111.682 113.843 Z M 128.83 123.743 L 143.117 98.996 L 158.706 107.996 L 144.418 132.743 L 128.83 123.743 Z M 179.883 98.996 L 194.17 123.743 L 178.582 132.743 L 164.294 107.996 L 179.883 98.996 Z M 197.03 89.096 L 211.318 113.843 L 195.729 122.843 L 181.442 98.096 L 197.03 89.096 Z M 103.599 87.193 L 120.097 96.718 L 111.097 112.307 L 94.599 102.782 L 103.599 87.193 Z M 202.903 96.718 L 219.401 87.193 L 228.401 102.782 L 211.903 112.307 L 202.903 96.718 Z M 0 65.25 L 18 65.25 L 18 83.25 L 0 83.25 L 0 65.25 Z M 0 47.5 L 18 47.5 L 18 65.5 L 0 65.5 L 0 47.5 Z M 0 29.75 L 18 29.75 L 18 47.75 L 0 47.75 L 0 29.75 Z M 0 12 L 18 12 L 18 30 L 0 30 L 0 12 Z M 18.75 65.25 L 36.75 65.25 L 36.75 83.25 L 18.75 83.25 L 18.75 65.25 Z M 18.75 47.5 L 36.75 47.5 L 36.75 65.5 L 18.75 65.5 L 18.75 47.5 Z M 18.75 29.75 L 36.75 29.75 L 36.75 47.75 L 18.75 47.75 L 18.75 29.75 Z M 18.75 12 L 36.75 12 L 36.75 30 L 18.75 30 L 18.75 12 Z M 37.5 58.25 L 55.5 58.25 L 55.5 76.25 L 37.5 76.25 L 37.5 58.25 Z M 37.5 40.5 L 55.5 40.5 L 55.5 58.5 L 37.5 58.5 L 37.5 40.5 Z M 37.5 22.75 L 55.5 22.75 L 55.5 40.75 L 37.5 40.75 L 37.5 22.75 Z M 37.5 5 L 55.5 5 L 55.5 23 L 37.5 23 L 37.5 5 Z M 56.25 71 L 74.25 71 L 74.25 89 L 56.25 89 L 56.25 71 Z M 56.25 53.25 L 74.25 53.25 L 74.25 71.25 L 56.25 71.25 L 56.25 53.25 Z M 56.25 35.5 L 74.25 35.5 L 74.25 53.5 L 56.25 53.5 L 56.25 35.5 Z M 56.25 17.75 L 74.25 17.75 L 74.25 35.75 L 56.25 35.75 L 56.25 17.75 Z M 56.25 0 L 74.25 0 L 74.25 18 L 56.25 18 L 56.25 0 Z M 75 77 L 93 77 L 93 95 L 75 95 L 75 77 Z M 75 59.25 L 93 59.25 L 93 77.25 L 75 77.25 L 75 59.25 Z M 75 41.5 L 93 41.5 L 93 59.5 L 75 59.5 L 75 41.5 Z M 75 23.75 L 93 23.75 L 93 41.75 L 75 41.75 L 75 23.75 Z M 75 6 L 93 6 L 93 24 L 75 24 L 75 6 Z M 93.75 62.25 L 111.75 62.25 L 111.75 80.25 L 93.75 80.25 L 93.75 62.25 Z M 93.75 44.5 L 111.75 44.5 L 111.75 62.5 L 93.75 62.5 L 93.75 44.5 Z M 93.75 26.75 L 111.75 26.75 L 111.75 44.75 L 93.75 44.75 L 93.75 26.75 Z M 93.75 9 L 111.75 9 L 111.75 27 L 93.75 27 L 93.75 9 Z M 112.5 58.25 L 130.5 58.25 L 130.5 76.25 L 112.5 76.25 L 112.5 58.25 Z M 112.5 40.5 L 130.5 40.5 L 130.5 58.5 L 112.5 58.5 L 112.5 40.5 Z M 112.5 22.75 L 130.5 22.75 L 130.5 40.75 L 112.5 40.75 L 112.5 22.75 Z M 305 65.25 L 323 65.25 L 323 83.25 L 305 83.25 L 305 65.25 Z M 305 47.5 L 323 47.5 L 323 65.5 L 305 65.5 L 305 47.5 Z M 305 29.75 L 323 29.75 L 323 47.75 L 305 47.75 L 305 29.75 Z M 305 12 L 323 12 L 323 30 L 305 30 L 305 12 Z M 286.25 65.25 L 304.25 65.25 L 304.25 83.25 L 286.25 83.25 L 286.25 65.25 Z M 286.25 47.5 L 304.25 47.5 L 304.25 65.5 L 286.25 65.5 L 286.25 47.5 Z M 286.25 29.75 L 304.25 29.75 L 304.25 47.75 L 286.25 47.75 L 286.25 29.75 Z M 286.25 12 L 304.25 12 L 304.25 30 L 286.25 30 L 286.25 12 Z M 267.5 58.25 L 285.5 58.25 L 285.5 76.25 L 267.5 76.25 L 267.5 58.25 Z M 267.5 40.5 L 285.5 40.5 L 285.5 58.5 L 267.5 58.5 L 267.5 40.5 Z M 267.5 22.75 L 285.5 22.75 L 285.5 40.75 L 267.5 40.75 L 267.5 22.75 Z M 267.5 5 L 285.5 5 L 285.5 23 L 267.5 23 L 267.5 5 Z M 248.75 71 L 266.75 71 L 266.75 89 L 248.75 89 L 248.75 71 Z M 248.75 53.25 L 266.75 53.25 L 266.75 71.25 L 248.75 71.25 L 248.75 53.25 Z M 248.75 35.5 L 266.75 35.5 L 266.75 53.5 L 248.75 53.5 L 248.75 35.5 Z M 248.75 17.75 L 266.75 17.75 L 266.75 35.75 L 248.75 35.75 L 248.75 17.75 Z M 248.75 0 L 266.75 0 L 266.75 18 L 248.75 18 L 248.75 0 Z M 230 77 L 248 77 L 248 95 L 230 95 L 230 77 Z M 230 59.25 L 248 59.25 L 248 77.25 L 230 77.25 L 230 59.25 Z M 230 41.5 L 248 41.5 L 248 59.5 L 230 59.5 L 230 41.5 Z M 230 23.75 L 248 23.75 L 248 41.75 L 230 41.75 L 230 23.75 Z M 230 6 L 248 6 L 248 24 L 230 24 L 230 6 Z M 211.25 62.25 L 229.25 62.25 L 229.25 80.25 L 211.25 80.25 L 211.25 62.25 Z M 211.25 44.5 L 229.25 44.5 L 229.25 62.5 L 211.25 62.5 L 211.25 44.5 Z M 211.25 26.75 L 229.25 26.75 L 229.25 44.75 L 211.25 44.75 L 211.25 26.75 Z M 211.25 9 L 229.25 9 L 229.25 27 L 211.25 27 L 211.25 9 Z M 192.5 58.25 L 210.5 58.25 L 210.5 76.25 L 192.5 76.25 L 192.5 58.25 Z M 192.5 40.5 L 210.5 40.5 L 210.5 58.5 L 192.5 58.5 L 192.5 40.5 Z M 192.5 22.75 L 210.5 22.75 L 210.5 40.75 L 192.5 40.75 L 192.5 22.75 Z" vector-effect="non-scaling-stroke"/></g></svg>