0
SECTION
2
HEADER
9
$INSUNITS
70
4
0
ENDSEC
0
SECTION
2
TABLES
0
TABLE
2
LTYPE
0
LTYPE
72
65
70
64
2
CONTINUOUS
3
______
73
0
40
0
0
ENDTAB
0
TABLE
2
LAYER
0
ENDTAB
0
ENDSEC
0
SECTION
2
ENTITIES
0
LINE
8
0
10
420
20
-146.9377044
11
420
21
-66.5
0
LINE
8
0
10
420
20
-66.5
11
381.0471611
21
-66.5
0
LINE
8
0
10
379.0585428
20
-64.7130662
11
378.6914572
21
-61.2869338
0
LINE
8
0
10
376.7028389
20
-59.5
11
362.2223748
21
-59.5
0
LINE
8
0
10
360.2445021
20
-57.796681
11
360.0054979
21
-56.203319
0
LINE
8
0
10
358.0276252
20
-54.5
11
339.5155645
21
-54.5
0
LINE
8
0
10
337.5310087
20
-56.2519306
11
337.2189913
21
-58.7480694
0
LINE
8
0
10
335.2344355
20
-60.5
11
320.5615023
21
-60.5
0
LINE
8
0
10
318.6212326
20
-62.0148678
11
318.2499
21
-63.5
0
LINE
8
0
10
318.2499
20
-63.5
11
302.1438821
21
-63.5
0
LINE
8
0
10
300.1468507
20
-65.391071
11
299.6031493
21
-75.358929
0
LINE
8
0
10
297.6061179
20
-77.25
11
250.5
21
-77.25
0
LINE
8
0
10
248.5
20
-79.25
11
248.5
21
-135.3891902
0
LINE
8
0
10
248.3739198
20
-136.088064
11
241.6090459
21
-154.2270034
0
LINE
8
0
10
241.6581608
20
-155.7444657
11
244.9011479
21
-162.9737621
0
LINE
8
0
10
244.993902
20
-163.1551737
11
264.4428986
21
-196.8418239
0
LINE
8
0
10
267.1749494
20
-197.5738747
11
288.7282291
21
-185.1300829
0
LINE
8
0
10
288.9286265
20
-185.0289301
11
349.6678633
21
-158.5358262
0
LINE
8
0
10
349.8350103
20
-158.4716632
11
361.5372196
21
-154.5709268
0
LINE
8
0
10
361.9732052
20
-154.4779669
11
418.19647
21
-148.9280309
0
ARC
8
0
10
381.0471611
20
-64.5
40
2
50
186.1155019
51
270
0
ARC
8
0
10
376.7028389
20
-61.5
40
2
50
6.1155019
51
90
0
ARC
8
0
10
362.2223748
20
-57.5
40
2
50
188.5307679
51
270
0
ARC
8
0
10
358.0276252
20
-56.5
40
2
50
8.5307679
51
90
0
ARC
8
0
10
339.5155645
20
-56.5
40
2
50
90
51
172.8749858
0
ARC
8
0
10
335.2344355
20
-58.5
40
2
50
270
51
352.8749858
0
ARC
8
0
10
320.5615023
20
-62.5
40
2
50
90
51
165.961957
0
ARC
8
0
10
302.1438821
20
-65.5
40
2
50
90
51
176.8778691
0
ARC
8
0
10
297.6061179
20
-75.25
40
2
50
270
51
356.8778691
0
ARC
8
0
10
250.5
20
-79.25
40
2
50
90
51
180
0
ARC
8
0
10
246.5
20
-135.3891902
40
2
50
339.5471227
51
0
0
ARC
8
0
10
243.4829657
20
-154.9258772
40
2
50
159.5471227
51
204.1605068
0
ARC
8
0
10
246.7259528
20
-162.1551737
40
2
50
204.1605068
51
210.0000001
0
ARC
8
0
10
266.1749494
20
-195.8418239
40
2
50
210.0000001
51
300.0000001
0
ARC
8
0
10
289.7282291
20
-186.8621337
40
2
50
113.5657581
51
120.0000001
0
ARC
8
0
10
350.4674659
20
-160.3690298
40
2
50
108.4349506
51
113.5657581
0
ARC
8
0
10
362.1696752
20
-156.4682934
40
2
50
95.6375432
51
108.4349506
0
ARC
8
0
10
418
20
-146.9377044
40
2
50
275.6375432
51
0
0
ENDSEC
0
EOF