0
SECTION
2
HEADER
9
$INSUNITS
70
4
0
ENDSEC
0
SECTION
2
TABLES
0
TABLE
2
LTYPE
0
LTYPE
72
65
70
64
2
CONTINUOUS
3
______
73
0
40
0
0
ENDTAB
0
TABLE
2
LAYER
0
ENDTAB
0
ENDSEC
0
SECTION
2
ENTITIES
0
LINE
8
0
10
85
20
-146.9377044
11
85
21
-66.5
0
LINE
8
0
10
85
20
-66.5
11
123.9528389
21
-66.5
0
LINE
8
0
10
125.9414572
20
-64.7130662
11
126.3085428
21
-61.2869338
0
LINE
8
0
10
128.2971611
20
-59.5
11
142.7776252
21
-59.5
0
LINE
8
0
10
144.7554979
20
-57.796681
11
144.9945021
21
-56.203319
0
LINE
8
0
10
146.9723748
20
-54.5
11
165.4844355
21
-54.5
0
LINE
8
0
10
167.4689913
20
-56.2519306
11
167.7810087
21
-58.7480694
0
LINE
8
0
10
169.7655645
20
-60.5
11
184.4384977
21
-60.5
0
LINE
8
0
10
186.3787674
20
-62.0148678
11
186.7501
21
-63.5
0
LINE
8
0
10
186.7501
20
-63.5
11
202.8561179
21
-63.5
0
LINE
8
0
10
204.8531493
20
-65.391071
11
205.3968507
21
-75.358929
0
LINE
8
0
10
207.3938821
20
-77.25
11
254.5
21
-77.25
0
LINE
8
0
10
256.5
20
-79.25
11
256.5
21
-135.3891902
0
LINE
8
0
10
256.6260802
20
-136.088064
11
263.3909541
21
-154.2270034
0
LINE
8
0
10
263.3418392
20
-155.7444657
11
260.0988521
21
-162.9737621
0
LINE
8
0
10
260.006098
20
-163.1551737
11
240.5571014
21
-196.8418239
0
LINE
8
0
10
237.8250506
20
-197.5738747
11
216.2717709
21
-185.1300829
0
LINE
8
0
10
216.0713735
20
-185.0289301
11
155.3321367
21
-158.5358262
0
LINE
8
0
10
155.1649897
20
-158.4716632
11
143.4627804
21
-154.5709268
0
LINE
8
0
10
143.0267948
20
-154.4779669
11
86.80353
21
-148.9280309
0
ARC
8
0
10
123.9528389
20
-64.5
40
2
50
270
51
353.8844981
0
ARC
8
0
10
128.2971611
20
-61.5
40
2
50
90
51
173.8844981
0
ARC
8
0
10
142.7776252
20
-57.5
40
2
50
270
51
351.4692321
0
ARC
8
0
10
146.9723748
20
-56.5
40
2
50
90
51
171.4692321
0
ARC
8
0
10
165.4844355
20
-56.5
40
2
50
7.1250142
51
90
0
ARC
8
0
10
169.7655645
20
-58.5
40
2
50
187.1250142
51
270
0
ARC
8
0
10
184.4384977
20
-62.5
40
2
50
14.038043
51
90
0
ARC
8
0
10
202.8561179
20
-65.5
40
2
50
3.1221309
51
90
0
ARC
8
0
10
207.3938821
20
-75.25
40
2
50
183.1221309
51
270
0
ARC
8
0
10
254.5
20
-79.25
40
2
50
0
51
90
0
ARC
8
0
10
258.5
20
-135.3891902
40
2
50
180
51
200.4528773
0
ARC
8
0
10
261.5170343
20
-154.9258772
40
2
50
335.8394932
51
20.4528773
0
ARC
8
0
10
258.2740472
20
-162.1551737
40
2
50
329.9999999
51
335.8394932
0
ARC
8
0
10
238.8250506
20
-195.8418239
40
2
50
239.9999999
51
329.9999999
0
ARC
8
0
10
215.2717709
20
-186.8621337
40
2
50
59.9999999
51
66.4342419
0
ARC
8
0
10
154.5325341
20
-160.3690298
40
2
50
66.4342419
51
71.5650494
0
ARC
8
0
10
142.8303248
20
-156.4682934
40
2
50
71.5650494
51
84.3624568
0
ARC
8
0
10
87
20
-146.9377044
40
2
50
180
51
264.3624568
0
ENDSEC
0
EOF