<svg width="178.517mm" height="143.342mm" viewBox="0 0 178.517 143.342" xmlns="http://www.w3.org/2000/svg"><g id="svgGroup" stroke-linecap="round" fill-rule="evenodd" font-size="9pt" stroke="#000" stroke-width="0.25mm" fill="none" style="stroke:#000;stroke-width:0.25mm;fill:none"><path d="M 0 92.438 L 0 12 L 38.953 12 A 2 2 0 0 0 40.941 10.213 L 41.309 6.787 A 2 2 0 0 1 43.297 5 L 57.778 5 A 2 2 0 0 0 59.755 3.297 L 59.995 1.703 A 2 2 0 0 1 61.972 0 L 80.484 0 A 2 2 0 0 1 82.469 1.752 L 82.781 4.248 A 2 2 0 0 0 84.766 6 L 99.438 6 A 2 2 0 0 1 101.379 7.515 L 101.75 9 L 117.856 9 A 2 2 0 0 1 119.853 10.891 L 120.397 20.859 A 2 2 0 0 0 122.394 22.75 L 169.5 22.75 A 2 2 0 0 1 171.5 24.75 L 171.5 80.889 A 2 2 0 0 0 171.626 81.588 L 178.391 99.727 A 2 2 0 0 1 178.342 101.244 L 175.099 108.474 A 2 2 0 0 1 175.006 108.655 L 155.557 142.342 A 2 2 0 0 1 152.825 143.074 L 131.272 130.63 A 2 2 0 0 0 131.071 130.529 L 70.332 104.036 A 2 2 0 0 0 70.165 103.972 L 58.463 100.071 A 2 2 0 0 0 58.027 99.978 L 1.804 94.428 A 2 2 0 0 1 0 92.438 Z" vector-effect="non-scaling-stroke"/></g></svg>