<svg width="178.517mm" height="143.342mm" viewBox="0 0 178.517 143.342" xmlns="http://www.w3.org/2000/svg"><g id="svgGroup" stroke-linecap="round" fill-rule="evenodd" font-size="9pt" stroke="#000" stroke-width="0.25mm" fill="none" style="stroke:#000;stroke-width:0.25mm;fill:none"><path d="M 178.517 92.438 L 178.517 12 L 139.564 12 A 2 2 0 0 1 137.576 10.213 L 137.208 6.787 A 2 2 0 0 0 135.22 5 L 120.739 5 A 2 2 0 0 1 118.762 3.297 L 118.523 1.703 A 2 2 0 0 0 116.545 0 L 98.033 0 A 2 2 0 0 0 96.048 1.752 L 95.736 4.248 A 2 2 0 0 1 93.751 6 L 79.079 6 A 2 2 0 0 0 77.138 7.515 L 76.767 9 L 60.661 9 A 2 2 0 0 0 58.664 10.891 L 58.12 20.859 A 2 2 0 0 1 56.123 22.75 L 9.017 22.75 A 2 2 0 0 0 7.017 24.75 L 7.017 80.889 A 2 2 0 0 1 6.891 81.588 L 0.126 99.727 A 2 2 0 0 0 0.175 101.244 L 3.418 108.474 A 2 2 0 0 0 3.511 108.655 L 22.96 142.342 A 2 2 0 0 0 25.692 143.074 L 47.245 130.63 A 2 2 0 0 1 47.446 130.529 L 108.185 104.036 A 2 2 0 0 1 108.352 103.972 L 120.054 100.071 A 2 2 0 0 1 120.49 99.978 L 176.714 94.428 A 2 2 0 0 0 178.517 92.438 Z" vector-effect="non-scaling-stroke"/></g></svg>