0
SECTION
2
HEADER
9
$INSUNITS
70
4
0
ENDSEC
0
SECTION
2
TABLES
0
TABLE
2
LTYPE
0
LTYPE
72
65
70
64
2
CONTINUOUS
3
______
73
0
40
0
0
ENDTAB
0
TABLE
2
LAYER
0
ENDTAB
0
ENDSEC
0
SECTION
2
ENTITIES
0
LINE
8
0
10
93
20
-139.25
11
107
21
-139.25
0
LINE
8
0
10
107
20
-139.25
11
107
21
-125.25
0
LINE
8
0
10
107
20
-125.25
11
93
21
-125.25
0
LINE
8
0
10
93
20
-125.25
11
93
21
-139.25
0
LINE
8
0
10
93
20
-121.5
11
107
21
-121.5
0
LINE
8
0
10
107
20
-121.5
11
107
21
-107.5
0
LINE
8
0
10
107
20
-107.5
11
93
21
-107.5
0
LINE
8
0
10
93
20
-107.5
11
93
21
-121.5
0
LINE
8
0
10
93
20
-103.75
11
107
21
-103.75
0
LINE
8
0
10
107
20
-103.75
11
107
21
-89.75
0
LINE
8
0
10
107
20
-89.75
11
93
21
-89.75
0
LINE
8
0
10
93
20
-89.75
11
93
21
-103.75
0
LINE
8
0
10
93
20
-86
11
107
21
-86
0
LINE
8
0
10
107
20
-86
11
107
21
-72
0
LINE
8
0
10
107
20
-72
11
93
21
-72
0
LINE
8
0
10
93
20
-72
11
93
21
-86
0
LINE
8
0
10
111.75
20
-139.25
11
125.75
21
-139.25
0
LINE
8
0
10
125.75
20
-139.25
11
125.75
21
-125.25
0
LINE
8
0
10
125.75
20
-125.25
11
111.75
21
-125.25
0
LINE
8
0
10
111.75
20
-125.25
11
111.75
21
-139.25
0
LINE
8
0
10
111.75
20
-121.5
11
125.75
21
-121.5
0
LINE
8
0
10
125.75
20
-121.5
11
125.75
21
-107.5
0
LINE
8
0
10
125.75
20
-107.5
11
111.75
21
-107.5
0
LINE
8
0
10
111.75
20
-107.5
11
111.75
21
-121.5
0
LINE
8
0
10
111.75
20
-103.75
11
125.75
21
-103.75
0
LINE
8
0
10
125.75
20
-103.75
11
125.75
21
-89.75
0
LINE
8
0
10
125.75
20
-89.75
11
111.75
21
-89.75
0
LINE
8
0
10
111.75
20
-89.75
11
111.75
21
-103.75
0
LINE
8
0
10
111.75
20
-86
11
125.75
21
-86
0
LINE
8
0
10
125.75
20
-86
11
125.75
21
-72
0
LINE
8
0
10
125.75
20
-72
11
111.75
21
-72
0
LINE
8
0
10
111.75
20
-72
11
111.75
21
-86
0
LINE
8
0
10
130.5
20
-132.25
11
144.5
21
-132.25
0
LINE
8
0
10
144.5
20
-132.25
11
144.5
21
-118.25
0
LINE
8
0
10
144.5
20
-118.25
11
130.5
21
-118.25
0
LINE
8
0
10
130.5
20
-118.25
11
130.5
21
-132.25
0
LINE
8
0
10
130.5
20
-114.5
11
144.5
21
-114.5
0
LINE
8
0
10
144.5
20
-114.5
11
144.5
21
-100.5
0
LINE
8
0
10
144.5
20
-100.5
11
130.5
21
-100.5
0
LINE
8
0
10
130.5
20
-100.5
11
130.5
21
-114.5
0
LINE
8
0
10
130.5
20
-96.75
11
144.5
21
-96.75
0
LINE
8
0
10
144.5
20
-96.75
11
144.5
21
-82.75
0
LINE
8
0
10
144.5
20
-82.75
11
130.5
21
-82.75
0
LINE
8
0
10
130.5
20
-82.75
11
130.5
21
-96.75
0
LINE
8
0
10
130.5
20
-79
11
144.5
21
-79
0
LINE
8
0
10
144.5
20
-79
11
144.5
21
-65
0
LINE
8
0
10
144.5
20
-65
11
130.5
21
-65
0
LINE
8
0
10
130.5
20
-65
11
130.5
21
-79
0
LINE
8
0
10
149.25
20
-145
11
163.25
21
-145
0
LINE
8
0
10
163.25
20
-145
11
163.25
21
-131
0
LINE
8
0
10
163.25
20
-131
11
149.25
21
-131
0
LINE
8
0
10
149.25
20
-131
11
149.25
21
-145
0
LINE
8
0
10
149.25
20
-127.25
11
163.25
21
-127.25
0
LINE
8
0
10
163.25
20
-127.25
11
163.25
21
-113.25
0
LINE
8
0
10
163.25
20
-113.25
11
149.25
21
-113.25
0
LINE
8
0
10
149.25
20
-113.25
11
149.25
21
-127.25
0
LINE
8
0
10
149.25
20
-109.5
11
163.25
21
-109.5
0
LINE
8
0
10
163.25
20
-109.5
11
163.25
21
-95.5
0
LINE
8
0
10
163.25
20
-95.5
11
149.25
21
-95.5
0
LINE
8
0
10
149.25
20
-95.5
11
149.25
21
-109.5
0
LINE
8
0
10
149.25
20
-91.75
11
163.25
21
-91.75
0
LINE
8
0
10
163.25
20
-91.75
11
163.25
21
-77.75
0
LINE
8
0
10
163.25
20
-77.75
11
149.25
21
-77.75
0
LINE
8
0
10
149.25
20
-77.75
11
149.25
21
-91.75
0
LINE
8
0
10
149.25
20
-74
11
163.25
21
-74
0
LINE
8
0
10
163.25
20
-74
11
163.25
21
-60
0
LINE
8
0
10
163.25
20
-60
11
149.25
21
-60
0
LINE
8
0
10
149.25
20
-60
11
149.25
21
-74
0
LINE
8
0
10
168
20
-151
11
182
21
-151
0
LINE
8
0
10
182
20
-151
11
182
21
-137
0
LINE
8
0
10
182
20
-137
11
168
21
-137
0
LINE
8
0
10
168
20
-137
11
168
21
-151
0
LINE
8
0
10
168
20
-133.25
11
182
21
-133.25
0
LINE
8
0
10
182
20
-133.25
11
182
21
-119.25
0
LINE
8
0
10
182
20
-119.25
11
168
21
-119.25
0
LINE
8
0
10
168
20
-119.25
11
168
21
-133.25
0
LINE
8
0
10
168
20
-115.5
11
182
21
-115.5
0
LINE
8
0
10
182
20
-115.5
11
182
21
-101.5
0
LINE
8
0
10
182
20
-101.5
11
168
21
-101.5
0
LINE
8
0
10
168
20
-101.5
11
168
21
-115.5
0
LINE
8
0
10
168
20
-97.75
11
182
21
-97.75
0
LINE
8
0
10
182
20
-97.75
11
182
21
-83.75
0
LINE
8
0
10
182
20
-83.75
11
168
21
-83.75
0
LINE
8
0
10
168
20
-83.75
11
168
21
-97.75
0
LINE
8
0
10
168
20
-80
11
182
21
-80
0
LINE
8
0
10
182
20
-80
11
182
21
-66
0
LINE
8
0
10
182
20
-66
11
168
21
-66
0
LINE
8
0
10
168
20
-66
11
168
21
-80
0
LINE
8
0
10
186.75
20
-136.25
11
200.75
21
-136.25
0
LINE
8
0
10
200.75
20
-136.25
11
200.75
21
-122.25
0
LINE
8
0
10
200.75
20
-122.25
11
186.75
21
-122.25
0
LINE
8
0
10
186.75
20
-122.25
11
186.75
21
-136.25
0
LINE
8
0
10
186.75
20
-118.5
11
200.75
21
-118.5
0
LINE
8
0
10
200.75
20
-118.5
11
200.75
21
-104.5
0
LINE
8
0
10
200.75
20
-104.5
11
186.75
21
-104.5
0
LINE
8
0
10
186.75
20
-104.5
11
186.75
21
-118.5
0
LINE
8
0
10
186.75
20
-100.75
11
200.75
21
-100.75
0
LINE
8
0
10
200.75
20
-100.75
11
200.75
21
-86.75
0
LINE
8
0
10
200.75
20
-86.75
11
186.75
21
-86.75
0
LINE
8
0
10
186.75
20
-86.75
11
186.75
21
-100.75
0
LINE
8
0
10
186.75
20
-83
11
200.75
21
-83
0
LINE
8
0
10
200.75
20
-83
11
200.75
21
-69
0
LINE
8
0
10
200.75
20
-69
11
186.75
21
-69
0
LINE
8
0
10
186.75
20
-69
11
186.75
21
-83
0
LINE
8
0
10
205.5
20
-132.25
11
219.5
21
-132.25
0
LINE
8
0
10
219.5
20
-132.25
11
219.5
21
-118.25
0
LINE
8
0
10
219.5
20
-118.25
11
205.5
21
-118.25
0
LINE
8
0
10
205.5
20
-118.25
11
205.5
21
-132.25
0
LINE
8
0
10
205.5
20
-114.5
11
219.5
21
-114.5
0
LINE
8
0
10
219.5
20
-114.5
11
219.5
21
-100.5
0
LINE
8
0
10
219.5
20
-100.5
11
205.5
21
-100.5
0
LINE
8
0
10
205.5
20
-100.5
11
205.5
21
-114.5
0
LINE
8
0
10
205.5
20
-96.75
11
219.5
21
-96.75
0
LINE
8
0
10
219.5
20
-96.75
11
219.5
21
-82.75
0
LINE
8
0
10
219.5
20
-82.75
11
205.5
21
-82.75
0
LINE
8
0
10
205.5
20
-82.75
11
205.5
21
-96.75
0
LINE
8
0
10
188.7858984
20
-160.3121778
11
200.910254
21
-167.3121778
0
LINE
8
0
10
200.910254
20
-167.3121778
11
207.910254
21
-155.1878222
0
LINE
8
0
10
207.910254
20
-155.1878222
11
195.7858984
21
-148.1878222
0
LINE
8
0
10
195.7858984
20
-148.1878222
11
188.7858984
21
-160.3121778
0
LINE
8
0
10
220.182557
20
-173.5315698
11
227.182557
21
-161.4072142
0
LINE
8
0
10
227.182557
20
-161.4072142
11
215.0582014
21
-154.4072142
0
LINE
8
0
10
215.0582014
20
-154.4072142
11
208.0582014
21
-166.5315698
0
LINE
8
0
10
208.0582014
20
-166.5315698
11
220.182557
21
-173.5315698
0
LINE
8
0
10
237.32986
20
-183.4315698
11
244.32986
21
-171.3072142
0
LINE
8
0
10
244.32986
20
-171.3072142
11
232.2055044
21
-164.3072142
0
LINE
8
0
10
232.2055044
20
-164.3072142
11
225.2055044
21
-176.4315698
0
LINE
8
0
10
225.2055044
20
-176.4315698
11
237.32986
21
-183.4315698
0
ENDSEC
0
EOF