<svg width="151.33mm" height="123.432mm" viewBox="0 0 151.33 123.432" xmlns="http://www.w3.org/2000/svg"><g id="svgGroup" stroke-linecap="round" fill-rule="evenodd" font-size="9pt" stroke="#000" stroke-width="0.25mm" fill="none" style="stroke:#000;stroke-width:0.25mm;fill:none"><path d="M 137.33 79.25 L 151.33 79.25 L 151.33 65.25 L 137.33 65.25 L 137.33 79.25 Z M 137.33 61.5 L 151.33 61.5 L 151.33 47.5 L 137.33 47.5 L 137.33 61.5 Z M 137.33 43.75 L 151.33 43.75 L 151.33 29.75 L 137.33 29.75 L 137.33 43.75 Z M 137.33 26 L 151.33 26 L 151.33 12 L 137.33 12 L 137.33 26 Z M 118.58 79.25 L 132.58 79.25 L 132.58 65.25 L 118.58 65.25 L 118.58 79.25 Z M 118.58 61.5 L 132.58 61.5 L 132.58 47.5 L 118.58 47.5 L 118.58 61.5 Z M 118.58 43.75 L 132.58 43.75 L 132.58 29.75 L 118.58 29.75 L 118.58 43.75 Z M 118.58 26 L 132.58 26 L 132.58 12 L 118.58 12 L 118.58 26 Z M 99.83 72.25 L 113.83 72.25 L 113.83 58.25 L 99.83 58.25 L 99.83 72.25 Z M 99.83 54.5 L 113.83 54.5 L 113.83 40.5 L 99.83 40.5 L 99.83 54.5 Z M 99.83 36.75 L 113.83 36.75 L 113.83 22.75 L 99.83 22.75 L 99.83 36.75 Z M 99.83 19 L 113.83 19 L 113.83 5 L 99.83 5 L 99.83 19 Z M 81.08 85 L 95.08 85 L 95.08 71 L 81.08 71 L 81.08 85 Z M 81.08 67.25 L 95.08 67.25 L 95.08 53.25 L 81.08 53.25 L 81.08 67.25 Z M 81.08 49.5 L 95.08 49.5 L 95.08 35.5 L 81.08 35.5 L 81.08 49.5 Z M 81.08 31.75 L 95.08 31.75 L 95.08 17.75 L 81.08 17.75 L 81.08 31.75 Z M 81.08 14 L 95.08 14 L 95.08 0 L 81.08 0 L 81.08 14 Z M 62.33 91 L 76.33 91 L 76.33 77 L 62.33 77 L 62.33 91 Z M 62.33 73.25 L 76.33 73.25 L 76.33 59.25 L 62.33 59.25 L 62.33 73.25 Z M 62.33 55.5 L 76.33 55.5 L 76.33 41.5 L 62.33 41.5 L 62.33 55.5 Z M 62.33 37.75 L 76.33 37.75 L 76.33 23.75 L 62.33 23.75 L 62.33 37.75 Z M 62.33 20 L 76.33 20 L 76.33 6 L 62.33 6 L 62.33 20 Z M 43.58 76.25 L 57.58 76.25 L 57.58 62.25 L 43.58 62.25 L 43.58 76.25 Z M 43.58 58.5 L 57.58 58.5 L 57.58 44.5 L 43.58 44.5 L 43.58 58.5 Z M 43.58 40.75 L 57.58 40.75 L 57.58 26.75 L 43.58 26.75 L 43.58 40.75 Z M 43.58 23 L 57.58 23 L 57.58 9 L 43.58 9 L 43.58 23 Z M 24.83 72.25 L 38.83 72.25 L 38.83 58.25 L 24.83 58.25 L 24.83 72.25 Z M 24.83 54.5 L 38.83 54.5 L 38.83 40.5 L 24.83 40.5 L 24.83 54.5 Z M 24.83 36.75 L 38.83 36.75 L 38.83 22.75 L 24.83 22.75 L 24.83 36.75 Z M 43.42 107.312 L 55.544 100.312 L 48.544 88.188 L 36.42 95.188 L 43.42 107.312 Z M 17.147 101.407 L 24.147 113.532 L 36.272 106.532 L 29.272 94.407 L 17.147 101.407 Z M 0 111.307 L 7 123.432 L 19.124 116.432 L 12.124 104.307 L 0 111.307 Z" vector-effect="non-scaling-stroke"/></g></svg>