<svg width="151.33mm" height="123.432mm" viewBox="0 0 151.33 123.432" xmlns="http://www.w3.org/2000/svg"><g id="svgGroup" stroke-linecap="round" fill-rule="evenodd" font-size="9pt" stroke="#000" stroke-width="0.25mm" fill="none" style="stroke:#000;stroke-width:0.25mm;fill:none"><path d="M 0 79.25 L 14 79.25 L 14 65.25 L 0 65.25 L 0 79.25 Z M 0 61.5 L 14 61.5 L 14 47.5 L 0 47.5 L 0 61.5 Z M 0 43.75 L 14 43.75 L 14 29.75 L 0 29.75 L 0 43.75 Z M 0 26 L 14 26 L 14 12 L 0 12 L 0 26 Z M 18.75 79.25 L 32.75 79.25 L 32.75 65.25 L 18.75 65.25 L 18.75 79.25 Z M 18.75 61.5 L 32.75 61.5 L 32.75 47.5 L 18.75 47.5 L 18.75 61.5 Z M 18.75 43.75 L 32.75 43.75 L 32.75 29.75 L 18.75 29.75 L 18.75 43.75 Z M 18.75 26 L 32.75 26 L 32.75 12 L 18.75 12 L 18.75 26 Z M 37.5 72.25 L 51.5 72.25 L 51.5 58.25 L 37.5 58.25 L 37.5 72.25 Z M 37.5 54.5 L 51.5 54.5 L 51.5 40.5 L 37.5 40.5 L 37.5 54.5 Z M 37.5 36.75 L 51.5 36.75 L 51.5 22.75 L 37.5 22.75 L 37.5 36.75 Z M 37.5 19 L 51.5 19 L 51.5 5 L 37.5 5 L 37.5 19 Z M 56.25 85 L 70.25 85 L 70.25 71 L 56.25 71 L 56.25 85 Z M 56.25 67.25 L 70.25 67.25 L 70.25 53.25 L 56.25 53.25 L 56.25 67.25 Z M 56.25 49.5 L 70.25 49.5 L 70.25 35.5 L 56.25 35.5 L 56.25 49.5 Z M 56.25 31.75 L 70.25 31.75 L 70.25 17.75 L 56.25 17.75 L 56.25 31.75 Z M 56.25 14 L 70.25 14 L 70.25 0 L 56.25 0 L 56.25 14 Z M 75 91 L 89 91 L 89 77 L 75 77 L 75 91 Z M 75 73.25 L 89 73.25 L 89 59.25 L 75 59.25 L 75 73.25 Z M 75 55.5 L 89 55.5 L 89 41.5 L 75 41.5 L 75 55.5 Z M 75 37.75 L 89 37.75 L 89 23.75 L 75 23.75 L 75 37.75 Z M 75 20 L 89 20 L 89 6 L 75 6 L 75 20 Z M 93.75 76.25 L 107.75 76.25 L 107.75 62.25 L 93.75 62.25 L 93.75 76.25 Z M 93.75 58.5 L 107.75 58.5 L 107.75 44.5 L 93.75 44.5 L 93.75 58.5 Z M 93.75 40.75 L 107.75 40.75 L 107.75 26.75 L 93.75 26.75 L 93.75 40.75 Z M 93.75 23 L 107.75 23 L 107.75 9 L 93.75 9 L 93.75 23 Z M 112.5 72.25 L 126.5 72.25 L 126.5 58.25 L 112.5 58.25 L 112.5 72.25 Z M 112.5 54.5 L 126.5 54.5 L 126.5 40.5 L 112.5 40.5 L 112.5 54.5 Z M 112.5 36.75 L 126.5 36.75 L 126.5 22.75 L 112.5 22.75 L 112.5 36.75 Z M 95.786 100.312 L 107.91 107.312 L 114.91 95.188 L 102.786 88.188 L 95.786 100.312 Z M 127.183 113.532 L 134.183 101.407 L 122.058 94.407 L 115.058 106.532 L 127.183 113.532 Z M 144.33 123.432 L 151.33 111.307 L 139.206 104.307 L 132.206 116.432 L 144.33 123.432 Z" vector-effect="non-scaling-stroke"/></g></svg>