0
SECTION
2
HEADER
9
$INSUNITS
70
4
0
ENDSEC
0
SECTION
2
TABLES
0
TABLE
2
LTYPE
0
LTYPE
72
65
70
64
2
CONTINUOUS
3
______
73
0
40
0
0
ENDTAB
0
TABLE
2
LAYER
0
ENDTAB
0
ENDSEC
0
SECTION
2
ENTITIES
0
LINE
8
0
10
398
20
-139.25
11
412
21
-139.25
0
LINE
8
0
10
412
20
-139.25
11
412
21
-125.25
0
LINE
8
0
10
412
20
-125.25
11
398
21
-125.25
0
LINE
8
0
10
398
20
-125.25
11
398
21
-139.25
0
LINE
8
0
10
398
20
-121.5
11
412
21
-121.5
0
LINE
8
0
10
412
20
-121.5
11
412
21
-107.5
0
LINE
8
0
10
412
20
-107.5
11
398
21
-107.5
0
LINE
8
0
10
398
20
-107.5
11
398
21
-121.5
0
LINE
8
0
10
398
20
-103.75
11
412
21
-103.75
0
LINE
8
0
10
412
20
-103.75
11
412
21
-89.75
0
LINE
8
0
10
412
20
-89.75
11
398
21
-89.75
0
LINE
8
0
10
398
20
-89.75
11
398
21
-103.75
0
LINE
8
0
10
398
20
-86
11
412
21
-86
0
LINE
8
0
10
412
20
-86
11
412
21
-72
0
LINE
8
0
10
412
20
-72
11
398
21
-72
0
LINE
8
0
10
398
20
-72
11
398
21
-86
0
LINE
8
0
10
379.25
20
-139.25
11
393.25
21
-139.25
0
LINE
8
0
10
393.25
20
-139.25
11
393.25
21
-125.25
0
LINE
8
0
10
393.25
20
-125.25
11
379.25
21
-125.25
0
LINE
8
0
10
379.25
20
-125.25
11
379.25
21
-139.25
0
LINE
8
0
10
379.25
20
-121.5
11
393.25
21
-121.5
0
LINE
8
0
10
393.25
20
-121.5
11
393.25
21
-107.5
0
LINE
8
0
10
393.25
20
-107.5
11
379.25
21
-107.5
0
LINE
8
0
10
379.25
20
-107.5
11
379.25
21
-121.5
0
LINE
8
0
10
379.25
20
-103.75
11
393.25
21
-103.75
0
LINE
8
0
10
393.25
20
-103.75
11
393.25
21
-89.75
0
LINE
8
0
10
393.25
20
-89.75
11
379.25
21
-89.75
0
LINE
8
0
10
379.25
20
-89.75
11
379.25
21
-103.75
0
LINE
8
0
10
379.25
20
-86
11
393.25
21
-86
0
LINE
8
0
10
393.25
20
-86
11
393.25
21
-72
0
LINE
8
0
10
393.25
20
-72
11
379.25
21
-72
0
LINE
8
0
10
379.25
20
-72
11
379.25
21
-86
0
LINE
8
0
10
360.5
20
-132.25
11
374.5
21
-132.25
0
LINE
8
0
10
374.5
20
-132.25
11
374.5
21
-118.25
0
LINE
8
0
10
374.5
20
-118.25
11
360.5
21
-118.25
0
LINE
8
0
10
360.5
20
-118.25
11
360.5
21
-132.25
0
LINE
8
0
10
360.5
20
-114.5
11
374.5
21
-114.5
0
LINE
8
0
10
374.5
20
-114.5
11
374.5
21
-100.5
0
LINE
8
0
10
374.5
20
-100.5
11
360.5
21
-100.5
0
LINE
8
0
10
360.5
20
-100.5
11
360.5
21
-114.5
0
LINE
8
0
10
360.5
20
-96.75
11
374.5
21
-96.75
0
LINE
8
0
10
374.5
20
-96.75
11
374.5
21
-82.75
0
LINE
8
0
10
374.5
20
-82.75
11
360.5
21
-82.75
0
LINE
8
0
10
360.5
20
-82.75
11
360.5
21
-96.75
0
LINE
8
0
10
360.5
20
-79
11
374.5
21
-79
0
LINE
8
0
10
374.5
20
-79
11
374.5
21
-65
0
LINE
8
0
10
374.5
20
-65
11
360.5
21
-65
0
LINE
8
0
10
360.5
20
-65
11
360.5
21
-79
0
LINE
8
0
10
341.75
20
-145
11
355.75
21
-145
0
LINE
8
0
10
355.75
20
-145
11
355.75
21
-131
0
LINE
8
0
10
355.75
20
-131
11
341.75
21
-131
0
LINE
8
0
10
341.75
20
-131
11
341.75
21
-145
0
LINE
8
0
10
341.75
20
-127.25
11
355.75
21
-127.25
0
LINE
8
0
10
355.75
20
-127.25
11
355.75
21
-113.25
0
LINE
8
0
10
355.75
20
-113.25
11
341.75
21
-113.25
0
LINE
8
0
10
341.75
20
-113.25
11
341.75
21
-127.25
0
LINE
8
0
10
341.75
20
-109.5
11
355.75
21
-109.5
0
LINE
8
0
10
355.75
20
-109.5
11
355.75
21
-95.5
0
LINE
8
0
10
355.75
20
-95.5
11
341.75
21
-95.5
0
LINE
8
0
10
341.75
20
-95.5
11
341.75
21
-109.5
0
LINE
8
0
10
341.75
20
-91.75
11
355.75
21
-91.75
0
LINE
8
0
10
355.75
20
-91.75
11
355.75
21
-77.75
0
LINE
8
0
10
355.75
20
-77.75
11
341.75
21
-77.75
0
LINE
8
0
10
341.75
20
-77.75
11
341.75
21
-91.75
0
LINE
8
0
10
341.75
20
-74
11
355.75
21
-74
0
LINE
8
0
10
355.75
20
-74
11
355.75
21
-60
0
LINE
8
0
10
355.75
20
-60
11
341.75
21
-60
0
LINE
8
0
10
341.75
20
-60
11
341.75
21
-74
0
LINE
8
0
10
323
20
-151
11
337
21
-151
0
LINE
8
0
10
337
20
-151
11
337
21
-137
0
LINE
8
0
10
337
20
-137
11
323
21
-137
0
LINE
8
0
10
323
20
-137
11
323
21
-151
0
LINE
8
0
10
323
20
-133.25
11
337
21
-133.25
0
LINE
8
0
10
337
20
-133.25
11
337
21
-119.25
0
LINE
8
0
10
337
20
-119.25
11
323
21
-119.25
0
LINE
8
0
10
323
20
-119.25
11
323
21
-133.25
0
LINE
8
0
10
323
20
-115.5
11
337
21
-115.5
0
LINE
8
0
10
337
20
-115.5
11
337
21
-101.5
0
LINE
8
0
10
337
20
-101.5
11
323
21
-101.5
0
LINE
8
0
10
323
20
-101.5
11
323
21
-115.5
0
LINE
8
0
10
323
20
-97.75
11
337
21
-97.75
0
LINE
8
0
10
337
20
-97.75
11
337
21
-83.75
0
LINE
8
0
10
337
20
-83.75
11
323
21
-83.75
0
LINE
8
0
10
323
20
-83.75
11
323
21
-97.75
0
LINE
8
0
10
323
20
-80
11
337
21
-80
0
LINE
8
0
10
337
20
-80
11
337
21
-66
0
LINE
8
0
10
337
20
-66
11
323
21
-66
0
LINE
8
0
10
323
20
-66
11
323
21
-80
0
LINE
8
0
10
304.25
20
-136.25
11
318.25
21
-136.25
0
LINE
8
0
10
318.25
20
-136.25
11
318.25
21
-122.25
0
LINE
8
0
10
318.25
20
-122.25
11
304.25
21
-122.25
0
LINE
8
0
10
304.25
20
-122.25
11
304.25
21
-136.25
0
LINE
8
0
10
304.25
20
-118.5
11
318.25
21
-118.5
0
LINE
8
0
10
318.25
20
-118.5
11
318.25
21
-104.5
0
LINE
8
0
10
318.25
20
-104.5
11
304.25
21
-104.5
0
LINE
8
0
10
304.25
20
-104.5
11
304.25
21
-118.5
0
LINE
8
0
10
304.25
20
-100.75
11
318.25
21
-100.75
0
LINE
8
0
10
318.25
20
-100.75
11
318.25
21
-86.75
0
LINE
8
0
10
318.25
20
-86.75
11
304.25
21
-86.75
0
LINE
8
0
10
304.25
20
-86.75
11
304.25
21
-100.75
0
LINE
8
0
10
304.25
20
-83
11
318.25
21
-83
0
LINE
8
0
10
318.25
20
-83
11
318.25
21
-69
0
LINE
8
0
10
318.25
20
-69
11
304.25
21
-69
0
LINE
8
0
10
304.25
20
-69
11
304.25
21
-83
0
LINE
8
0
10
285.5
20
-132.25
11
299.5
21
-132.25
0
LINE
8
0
10
299.5
20
-132.25
11
299.5
21
-118.25
0
LINE
8
0
10
299.5
20
-118.25
11
285.5
21
-118.25
0
LINE
8
0
10
285.5
20
-118.25
11
285.5
21
-132.25
0
LINE
8
0
10
285.5
20
-114.5
11
299.5
21
-114.5
0
LINE
8
0
10
299.5
20
-114.5
11
299.5
21
-100.5
0
LINE
8
0
10
299.5
20
-100.5
11
285.5
21
-100.5
0
LINE
8
0
10
285.5
20
-100.5
11
285.5
21
-114.5
0
LINE
8
0
10
285.5
20
-96.75
11
299.5
21
-96.75
0
LINE
8
0
10
299.5
20
-96.75
11
299.5
21
-82.75
0
LINE
8
0
10
299.5
20
-82.75
11
285.5
21
-82.75
0
LINE
8
0
10
285.5
20
-82.75
11
285.5
21
-96.75
0
LINE
8
0
10
304.089746
20
-167.3121778
11
316.2141016
21
-160.3121778
0
LINE
8
0
10
316.2141016
20
-160.3121778
11
309.2141016
21
-148.1878222
0
LINE
8
0
10
309.2141016
20
-148.1878222
11
297.089746
21
-155.1878222
0
LINE
8
0
10
297.089746
20
-155.1878222
11
304.089746
21
-167.3121778
0
LINE
8
0
10
277.817443
20
-161.4072142
11
284.817443
21
-173.5315698
0
LINE
8
0
10
284.817443
20
-173.5315698
11
296.9417986
21
-166.5315698
0
LINE
8
0
10
296.9417986
20
-166.5315698
11
289.9417986
21
-154.4072142
0
LINE
8
0
10
289.9417986
20
-154.4072142
11
277.817443
21
-161.4072142
0
LINE
8
0
10
260.67014
20
-171.3072142
11
267.67014
21
-183.4315698
0
LINE
8
0
10
267.67014
20
-183.4315698
11
279.7944956
21
-176.4315698
0
LINE
8
0
10
279.7944956
20
-176.4315698
11
272.7944956
21
-164.3072142
0
LINE
8
0
10
272.7944956
20
-164.3072142
11
260.67014
21
-171.3072142
0
ENDSEC
0
EOF