0
SECTION
2
HEADER
9
$INSUNITS
70
4
0
ENDSEC
0
SECTION
2
TABLES
0
TABLE
2
LTYPE
0
LTYPE
72
65
70
64
2
CONTINUOUS
3
______
73
0
40
0
0
ENDTAB
0
TABLE
2
LAYER
0
ENDTAB
0
ENDSEC
0
SECTION
2
ENTITIES
0
LINE
8
0
10
85
20
-146.9377044
11
85
21
-66.5
0
LINE
8
0
10
85
20
-66.5
11
123.9528389
21
-66.5
0
LINE
8
0
10
125.9414572
20
-64.7130662
11
126.3085428
21
-61.2869338
0
LINE
8
0
10
128.2971611
20
-59.5
11
142.7776252
21
-59.5
0
LINE
8
0
10
144.7554979
20
-57.796681
11
144.9945021
21
-56.203319
0
LINE
8
0
10
146.9723748
20
-54.5
11
165.4844355
21
-54.5
0
LINE
8
0
10
167.4689913
20
-56.2519306
11
167.7810087
21
-58.7480694
0
LINE
8
0
10
169.7655645
20
-60.5
11
184.4384977
21
-60.5
0
LINE
8
0
10
186.3787674
20
-62.0148678
11
186.7501
21
-63.5
0
LINE
8
0
10
186.7501
20
-63.5
11
202.8561179
21
-63.5
0
LINE
8
0
10
204.8531493
20
-65.391071
11
205.3968507
21
-75.358929
0
LINE
8
0
10
207.3938821
20
-77.25
11
254.5
21
-77.25
0
LINE
8
0
10
256.5
20
-79.25
11
256.5
21
-135.3891902
0
LINE
8
0
10
256.6260802
20
-136.088064
11
263.3909541
21
-154.2270034
0
LINE
8
0
10
263.3418392
20
-155.7444657
11
260.0988521
21
-162.9737621
0
LINE
8
0
10
260.006098
20
-163.1551737
11
240.5571014
21
-196.8418239
0
LINE
8
0
10
237.8250506
20
-197.5738747
11
216.2717709
21
-185.1300829
0
LINE
8
0
10
216.0713735
20
-185.0289301
11
155.3321367
21
-158.5358262
0
LINE
8
0
10
155.1649897
20
-158.4716632
11
143.4627804
21
-154.5709268
0
LINE
8
0
10
143.0267948
20
-154.4779669
11
86.80353
21
-148.9280309
0
ARC
8
0
10
123.9528389
20
-64.5
40
2
50
270
51
353.8844981
0
ARC
8
0
10
128.2971611
20
-61.5
40
2
50
90
51
173.8844981
0
ARC
8
0
10
142.7776252
20
-57.5
40
2
50
270
51
351.4692321
0
ARC
8
0
10
146.9723748
20
-56.5
40
2
50
90
51
171.4692321
0
ARC
8
0
10
165.4844355
20
-56.5
40
2
50
7.1250142
51
90
0
ARC
8
0
10
169.7655645
20
-58.5
40
2
50
187.1250142
51
270
0
ARC
8
0
10
184.4384977
20
-62.5
40
2
50
14.038043
51
90
0
ARC
8
0
10
202.8561179
20
-65.5
40
2
50
3.1221309
51
90
0
ARC
8
0
10
207.3938821
20
-75.25
40
2
50
183.1221309
51
270
0
ARC
8
0
10
254.5
20
-79.25
40
2
50
0
51
90
0
ARC
8
0
10
258.5
20
-135.3891902
40
2
50
180
51
200.4528773
0
ARC
8
0
10
261.5170343
20
-154.9258772
40
2
50
335.8394932
51
20.4528773
0
ARC
8
0
10
258.2740472
20
-162.1551737
40
2
50
329.9999999
51
335.8394932
0
ARC
8
0
10
238.8250506
20
-195.8418239
40
2
50
239.9999999
51
329.9999999
0
ARC
8
0
10
215.2717709
20
-186.8621337
40
2
50
59.9999999
51
66.4342419
0
ARC
8
0
10
154.5325341
20
-160.3690298
40
2
50
66.4342419
51
71.5650494
0
ARC
8
0
10
142.8303248
20
-156.4682934
40
2
50
71.5650494
51
84.3624568
0
ARC
8
0
10
87
20
-146.9377044
40
2
50
180
51
264.3624568
0
LINE
8
0
10
93
20
-139.25
11
107
21
-139.25
0
LINE
8
0
10
107
20
-139.25
11
107
21
-125.25
0
LINE
8
0
10
107
20
-125.25
11
93
21
-125.25
0
LINE
8
0
10
93
20
-125.25
11
93
21
-139.25
0
LINE
8
0
10
93
20
-121.5
11
107
21
-121.5
0
LINE
8
0
10
107
20
-121.5
11
107
21
-107.5
0
LINE
8
0
10
107
20
-107.5
11
93
21
-107.5
0
LINE
8
0
10
93
20
-107.5
11
93
21
-121.5
0
LINE
8
0
10
93
20
-103.75
11
107
21
-103.75
0
LINE
8
0
10
107
20
-103.75
11
107
21
-89.75
0
LINE
8
0
10
107
20
-89.75
11
93
21
-89.75
0
LINE
8
0
10
93
20
-89.75
11
93
21
-103.75
0
LINE
8
0
10
93
20
-86
11
107
21
-86
0
LINE
8
0
10
107
20
-86
11
107
21
-72
0
LINE
8
0
10
107
20
-72
11
93
21
-72
0
LINE
8
0
10
93
20
-72
11
93
21
-86
0
LINE
8
0
10
111.75
20
-139.25
11
125.75
21
-139.25
0
LINE
8
0
10
125.75
20
-139.25
11
125.75
21
-125.25
0
LINE
8
0
10
125.75
20
-125.25
11
111.75
21
-125.25
0
LINE
8
0
10
111.75
20
-125.25
11
111.75
21
-139.25
0
LINE
8
0
10
111.75
20
-121.5
11
125.75
21
-121.5
0
LINE
8
0
10
125.75
20
-121.5
11
125.75
21
-107.5
0
LINE
8
0
10
125.75
20
-107.5
11
111.75
21
-107.5
0
LINE
8
0
10
111.75
20
-107.5
11
111.75
21
-121.5
0
LINE
8
0
10
111.75
20
-103.75
11
125.75
21
-103.75
0
LINE
8
0
10
125.75
20
-103.75
11
125.75
21
-89.75
0
LINE
8
0
10
125.75
20
-89.75
11
111.75
21
-89.75
0
LINE
8
0
10
111.75
20
-89.75
11
111.75
21
-103.75
0
LINE
8
0
10
111.75
20
-86
11
125.75
21
-86
0
LINE
8
0
10
125.75
20
-86
11
125.75
21
-72
0
LINE
8
0
10
125.75
20
-72
11
111.75
21
-72
0
LINE
8
0
10
111.75
20
-72
11
111.75
21
-86
0
LINE
8
0
10
130.5
20
-132.25
11
144.5
21
-132.25
0
LINE
8
0
10
144.5
20
-132.25
11
144.5
21
-118.25
0
LINE
8
0
10
144.5
20
-118.25
11
130.5
21
-118.25
0
LINE
8
0
10
130.5
20
-118.25
11
130.5
21
-132.25
0
LINE
8
0
10
130.5
20
-114.5
11
144.5
21
-114.5
0
LINE
8
0
10
144.5
20
-114.5
11
144.5
21
-100.5
0
LINE
8
0
10
144.5
20
-100.5
11
130.5
21
-100.5
0
LINE
8
0
10
130.5
20
-100.5
11
130.5
21
-114.5
0
LINE
8
0
10
130.5
20
-96.75
11
144.5
21
-96.75
0
LINE
8
0
10
144.5
20
-96.75
11
144.5
21
-82.75
0
LINE
8
0
10
144.5
20
-82.75
11
130.5
21
-82.75
0
LINE
8
0
10
130.5
20
-82.75
11
130.5
21
-96.75
0
LINE
8
0
10
130.5
20
-79
11
144.5
21
-79
0
LINE
8
0
10
144.5
20
-79
11
144.5
21
-65
0
LINE
8
0
10
144.5
20
-65
11
130.5
21
-65
0
LINE
8
0
10
130.5
20
-65
11
130.5
21
-79
0
LINE
8
0
10
149.25
20
-145
11
163.25
21
-145
0
LINE
8
0
10
163.25
20
-145
11
163.25
21
-131
0
LINE
8
0
10
163.25
20
-131
11
149.25
21
-131
0
LINE
8
0
10
149.25
20
-131
11
149.25
21
-145
0
LINE
8
0
10
149.25
20
-127.25
11
163.25
21
-127.25
0
LINE
8
0
10
163.25
20
-127.25
11
163.25
21
-113.25
0
LINE
8
0
10
163.25
20
-113.25
11
149.25
21
-113.25
0
LINE
8
0
10
149.25
20
-113.25
11
149.25
21
-127.25
0
LINE
8
0
10
149.25
20
-109.5
11
163.25
21
-109.5
0
LINE
8
0
10
163.25
20
-109.5
11
163.25
21
-95.5
0
LINE
8
0
10
163.25
20
-95.5
11
149.25
21
-95.5
0
LINE
8
0
10
149.25
20
-95.5
11
149.25
21
-109.5
0
LINE
8
0
10
149.25
20
-91.75
11
163.25
21
-91.75
0
LINE
8
0
10
163.25
20
-91.75
11
163.25
21
-77.75
0
LINE
8
0
10
163.25
20
-77.75
11
149.25
21
-77.75
0
LINE
8
0
10
149.25
20
-77.75
11
149.25
21
-91.75
0
LINE
8
0
10
149.25
20
-74
11
163.25
21
-74
0
LINE
8
0
10
163.25
20
-74
11
163.25
21
-60
0
LINE
8
0
10
163.25
20
-60
11
149.25
21
-60
0
LINE
8
0
10
149.25
20
-60
11
149.25
21
-74
0
LINE
8
0
10
168
20
-151
11
182
21
-151
0
LINE
8
0
10
182
20
-151
11
182
21
-137
0
LINE
8
0
10
182
20
-137
11
168
21
-137
0
LINE
8
0
10
168
20
-137
11
168
21
-151
0
LINE
8
0
10
168
20
-133.25
11
182
21
-133.25
0
LINE
8
0
10
182
20
-133.25
11
182
21
-119.25
0
LINE
8
0
10
182
20
-119.25
11
168
21
-119.25
0
LINE
8
0
10
168
20
-119.25
11
168
21
-133.25
0
LINE
8
0
10
168
20
-115.5
11
182
21
-115.5
0
LINE
8
0
10
182
20
-115.5
11
182
21
-101.5
0
LINE
8
0
10
182
20
-101.5
11
168
21
-101.5
0
LINE
8
0
10
168
20
-101.5
11
168
21
-115.5
0
LINE
8
0
10
168
20
-97.75
11
182
21
-97.75
0
LINE
8
0
10
182
20
-97.75
11
182
21
-83.75
0
LINE
8
0
10
182
20
-83.75
11
168
21
-83.75
0
LINE
8
0
10
168
20
-83.75
11
168
21
-97.75
0
LINE
8
0
10
168
20
-80
11
182
21
-80
0
LINE
8
0
10
182
20
-80
11
182
21
-66
0
LINE
8
0
10
182
20
-66
11
168
21
-66
0
LINE
8
0
10
168
20
-66
11
168
21
-80
0
LINE
8
0
10
186.75
20
-136.25
11
200.75
21
-136.25
0
LINE
8
0
10
200.75
20
-136.25
11
200.75
21
-122.25
0
LINE
8
0
10
200.75
20
-122.25
11
186.75
21
-122.25
0
LINE
8
0
10
186.75
20
-122.25
11
186.75
21
-136.25
0
LINE
8
0
10
186.75
20
-118.5
11
200.75
21
-118.5
0
LINE
8
0
10
200.75
20
-118.5
11
200.75
21
-104.5
0
LINE
8
0
10
200.75
20
-104.5
11
186.75
21
-104.5
0
LINE
8
0
10
186.75
20
-104.5
11
186.75
21
-118.5
0
LINE
8
0
10
186.75
20
-100.75
11
200.75
21
-100.75
0
LINE
8
0
10
200.75
20
-100.75
11
200.75
21
-86.75
0
LINE
8
0
10
200.75
20
-86.75
11
186.75
21
-86.75
0
LINE
8
0
10
186.75
20
-86.75
11
186.75
21
-100.75
0
LINE
8
0
10
186.75
20
-83
11
200.75
21
-83
0
LINE
8
0
10
200.75
20
-83
11
200.75
21
-69
0
LINE
8
0
10
200.75
20
-69
11
186.75
21
-69
0
LINE
8
0
10
186.75
20
-69
11
186.75
21
-83
0
LINE
8
0
10
205.5
20
-132.25
11
219.5
21
-132.25
0
LINE
8
0
10
219.5
20
-132.25
11
219.5
21
-118.25
0
LINE
8
0
10
219.5
20
-118.25
11
205.5
21
-118.25
0
LINE
8
0
10
205.5
20
-118.25
11
205.5
21
-132.25
0
LINE
8
0
10
205.5
20
-114.5
11
219.5
21
-114.5
0
LINE
8
0
10
219.5
20
-114.5
11
219.5
21
-100.5
0
LINE
8
0
10
219.5
20
-100.5
11
205.5
21
-100.5
0
LINE
8
0
10
205.5
20
-100.5
11
205.5
21
-114.5
0
LINE
8
0
10
205.5
20
-96.75
11
219.5
21
-96.75
0
LINE
8
0
10
219.5
20
-96.75
11
219.5
21
-82.75
0
LINE
8
0
10
219.5
20
-82.75
11
205.5
21
-82.75
0
LINE
8
0
10
205.5
20
-82.75
11
205.5
21
-96.75
0
LINE
8
0
10
188.7858984
20
-160.3121778
11
200.910254
21
-167.3121778
0
LINE
8
0
10
200.910254
20
-167.3121778
11
207.910254
21
-155.1878222
0
LINE
8
0
10
207.910254
20
-155.1878222
11
195.7858984
21
-148.1878222
0
LINE
8
0
10
195.7858984
20
-148.1878222
11
188.7858984
21
-160.3121778
0
LINE
8
0
10
220.182557
20
-173.5315698
11
227.182557
21
-161.4072142
0
LINE
8
0
10
227.182557
20
-161.4072142
11
215.0582014
21
-154.4072142
0
LINE
8
0
10
215.0582014
20
-154.4072142
11
208.0582014
21
-166.5315698
0
LINE
8
0
10
208.0582014
20
-166.5315698
11
220.182557
21
-173.5315698
0
LINE
8
0
10
237.32986
20
-183.4315698
11
244.32986
21
-171.3072142
0
LINE
8
0
10
244.32986
20
-171.3072142
11
232.2055044
21
-164.3072142
0
LINE
8
0
10
232.2055044
20
-164.3072142
11
225.2055044
21
-176.4315698
0
LINE
8
0
10
225.2055044
20
-176.4315698
11
237.32986
21
-183.4315698
0
ENDSEC
0
EOF