<svg width="178.517mm" height="143.342mm" viewBox="0 0 178.517 143.342" xmlns="http://www.w3.org/2000/svg"><g id="svgGroup" stroke-linecap="round" fill-rule="evenodd" font-size="9pt" stroke="#000" stroke-width="0.25mm" fill="none" style="stroke:#000;stroke-width:0.25mm;fill:none"><path d="M 0 92.438 L 0 12 L 38.953 12 A 2 2 0 0 0 40.941 10.213 L 41.309 6.787 A 2 2 0 0 1 43.297 5 L 57.778 5 A 2 2 0 0 0 59.755 3.297 L 59.995 1.703 A 2 2 0 0 1 61.972 0 L 80.484 0 A 2 2 0 0 1 82.469 1.752 L 82.781 4.248 A 2 2 0 0 0 84.766 6 L 99.438 6 A 2 2 0 0 1 101.379 7.515 L 101.75 9 L 117.856 9 A 2 2 0 0 1 119.853 10.891 L 120.397 20.859 A 2 2 0 0 0 122.394 22.75 L 169.5 22.75 A 2 2 0 0 1 171.5 24.75 L 171.5 80.889 A 2 2 0 0 0 171.626 81.588 L 178.391 99.727 A 2 2 0 0 1 178.342 101.244 L 175.099 108.474 A 2 2 0 0 1 175.006 108.655 L 155.557 142.342 A 2 2 0 0 1 152.825 143.074 L 131.272 130.63 A 2 2 0 0 0 131.071 130.529 L 70.332 104.036 A 2 2 0 0 0 70.165 103.972 L 58.463 100.071 A 2 2 0 0 0 58.027 99.978 L 1.804 94.428 A 2 2 0 0 1 0 92.438 Z M 8 84.75 L 22 84.75 L 22 70.75 L 8 70.75 L 8 84.75 Z M 8 67 L 22 67 L 22 53 L 8 53 L 8 67 Z M 8 49.25 L 22 49.25 L 22 35.25 L 8 35.25 L 8 49.25 Z M 8 31.5 L 22 31.5 L 22 17.5 L 8 17.5 L 8 31.5 Z M 26.75 84.75 L 40.75 84.75 L 40.75 70.75 L 26.75 70.75 L 26.75 84.75 Z M 26.75 67 L 40.75 67 L 40.75 53 L 26.75 53 L 26.75 67 Z M 26.75 49.25 L 40.75 49.25 L 40.75 35.25 L 26.75 35.25 L 26.75 49.25 Z M 26.75 31.5 L 40.75 31.5 L 40.75 17.5 L 26.75 17.5 L 26.75 31.5 Z M 45.5 77.75 L 59.5 77.75 L 59.5 63.75 L 45.5 63.75 L 45.5 77.75 Z M 45.5 60 L 59.5 60 L 59.5 46 L 45.5 46 L 45.5 60 Z M 45.5 42.25 L 59.5 42.25 L 59.5 28.25 L 45.5 28.25 L 45.5 42.25 Z M 45.5 24.5 L 59.5 24.5 L 59.5 10.5 L 45.5 10.5 L 45.5 24.5 Z M 64.25 90.5 L 78.25 90.5 L 78.25 76.5 L 64.25 76.5 L 64.25 90.5 Z M 64.25 72.75 L 78.25 72.75 L 78.25 58.75 L 64.25 58.75 L 64.25 72.75 Z M 64.25 55 L 78.25 55 L 78.25 41 L 64.25 41 L 64.25 55 Z M 64.25 37.25 L 78.25 37.25 L 78.25 23.25 L 64.25 23.25 L 64.25 37.25 Z M 64.25 19.5 L 78.25 19.5 L 78.25 5.5 L 64.25 5.5 L 64.25 19.5 Z M 83 96.5 L 97 96.5 L 97 82.5 L 83 82.5 L 83 96.5 Z M 83 78.75 L 97 78.75 L 97 64.75 L 83 64.75 L 83 78.75 Z M 83 61 L 97 61 L 97 47 L 83 47 L 83 61 Z M 83 43.25 L 97 43.25 L 97 29.25 L 83 29.25 L 83 43.25 Z M 83 25.5 L 97 25.5 L 97 11.5 L 83 11.5 L 83 25.5 Z M 101.75 81.75 L 115.75 81.75 L 115.75 67.75 L 101.75 67.75 L 101.75 81.75 Z M 101.75 64 L 115.75 64 L 115.75 50 L 101.75 50 L 101.75 64 Z M 101.75 46.25 L 115.75 46.25 L 115.75 32.25 L 101.75 32.25 L 101.75 46.25 Z M 101.75 28.5 L 115.75 28.5 L 115.75 14.5 L 101.75 14.5 L 101.75 28.5 Z M 120.5 77.75 L 134.5 77.75 L 134.5 63.75 L 120.5 63.75 L 120.5 77.75 Z M 120.5 60 L 134.5 60 L 134.5 46 L 120.5 46 L 120.5 60 Z M 120.5 42.25 L 134.5 42.25 L 134.5 28.25 L 120.5 28.25 L 120.5 42.25 Z M 103.786 105.812 L 115.91 112.812 L 122.91 100.688 L 110.786 93.688 L 103.786 105.812 Z M 135.183 119.032 L 142.183 106.907 L 130.058 99.907 L 123.058 112.032 L 135.183 119.032 Z M 152.33 128.932 L 159.33 116.807 L 147.206 109.807 L 140.206 121.932 L 152.33 128.932 Z" vector-effect="non-scaling-stroke"/></g></svg>