<svg width="178.517mm" height="143.342mm" viewBox="0 0 178.517 143.342" xmlns="http://www.w3.org/2000/svg"><g id="svgGroup" stroke-linecap="round" fill-rule="evenodd" font-size="9pt" stroke="#000" stroke-width="0.25mm" fill="none" style="stroke:#000;stroke-width:0.25mm;fill:none"><path d="M 178.517 92.438 L 178.517 12 L 139.564 12 A 2 2 0 0 1 137.576 10.213 L 137.208 6.787 A 2 2 0 0 0 135.22 5 L 120.739 5 A 2 2 0 0 1 118.762 3.297 L 118.523 1.703 A 2 2 0 0 0 116.545 0 L 98.033 0 A 2 2 0 0 0 96.048 1.752 L 95.736 4.248 A 2 2 0 0 1 93.751 6 L 79.079 6 A 2 2 0 0 0 77.138 7.515 L 76.767 9 L 60.661 9 A 2 2 0 0 0 58.664 10.891 L 58.12 20.859 A 2 2 0 0 1 56.123 22.75 L 9.017 22.75 A 2 2 0 0 0 7.017 24.75 L 7.017 80.889 A 2 2 0 0 1 6.891 81.588 L 0.126 99.727 A 2 2 0 0 0 0.175 101.244 L 3.418 108.474 A 2 2 0 0 0 3.511 108.655 L 22.96 142.342 A 2 2 0 0 0 25.692 143.074 L 47.245 130.63 A 2 2 0 0 1 47.446 130.529 L 108.185 104.036 A 2 2 0 0 1 108.352 103.972 L 120.054 100.071 A 2 2 0 0 1 120.49 99.978 L 176.714 94.428 A 2 2 0 0 0 178.517 92.438 Z M 156.517 84.75 L 170.517 84.75 L 170.517 70.75 L 156.517 70.75 L 156.517 84.75 Z M 156.517 67 L 170.517 67 L 170.517 53 L 156.517 53 L 156.517 67 Z M 156.517 49.25 L 170.517 49.25 L 170.517 35.25 L 156.517 35.25 L 156.517 49.25 Z M 156.517 31.5 L 170.517 31.5 L 170.517 17.5 L 156.517 17.5 L 156.517 31.5 Z M 137.767 84.75 L 151.767 84.75 L 151.767 70.75 L 137.767 70.75 L 137.767 84.75 Z M 137.767 67 L 151.767 67 L 151.767 53 L 137.767 53 L 137.767 67 Z M 137.767 49.25 L 151.767 49.25 L 151.767 35.25 L 137.767 35.25 L 137.767 49.25 Z M 137.767 31.5 L 151.767 31.5 L 151.767 17.5 L 137.767 17.5 L 137.767 31.5 Z M 119.017 77.75 L 133.017 77.75 L 133.017 63.75 L 119.017 63.75 L 119.017 77.75 Z M 119.017 60 L 133.017 60 L 133.017 46 L 119.017 46 L 119.017 60 Z M 119.017 42.25 L 133.017 42.25 L 133.017 28.25 L 119.017 28.25 L 119.017 42.25 Z M 119.017 24.5 L 133.017 24.5 L 133.017 10.5 L 119.017 10.5 L 119.017 24.5 Z M 100.267 90.5 L 114.267 90.5 L 114.267 76.5 L 100.267 76.5 L 100.267 90.5 Z M 100.267 72.75 L 114.267 72.75 L 114.267 58.75 L 100.267 58.75 L 100.267 72.75 Z M 100.267 55 L 114.267 55 L 114.267 41 L 100.267 41 L 100.267 55 Z M 100.267 37.25 L 114.267 37.25 L 114.267 23.25 L 100.267 23.25 L 100.267 37.25 Z M 100.267 19.5 L 114.267 19.5 L 114.267 5.5 L 100.267 5.5 L 100.267 19.5 Z M 81.517 96.5 L 95.517 96.5 L 95.517 82.5 L 81.517 82.5 L 81.517 96.5 Z M 81.517 78.75 L 95.517 78.75 L 95.517 64.75 L 81.517 64.75 L 81.517 78.75 Z M 81.517 61 L 95.517 61 L 95.517 47 L 81.517 47 L 81.517 61 Z M 81.517 43.25 L 95.517 43.25 L 95.517 29.25 L 81.517 29.25 L 81.517 43.25 Z M 81.517 25.5 L 95.517 25.5 L 95.517 11.5 L 81.517 11.5 L 81.517 25.5 Z M 62.767 81.75 L 76.767 81.75 L 76.767 67.75 L 62.767 67.75 L 62.767 81.75 Z M 62.767 64 L 76.767 64 L 76.767 50 L 62.767 50 L 62.767 64 Z M 62.767 46.25 L 76.767 46.25 L 76.767 32.25 L 62.767 32.25 L 62.767 46.25 Z M 62.767 28.5 L 76.767 28.5 L 76.767 14.5 L 62.767 14.5 L 62.767 28.5 Z M 44.017 77.75 L 58.017 77.75 L 58.017 63.75 L 44.017 63.75 L 44.017 77.75 Z M 44.017 60 L 58.017 60 L 58.017 46 L 44.017 46 L 44.017 60 Z M 44.017 42.25 L 58.017 42.25 L 58.017 28.25 L 44.017 28.25 L 44.017 42.25 Z M 62.607 112.812 L 74.731 105.812 L 67.731 93.688 L 55.607 100.688 L 62.607 112.812 Z M 36.334 106.907 L 43.334 119.032 L 55.459 112.032 L 48.459 99.907 L 36.334 106.907 Z M 19.187 116.807 L 26.187 128.932 L 38.312 121.932 L 31.312 109.807 L 19.187 116.807 Z" vector-effect="non-scaling-stroke"/></g></svg>