<?xml version="1.0" encoding="UTF-8" standalone="no"?>
<!-- Created with Inkscape (http://www.inkscape.org/) -->

<svg
   width="77.55899mm"
   height="97.419083mm"
   viewBox="0 0 77.55899 97.419083"
   version="1.1"
   id="svg1"
   xml:space="preserve"
   xmlns:inkscape="http://www.inkscape.org/namespaces/inkscape"
   xmlns:sodipodi="http://sodipodi.sourceforge.net/DTD/sodipodi-0.dtd"
   xmlns="http://www.w3.org/2000/svg"
   xmlns:svg="http://www.w3.org/2000/svg"><sodipodi:namedview
     id="namedview1"
     pagecolor="#ffffff"
     bordercolor="#999999"
     borderopacity="1"
     inkscape:showpageshadow="0"
     inkscape:pageopacity="0"
     inkscape:pagecheckerboard="0"
     inkscape:deskcolor="#d1d1d1"
     inkscape:document-units="mm" /><defs
     id="defs1" /><g
     inkscape:label="Layer 1"
     inkscape:groupmode="layer"
     id="layer1"
     transform="translate(-60.392713,-93.842603)"><path
       id="path1"
       style="fill:#000000;stroke-width:0.205643"
       d="m 99.093714,93.862493 c -0.34498,0.322646 -0.816298,0.890756 -0.884698,1.066085 -0.50415,1.293209 -0.90722,2.078286 -1.3131,2.687691 -0.73889,1.110057 -1.15053,1.131308 -3.14244,0.16123 -2.94113,-1.432366 -4.75371,-1.805658 -6.42183,-1.3224 -0.84124,0.24371 -0.45092,0.61999 0.9462,0.912089 0.71036,0.14851 0.74573,0.160718 1.75854,0.604098 2.40504,1.052848 3.43945,2.224364 2.91714,3.304704 -0.10553,0.21825 -0.0828,0.20892 -0.49454,0.20826 -0.46846,-7.6e-4 -0.77772,-0.0507 -1.68052,-0.2713 -0.27422,-0.067 -0.55312,-0.1335 -0.62012,-0.14779 -0.33655,-0.0716 -1.77772,-0.29785 -2.4815,-0.38965 -0.22504,-0.0294 -0.45565,-0.0608 -0.51315,-0.0698 -0.51146,-0.0786 -2.00307,-0.21478 -2.89905,-0.26459 -0.51868,-0.0288 -2.1377,-0.0287 -2.56832,0 -0.39366,0.0263 -0.86444,0.0683 -1.00975,0.0904 -0.16663,0.0253 -0.51496,0.0497 -1.12293,0.0785 -1.43117,0.0679 -2.28838,0.25199 -2.20348,0.47335 0.005,0.0139 0.01,0.036 0.01,0.0491 0,0.0509 0.37028,0.18135 0.80977,0.28527 0.28935,0.0684 0.72262,0.1456 2.11511,0.37619 2.60307,0.43107 3.58809,0.88751 3.61839,1.67742 0.013,0.33856 -0.11651,0.37676 -1.33739,0.39326 -0.42465,0.006 -0.74993,0.0182 -0.8878,0.0346 -0.53747,0.0637 -0.69658,0.0816 -1.09709,0.12299 -2.10242,0.21756 -3.35058,0.51358 -3.69642,0.87591 -0.13611,0.1426 0.25019,0.28336 0.86713,0.31626 0.52502,0.028 0.622,0.0435 1.90635,0.29818 2.2346,0.44309 3.622,0.89726 3.622,1.1865 0,0.16433 -0.77452,0.14327 -1.7415,-0.0475 -0.51571,-0.10169 -1.28187,-0.13526 -2.23707,-0.0977 -3.41106,0.13422 -5.34469,0.95519 -5.51956,2.34405 -0.0326,0.25909 0.14941,0.24644 1.60094,-0.11317 1.39883,-0.34656 1.90882,-0.44189 2.4908,-0.4651 0.73589,-0.0293 1.188,0.16461 1.31568,0.56432 0.28031,0.87743 -0.77572,1.53973 -2.86546,1.79729 -1.50244,0.18518 -2.58302,0.0947 -4.8488,-0.40617 -1.72463,-0.38127 -2.12192,-0.45856 -2.82928,-0.55087 -1.8948,-0.24718 -3.39921,0.0224 -4.7811,0.85731 -1.0054,0.60744 -1.89355,1.9461 -1.70429,2.56832 0.0523,0.17193 0.31612,0.0496 0.62683,-0.29042 0.72644,-0.7949 2.25684,-1.4482 3.45871,-1.4764 0.91769,-0.0215 1.42548,0.0973 3.39927,0.79582 0.13781,0.0488 0.49778,0.16756 0.80047,0.26407 0.30269,0.0965 0.6682,0.21352 0.81184,0.25942 2.26123,0.72311 3.44329,1.00716 4.74751,1.14101 0.24919,0.0256 1.34249,0.0495 1.49397,0.0326 0.0338,-0.004 0.15905,-0.0157 0.27853,-0.0263 0.60198,-0.0534 1.1816,-0.20163 1.78439,-0.45631 1.00723,-0.42555 1.11545,-0.47655 1.39061,-0.65886 1.03104,-0.68311 1.41623,-1.678 1.03405,-2.67012 -0.048,-0.12449 -0.1145,-0.29693 -0.1478,-0.38293 -0.0557,-0.14384 -0.10882,-0.3337 -0.13332,-0.47542 -0.0295,-0.17087 0.35908,-0.0477 0.86919,0.27544 0.68486,0.4338 1.93846,0.7709 2.86391,0.77049 1.61585,-7.3e-4 2.84719,-0.91791 3.5357,-2.63394 0.42309,-1.05453 0.31557,-1.67416 -0.50694,-2.91817 -0.49266,-0.74514 -0.52939,-0.88612 -0.24236,-0.93121 0.80133,-0.12582 3.25795,0.40403 5.81463,1.25418 1.12502,0.37409 1.46291,0.51768 2.29805,0.97566 0.10054,0.0551 0.46902,0.2551 0.81855,0.44441 0.34953,0.1893 0.68768,0.37338 0.75138,0.40928 l 0.11575,0.0656 0.0563,-0.17673 c 0.0566,-0.17659 0.0567,-0.17643 0.0279,-0.48111 -0.0597,-5.00572 -0.0621,-5.00482 0.908472,-5.01572 h 0.292489 c 0.970603,0.0109 0.968183,0.01 0.908483,5.01572 -0.0288,0.30467 -0.0287,0.30451 0.0279,0.4811 l 0.0563,0.17674 0.11575,-0.0656 c 0.0637,-0.0359 0.40185,-0.21999 0.75138,-0.40928 0.34953,-0.18931 0.71802,-0.38932 0.81855,-0.44442 0.83514,-0.45798 1.17304,-0.60156 2.29806,-0.97565 2.55667,-0.85016 5.0133,-1.38001 5.81463,-1.25419 0.28703,0.0451 0.2503,0.18608 -0.24236,0.93121 -0.82251,1.24401 -0.93004,1.86364 -0.50695,2.91817 0.68851,1.71604 1.91985,2.63323 3.5357,2.63395 0.92545,4.1e-4 2.17905,-0.3367 2.86391,-0.7705 0.51012,-0.32315 0.8987,-0.4463 0.8692,-0.27543 -0.0245,0.14172 -0.0776,0.33157 -0.13333,0.47542 -0.0333,0.086 -0.0998,0.25843 -0.14779,0.38292 -0.38218,0.99212 0.003,1.98702 1.03404,2.67013 0.27516,0.18232 0.38339,0.23332 1.39062,0.65887 0.60278,0.25467 1.1824,0.4029 1.78438,0.4563 0.11948,0.0106 0.24476,0.0223 0.27854,0.0264 0.15148,0.0169 1.24477,-0.007 1.49396,-0.0326 1.30422,-0.13385 2.48628,-0.41791 4.74752,-1.14101 0.14364,-0.0459 0.50914,-0.16292 0.81183,-0.25942 0.30269,-0.0965 0.66266,-0.21528 0.80047,-0.26408 1.97379,-0.69853 2.48158,-0.81731 3.39928,-0.79581 1.20187,0.0282 2.73226,0.68149 3.4587,1.47639 0.31071,0.34002 0.57454,0.46235 0.62684,0.29043 0.18926,-0.62223 -0.69889,-1.96089 -1.70429,-2.56831 -1.3819,-0.83494 -2.88631,-1.10452 -4.78111,-0.85733 -0.70735,0.0923 -1.10464,0.1696 -2.82928,0.55087 -2.26578,0.50087 -3.34636,0.59136 -4.8488,0.40618 -2.08974,-0.25757 -3.14577,-0.91987 -2.86546,-1.7973 0.12768,-0.3997 0.57979,-0.5936 1.31568,-0.56431 0.58198,0.0232 1.09197,0.11854 2.49081,0.4651 1.45153,0.35961 1.63353,0.37225 1.60093,0.11316 -0.17487,-1.38885 -2.1085,-2.20982 -5.51956,-2.34404 -0.95519,-0.0376 -1.72136,-0.004 -2.23707,0.0977 -0.96698,0.19082 -1.74149,0.21183 -1.74149,0.0475 0,-0.28923 1.38739,-0.7434 3.622,-1.1865 1.28435,-0.25467 1.38132,-0.27016 1.90634,-0.29816 0.61694,-0.0329 1.00324,-0.17366 0.86713,-0.31626 -0.34584,-0.36233 -1.594,-0.65835 -3.69641,-0.87592 -0.40051,-0.0414 -0.55963,-0.0593 -1.09709,-0.12299 -0.13787,-0.0164 -0.46316,-0.0286 -0.88781,-0.0346 -1.22087,-0.0165 -1.35038,-0.0547 -1.33738,-0.39326 0.0303,-0.78989 1.01531,-1.24633 3.61838,-1.6774 1.39249,-0.2306 1.82577,-0.30781 2.11512,-0.37621 0.43949,-0.10391 0.80977,-0.23436 0.80977,-0.28525 0,-0.0131 0.005,-0.0352 0.01,-0.0491 0.0849,-0.22136 -0.77232,-0.40547 -2.20349,-0.47336 -0.60797,-0.0288 -0.9563,-0.0533 -1.12293,-0.0786 -0.14531,-0.0221 -0.61608,-0.0641 -1.00975,-0.0904 -0.43062,-0.0287 -2.04964,-0.0288 -2.56832,0 -0.89598,0.0498 -2.38759,0.18598 -2.89905,0.26458 -0.0575,0.009 -0.28811,0.0404 -0.51315,0.0698 -0.70378,0.0918 -2.14495,0.31803 -2.4815,0.38964 -0.067,0.0143 -0.3459,0.0808 -0.62012,0.14779 -0.90279,0.2206 -1.21205,0.27054 -1.68051,0.2713 -0.41175,6.6e-4 -0.38902,0.01 -0.49455,-0.20826 -0.52231,-1.08034 0.5121,-2.251859 2.91714,-3.304707 1.01282,-0.44338 1.04818,-0.455588 1.75855,-0.604098 1.39712,-0.2921 1.78743,-0.668379 0.94619,-0.912089 -1.66812,-0.483258 -3.4807,-0.109966 -6.42183,1.3224 -1.99191,0.970078 -2.40355,0.948826 -3.14244,-0.16123 -0.47366,-0.711178 -0.8798,-1.576199 -1.3131,-2.687692 -0.0684,-0.175328 -0.53973,-0.743438 -0.88471,-1.066084 -0.02823,-0.0264 -0.128767,-0.02663 -0.157236,3e-6 z M 68.587566,112.39056 c -1.37909,0.10137 -2.00294,0.72119 -2.00194,1.98799 6.2e-4,0.6155 0.146,1.40589 0.3452,1.87585 0.1457,0.34383 0.16611,0.56959 0.0568,0.63769 -0.0212,0.0132 -0.18754,0.11183 -0.36949,0.21911 -0.40256,0.23735 -1.68383,1.47209 -2.07843,2.00298 -1.69154,2.27579 -2.64969,4.56866 -3.15122,7.53907 -0.28656,1.69723 -0.35584,3.10262 -0.18552,3.76825 0.14865,0.58096 0.41066,0.8132 1.10329,0.97771 0.75636,0.17965 0.95823,0.2988 0.82786,0.48938 -0.44776,0.65453 -0.49635,1.90836 -0.0915,2.34766 0.15921,0.17271 0.16038,0.17321 0.7984,0.22531 0.64574,0.0528 0.59534,0.0365 0.57464,0.18345 -0.0149,0.10588 -0.0874,0.72637 -0.27027,2.31149 -0.0423,0.36648 -0.089,0.75843 -0.10335,0.87075 -0.28509,2.21713 -0.26299,4.56543 0.0698,7.44089 0.0718,0.6205 0.13588,1.08625 0.37258,2.71353 0.26578,1.82696 0.3304,2.85905 0.20568,3.2799 -0.0433,0.1462 -0.4582,0.30245 -1.08986,0.41083 -0.65266,0.11198 -0.90778,0.22001 -1.16169,0.49144 -0.89346,0.95513 -0.65152,2.5438 0.56534,3.70985 0.56996,0.54617 1.17871,0.7547 1.98645,0.6811 2.36698,-0.21564 4.55853,-2.41806 5.51594,-5.54334 0.10427,-0.34034 0.19368,-0.68292 0.39429,-1.50636 0.43827,-1.79901 0.77761,-2.48866 1.51567,-3.08457 0.9497,-0.76679 2.93137,-1.03071 4.61367,-0.61392 0.11492,0.0285 0.45193,0.1365 0.74879,0.23978 0.66621,0.23176 0.71021,0.22986 0.64751,-0.0243 -0.049,-0.19842 -0.16309,-0.34782 -0.46457,-0.60874 -0.091,-0.0787 -0.26356,-0.24004 -0.38344,-0.35864 -1.96199,-1.94094 -5.56993,-2.2743 -8.12354,-0.75086 -0.0471,0.0281 -0.16765,0.0963 -0.2682,0.15193 -0.10055,0.0556 -0.23465,0.13103 -0.29765,0.16743 -0.68208,0.39401 -1.29804,0.64734 -1.36684,0.56224 -0.43219,-0.53452 -0.45016,-2.5225 -0.0506,-5.60431 0.28379,-2.18917 0.48732,-3.46412 0.85317,-5.33662 0.0638,-0.32657 0.15535,-0.82447 0.28009,-1.52342 0.2249,-1.26017 1.13016,-2.43299 3.15691,-4.09019 0.49517,-0.40488 0.86915,-0.64882 2.75281,-1.79576 0.0814,-0.0496 0.2147,-0.1313 0.2961,-0.1819 0.0814,-0.0506 0.21419,-0.13272 0.29559,-0.18242 1.19961,-0.73209 1.36361,-0.85236 1.29811,-0.95136 -0.64108,-0.96873 -3.15664,-1.18199 -5.41569,-0.4594 -0.27771,0.0888 -0.63419,0.20228 -0.7922,0.25218 -0.158,0.0499 -0.40672,0.12933 -0.55242,0.17673 -0.34324,0.11165 -0.36731,0.096 -0.58187,-0.37 -0.59516,-1.2926 -1.39897,-1.82835 -2.2469,-1.4981 -0.35635,0.13884 -0.35285,0.13889 -0.43925,0.0362 -0.49362,-0.58664 0.68184,-2.5639 2.51613,-4.2323 0.23603,-0.21468 0.73719,-0.64657 1.25057,-1.07745 0.84696,-0.71087 0.69817,-0.5565 1.21078,-1.25264 0.53683,-0.72902 0.37373,-0.65234 1.22318,-0.57464 1.3479,0.12328 1.8353,0.0336 2.01641,-0.37 0.40861,-0.91048 -1.02522,-1.80061 -2.90886,-1.80661 -0.01,-3e-5 -0.0766,-0.0721 -0.14831,-0.16072 -0.0717,-0.0886 -0.24242,-0.30022 -0.37983,-0.47025 -0.50712,-0.67877 -1.699,-1.37298 -2.56831,-1.32188 z m 61.169404,0 c -0.86931,-0.0511 -2.06119,0.64311 -2.56832,1.32188 -0.13741,0.17003 -0.30812,0.38165 -0.37982,0.47025 -0.0717,0.0886 -0.13831,0.16069 -0.14831,0.16072 -1.88364,0.006 -3.31748,0.89613 -2.90887,1.80661 0.18111,0.40359 0.66852,0.49328 2.01641,0.37 0.84945,-0.0777 0.68636,-0.15438 1.22319,0.57464 0.5126,0.69614 0.36381,0.54177 1.21077,1.25264 0.51338,0.43088 1.01454,0.86277 1.25057,1.07745 1.83429,1.6684 3.00976,3.64566 2.51613,4.2323 -0.0864,0.10272 -0.0829,0.10264 -0.43925,-0.0362 -0.84793,-0.33025 -1.65173,0.2055 -2.24689,1.4981 -0.21456,0.46603 -0.23864,0.48165 -0.58188,0.37 -0.1457,-0.0474 -0.39442,-0.12683 -0.55242,-0.17673 -0.15801,-0.0499 -0.51449,-0.16338 -0.7922,-0.25218 -2.25905,-0.72259 -4.77461,-0.50933 -5.41569,0.4594 -0.0655,0.099 0.0985,0.21927 1.29811,0.95136 0.0814,0.0497 0.21419,0.13182 0.29559,0.18242 0.0814,0.0506 0.21471,0.1323 0.29611,0.1819 1.88366,1.14694 2.25763,1.39088 2.7528,1.79576 2.02675,1.6572 2.93201,2.83002 3.15691,4.09019 0.12474,0.69895 0.21629,1.19685 0.28009,1.52342 0.36585,1.8725 0.56939,3.14745 0.85318,5.33662 0.39951,3.08181 0.38159,5.06979 -0.0506,5.60431 -0.0688,0.0851 -0.68477,-0.16823 -1.36685,-0.56224 -0.063,-0.0364 -0.1971,-0.11183 -0.29765,-0.16743 -0.10055,-0.0556 -0.2211,-0.12383 -0.2682,-0.15193 -2.55361,-1.52344 -6.16155,-1.19008 -8.12354,0.75086 -0.11988,0.1186 -0.29244,0.27994 -0.38344,0.35864 -0.30148,0.26092 -0.41557,0.41032 -0.46457,0.60874 -0.0627,0.25415 -0.0187,0.25606 0.64751,0.0243 0.29686,-0.10328 0.63387,-0.21128 0.74879,-0.23978 1.6823,-0.41679 3.66397,-0.15287 4.61367,0.61392 0.73806,0.59591 1.0774,1.28556 1.51567,3.08457 0.20061,0.82344 0.29002,1.16602 0.39429,1.50636 0.95741,3.12528 3.14896,5.3277 5.51594,5.54334 0.80774,0.0736 1.41649,-0.13493 1.98645,-0.6811 1.21686,-1.16605 1.45881,-2.75472 0.56534,-3.70985 -0.25391,-0.27143 -0.50903,-0.37946 -1.16169,-0.49144 -0.63166,-0.10838 -1.04656,-0.26463 -1.08986,-0.41083 -0.12472,-0.42085 -0.0601,-1.45294 0.20568,-3.2799 0.2367,-1.62728 0.30078,-2.09303 0.37258,-2.71353 0.33275,-2.87546 0.35489,-5.22376 0.0698,-7.44089 -0.0144,-0.11232 -0.0611,-0.50427 -0.10336,-0.87075 -0.18285,-1.58512 -0.25536,-2.20561 -0.27026,-2.31149 -0.0207,-0.14692 -0.0711,-0.13065 0.57464,-0.18345 0.63802,-0.0521 0.63918,-0.0526 0.7984,-0.22531 0.40488,-0.4393 0.35626,-1.69313 -0.0915,-2.34766 -0.13037,-0.19058 0.0715,-0.30973 0.82786,-0.48938 0.69263,-0.16451 0.95464,-0.39675 1.10329,-0.97771 0.17032,-0.66563 0.10104,-2.07102 -0.18552,-3.76825 -0.50154,-2.97041 -1.45968,-5.26328 -3.15123,-7.53907 -0.3946,-0.53089 -1.67586,-1.76563 -2.07842,-2.00298 -0.18195,-0.10728 -0.34829,-0.20591 -0.36949,-0.21911 -0.10927,-0.0681 -0.0889,-0.29386 0.0568,-0.63769 0.1992,-0.46996 0.34458,-1.26035 0.3452,-1.87585 0.001,-1.2668 -0.62285,-1.88662 -2.00194,-1.98799 z m -32.407844,0.44958 c -0.11727,0.003 -0.24804,0.0232 -0.39223,0.0589 -0.77274,0.19157 -0.95659,0.58088 -0.82424,1.74408 0.13863,1.21844 0.0493,1.60513 -0.4625,2.0004 -0.41953,0.32405 -0.48309,0.37554 -0.59842,0.4842 -0.7379,0.6952 -0.79954,1.90998 -0.14986,2.94659 0.80144,1.27881 2.90056,2.43611 4.250385,2.38901 1.349839,0.0471 3.448959,-1.1102 4.250399,-2.38901 0.64968,-1.03661 0.58805,-2.25139 -0.14986,-2.94659 -0.11533,-0.10866 -0.17889,-0.16015 -0.59842,-0.4842 -0.51175,-0.39527 -0.60113,-0.78196 -0.4625,-2.0004 0.13235,-1.1632 -0.0515,-1.55251 -0.82424,-1.74408 -0.14419,-0.0357 -0.27495,-0.0558 -0.39222,-0.0589 -0.82093,-0.0216 -1.005321,0.79971 -0.8785,3.06183 0.16436,2.93193 -0.165081,2.97308 -0.789629,2.97708 h -0.310059 c -0.624561,0 -0.953976,-0.0451 -0.789616,-2.97708 0.126808,-2.26212 -0.0576,-3.08343 -0.87849,-3.06183 z m -9.71156,3.79305 c -0.62568,0.0475 -1.31653,0.33696 -1.51877,0.63665 -0.0778,0.11525 -1.05111,1.61498 -1.10381,1.70068 -0.14965,0.24363 -0.44842,0.72285 -0.49712,0.79685 -0.0315,0.0479 -0.20456,0.30999 -0.38448,0.58291 -1.61194,2.4451 -1.9848,3.56518 -1.71359,5.15162 0.31031,1.81509 2.25942,3.62306 4.80436,4.45606 0.17716,0.058 0.44779,0.14595 0.601,0.19585 1.38854,0.45189 1.90442,0.92485 2.13424,1.95596 0.20382,0.91446 -0.15943,3.2059 -0.54571,3.44268 -0.0721,0.0442 -0.29349,0.18371 -0.91829,0.57774 -2.9732,1.87508 -4.24925,4.47642 -3.8194,7.78609 0.35959,2.76871 3.28751,7.30441 5.81308,9.00514 1.01029,0.68032 2.00162,0.94074 3.1998,0.84025 2.53799,-0.21286 4.21409,-2.33509 4.689118,-5.93658 0.17374,-1.31727 -0.364848,-2.61503 -2.056198,-4.95319 -0.46206,-0.63876 -0.67799,-0.9439 -0.87488,-1.23662 -0.0966,-0.14364 -0.63079,-0.88755 -1.18701,-1.65364 -0.55622,-0.76609 -1.0193,-1.42068 -1.0294,-1.45418 -0.0943,-0.31312 -0.0115,-0.98924 0.21756,-1.7756 0.1217,-0.41773 0.16253,-0.57447 0.31574,-1.21905 0.13183,-0.55468 0.28831,-1.1378 0.5054,-1.8805 0.11395,-0.38984 0.33246,-1.09773 0.56379,-1.8278 0.24021,-0.75809 0.31337,-0.99212 0.42685,-1.36684 0.0638,-0.21067 0.14225,-0.4693 0.17415,-0.57464 0.032,-0.10533 0.0831,-0.28158 0.11368,-0.39171 0.0489,-0.17598 0.27458,-0.82757 0.38913,-1.12293 0.40365,-1.04078 0.46611,-1.95539 0.15864,-2.32079 -0.123,-0.14619 -0.45891,-0.076 -0.9064,0.18966 -0.28897,0.17153 -0.33314,0.19254 -0.69195,0.32814 -0.17423,0.0658 -0.41863,0.16019 -0.54312,0.20929 -0.76677,0.30272 -1.04757,0.40884 -1.42782,0.54054 -2.51114,0.8697 -3.7014,0.3967 -4.59713,-1.82832 -0.32634,-0.81066 -0.45211,-1.19412 -0.54881,-1.67173 -0.0301,-0.14843 -0.10586,-0.43801 -0.16846,-0.64389 -0.40701,-1.33858 -0.4316,-1.72459 -0.12971,-2.0345 0.35071,-0.36002 0.9727,-0.22832 1.98076,0.4191 0.10338,0.0664 0.80644,0.47359 1.22576,0.71003 0.0622,0.0351 0.19957,0.11345 0.3049,0.17415 0.10534,0.0607 0.24207,0.13915 0.30437,0.17415 2.10037,1.18103 2.13158,1.20118 3.54345,2.30167 0.5532,0.43119 1.35312,0.3004 1.63349,-0.26717 0.40191,-0.81361 -0.038,-1.77794 -1.2764,-2.79621 -0.12928,-0.10629 -0.33322,-0.2741 -0.45321,-0.3731 -0.12,-0.099 -0.34369,-0.2833 -0.49661,-0.40928 -0.15292,-0.12598 -0.57958,-0.47742 -0.94826,-0.78135 -0.36868,-0.30394 -0.79549,-0.65534 -0.94826,-0.78083 -0.40957,-0.33645 -0.57769,-0.48262 -1.09399,-0.94774 -1.1679,-1.05217 -1.75479,-1.43897 -2.77658,-1.8309 -0.28315,-0.1086 -0.28307,-0.10832 -0.4439,-0.0961 z m 23.069404,0 c -0.16083,-0.0122 -0.16075,-0.0125 -0.4439,0.0961 -1.02179,0.39193 -1.60868,0.77873 -2.77658,1.8309 -0.5163,0.46512 -0.68442,0.61129 -1.09399,0.94774 -0.15277,0.12549 -0.57958,0.47689 -0.94826,0.78083 -0.36868,0.30393 -0.79534,0.65537 -0.94826,0.78135 -0.15292,0.12598 -0.37661,0.31028 -0.49661,0.40928 -0.11999,0.099 -0.32393,0.26681 -0.45321,0.3731 -1.2384,1.01827 -1.67831,1.9826 -1.2764,2.79621 0.28037,0.56757 1.08029,0.69836 1.63349,0.26717 1.41187,-1.10049 1.44308,-1.12064 3.54345,-2.30167 0.0623,-0.035 0.19904,-0.11345 0.30438,-0.17415 0.10533,-0.0607 0.24269,-0.13905 0.30489,-0.17415 0.41932,-0.23644 1.12238,-0.64363 1.22576,-0.71003 1.00806,-0.64742 1.63005,-0.77912 1.98076,-0.4191 0.30189,0.30991 0.2773,0.69592 -0.12971,2.0345 -0.0626,0.20588 -0.13836,0.49546 -0.16846,0.64389 -0.0967,0.47761 -0.22247,0.86107 -0.54881,1.67173 -0.89573,2.22502 -2.08599,2.69802 -4.59713,1.82832 -0.38025,-0.1317 -0.66105,-0.23782 -1.42782,-0.54054 -0.12449,-0.0491 -0.36889,-0.14349 -0.54312,-0.20929 -0.35881,-0.1356 -0.40298,-0.15661 -0.69195,-0.32814 -0.44749,-0.26569 -0.78339,-0.33585 -0.9064,-0.18966 -0.30747,0.3654 -0.24501,1.28001 0.15864,2.32079 0.11455,0.29536 0.34023,0.94695 0.38913,1.12293 0.0306,0.11013 0.0817,0.28638 0.11368,0.39171 0.0319,0.10534 0.11035,0.36397 0.17415,0.57464 0.11348,0.37472 0.18664,0.60875 0.42685,1.36684 0.23133,0.73007 0.44984,1.43796 0.56379,1.8278 0.21709,0.7427 0.37357,1.32582 0.5054,1.8805 0.15321,0.64458 0.19404,0.80132 0.31574,1.21905 0.22907,0.78636 0.31186,1.46248 0.21756,1.7756 -0.0101,0.0335 -0.47318,0.68809 -1.0294,1.45418 -0.55622,0.76609 -1.0904,1.51 -1.187,1.65364 -0.19689,0.29272 -0.41283,0.59786 -0.87489,1.23662 -1.69135,2.33816 -2.229952,3.63592 -2.056212,4.95319 0.475042,3.60149 2.151142,5.72372 4.689132,5.93658 1.19818,0.10049 2.18951,-0.15993 3.1998,-0.84025 2.52557,-1.70073 5.45349,-6.23643 5.81308,-9.00514 0.42985,-3.30967 -0.84619,-5.91101 -3.8194,-7.78609 -0.6248,-0.39403 -0.84619,-0.53354 -0.91829,-0.57774 -0.38628,-0.23678 -0.74952,-2.52822 -0.5457,-3.44268 0.22982,-1.03111 0.74569,-1.50407 2.13423,-1.95596 0.15321,-0.0499 0.42384,-0.13785 0.601,-0.19585 2.54494,-0.833 4.49405,-2.64097 4.80436,-4.45606 0.27121,-1.58644 -0.10165,-2.70652 -1.71359,-5.15162 -0.17992,-0.27292 -0.35298,-0.53501 -0.38448,-0.58291 -0.0487,-0.074 -0.34747,-0.55322 -0.49712,-0.79685 -0.0527,-0.0857 -1.02601,-1.58543 -1.10381,-1.70068 -0.20224,-0.29969 -0.89309,-0.58915 -1.51877,-0.63665 z m -12.282984,9.09712 c -0.14394,0 -0.68355,0.89868 -0.9772,1.62781 -0.12498,0.31034 -0.29817,0.75576 -0.29817,0.76636 0,0.0353 -0.29226,0.7321 -0.40359,0.96221 -0.0775,0.16013 -0.27969,0.58104 -0.44959,0.93535 -0.16989,0.35432 -0.50662,1.05581 -0.74827,1.55856 -0.24164,0.50274 -0.52899,1.1001 -0.63821,1.32757 -0.59769,1.24474 -0.33585,2.4093 0.64648,2.87527 0.69624,0.3303 1.54342,0.4274 3.616825,0.416 2.073419,0.0114 2.920609,-0.0857 3.616839,-0.416 0.98233,-0.46597 1.24417,-1.63053 0.64648,-2.87527 -0.10922,-0.22747 -0.39657,-0.82483 -0.63821,-1.32757 -0.24165,-0.50275 -0.57838,-1.20424 -0.74827,-1.55856 -0.1699,-0.35431 -0.37209,-0.77522 -0.44959,-0.93535 -0.11133,-0.23011 -0.40359,-0.92691 -0.40359,-0.96221 0,-0.0106 -0.17319,-0.45602 -0.29817,-0.76636 -0.29365,-0.72913 -0.83326,-1.62781 -0.977214,-1.62781 -0.12364,0 0.241564,1.90321 0.875404,4.562 0.18182,0.85546 0.51243,1.81909 0.21756,2.68769 -0.0831,0.17521 0.0151,0.16085 -1.161694,0.17415 -0.272306,0.003 -0.429851,0.009 -0.679545,0.0145 -0.249694,-0.006 -0.407238,-0.0115 -0.679545,-0.0145 -1.17678,-0.0133 -1.07858,0.001 -1.16168,-0.17415 -0.27766,-0.87027 0.0147,-1.83208 0.21756,-2.68769 0.63385,-2.65879 0.99903,-4.562 0.87539,-4.562 z m -36.72902,10.30015 c -0.37793,0.0453 -0.743,0.24972 -0.99322,0.66507 -0.41443,0.68759 -0.41164,2.01517 0.006,3.38688 0.38943,1.27815 1.03763,2.22018 1.39733,2.03036 0.12616,-0.0666 0.0798,-0.24499 -0.29972,-1.14618 -0.55157,-1.30974 -0.45068,-1.76127 0.50178,-2.23811 0.51602,-0.25834 0.64747,-0.37907 0.85059,-0.78393 0.48199,-0.96067 -0.25041,-1.78561 -1.08469,-1.90841 -0.12514,-0.0184 -0.25229,-0.0208 -0.37827,-0.006 z m 74.955124,0 c -0.12598,-0.0151 -0.25365,-0.0127 -0.37879,0.006 -0.83428,0.1228 -1.56668,0.94774 -1.08469,1.90841 0.20312,0.40486 0.33456,0.52559 0.85059,0.78393 0.95246,0.47684 1.05335,0.92837 0.50178,2.23811 -0.37949,0.90119 -0.42588,1.07958 -0.29972,1.14618 0.3597,0.18982 1.0079,-0.75221 1.39733,-2.03036 0.41784,-1.37171 0.42043,-2.69929 0.006,-3.38688 -0.25022,-0.41535 -0.61477,-0.61978 -0.9927,-0.66507 z m -37.477829,0.45888 v 5.2e-4 c -1.962945,0.001 -3.712855,0.008 -3.840075,0.0129 -0.27582,-0.0289 -0.42511,0.1508 -0.63458,0.30902 -0.89573,0.67658 -0.85697,1.21613 0.18758,2.59623 0.2502,0.33058 0.31255,0.419 0.71676,1.01854 0.39138,0.58052 1.14557,1.69736 1.38699,2.05414 0.64872,0.95867 0.93318,1.39341 1.06505,1.62832 0.513638,0.91493 0.80153,1.32618 1.00252,1.43247 l 0.231509,1e-5 c 0.20099,-0.10629 0.488884,-0.51754 1.002535,-1.43247 0.13187,-0.23491 0.41633,-0.66966 1.06505,-1.62833 0.24142,-0.35678 0.99561,-1.47362 1.387,-2.05414 0.40421,-0.59954 0.46655,-0.68796 0.71675,-1.01854 1.04455,-1.3801 1.08331,-1.91964 0.18758,-2.59622 -0.20947,-0.15822 -0.35876,-0.33793 -0.63458,-0.30903 -0.12722,-0.005 -1.87713,-0.0115 -3.84009,-0.0129 z m -23.792855,11.02207 c -0.18559,-0.0251 -0.36899,-0.0154 -0.62891,0.0191 -2.25728,0.29983 -3.57818,1.7483 -4.21473,4.62142 -0.19278,0.87035 -0.20318,0.96523 -0.27078,2.54093 -0.037,0.85938 -0.0575,1.20437 -0.0724,1.21337 -0.0342,0.0211 -0.38691,0.0818 -0.69298,0.11937 -1.04751,0.12855 -1.42491,0.29513 -1.5782,0.6966 -0.0406,0.107 -0.0455,0.48019 -0.006,0.50539 0.11271,0.0724 0.51845,0.0809 0.91416,0.0186 0.98413,-0.15494 1.2431,-0.1099 1.1591,0.20205 -0.0581,0.21569 -0.52183,0.54475 -1.96009,1.3901 -1.58535,0.9318 -2.37674,1.60153 -2.90266,2.45618 -1.11274,1.80829 -0.43923,3.43964 1.80092,4.36045 0.69897,0.28732 1.77768,0.52194 1.88878,0.41083 0.0634,-0.0634 -0.22497,-0.37928 -0.52555,-0.57567 -0.11491,-0.0751 -0.25229,-0.16477 -0.30489,-0.19947 -0.50358,-0.33213 -1.07576,-1.27408 -1.23662,-2.03554 -0.27849,-1.31822 0.61411,-2.41962 1.96422,-2.42362 0.58384,-0.002 0.8378,0.27279 1.06712,1.15393 0.28344,1.08911 0.4981,1.32998 1.21749,1.36478 0.49213,0.0238 0.7137,-0.0496 0.98909,-0.3266 0.44858,-0.45126 0.34555,-0.77465 -0.45837,-1.44332 -1.21573,-1.0112 -1.26409,-1.64024 -0.20877,-2.70991 0.32304,-0.32748 0.43742,-0.38178 0.61702,-0.29198 0.80311,0.40179 1.26211,2.15326 1.46347,5.58726 0.11412,1.94672 0.11056,2.34573 -0.0269,3.03806 -0.10781,0.54309 -0.11988,0.63552 -0.1204,0.93999 -8.2e-4,0.50932 0.0637,0.56447 0.38447,0.3266 0.24071,-0.17848 0.41896,-0.42821 0.84698,-1.18804 0.54779,-0.9725 0.84282,-1.32281 1.04748,-1.24231 0.8431,0.33149 2.8049,2.91536 4.41988,5.82135 0.23082,0.41534 0.53495,1.04732 0.6904,1.43454 0.13955,0.34763 0.26227,0.91825 0.4284,1.99523 0.14629,0.94836 0.29337,1.62746 0.44493,2.05052 0.0891,0.24857 0.0894,0.24827 0.12506,0.20877 0.0322,-0.0356 0.0559,-0.2276 0.16898,-1.35392 0.0384,-0.38304 0.0741,-0.72356 0.0791,-0.75706 0.005,-0.0335 0.0439,-0.40199 0.0863,-0.81855 0.0425,-0.41656 0.11706,-1.13753 0.16536,-1.60197 0.0483,-0.46445 0.12289,-1.1849 0.16588,-1.60146 0.043,-0.41656 0.10561,-1.02021 0.13901,-1.341 0.0334,-0.3208 0.0658,-0.6327 0.0718,-0.6935 0.0739,-0.72861 1.68027,-2.33727 2.79105,-2.79466 0.74696,-0.30757 1.01339,-0.23205 1.55959,0.44132 0.40959,0.50495 0.68304,0.71518 1.04077,0.80098 1.49081,0.35741 2.69479,-1.64891 1.7849,-2.97449 -0.64401,-0.93822 -2.87654,-1.02402 -4.60127,-0.17674 -0.81897,0.40232 -1.48055,0.91524 -2.75229,2.13372 -0.2674,0.25621 -0.55943,0.53317 -0.64853,0.61547 -0.0891,0.0823 -0.27393,0.27466 -0.41083,0.42788 -0.61513,0.68849 -0.95714,0.9493 -1.24695,0.9493 -0.11724,0 -0.71247,-0.92417 -1.24127,-1.92702 -0.24205,-0.45903 -1.24511,-2.47237 -1.58595,-3.18327 -0.5355,-1.11689 -0.73972,-1.57106 -1.21957,-2.71611 -0.54867,-1.30928 -1.1226,-3.00366 -1.47432,-4.3527 -0.68374,-2.62252 -1.07555,-5.13861 -0.89504,-5.74642 0.0509,-0.17192 -0.0532,-0.15452 1.03094,-0.16692 1.37335,-0.0157 1.59325,-0.0659 2.24276,-0.50953 1.13281,-0.77371 0.7554,-1.85676 -0.87126,-2.50165 -0.26686,-0.10579 -0.45418,-0.16559 -0.63976,-0.19069 z m 47.585724,0 c -0.18558,0.0251 -0.37289,0.0849 -0.63975,0.19069 -1.62666,0.64489 -2.00407,1.72794 -0.87126,2.50165 0.6495,0.44364 0.8694,0.49383 2.24275,0.50953 1.0841,0.0124 0.98005,-0.005 1.03095,0.16692 0.18051,0.60781 -0.2113,3.1239 -0.89504,5.74642 -0.35172,1.34904 -0.92566,3.04342 -1.47433,4.3527 -0.47985,1.14505 -0.68406,1.59922 -1.21956,2.71611 -0.34084,0.7109 -1.3439,2.72424 -1.58595,3.18327 -0.5288,1.00285 -1.12403,1.92702 -1.24127,1.92702 -0.28981,0 -0.63182,-0.26081 -1.24695,-0.9493 -0.1369,-0.15322 -0.32173,-0.34558 -0.41083,-0.42788 -0.0891,-0.0823 -0.38114,-0.35926 -0.64854,-0.61547 -1.27174,-1.21848 -1.93332,-1.7314 -2.75228,-2.13372 -1.72473,-0.84728 -3.95726,-0.76148 -4.60127,0.17674 -0.90989,1.32558 0.29409,3.3319 1.7849,2.97449 0.35773,-0.0858 0.63117,-0.29603 1.04076,-0.80098 0.5462,-0.67337 0.81264,-0.74889 1.5596,-0.44132 1.11078,0.45739 2.71714,2.06605 2.79104,2.79466 0.006,0.0608 0.0384,0.3727 0.0718,0.6935 0.0334,0.32079 0.096,0.92444 0.13901,1.341 0.043,0.41656 0.11758,1.13701 0.16588,1.60146 0.0483,0.46444 0.12287,1.18541 0.16537,1.60197 0.0424,0.41656 0.0813,0.78505 0.0863,0.81855 0.005,0.0335 0.0407,0.37402 0.0791,0.75706 0.11306,1.12632 0.13678,1.31832 0.16898,1.35392 0.0357,0.0395 0.036,0.0398 0.12506,-0.20877 0.15156,-0.42306 0.29865,-1.10216 0.44494,-2.05052 0.16613,-1.07698 0.28884,-1.6476 0.42839,-1.99523 0.15545,-0.38722 0.45958,-1.0192 0.6904,-1.43454 1.61498,-2.90599 3.57679,-5.48986 4.41989,-5.82135 0.20466,-0.0805 0.49968,0.26981 1.04748,1.24231 0.42802,0.75983 0.60626,1.00956 0.84697,1.18804 0.32078,0.23787 0.3853,0.18272 0.38448,-0.3266 -5.2e-4,-0.30447 -0.0126,-0.3969 -0.12041,-0.93999 -0.13743,-0.69233 -0.14102,-1.09134 -0.0269,-3.03806 0.20136,-3.434 0.66036,-5.18547 1.46347,-5.58726 0.1796,-0.0898 0.29398,-0.0355 0.61702,0.29198 1.05532,1.06967 1.00696,1.69871 -0.20877,2.70991 -0.80392,0.66867 -0.90695,0.99206 -0.45837,1.44332 0.27539,0.27699 0.49696,0.3504 0.98909,0.3266 0.71939,-0.0348 0.93405,-0.27567 1.21749,-1.36478 0.22932,-0.88114 0.48328,-1.15593 1.06712,-1.15393 1.35011,0.004 2.24271,1.1054 1.96422,2.42362 -0.16086,0.76146 -0.73304,1.70341 -1.23662,2.03554 -0.0526,0.0347 -0.18998,0.12437 -0.30489,0.19947 -0.30058,0.19639 -0.58895,0.51227 -0.52555,0.57567 0.1111,0.11111 1.18981,-0.12351 1.88878,-0.41083 2.24015,-0.92081 2.91366,-2.55216 1.80092,-4.36045 -0.52592,-0.85465 -1.31731,-1.52438 -2.90266,-2.45618 -1.43826,-0.84535 -1.90199,-1.17441 -1.96009,-1.3901 -0.084,-0.31195 0.17497,-0.35699 1.1591,-0.20205 0.39571,0.0623 0.80145,0.0538 0.91416,-0.0186 0.0393,-0.0252 0.0346,-0.39839 -0.006,-0.50539 -0.15329,-0.40147 -0.53069,-0.56805 -1.5782,-0.6966 -0.30607,-0.0376 -0.65878,-0.0983 -0.69298,-0.11937 -0.0148,-0.009 -0.0354,-0.35399 -0.0724,-1.21337 -0.0676,-1.5757 -0.078,-1.67058 -0.27078,-2.54093 -0.63655,-2.87312 -1.95745,-4.32159 -4.21473,-4.62142 -0.25992,-0.0345 -0.44332,-0.0442 -0.62891,-0.0191 z m -23.848679,3.95996 c -0.196504,0.029 -0.588121,0.61987 -1.271755,1.9079 -1.0663,2.00898 -0.90846,1.90973 -2.89853,1.81953 -2.86965,-0.13014 -3.54858,0.42679 -3.21479,2.63756 0.16394,1.08584 0.52733,1.73746 1.69964,3.04736 0.86273,0.96398 1.14206,1.36237 1.41025,2.01073 0.10602,0.25631 0.16228,0.63873 0.26148,1.7849 0.0921,1.06366 0.18413,1.51468 0.30954,1.51464 0.34656,-1.2e-4 0.71641,-0.57389 1.0387,-1.61075 0.35385,-1.13842 0.39708,-1.25383 0.54053,-1.45056 0.20305,-0.27848 0.59927,-0.14087 0.8568,0.29765 0.20773,0.35372 0.37072,0.8383 0.666621,1.98025 0.325299,1.25537 0.411957,1.41648 0.657324,1.41955 0.254949,0.003 0.332026,-0.16418 0.657324,-1.41955 0.295915,-1.14195 0.458905,-1.62653 0.666635,-1.98025 0.25753,-0.43852 0.65375,-0.57613 0.8568,-0.29765 0.14345,0.19673 0.18668,0.31214 0.54053,1.45056 0.32229,1.03686 0.69214,1.61063 1.0387,1.61075 0.12541,4e-5 0.21744,-0.45098 0.30954,-1.51464 0.0992,-1.14617 0.15546,-1.52859 0.26148,-1.7849 0.26819,-0.64836 0.54752,-1.04675 1.41025,-2.01073 1.17231,-1.3099 1.5357,-1.96152 1.69964,-3.04736 0.33379,-2.21077 -0.34514,-2.7677 -3.21479,-2.63756 -1.99007,0.0902 -1.83223,0.18945 -2.89853,-1.81953 -0.683649,-1.28803 -1.075264,-1.87894 -1.271768,-1.9079 h -0.11162 z M 86.558566,168.1794 c -0.28455,-0.0396 -0.60259,0.0466 -0.93431,0.26096 -0.39223,0.25352 -0.47563,0.48589 -0.43873,1.2268 0.0203,0.40634 0.009,0.7813 -0.0264,0.90072 -0.0132,0.0443 -0.24237,0.17641 -0.71572,0.41238 -0.9352,0.46621 -1.09563,0.6736 -1.25316,1.62006 -0.30686,1.84364 1.51449,4.97706 2.89492,4.98006 0.67746,0.002 0.69599,-0.19246 0.10128,-1.04439 -0.85221,-1.2208 -1.0315,-1.90181 -0.71985,-2.73006 0.18891,-0.50212 0.46719,-0.64526 0.87695,-0.45062 0.59317,0.28176 0.96301,0.98993 1.77405,3.39824 0.41018,1.21799 0.60536,1.72379 0.8568,2.22002 0.16483,0.32531 1.38553,1.88802 1.72237,2.20504 0.20034,0.18852 0.3279,0.32168 0.3359,0.35088 0.0357,0.1275 0.009,0.72154 -0.0537,1.20148 -0.0967,0.73714 -0.10833,0.93149 -0.0842,1.4118 0.0113,0.226 0.0255,0.59158 0.0315,0.81183 0.0362,1.34354 0.89709,2.54926 1.82056,2.55023 0.26838,2e-4 0.22161,-0.1795 -0.19895,-0.76739 -0.50632,-0.70778 -0.62399,-0.96362 -0.62426,-1.35651 -10e-4,-1.45479 2.24567,-1.73283 4.18683,-0.51831 0.92353,0.57782 1.00718,0.92532 0.35915,1.4919 -1.62682,1.42234 -2.47848,3.51409 -1.90583,4.67981 0.19998,0.40708 0.28411,0.35263 1.35703,-0.87436 1.81509,-2.07576 2.629852,-2.79358 3.251473,-2.78278 0.621622,-0.0108 1.436391,0.70702 3.251491,2.78278 1.07292,1.22699 1.15705,1.28144 1.35703,0.87436 0.57264,-1.16572 -0.27901,-3.25747 -1.90583,-4.67981 -0.64803,-0.56658 -0.56438,-0.91408 0.35915,-1.4919 1.94116,-1.21452 4.18782,-0.93648 4.18682,0.51831 -2.7e-4,0.39289 -0.11793,0.64873 -0.62425,1.35651 -0.42056,0.58789 -0.46733,0.76759 -0.19895,0.76739 0.92347,-9.7e-4 1.78436,-1.20669 1.82056,-2.55023 0.006,-0.22025 0.0202,-0.58583 0.0315,-0.81183 0.0241,-0.48031 0.0125,-0.67466 -0.0842,-1.4118 -0.0628,-0.47994 -0.0894,-1.07398 -0.0537,-1.20148 0.008,-0.0292 0.13555,-0.16236 0.33589,-0.35088 0.33684,-0.31702 1.55755,-1.87973 1.72238,-2.20504 0.25144,-0.49623 0.44661,-1.00203 0.85679,-2.22002 0.81104,-2.40831 1.18089,-3.11648 1.77406,-3.39824 0.40976,-0.19464 0.68803,-0.0515 0.87694,0.45062 0.31165,0.82825 0.13236,1.50926 -0.71985,2.73006 -0.59471,0.85193 -0.57617,1.04639 0.10129,1.04439 1.38043,-0.003 3.20177,-3.13642 2.89491,-4.98006 -0.15753,-0.94646 -0.31795,-1.15385 -1.25315,-1.62006 -0.47335,-0.23597 -0.70252,-0.36808 -0.71572,-0.41238 -0.0353,-0.11942 -0.0467,-0.49438 -0.0264,-0.90072 0.0369,-0.74091 -0.0465,-0.97328 -0.43873,-1.2268 -0.33172,-0.2144 -0.64976,-0.3006 -0.93431,-0.26096 -0.28455,0.0396 -0.5355,0.20476 -0.7338,0.49299 -0.18624,0.27068 -0.25911,0.54362 -0.39326,1.47381 -0.0856,0.59381 -0.0942,0.62475 -0.4346,1.53221 -0.0736,0.19631 -0.23923,0.63918 -0.36794,0.98392 -1.09377,2.92949 -3.46735,5.79931 -7.45897,9.01909 -0.17716,0.1429 -0.48672,0.39702 -0.68782,0.5643 -1.29345,1.07596 -2.13991,1.67239 -2.435518,1.71669 -0.0664,0.0162 -0.134453,0.0141 -0.203605,0 -0.295609,-0.0443 -1.142051,-0.64073 -2.435511,-1.71669 -0.20109,-0.16728 -0.51065,-0.4214 -0.68781,-0.5643 -3.99162,-3.21978 -6.36521,-6.0896 -7.45897,-9.01909 -0.12871,-0.34474 -0.29434,-0.78761 -0.36794,-0.98392 -0.3404,-0.90746 -0.349,-0.9384 -0.4346,-1.53221 -0.13415,-0.93019 -0.20702,-1.20313 -0.39326,-1.47381 -0.1983,-0.28823 -0.44925,-0.45339 -0.7338,-0.49299 z"
       sodipodi:nodetypes="cccsssssssccccccccsssscccssssccsscssscssccsscscsscccccssscscscccccsccccscsssssssscsssccscccsscsssssscccsssssccsssscccccscscscsssssssccccsssssssccsscscsssscssssscccssccsssscsccssscccsssscssccccscsssssssssscssscssssssscsccscsscsssscssscsscssssssssccscsssccssssssssccscssscsscsssssssssscssssscsssccccscssssscssssssscscssssssscssssccsscsssccssscssssssssssssssssscsscscssssssssccsssscssscccsccccsscsssssssssssscsscccssscscccccccccsccccccsssssssscscsscsscsscsscssssscscssscsscsssssssssscscsssssscsssssscsssssssssscccscssssssssssssssscsscssssssscsssssscscssscssssscsssssssssssscccsccssccssssccsccsssssscssssssccccssssssscssccssssssssscscsccscsccscsccsss" /></g></svg>
