%TF.GenerationSoftware,KiCad,Pcbnew,9.0.7*%
%TF.CreationDate,2026-01-28T22:46:33+01:00*%
%TF.ProjectId,board_left_finished,626f6172-645f-46c6-9566-745f66696e69,v1.0.0*%
%TF.SameCoordinates,Original*%
%TF.FileFunction,Copper,L2,Bot*%
%TF.FilePolarity,Positive*%
%FSLAX46Y46*%
G04 Gerber Fmt 4.6, Leading zero omitted, Abs format (unit mm)*
G04 Created by KiCad (PCBNEW 9.0.7) date 2026-01-28 22:46:33*
%MOMM*%
%LPD*%
G01*
G04 APERTURE LIST*
G04 Aperture macros list*
%AMRoundRect*
0 Rectangle with rounded corners*
0 $1 Rounding radius*
0 $2 $3 $4 $5 $6 $7 $8 $9 X,Y pos of 4 corners*
0 Add a 4 corners polygon primitive as box body*
4,1,4,$2,$3,$4,$5,$6,$7,$8,$9,$2,$3,0*
0 Add four circle primitives for the rounded corners*
1,1,$1+$1,$2,$3*
1,1,$1+$1,$4,$5*
1,1,$1+$1,$6,$7*
1,1,$1+$1,$8,$9*
0 Add four rect primitives between the rounded corners*
20,1,$1+$1,$2,$3,$4,$5,0*
20,1,$1+$1,$4,$5,$6,$7,0*
20,1,$1+$1,$6,$7,$8,$9,0*
20,1,$1+$1,$8,$9,$2,$3,0*%
%AMRotRect*
0 Rectangle, with rotation*
0 The origin of the aperture is its center*
0 $1 length*
0 $2 width*
0 $3 Rotation angle, in degrees counterclockwise*
0 Add horizontal line*
21,1,$1,$2,0,0,$3*%
G04 Aperture macros list end*
%TA.AperFunction,ComponentPad*%
%ADD10R,1.778000X1.778000*%
%TD*%
%TA.AperFunction,SMDPad,CuDef*%
%ADD11R,1.200000X0.900000*%
%TD*%
%TA.AperFunction,ComponentPad*%
%ADD12C,1.905000*%
%TD*%
%TA.AperFunction,ComponentPad*%
%ADD13O,1.700000X1.700000*%
%TD*%
%TA.AperFunction,ComponentPad*%
%ADD14RotRect,1.778000X1.778000X330.000000*%
%TD*%
%TA.AperFunction,SMDPad,CuDef*%
%ADD15RotRect,0.900000X1.200000X330.000000*%
%TD*%
%TA.AperFunction,ComponentPad*%
%ADD16RotRect,1.778000X1.778000X240.000000*%
%TD*%
%TA.AperFunction,SMDPad,CuDef*%
%ADD17RotRect,0.900000X1.200000X240.000000*%
%TD*%
%TA.AperFunction,ComponentPad*%
%ADD18R,1.752600X1.752600*%
%TD*%
%TA.AperFunction,ComponentPad*%
%ADD19C,1.752600*%
%TD*%
%TA.AperFunction,ComponentPad*%
%ADD20O,1.600000X2.200000*%
%TD*%
%TA.AperFunction,ComponentPad*%
%ADD21C,5.600000*%
%TD*%
%TA.AperFunction,SMDPad,CuDef*%
%ADD22RoundRect,0.250000X-1.750000X-1.000000X1.750000X-1.000000X1.750000X1.000000X-1.750000X1.000000X0*%
%TD*%
%TA.AperFunction,ComponentPad*%
%ADD23C,3.500000*%
%TD*%
%TA.AperFunction,SMDPad,CuDef*%
%ADD24RoundRect,0.250000X-0.008975X-2.015544X1.741025X1.015544X0.008975X2.015544X-1.741025X-1.015544X0*%
%TD*%
%TA.AperFunction,SMDPad,CuDef*%
%ADD25RoundRect,0.250000X-2.015544X0.008975X1.015544X-1.741025X2.015544X-0.008975X-1.015544X1.741025X0*%
%TD*%
%TA.AperFunction,ViaPad*%
%ADD26C,0.600000*%
%TD*%
%TA.AperFunction,Conductor*%
%ADD27C,0.200000*%
%TD*%
G04 APERTURE END LIST*
D10*
%TO.P,D1,1*%
%TO.N,P18*%
X106000000Y-126440000D03*
D11*
X106000000Y-128600000D03*
%TO.P,D1,2*%
%TO.N,first_bottom*%
X106000000Y-131900000D03*
D12*
X106000000Y-134060000D03*
%TD*%
D10*
%TO.P,D10,1*%
%TO.N,P19*%
X143500000Y-101690000D03*
D11*
X143500000Y-103850000D03*
%TO.P,D10,2*%
%TO.N,third_home*%
X143500000Y-107150000D03*
D12*
X143500000Y-109310000D03*
%TD*%
D13*
%TO.P,I2COut,1*%
%TO.N,GND*%
X252300000Y-123440000D03*
%TO.P,I2COut,2*%
%TO.N,VCC*%
X252300000Y-125980000D03*
%TO.P,I2COut,3*%
%TO.N,P3*%
X252300000Y-128520000D03*
%TO.P,I2COut,4*%
%TO.N,P2*%
X252300000Y-131060000D03*
%TD*%
D10*
%TO.P,D8,1*%
%TO.N,P21*%
X124750000Y-73190000D03*
D11*
X124750000Y-75350000D03*
%TO.P,D8,2*%
%TO.N,second_num*%
X124750000Y-78650000D03*
D12*
X124750000Y-80810000D03*
%TD*%
D10*
%TO.P,D2,1*%
%TO.N,P19*%
X106000000Y-108690000D03*
D11*
X106000000Y-110850000D03*
%TO.P,D2,2*%
%TO.N,first_home*%
X106000000Y-114150000D03*
D12*
X106000000Y-116310000D03*
%TD*%
D10*
%TO.P,D18,1*%
%TO.N,P15*%
X181000000Y-138190000D03*
D11*
X181000000Y-140350000D03*
%TO.P,D18,2*%
%TO.N,fifth_mod*%
X181000000Y-143650000D03*
D12*
X181000000Y-145810000D03*
%TD*%
D14*
%TO.P,D32,1*%
%TO.N,P15*%
X232736043Y-165768200D03*
D15*
X234606658Y-166848200D03*
%TO.P,D32,2*%
%TO.N,big_thumb_cluster*%
X237464542Y-168498200D03*
D12*
X239335157Y-169578200D03*
%TD*%
D10*
%TO.P,D7,1*%
%TO.N,P20*%
X124750000Y-90940000D03*
D11*
X124750000Y-93100000D03*
%TO.P,D7,2*%
%TO.N,second_top*%
X124750000Y-96400000D03*
D12*
X124750000Y-98560000D03*
%TD*%
D10*
%TO.P,D28,1*%
%TO.N,P19*%
X218500000Y-101690000D03*
D11*
X218500000Y-103850000D03*
%TO.P,D28,2*%
%TO.N,seventh_home*%
X218500000Y-107150000D03*
D12*
X218500000Y-109310000D03*
%TD*%
D13*
%TO.P,DISP1,1*%
%TO.N,P2*%
X229645000Y-114450000D03*
%TO.P,DISP1,2*%
%TO.N,P3*%
X232185000Y-114450000D03*
%TO.P,DISP1,3*%
%TO.N,VCC*%
X234725000Y-114450000D03*
%TO.P,DISP1,4*%
%TO.N,GND*%
X237265000Y-114450000D03*
%TD*%
D10*
%TO.P,D13,1*%
%TO.N,P15*%
X162250000Y-132190000D03*
D11*
X162250000Y-134350000D03*
%TO.P,D13,2*%
%TO.N,fourth_mod*%
X162250000Y-137650000D03*
D12*
X162250000Y-139810000D03*
%TD*%
D16*
%TO.P,D30,1*%
%TO.N,P15*%
X206449200Y-155718343D03*
D17*
X205369200Y-157588958D03*
%TO.P,D30,2*%
%TO.N,small_thumb_cluster*%
X203719200Y-160446842D03*
D12*
X202639200Y-162317457D03*
%TD*%
D18*
%TO.P,MCU1,1*%
%TO.N,RAW*%
X241075000Y-81780000D03*
D19*
%TO.P,MCU1,2*%
%TO.N,GND*%
X241075000Y-84320000D03*
%TO.P,MCU1,3*%
%TO.N,RST*%
X241075000Y-86860000D03*
%TO.P,MCU1,4*%
%TO.N,VCC*%
X241075000Y-89400000D03*
%TO.P,MCU1,5*%
%TO.N,P21*%
X241075000Y-91940000D03*
%TO.P,MCU1,6*%
%TO.N,P20*%
X241075000Y-94480000D03*
%TO.P,MCU1,7*%
%TO.N,P19*%
X241075000Y-97020000D03*
%TO.P,MCU1,8*%
%TO.N,P18*%
X241075000Y-99560000D03*
%TO.P,MCU1,9*%
%TO.N,P15*%
X241075000Y-102100000D03*
%TO.P,MCU1,10*%
%TO.N,P14*%
X241075000Y-104640000D03*
%TO.P,MCU1,11*%
%TO.N,P16*%
X241075000Y-107180000D03*
%TO.P,MCU1,12*%
%TO.N,P10*%
X241075000Y-109720000D03*
%TO.P,MCU1,13*%
%TO.N,P1*%
X225835000Y-81780000D03*
%TO.P,MCU1,14*%
%TO.N,P0*%
X225835000Y-84320000D03*
%TO.P,MCU1,15*%
%TO.N,GND*%
X225835000Y-86860000D03*
%TO.P,MCU1,16*%
X225835000Y-89400000D03*
%TO.P,MCU1,17*%
%TO.N,P2*%
X225835000Y-91940000D03*
%TO.P,MCU1,18*%
%TO.N,P3*%
X225835000Y-94480000D03*
%TO.P,MCU1,19*%
%TO.N,P4*%
X225835000Y-97020000D03*
%TO.P,MCU1,20*%
%TO.N,P5*%
X225835000Y-99560000D03*
%TO.P,MCU1,21*%
%TO.N,P6*%
X225835000Y-102100000D03*
%TO.P,MCU1,22*%
%TO.N,P7*%
X225835000Y-104640000D03*
%TO.P,MCU1,23*%
%TO.N,P8*%
X225835000Y-107180000D03*
%TO.P,MCU1,24*%
%TO.N,P9*%
X225835000Y-109720000D03*
%TD*%
D10*
%TO.P,D17,1*%
%TO.N,P21*%
X162250000Y-61190000D03*
D11*
X162250000Y-63350000D03*
%TO.P,D17,2*%
%TO.N,fourth_num*%
X162250000Y-66650000D03*
D12*
X162250000Y-68810000D03*
%TD*%
D10*
%TO.P,D22,1*%
%TO.N,P21*%
X181000000Y-67190000D03*
D11*
X181000000Y-69350000D03*
%TO.P,D22,2*%
%TO.N,fifth_num*%
X181000000Y-72650000D03*
D12*
X181000000Y-74810000D03*
%TD*%
D10*
%TO.P,D27,1*%
%TO.N,P18*%
X218500000Y-119440000D03*
D11*
X218500000Y-121600000D03*
%TO.P,D27,2*%
%TO.N,seventh_bottom*%
X218500000Y-124900000D03*
D12*
X218500000Y-127060000D03*
%TD*%
D10*
%TO.P,D5,1*%
%TO.N,P18*%
X124750000Y-126440000D03*
D11*
X124750000Y-128600000D03*
%TO.P,D5,2*%
%TO.N,second_bottom*%
X124750000Y-131900000D03*
D12*
X124750000Y-134060000D03*
%TD*%
D10*
%TO.P,D3,1*%
%TO.N,P20*%
X106000000Y-90940000D03*
D11*
X106000000Y-93100000D03*
%TO.P,D3,2*%
%TO.N,first_top*%
X106000000Y-96400000D03*
D12*
X106000000Y-98560000D03*
%TD*%
D10*
%TO.P,D15,1*%
%TO.N,P19*%
X162250000Y-96690000D03*
D11*
X162250000Y-98850000D03*
%TO.P,D15,2*%
%TO.N,fourth_home*%
X162250000Y-102150000D03*
D12*
X162250000Y-104310000D03*
%TD*%
D20*
%TO.P,TRRS1,2*%
%TO.N,GND*%
X252900000Y-82450000D03*
%TO.P,TRRS1,3*%
%TO.N,P3*%
X252900000Y-85450000D03*
%TO.P,TRRS1,4*%
%TO.N,VCC*%
X252900000Y-89450000D03*
%TO.P,TRRS1,5*%
%TO.N,P2*%
X248300000Y-90550000D03*
%TD*%
D10*
%TO.P,D20,1*%
%TO.N,P19*%
X181000000Y-102690000D03*
D11*
X181000000Y-104850000D03*
%TO.P,D20,2*%
%TO.N,fifth_home*%
X181000000Y-108150000D03*
D12*
X181000000Y-110310000D03*
%TD*%
D10*
%TO.P,D16,1*%
%TO.N,P20*%
X162250000Y-78940000D03*
D11*
X162250000Y-81100000D03*
%TO.P,D16,2*%
%TO.N,fourth_top*%
X162250000Y-84400000D03*
D12*
X162250000Y-86560000D03*
%TD*%
D10*
%TO.P,D9,1*%
%TO.N,P18*%
X143500000Y-119440000D03*
D11*
X143500000Y-121600000D03*
%TO.P,D9,2*%
%TO.N,third_bottom*%
X143500000Y-124900000D03*
D12*
X143500000Y-127060000D03*
%TD*%
D10*
%TO.P,D4,1*%
%TO.N,P21*%
X106000000Y-73190000D03*
D11*
X106000000Y-75350000D03*
%TO.P,D4,2*%
%TO.N,first_num*%
X106000000Y-78650000D03*
D12*
X106000000Y-80810000D03*
%TD*%
D10*
%TO.P,D19,1*%
%TO.N,P18*%
X181000000Y-120440000D03*
D11*
X181000000Y-122600000D03*
%TO.P,D19,2*%
%TO.N,fifth_bottom*%
X181000000Y-125900000D03*
D12*
X181000000Y-128060000D03*
%TD*%
D10*
%TO.P,D11,1*%
%TO.N,P20*%
X143500000Y-83940000D03*
D11*
X143500000Y-86100000D03*
%TO.P,D11,2*%
%TO.N,third_top*%
X143500000Y-89400000D03*
D12*
X143500000Y-91560000D03*
%TD*%
D10*
%TO.P,D21,1*%
%TO.N,P20*%
X181000000Y-84940000D03*
D11*
X181000000Y-87100000D03*
%TO.P,D21,2*%
%TO.N,fifth_top*%
X181000000Y-90400000D03*
D12*
X181000000Y-92560000D03*
%TD*%
D10*
%TO.P,D29,1*%
%TO.N,P20*%
X218500000Y-83940000D03*
D11*
X218500000Y-86100000D03*
%TO.P,D29,2*%
%TO.N,seventh_top*%
X218500000Y-89400000D03*
D12*
X218500000Y-91560000D03*
%TD*%
D10*
%TO.P,D24,1*%
%TO.N,P19*%
X199750000Y-105690000D03*
D11*
X199750000Y-107850000D03*
%TO.P,D24,2*%
%TO.N,sixth_home*%
X199750000Y-111150000D03*
D12*
X199750000Y-113310000D03*
%TD*%
D10*
%TO.P,D6,1*%
%TO.N,P19*%
X124750000Y-108690000D03*
D11*
X124750000Y-110850000D03*
%TO.P,D6,2*%
%TO.N,second_home*%
X124750000Y-114150000D03*
D12*
X124750000Y-116310000D03*
%TD*%
D10*
%TO.P,D26,1*%
%TO.N,P21*%
X199750000Y-70190000D03*
D11*
X199750000Y-72350000D03*
%TO.P,D26,2*%
%TO.N,sixth_num*%
X199750000Y-75650000D03*
D12*
X199750000Y-77810000D03*
%TD*%
D10*
%TO.P,D23,1*%
%TO.N,P18*%
X199750000Y-123440000D03*
D11*
X199750000Y-125600000D03*
%TO.P,D23,2*%
%TO.N,sixth_bottom*%
X199750000Y-128900000D03*
D12*
X199750000Y-131060000D03*
%TD*%
D10*
%TO.P,D25,1*%
%TO.N,P20*%
X199750000Y-87940000D03*
D11*
X199750000Y-90100000D03*
%TO.P,D25,2*%
%TO.N,sixth_top*%
X199750000Y-93400000D03*
D12*
X199750000Y-95560000D03*
%TD*%
D10*
%TO.P,D12,1*%
%TO.N,P21*%
X143500000Y-66190000D03*
D11*
X143500000Y-68350000D03*
%TO.P,D12,2*%
%TO.N,third_num*%
X143500000Y-71650000D03*
D12*
X143500000Y-73810000D03*
%TD*%
D14*
%TO.P,D31,1*%
%TO.N,P15*%
X215588743Y-155868200D03*
D15*
X217459358Y-156948200D03*
%TO.P,D31,2*%
%TO.N,medium_thumb_cluster*%
X220317242Y-158598200D03*
D12*
X222187857Y-159678200D03*
%TD*%
D10*
%TO.P,D14,1*%
%TO.N,P18*%
X162250000Y-114440000D03*
D11*
X162250000Y-116600000D03*
%TO.P,D14,2*%
%TO.N,fourth_bottom*%
X162250000Y-119900000D03*
D12*
X162250000Y-122060000D03*
%TD*%
D21*
%TO.P,S29,*%
%TO.N,*%
X212500000Y-89750000D03*
D22*
%TO.P,S29,1*%
%TO.N,P10*%
X205150000Y-94450000D03*
D23*
X208100000Y-94450000D03*
%TO.P,S29,2*%
%TO.N,seventh_top*%
X215100000Y-95500000D03*
D22*
X218050000Y-95500000D03*
%TD*%
D21*
%TO.P,S18,*%
%TO.N,*%
X175000000Y-144000000D03*
D22*
%TO.P,S18,1*%
%TO.N,P9*%
X167650000Y-148700000D03*
D23*
X170600000Y-148700000D03*
%TO.P,S18,2*%
%TO.N,fifth_mod*%
X177600000Y-149750000D03*
D22*
X180550000Y-149750000D03*
%TD*%
D21*
%TO.P,S31,*%
%TO.N,*%
X217620400Y-163969400D03*
D24*
%TO.P,S31,1*%
%TO.N,P10*%
X218015719Y-172684687D03*
D23*
X219490719Y-170129912D03*
%TO.P,S31,2*%
%TO.N,medium_thumb_cluster*%
X223900046Y-164592734D03*
D24*
X225375046Y-162037959D03*
%TD*%
D21*
%TO.P,S4,*%
%TO.N,*%
X100000000Y-79000000D03*
D22*
%TO.P,S4,1*%
%TO.N,P5*%
X92650000Y-83700000D03*
D23*
X95600000Y-83700000D03*
%TO.P,S4,2*%
%TO.N,first_num*%
X102600000Y-84750000D03*
D22*
X105550000Y-84750000D03*
%TD*%
D21*
%TO.P,S9,*%
%TO.N,*%
X137500000Y-125250000D03*
D22*
%TO.P,S9,1*%
%TO.N,P7*%
X130150000Y-129950000D03*
D23*
X133100000Y-129950000D03*
%TO.P,S9,2*%
%TO.N,third_bottom*%
X140100000Y-131000000D03*
D22*
X143050000Y-131000000D03*
%TD*%
D21*
%TO.P,S22,*%
%TO.N,*%
X175000000Y-73000000D03*
D22*
%TO.P,S22,1*%
%TO.N,P9*%
X167650000Y-77700000D03*
D23*
X170600000Y-77700000D03*
%TO.P,S22,2*%
%TO.N,fifth_num*%
X177600000Y-78750000D03*
D22*
X180550000Y-78750000D03*
%TD*%
D21*
%TO.P,S10,*%
%TO.N,*%
X137500000Y-107500000D03*
D22*
%TO.P,S10,1*%
%TO.N,P7*%
X130150000Y-112200000D03*
D23*
X133100000Y-112200000D03*
%TO.P,S10,2*%
%TO.N,third_home*%
X140100000Y-113250000D03*
D22*
X143050000Y-113250000D03*
%TD*%
D21*
%TO.P,S24,*%
%TO.N,*%
X193750000Y-111500000D03*
D22*
%TO.P,S24,1*%
%TO.N,P4*%
X186400000Y-116200000D03*
D23*
X189350000Y-116200000D03*
%TO.P,S24,2*%
%TO.N,sixth_home*%
X196350000Y-117250000D03*
D22*
X199300000Y-117250000D03*
%TD*%
D21*
%TO.P,S20,*%
%TO.N,*%
X175000000Y-108500000D03*
D22*
%TO.P,S20,1*%
%TO.N,P9*%
X167650000Y-113200000D03*
D23*
X170600000Y-113200000D03*
%TO.P,S20,2*%
%TO.N,fifth_home*%
X177600000Y-114250000D03*
D22*
X180550000Y-114250000D03*
%TD*%
D21*
%TO.P,S7,*%
%TO.N,*%
X118750000Y-96750000D03*
D22*
%TO.P,S7,1*%
%TO.N,P6*%
X111400000Y-101450000D03*
D23*
X114350000Y-101450000D03*
%TO.P,S7,2*%
%TO.N,second_top*%
X121350000Y-102500000D03*
D22*
X124300000Y-102500000D03*
%TD*%
D21*
%TO.P,S8,*%
%TO.N,*%
X118750000Y-79000000D03*
D22*
%TO.P,S8,1*%
%TO.N,P6*%
X111400000Y-83700000D03*
D23*
X114350000Y-83700000D03*
%TO.P,S8,2*%
%TO.N,second_num*%
X121350000Y-84750000D03*
D22*
X124300000Y-84750000D03*
%TD*%
D21*
%TO.P,S25,*%
%TO.N,*%
X193750000Y-93750000D03*
D22*
%TO.P,S25,1*%
%TO.N,P4*%
X186400000Y-98450000D03*
D23*
X189350000Y-98450000D03*
%TO.P,S25,2*%
%TO.N,sixth_top*%
X196350000Y-99500000D03*
D22*
X199300000Y-99500000D03*
%TD*%
D21*
%TO.P,S26,*%
%TO.N,*%
X193750000Y-76000000D03*
D22*
%TO.P,S26,1*%
%TO.N,P4*%
X186400000Y-80700000D03*
D23*
X189350000Y-80700000D03*
%TO.P,S26,2*%
%TO.N,sixth_num*%
X196350000Y-81750000D03*
D22*
X199300000Y-81750000D03*
%TD*%
D21*
%TO.P,S15,*%
%TO.N,*%
X156250000Y-102500000D03*
D22*
%TO.P,S15,1*%
%TO.N,P8*%
X148900000Y-107200000D03*
D23*
X151850000Y-107200000D03*
%TO.P,S15,2*%
%TO.N,fourth_home*%
X158850000Y-108250000D03*
D22*
X161800000Y-108250000D03*
%TD*%
D21*
%TO.P,S12,*%
%TO.N,*%
X137500000Y-72000000D03*
D22*
%TO.P,S12,1*%
%TO.N,P7*%
X130150000Y-76700000D03*
D23*
X133100000Y-76700000D03*
%TO.P,S12,2*%
%TO.N,third_num*%
X140100000Y-77750000D03*
D22*
X143050000Y-77750000D03*
%TD*%
D21*
%TO.P,S21,*%
%TO.N,*%
X175000000Y-90750000D03*
D22*
%TO.P,S21,1*%
%TO.N,P9*%
X167650000Y-95450000D03*
D23*
X170600000Y-95450000D03*
%TO.P,S21,2*%
%TO.N,fifth_top*%
X177600000Y-96500000D03*
D22*
X180550000Y-96500000D03*
%TD*%
D21*
%TO.P,S28,*%
%TO.N,*%
X212500000Y-107500000D03*
D22*
%TO.P,S28,1*%
%TO.N,P10*%
X205150000Y-112200000D03*
D23*
X208100000Y-112200000D03*
%TO.P,S28,2*%
%TO.N,seventh_home*%
X215100000Y-113250000D03*
D22*
X218050000Y-113250000D03*
%TD*%
D21*
%TO.P,S17,*%
%TO.N,*%
X156250000Y-67000000D03*
D22*
%TO.P,S17,1*%
%TO.N,P8*%
X148900000Y-71700000D03*
D23*
X151850000Y-71700000D03*
%TO.P,S17,2*%
%TO.N,fourth_num*%
X158850000Y-72750000D03*
D22*
X161800000Y-72750000D03*
%TD*%
D21*
%TO.P,S1,*%
%TO.N,*%
X100000000Y-132250000D03*
D22*
%TO.P,S1,1*%
%TO.N,P5*%
X92650000Y-136950000D03*
D23*
X95600000Y-136950000D03*
%TO.P,S1,2*%
%TO.N,first_bottom*%
X102600000Y-138000000D03*
D22*
X105550000Y-138000000D03*
%TD*%
D21*
%TO.P,S14,*%
%TO.N,*%
X156250000Y-120250000D03*
D22*
%TO.P,S14,1*%
%TO.N,P8*%
X148900000Y-124950000D03*
D23*
X151850000Y-124950000D03*
%TO.P,S14,2*%
%TO.N,fourth_bottom*%
X158850000Y-126000000D03*
D22*
X161800000Y-126000000D03*
%TD*%
D21*
%TO.P,S19,*%
%TO.N,*%
X175000000Y-126250000D03*
D22*
%TO.P,S19,1*%
%TO.N,P9*%
X167650000Y-130950000D03*
D23*
X170600000Y-130950000D03*
%TO.P,S19,2*%
%TO.N,fifth_bottom*%
X177600000Y-132000000D03*
D22*
X180550000Y-132000000D03*
%TD*%
D21*
%TO.P,S5,*%
%TO.N,*%
X118750000Y-132250000D03*
D22*
%TO.P,S5,1*%
%TO.N,P6*%
X111400000Y-136950000D03*
D23*
X114350000Y-136950000D03*
%TO.P,S5,2*%
%TO.N,second_bottom*%
X121350000Y-138000000D03*
D22*
X124300000Y-138000000D03*
%TD*%
D21*
%TO.P,S11,*%
%TO.N,*%
X137500000Y-89750000D03*
D22*
%TO.P,S11,1*%
%TO.N,P7*%
X130150000Y-94450000D03*
D23*
X133100000Y-94450000D03*
%TO.P,S11,2*%
%TO.N,third_top*%
X140100000Y-95500000D03*
D22*
X143050000Y-95500000D03*
%TD*%
D21*
%TO.P,S13,*%
%TO.N,*%
X156250000Y-138000000D03*
D22*
%TO.P,S13,1*%
%TO.N,P8*%
X148900000Y-142700000D03*
D23*
X151850000Y-142700000D03*
%TO.P,S13,2*%
%TO.N,fourth_mod*%
X158850000Y-143750000D03*
D22*
X161800000Y-143750000D03*
%TD*%
D21*
%TO.P,S3,*%
%TO.N,*%
X100000000Y-96750000D03*
D22*
%TO.P,S3,1*%
%TO.N,P5*%
X92650000Y-101450000D03*
D23*
X95600000Y-101450000D03*
%TO.P,S3,2*%
%TO.N,first_top*%
X102600000Y-102500000D03*
D22*
X105550000Y-102500000D03*
%TD*%
D21*
%TO.P,S6,*%
%TO.N,*%
X118750000Y-114500000D03*
D22*
%TO.P,S6,1*%
%TO.N,P6*%
X111400000Y-119200000D03*
D23*
X114350000Y-119200000D03*
%TO.P,S6,2*%
%TO.N,second_home*%
X121350000Y-120250000D03*
D22*
X124300000Y-120250000D03*
%TD*%
D21*
%TO.P,S27,*%
%TO.N,*%
X212500000Y-125250000D03*
D22*
%TO.P,S27,1*%
%TO.N,P10*%
X205150000Y-129950000D03*
D23*
X208100000Y-129950000D03*
%TO.P,S27,2*%
%TO.N,seventh_bottom*%
X215100000Y-131000000D03*
D22*
X218050000Y-131000000D03*
%TD*%
D21*
%TO.P,S32,*%
%TO.N,*%
X234767700Y-173869400D03*
D24*
%TO.P,S32,1*%
%TO.N,P7*%
X235163019Y-182584687D03*
D23*
X236638019Y-180029912D03*
%TO.P,S32,2*%
%TO.N,big_thumb_cluster*%
X241047346Y-174492734D03*
D24*
X242522346Y-171937959D03*
%TD*%
D21*
%TO.P,S2,*%
%TO.N,*%
X100000000Y-114500000D03*
D22*
%TO.P,S2,1*%
%TO.N,P5*%
X92650000Y-119200000D03*
D23*
X95600000Y-119200000D03*
%TO.P,S2,2*%
%TO.N,first_home*%
X102600000Y-120250000D03*
D22*
X105550000Y-120250000D03*
%TD*%
D21*
%TO.P,S30,*%
%TO.N,*%
X198348100Y-157750000D03*
D25*
%TO.P,S30,1*%
%TO.N,P4*%
X189632813Y-158145319D03*
D23*
X192187588Y-159620319D03*
%TO.P,S30,2*%
%TO.N,small_thumb_cluster*%
X197724766Y-164029646D03*
D25*
X200279541Y-165504646D03*
%TD*%
D21*
%TO.P,S16,*%
%TO.N,*%
X156250000Y-84750000D03*
D22*
%TO.P,S16,1*%
%TO.N,P8*%
X148900000Y-89450000D03*
D23*
X151850000Y-89450000D03*
%TO.P,S16,2*%
%TO.N,fourth_top*%
X158850000Y-90500000D03*
D22*
X161800000Y-90500000D03*
%TD*%
D21*
%TO.P,S23,*%
%TO.N,*%
X193750000Y-129250000D03*
D22*
%TO.P,S23,1*%
%TO.N,P4*%
X186400000Y-133950000D03*
D23*
X189350000Y-133950000D03*
%TO.P,S23,2*%
%TO.N,sixth_bottom*%
X196350000Y-135000000D03*
D22*
X199300000Y-135000000D03*
%TD*%
D26*
%TO.N,P6*%
X223420500Y-100582300D03*
%TO.N,P7*%
X227000300Y-98290000D03*
%TO.N,P4*%
X224304300Y-99358700D03*
%TO.N,P18*%
X240254900Y-116738000D03*
%TO.N,P21*%
X241281800Y-79613800D03*
%TO.N,P3*%
X251137500Y-112714700D03*
%TD*%
D27*
%TO.N,P5*%
X92650000Y-83700000D02*
X95600000Y-83700000D01*
X95600000Y-101450000D02*
X92650000Y-101450000D01*
X92650000Y-136950000D02*
X94083700Y-136950000D01*
X92650000Y-119200000D02*
X92650000Y-101450000D01*
X95600000Y-83700000D02*
X95600000Y-101450000D01*
X94083700Y-136950000D02*
X94083700Y-119200000D01*
X95600000Y-119200000D02*
X94083700Y-119200000D01*
X94083700Y-136950000D02*
X95600000Y-136950000D01*
X94083700Y-119200000D02*
X92650000Y-119200000D01*
%TO.N,first_bottom*%
X105550000Y-138000000D02*
X105550000Y-134510000D01*
X106000000Y-134060000D02*
X106000000Y-131900000D01*
X102600000Y-138000000D02*
X105550000Y-138000000D01*
X105550000Y-134510000D02*
X106000000Y-134060000D01*
%TO.N,GND*%
X225835000Y-89400000D02*
X225835000Y-86860000D01*
X237265000Y-114450000D02*
X237265000Y-88130000D01*
X237265000Y-88130000D02*
X241075000Y-84320000D01*
%TO.N,first_home*%
X105550000Y-116760000D02*
X106000000Y-116310000D01*
X102600000Y-120250000D02*
X105550000Y-120250000D01*
X105550000Y-120250000D02*
X105550000Y-116760000D01*
X106000000Y-114150000D02*
X106000000Y-116310000D01*
%TO.N,first_top*%
X106000000Y-102050000D02*
X106000000Y-98560000D01*
X106000000Y-96400000D02*
X106000000Y-98560000D01*
X105550000Y-102500000D02*
X106000000Y-102050000D01*
X102600000Y-102500000D02*
X105550000Y-102500000D01*
%TO.N,first_num*%
X106000000Y-78650000D02*
X106000000Y-80810000D01*
X102600000Y-84750000D02*
X105550000Y-84750000D01*
X105550000Y-81260000D02*
X105550000Y-84750000D01*
X106000000Y-80810000D02*
X105550000Y-81260000D01*
%TO.N,P6*%
X223503500Y-100665300D02*
X223420500Y-100582300D01*
X223503500Y-100582300D02*
X223420500Y-100582300D01*
X111400000Y-83700000D02*
X114350000Y-83700000D01*
X224400300Y-100665300D02*
X223503500Y-100665300D01*
X111492200Y-119200000D02*
X111400000Y-119200000D01*
X114350000Y-101450000D02*
X111492200Y-101450000D01*
X114350000Y-136950000D02*
X111400000Y-136950000D01*
X111492200Y-119200000D02*
X111492200Y-136857800D01*
X114350000Y-83700000D02*
X114350000Y-101450000D01*
X114350000Y-119200000D02*
X111492200Y-119200000D01*
X225835000Y-102100000D02*
X224400300Y-100665300D01*
X111492200Y-101450000D02*
X111492200Y-119200000D01*
X223420500Y-100582300D02*
X223503500Y-100582300D01*
X111492200Y-136857800D02*
X111400000Y-136950000D01*
X111492200Y-101450000D02*
X111400000Y-101450000D01*
%TO.N,second_bottom*%
X124750000Y-137550000D02*
X124300000Y-138000000D01*
X121350000Y-138000000D02*
X124300000Y-138000000D01*
X124750000Y-134060000D02*
X124750000Y-137550000D01*
X124750000Y-131900000D02*
X124750000Y-134060000D01*
%TO.N,second_home*%
X124750000Y-119800000D02*
X124300000Y-120250000D01*
X124750000Y-114150000D02*
X124750000Y-116310000D01*
X124750000Y-116310000D02*
X124750000Y-119800000D01*
X121350000Y-120250000D02*
X124300000Y-120250000D01*
%TO.N,second_top*%
X124300000Y-102500000D02*
X124750000Y-102050000D01*
X124300000Y-102500000D02*
X121350000Y-102500000D01*
X124750000Y-98560000D02*
X124750000Y-96400000D01*
X124750000Y-102050000D02*
X124750000Y-98560000D01*
%TO.N,second_num*%
X124750000Y-84300000D02*
X124750000Y-80810000D01*
X121350000Y-84750000D02*
X124300000Y-84750000D01*
X124300000Y-84750000D02*
X124750000Y-84300000D01*
X124750000Y-78650000D02*
X124750000Y-80810000D01*
%TO.N,P7*%
X225835000Y-104640000D02*
X227013000Y-105818000D01*
X227013000Y-98302700D02*
X227013000Y-103462000D01*
X130150000Y-94450000D02*
X130150000Y-112200000D01*
X130150000Y-129950000D02*
X133100000Y-129950000D01*
X133100000Y-112200000D02*
X133100000Y-129950000D01*
X130150000Y-76700000D02*
X133100000Y-76700000D01*
X227013000Y-116525900D02*
X229547800Y-119060700D01*
X227000300Y-98290000D02*
X227013000Y-98302700D01*
X236638000Y-181109700D02*
X236638000Y-180029900D01*
X130150000Y-76700000D02*
X130150000Y-94450000D01*
X227013000Y-103462000D02*
X225835000Y-104640000D01*
X229547800Y-176969600D02*
X229547900Y-176969600D01*
X227013000Y-105818000D02*
X227013000Y-116525900D01*
X130150000Y-94450000D02*
X133100000Y-94450000D01*
X229547800Y-119060700D02*
X229547800Y-176969600D01*
X130150000Y-112200000D02*
X133100000Y-112200000D01*
X235163000Y-182584700D02*
X236638000Y-181109700D01*
X229547900Y-176969600D02*
X235163000Y-182584700D01*
%TO.N,third_bottom*%
X140100000Y-131000000D02*
X143050000Y-131000000D01*
X143500000Y-124900000D02*
X143500000Y-127060000D01*
X143050000Y-127510000D02*
X143050000Y-131000000D01*
X143500000Y-127060000D02*
X143050000Y-127510000D01*
%TO.N,third_home*%
X143050000Y-109760000D02*
X143500000Y-109310000D01*
X143500000Y-109310000D02*
X143500000Y-107150000D01*
X140100000Y-113250000D02*
X143050000Y-113250000D01*
X143050000Y-113250000D02*
X143050000Y-109760000D01*
%TO.N,third_top*%
X140100000Y-95500000D02*
X143050000Y-95500000D01*
X143500000Y-95050000D02*
X143050000Y-95500000D01*
X143500000Y-91560000D02*
X143500000Y-95050000D01*
X143500000Y-89400000D02*
X143500000Y-91560000D01*
%TO.N,third_num*%
X143500000Y-77300000D02*
X143500000Y-73810000D01*
X143050000Y-77750000D02*
X143500000Y-77300000D01*
X143500000Y-73810000D02*
X143500000Y-71650000D01*
X140100000Y-77750000D02*
X143050000Y-77750000D01*
%TO.N,P8*%
X148900000Y-89450000D02*
X148900000Y-107200000D01*
X148900000Y-124950000D02*
X148900000Y-107200000D01*
X151850000Y-124950000D02*
X151850000Y-142700000D01*
X151850000Y-107200000D02*
X148900000Y-107200000D01*
X148900000Y-71700000D02*
X151850000Y-71700000D01*
X148900000Y-89450000D02*
X151850000Y-89450000D01*
X148900000Y-89450000D02*
X148900000Y-71700000D01*
X148900000Y-142700000D02*
X151850000Y-142700000D01*
X151850000Y-124950000D02*
X148900000Y-124950000D01*
%TO.N,fourth_mod*%
X158850000Y-143750000D02*
X161800000Y-143750000D01*
X161800000Y-140260000D02*
X161800000Y-143750000D01*
X162250000Y-137650000D02*
X162250000Y-139810000D01*
X162250000Y-139810000D02*
X161800000Y-140260000D01*
%TO.N,fourth_bottom*%
X162250000Y-119900000D02*
X162250000Y-122060000D01*
X158850000Y-126000000D02*
X161800000Y-126000000D01*
X162250000Y-125550000D02*
X162250000Y-122060000D01*
X161800000Y-126000000D02*
X162250000Y-125550000D01*
%TO.N,fourth_home*%
X158850000Y-108250000D02*
X161800000Y-108250000D01*
X162250000Y-104310000D02*
X161800000Y-104760000D01*
X162250000Y-102150000D02*
X162250000Y-104310000D01*
X161800000Y-104760000D02*
X161800000Y-108250000D01*
%TO.N,fourth_top*%
X161800000Y-90500000D02*
X158850000Y-90500000D01*
X162250000Y-90050000D02*
X162250000Y-86560000D01*
X161800000Y-90500000D02*
X162250000Y-90050000D01*
X162250000Y-84400000D02*
X162250000Y-86560000D01*
%TO.N,fourth_num*%
X158850000Y-72750000D02*
X161800000Y-72750000D01*
X161800000Y-69260000D02*
X161800000Y-72750000D01*
X162250000Y-66650000D02*
X162250000Y-68810000D01*
X162250000Y-68810000D02*
X161800000Y-69260000D01*
%TO.N,P9*%
X167650000Y-148700000D02*
X170600000Y-148700000D01*
X167650000Y-77700000D02*
X168097600Y-77700000D01*
X168097600Y-95450000D02*
X167650000Y-95450000D01*
X168097600Y-77700000D02*
X170600000Y-77700000D01*
X168097600Y-95450000D02*
X168097600Y-77700000D01*
X167650000Y-113200000D02*
X170600000Y-113200000D01*
X170600000Y-95450000D02*
X168097600Y-95450000D01*
X167650000Y-113200000D02*
X167650000Y-130950000D01*
X167650000Y-130950000D02*
X170600000Y-130950000D01*
X170600000Y-95450000D02*
X170600000Y-113200000D01*
X167650000Y-130950000D02*
X167650000Y-148700000D01*
%TO.N,fifth_mod*%
X177600000Y-149750000D02*
X180550000Y-149750000D01*
X181000000Y-143650000D02*
X181000000Y-145810000D01*
X181000000Y-149300000D02*
X181000000Y-145810000D01*
X180550000Y-149750000D02*
X181000000Y-149300000D01*
%TO.N,fifth_bottom*%
X181000000Y-125900000D02*
X181000000Y-128060000D01*
X181000000Y-131550000D02*
X180550000Y-132000000D01*
X177600000Y-132000000D02*
X180550000Y-132000000D01*
X181000000Y-128060000D02*
X181000000Y-131550000D01*
%TO.N,fifth_home*%
X180550000Y-110760000D02*
X180550000Y-114250000D01*
X181000000Y-110310000D02*
X180550000Y-110760000D01*
X177600000Y-114250000D02*
X180550000Y-114250000D01*
X181000000Y-108150000D02*
X181000000Y-110310000D01*
%TO.N,fifth_top*%
X181000000Y-90400000D02*
X181000000Y-92560000D01*
X181000000Y-92560000D02*
X180550000Y-93010000D01*
X180550000Y-93010000D02*
X180550000Y-96500000D01*
X180550000Y-96500000D02*
X177600000Y-96500000D01*
%TO.N,fifth_num*%
X181000000Y-72650000D02*
X181000000Y-74810000D01*
X177600000Y-78750000D02*
X180550000Y-78750000D01*
X180550000Y-78750000D02*
X181000000Y-78300000D01*
X181000000Y-78300000D02*
X181000000Y-74810000D01*
%TO.N,P4*%
X189350000Y-133950000D02*
X189350000Y-116200000D01*
X189632800Y-158145300D02*
X189632800Y-134232800D01*
X186400000Y-98450000D02*
X189350000Y-98450000D01*
X192187600Y-159620300D02*
X190712600Y-158145300D01*
X186400000Y-80700000D02*
X189350000Y-80700000D01*
X189350000Y-116200000D02*
X186400000Y-116200000D01*
X189350000Y-80700000D02*
X189350000Y-98450000D01*
X224304300Y-98550700D02*
X224304300Y-99358700D01*
X190712600Y-158145300D02*
X189632800Y-158145300D01*
X189632800Y-134232800D02*
X189350000Y-133950000D01*
X225835000Y-97020000D02*
X224304300Y-98550700D01*
X186400000Y-133950000D02*
X189350000Y-133950000D01*
X186400000Y-98450000D02*
X186400000Y-116200000D01*
%TO.N,sixth_bottom*%
X199750000Y-134550000D02*
X199750000Y-131060000D01*
X196350000Y-135000000D02*
X199300000Y-135000000D01*
X199300000Y-135000000D02*
X199750000Y-134550000D01*
X199750000Y-128900000D02*
X199750000Y-131060000D01*
%TO.N,sixth_home*%
X199750000Y-113310000D02*
X199300000Y-113760000D01*
X199750000Y-111150000D02*
X199750000Y-113310000D01*
X196350000Y-117250000D02*
X199300000Y-117250000D01*
X199300000Y-113760000D02*
X199300000Y-117250000D01*
%TO.N,sixth_top*%
X196350000Y-99500000D02*
X199300000Y-99500000D01*
X199300000Y-96010000D02*
X199750000Y-95560000D01*
X199300000Y-99500000D02*
X199300000Y-96010000D01*
X199750000Y-95560000D02*
X199750000Y-93400000D01*
%TO.N,sixth_num*%
X199300000Y-81750000D02*
X199750000Y-81300000D01*
X199750000Y-75650000D02*
X199750000Y-77810000D01*
X199300000Y-81750000D02*
X196350000Y-81750000D01*
X199750000Y-81300000D02*
X199750000Y-77810000D01*
%TO.N,P10*%
X205150000Y-112200000D02*
X208100000Y-112200000D01*
X205150000Y-112200000D02*
X205150000Y-129950000D01*
X205150000Y-129950000D02*
X208100000Y-129950000D01*
X218015700Y-171604900D02*
X218015700Y-172684700D01*
X219490700Y-170129900D02*
X219398500Y-170222100D01*
X205150000Y-94450000D02*
X208100000Y-94450000D01*
X219398500Y-170222100D02*
X218015700Y-171604900D01*
X208100000Y-158923600D02*
X208100000Y-129950000D01*
X205150000Y-112200000D02*
X205150000Y-94450000D01*
X219398500Y-170222100D02*
X208100000Y-158923600D01*
%TO.N,seventh_bottom*%
X215100000Y-131000000D02*
X218050000Y-131000000D01*
X218050000Y-127510000D02*
X218050000Y-131000000D01*
X218500000Y-127060000D02*
X218050000Y-127510000D01*
X218500000Y-127060000D02*
X218500000Y-124900000D01*
%TO.N,seventh_home*%
X218500000Y-112800000D02*
X218500000Y-109310000D01*
X218500000Y-107150000D02*
X218500000Y-109310000D01*
X215100000Y-113250000D02*
X218050000Y-113250000D01*
X218050000Y-113250000D02*
X218500000Y-112800000D01*
%TO.N,seventh_top*%
X218500000Y-89400000D02*
X218500000Y-91560000D01*
X218500000Y-95050000D02*
X218500000Y-91560000D01*
X218050000Y-95500000D02*
X215100000Y-95500000D01*
X218050000Y-95500000D02*
X218500000Y-95050000D01*
%TO.N,small_thumb_cluster*%
X200279500Y-165504600D02*
X202639200Y-163144900D01*
X203719200Y-160446800D02*
X203222500Y-161307100D01*
X203222500Y-161734200D02*
X203222500Y-161307100D01*
X202639200Y-163144900D02*
X202639200Y-162317500D01*
X202639200Y-162317500D02*
X203222500Y-161734200D01*
%TO.N,medium_thumb_cluster*%
X223900000Y-162038000D02*
X223900000Y-164592700D01*
X221760800Y-159678200D02*
X221177500Y-159094900D01*
X222187900Y-159678200D02*
X223900000Y-161390300D01*
X220317200Y-158598200D02*
X221177500Y-159094900D01*
X225375000Y-162038000D02*
X223900000Y-162038000D01*
X222187900Y-159678200D02*
X221760800Y-159678200D01*
X223900000Y-161390300D02*
X223900000Y-162038000D01*
%TO.N,big_thumb_cluster*%
X242522300Y-171938000D02*
X242108700Y-172351600D01*
X241047300Y-173413000D02*
X241047300Y-174492700D01*
X238324800Y-168994900D02*
X238751900Y-168994900D01*
X237464500Y-168498200D02*
X238324800Y-168994900D01*
X242108700Y-172351600D02*
X241047300Y-173413000D01*
X238751900Y-168994900D02*
X239335200Y-169578200D01*
X242108700Y-172351600D02*
X239335200Y-169578200D01*
%TO.N,P18*%
X242283000Y-114709900D02*
X240254900Y-116738000D01*
X218500000Y-119440000D02*
X218500000Y-121600000D01*
X162250000Y-116600000D02*
X162250000Y-114440000D01*
X199750000Y-125600000D02*
X199750000Y-123440000D01*
X241075000Y-99560000D02*
X242283000Y-100768000D01*
X124750000Y-128600000D02*
X124750000Y-126440000D01*
X143500000Y-119440000D02*
X143500000Y-121600000D01*
X106000000Y-126440000D02*
X106000000Y-128600000D01*
X181000000Y-122600000D02*
X181000000Y-120440000D01*
X242283000Y-100768000D02*
X242283000Y-114709900D01*
%TO.N,P19*%
X143500000Y-101690000D02*
X143500000Y-103850000D01*
X199750000Y-107850000D02*
X199750000Y-105690000D01*
X181000000Y-102690000D02*
X181000000Y-104850000D01*
X162250000Y-96690000D02*
X162250000Y-98850000D01*
X106000000Y-110850000D02*
X106000000Y-108690000D01*
X124750000Y-110850000D02*
X124750000Y-108690000D01*
X218500000Y-101690000D02*
X218500000Y-103850000D01*
%TO.N,P20*%
X143500000Y-86100000D02*
X143500000Y-83940000D01*
X162250000Y-78940000D02*
X162250000Y-81100000D01*
X106000000Y-90940000D02*
X106000000Y-93100000D01*
X218500000Y-86100000D02*
X218500000Y-83940000D01*
X199750000Y-87940000D02*
X199750000Y-90100000D01*
X181000000Y-87100000D02*
X181000000Y-84940000D01*
X124750000Y-93100000D02*
X124750000Y-90940000D01*
%TO.N,P21*%
X241075000Y-91940000D02*
X242253000Y-90762000D01*
X124750000Y-73190000D02*
X124750000Y-75350000D01*
X242253000Y-80585000D02*
X241281800Y-79613800D01*
X106000000Y-75350000D02*
X106000000Y-73190000D01*
X143500000Y-68350000D02*
X143500000Y-66190000D01*
X162250000Y-61190000D02*
X162250000Y-63350000D01*
X181000000Y-67190000D02*
X181000000Y-69350000D01*
X242253000Y-90762000D02*
X242253000Y-80585000D01*
X199750000Y-70190000D02*
X199750000Y-72350000D01*
%TO.N,P15*%
X233319300Y-166351500D02*
X232736000Y-165768200D01*
X162250000Y-134350000D02*
X162250000Y-132190000D01*
X239110400Y-104066700D02*
X239183600Y-103993500D01*
X234606700Y-166848200D02*
X235158300Y-165892800D01*
X206449200Y-155718300D02*
X205694300Y-157025900D01*
X181000000Y-138190000D02*
X181000000Y-140350000D01*
X216172000Y-156451500D02*
X215588700Y-155868200D01*
X239183600Y-103993500D02*
X239183600Y-103991400D01*
X205369200Y-157351000D02*
X205369200Y-157589000D01*
X239183600Y-103991400D02*
X241075000Y-102100000D01*
X205694300Y-157025900D02*
X205369200Y-157351000D01*
X234606700Y-166848200D02*
X233746400Y-166351500D01*
X239110400Y-161940700D02*
X239110400Y-104066700D01*
X235158300Y-165892800D02*
X239110400Y-161940700D01*
X217459400Y-156948200D02*
X216599100Y-156451500D01*
X216599100Y-156451500D02*
X216172000Y-156451500D01*
X233746400Y-166351500D02*
X233319300Y-166351500D01*
%TO.N,VCC*%
X235876700Y-114450000D02*
X235876700Y-114737900D01*
X236743400Y-115604600D02*
X237798200Y-115604600D01*
X237798200Y-115604600D02*
X238640400Y-114762400D01*
X252900000Y-89450000D02*
X252900000Y-90150800D01*
X252300000Y-125980000D02*
X252300000Y-124828300D01*
X238640400Y-114762400D02*
X238640400Y-91834600D01*
X253459000Y-123957200D02*
X252587900Y-124828300D01*
X235876700Y-114737900D02*
X236743400Y-115604600D01*
X238640400Y-91834600D02*
X241075000Y-89400000D01*
X252900000Y-90150800D02*
X253459000Y-90709800D01*
X253459000Y-90709800D02*
X253459000Y-123957200D01*
X234725000Y-114450000D02*
X235876700Y-114450000D01*
X252587900Y-124828300D02*
X252300000Y-124828300D01*
%TO.N,P2*%
X229645000Y-114450000D02*
X229645000Y-95750000D01*
X248300000Y-126196200D02*
X248300000Y-90550000D01*
X229645000Y-95750000D02*
X225835000Y-91940000D01*
X252012100Y-129908300D02*
X248300000Y-126196200D01*
X252300000Y-129908300D02*
X252012100Y-129908300D01*
X252300000Y-131060000D02*
X252300000Y-129908300D01*
%TO.N,P3*%
X227646000Y-96291000D02*
X227646000Y-114089300D01*
X251137500Y-112714700D02*
X251137500Y-126474300D01*
X232185000Y-114450000D02*
X231033300Y-114450000D01*
X251137500Y-112714700D02*
X251137500Y-90228400D01*
X229178500Y-115621800D02*
X230130000Y-115621800D01*
X231033300Y-114718500D02*
X231033300Y-114450000D01*
X227646000Y-114089300D02*
X229178500Y-115621800D01*
X251137500Y-90228400D02*
X249298300Y-88389200D01*
X249298300Y-88389200D02*
X249298300Y-87310800D01*
X230130000Y-115621800D02*
X231033300Y-114718500D01*
X249298300Y-87310800D02*
X251159100Y-85450000D01*
X251137500Y-126474300D02*
X252031500Y-127368300D01*
X252031500Y-127368300D02*
X252300000Y-127368300D01*
X225835000Y-94480000D02*
X227646000Y-96291000D01*
X252300000Y-128520000D02*
X252300000Y-127368300D01*
X251159100Y-85450000D02*
X252900000Y-85450000D01*
%TD*%
M02*
