%TF.GenerationSoftware,KiCad,Pcbnew,9.0.7*%
%TF.CreationDate,2026-01-28T22:46:33+01:00*%
%TF.ProjectId,board_left_finished,626f6172-645f-46c6-9566-745f66696e69,v1.0.0*%
%TF.SameCoordinates,Original*%
%TF.FileFunction,Profile,NP*%
%FSLAX46Y46*%
G04 Gerber Fmt 4.6, Leading zero omitted, Abs format (unit mm)*
G04 Created by KiCad (PCBNEW 9.0.7) date 2026-01-28 22:46:33*
%MOMM*%
%LPD*%
G01*
G04 APERTURE LIST*
%TA.AperFunction,Profile*%
%ADD10C,0.150000*%
%TD*%
G04 APERTURE END LIST*
D10*
X169765564Y-60500000D02*
X184438498Y-60500000D01*
X125941457Y-64713066D02*
G75*
G02*
X123952839Y-66499939I-1988557J213066D01*
G01*
X125941457Y-64713066D02*
X126308543Y-61286934D01*
X126308543Y-61286934D02*
G75*
G02*
X128297161Y-59500061I1988557J-213066D01*
G01*
X263390954Y-154227003D02*
G75*
G02*
X263341853Y-155744472I-1873854J-698897D01*
G01*
X256626080Y-136088064D02*
X263390954Y-154227003D01*
X128297161Y-59500000D02*
X142777625Y-59500000D01*
X155164990Y-158471663D02*
X143462780Y-154570927D01*
X143026795Y-154477967D02*
X86803530Y-148928031D01*
X240557101Y-196841824D02*
G75*
G02*
X237825039Y-197573895I-1732101J1000124D01*
G01*
X207393882Y-77250000D02*
G75*
G02*
X205396869Y-75358928I18J2000000D01*
G01*
X216071374Y-185028930D02*
G75*
G02*
X216271769Y-185130086I-800074J-1834070D01*
G01*
X146972375Y-54500000D02*
X165484436Y-54500000D01*
X186750100Y-63500000D02*
X202856118Y-63500000D01*
X85000000Y-146937704D02*
X85000000Y-66500000D01*
X169765564Y-60500000D02*
G75*
G02*
X167780957Y-58748076I36J2000100D01*
G01*
X144755498Y-57796681D02*
G75*
G02*
X142777625Y-59500025I-1977898J296681D01*
G01*
X204853149Y-65391071D02*
X205396851Y-75358929D01*
X186378767Y-62014868D02*
X186750100Y-63500000D01*
X143026795Y-154477967D02*
G75*
G02*
X143462776Y-154570939I-196595J-1990633D01*
G01*
X216071374Y-185028930D02*
X155332137Y-158535826D01*
X202856118Y-63500000D02*
G75*
G02*
X204853131Y-65391072I-18J-2000000D01*
G01*
X254500000Y-77250000D02*
G75*
G02*
X256500000Y-79250000I0J-2000000D01*
G01*
X263341839Y-155744466D02*
X260098852Y-162973762D01*
X237825051Y-197573875D02*
X216271771Y-185130083D01*
X144994502Y-56203319D02*
G75*
G02*
X146972375Y-54499975I1977898J-296681D01*
G01*
X144755498Y-57796681D02*
X144994502Y-56203319D01*
X86803530Y-148928031D02*
G75*
G02*
X84999996Y-146937704I196470J1990331D01*
G01*
X155164990Y-158471663D02*
G75*
G02*
X155332138Y-158535824I-632690J-1898037D01*
G01*
X256626080Y-136088064D02*
G75*
G02*
X256500010Y-135389190I1874020J698864D01*
G01*
X260098852Y-162973762D02*
G75*
G02*
X260006098Y-163155174I-1824552J818462D01*
G01*
X167468991Y-56251931D02*
X167781009Y-58748069D01*
X256500000Y-79250000D02*
X256500000Y-135389190D01*
X207393882Y-77250000D02*
X254500000Y-77250000D01*
X85000000Y-66500000D02*
X123952839Y-66500000D01*
X260006098Y-163155174D02*
X240557101Y-196841824D01*
X184438498Y-60500000D02*
G75*
G02*
X186378770Y-62014867I2J-2000000D01*
G01*
X165484436Y-54500000D02*
G75*
G02*
X167469043Y-56251924I-36J-2000100D01*
G01*
M02*
