%TF.GenerationSoftware,KiCad,Pcbnew,9.0.7*%
%TF.CreationDate,2026-01-28T22:46:33+01:00*%
%TF.ProjectId,board_left_finished,626f6172-645f-46c6-9566-745f66696e69,v1.0.0*%
%TF.SameCoordinates,Original*%
%TF.FileFunction,Soldermask,Top*%
%TF.FilePolarity,Negative*%
%FSLAX46Y46*%
G04 Gerber Fmt 4.6, Leading zero omitted, Abs format (unit mm)*
G04 Created by KiCad (PCBNEW 9.0.7) date 2026-01-28 22:46:33*
%MOMM*%
%LPD*%
G01*
G04 APERTURE LIST*
G04 Aperture macros list*
%AMRoundRect*
0 Rectangle with rounded corners*
0 $1 Rounding radius*
0 $2 $3 $4 $5 $6 $7 $8 $9 X,Y pos of 4 corners*
0 Add a 4 corners polygon primitive as box body*
4,1,4,$2,$3,$4,$5,$6,$7,$8,$9,$2,$3,0*
0 Add four circle primitives for the rounded corners*
1,1,$1+$1,$2,$3*
1,1,$1+$1,$4,$5*
1,1,$1+$1,$6,$7*
1,1,$1+$1,$8,$9*
0 Add four rect primitives between the rounded corners*
20,1,$1+$1,$2,$3,$4,$5,0*
20,1,$1+$1,$4,$5,$6,$7,0*
20,1,$1+$1,$6,$7,$8,$9,0*
20,1,$1+$1,$8,$9,$2,$3,0*%
G04 Aperture macros list end*
%ADD10RoundRect,0.050000X-0.889000X0.889000X-0.889000X-0.889000X0.889000X-0.889000X0.889000X0.889000X0*%
%ADD11RoundRect,0.050000X-0.600000X0.450000X-0.600000X-0.450000X0.600000X-0.450000X0.600000X0.450000X0*%
%ADD12C,2.005000*%
%ADD13O,1.800000X1.800000*%
%ADD14RoundRect,0.050000X-1.214397X-0.325397X0.325397X-1.214397X1.214397X0.325397X-0.325397X1.214397X0*%
%ADD15RoundRect,0.050000X-0.689711X-0.294615X0.089711X-0.744615X0.689711X0.294615X-0.089711X0.744615X0*%
%ADD16C,2.300000*%
%ADD17RoundRect,0.050000X-0.325397X1.214397X-1.214397X-0.325397X0.325397X-1.214397X1.214397X0.325397X0*%
%ADD18RoundRect,0.050000X-0.294615X0.689711X-0.744615X-0.089711X0.294615X-0.689711X0.744615X0.089711X0*%
%ADD19RoundRect,0.050000X-0.876300X0.876300X-0.876300X-0.876300X0.876300X-0.876300X0.876300X0.876300X0*%
%ADD20C,1.852600*%
%ADD21C,1.600000*%
%ADD22O,1.700000X2.300000*%
%ADD23C,5.700000*%
%ADD24C,3.600000*%
G04 APERTURE END LIST*
D10*
%TO.C,D1*%
X106000000Y-126440000D03*
D11*
X106000000Y-128600000D03*
X106000000Y-131900000D03*
D12*
X106000000Y-134060000D03*
%TD*%
D10*
%TO.C,D10*%
X143500000Y-101690000D03*
D11*
X143500000Y-103850000D03*
X143500000Y-107150000D03*
D12*
X143500000Y-109310000D03*
%TD*%
D13*
%TO.C,I2COut*%
X252300000Y-123440000D03*
X252300000Y-125980000D03*
X252300000Y-128520000D03*
X252300000Y-131060000D03*
%TD*%
D10*
%TO.C,D8*%
X124750000Y-73190000D03*
D11*
X124750000Y-75350000D03*
X124750000Y-78650000D03*
D12*
X124750000Y-80810000D03*
%TD*%
D10*
%TO.C,D2*%
X106000000Y-108690000D03*
D11*
X106000000Y-110850000D03*
X106000000Y-114150000D03*
D12*
X106000000Y-116310000D03*
%TD*%
D10*
%TO.C,D18*%
X181000000Y-138190000D03*
D11*
X181000000Y-140350000D03*
X181000000Y-143650000D03*
D12*
X181000000Y-145810000D03*
%TD*%
D14*
%TO.C,D32*%
X232736043Y-165768200D03*
D15*
X234606658Y-166848200D03*
X237464542Y-168498200D03*
D12*
X239335157Y-169578200D03*
%TD*%
D16*
%TO.C,MH2*%
X109750000Y-124700000D03*
%TD*%
D10*
%TO.C,D7*%
X124750000Y-90940000D03*
D11*
X124750000Y-93100000D03*
X124750000Y-96400000D03*
D12*
X124750000Y-98560000D03*
%TD*%
D16*
%TO.C,MH3*%
X184750000Y-121700000D03*
%TD*%
D10*
%TO.C,D28*%
X218500000Y-101690000D03*
D11*
X218500000Y-103850000D03*
X218500000Y-107150000D03*
D12*
X218500000Y-109310000D03*
%TD*%
D13*
%TO.C,DISP1*%
X229645000Y-114450000D03*
X232185000Y-114450000D03*
X234725000Y-114450000D03*
X237265000Y-114450000D03*
%TD*%
D16*
%TO.C,MH4*%
X184750000Y-86200000D03*
%TD*%
D10*
%TO.C,D13*%
X162250000Y-132190000D03*
D11*
X162250000Y-134350000D03*
X162250000Y-137650000D03*
D12*
X162250000Y-139810000D03*
%TD*%
D17*
%TO.C,D30*%
X206449200Y-155718343D03*
D18*
X205369200Y-157588958D03*
X203719200Y-160446842D03*
D12*
X202639200Y-162317457D03*
%TD*%
D19*
%TO.C,MCU1*%
X241075000Y-81780000D03*
D20*
X241075000Y-84320000D03*
X241075000Y-86860000D03*
X241075000Y-89400000D03*
X241075000Y-91940000D03*
X241075000Y-94480000D03*
X241075000Y-97020000D03*
X241075000Y-99560000D03*
X241075000Y-102100000D03*
X241075000Y-104640000D03*
X241075000Y-107180000D03*
X241075000Y-109720000D03*
X225835000Y-81780000D03*
X225835000Y-84320000D03*
X225835000Y-86860000D03*
X225835000Y-89400000D03*
X225835000Y-91940000D03*
X225835000Y-94480000D03*
X225835000Y-97020000D03*
X225835000Y-99560000D03*
X225835000Y-102100000D03*
X225835000Y-104640000D03*
X225835000Y-107180000D03*
X225835000Y-109720000D03*
%TD*%
D16*
%TO.C,MH1*%
X109750000Y-89950000D03*
%TD*%
D10*
%TO.C,D17*%
X162250000Y-61190000D03*
D11*
X162250000Y-63350000D03*
X162250000Y-66650000D03*
D12*
X162250000Y-68810000D03*
%TD*%
D10*
%TO.C,D22*%
X181000000Y-67190000D03*
D11*
X181000000Y-69350000D03*
X181000000Y-72650000D03*
D12*
X181000000Y-74810000D03*
%TD*%
D10*
%TO.C,D27*%
X218500000Y-119440000D03*
D11*
X218500000Y-121600000D03*
X218500000Y-124900000D03*
D12*
X218500000Y-127060000D03*
%TD*%
D10*
%TO.C,D5*%
X124750000Y-126440000D03*
D11*
X124750000Y-128600000D03*
X124750000Y-131900000D03*
D12*
X124750000Y-134060000D03*
%TD*%
D10*
%TO.C,D3*%
X106000000Y-90940000D03*
D11*
X106000000Y-93100000D03*
X106000000Y-96400000D03*
D12*
X106000000Y-98560000D03*
%TD*%
D16*
%TO.C,MH5*%
X223103700Y-144272100D03*
%TD*%
D10*
%TO.C,D15*%
X162250000Y-96690000D03*
D11*
X162250000Y-98850000D03*
X162250000Y-102150000D03*
D12*
X162250000Y-104310000D03*
%TD*%
D21*
%TO.C,TRRS1*%
X250600000Y-80850000D03*
X250600000Y-87850000D03*
D22*
X252900000Y-82450000D03*
X252900000Y-85450000D03*
X252900000Y-89450000D03*
X248300000Y-90550000D03*
%TD*%
D10*
%TO.C,D20*%
X181000000Y-102690000D03*
D11*
X181000000Y-104850000D03*
X181000000Y-108150000D03*
D12*
X181000000Y-110310000D03*
%TD*%
D10*
%TO.C,D16*%
X162250000Y-78940000D03*
D11*
X162250000Y-81100000D03*
X162250000Y-84400000D03*
D12*
X162250000Y-86560000D03*
%TD*%
D10*
%TO.C,D9*%
X143500000Y-119440000D03*
D11*
X143500000Y-121600000D03*
X143500000Y-124900000D03*
D12*
X143500000Y-127060000D03*
%TD*%
D10*
%TO.C,D4*%
X106000000Y-73190000D03*
D11*
X106000000Y-75350000D03*
X106000000Y-78650000D03*
D12*
X106000000Y-80810000D03*
%TD*%
D10*
%TO.C,D19*%
X181000000Y-120440000D03*
D11*
X181000000Y-122600000D03*
X181000000Y-125900000D03*
D12*
X181000000Y-128060000D03*
%TD*%
D10*
%TO.C,D11*%
X143500000Y-83940000D03*
D11*
X143500000Y-86100000D03*
X143500000Y-89400000D03*
D12*
X143500000Y-91560000D03*
%TD*%
D10*
%TO.C,D21*%
X181000000Y-84940000D03*
D11*
X181000000Y-87100000D03*
X181000000Y-90400000D03*
D12*
X181000000Y-92560000D03*
%TD*%
D10*
%TO.C,D29*%
X218500000Y-83940000D03*
D11*
X218500000Y-86100000D03*
X218500000Y-89400000D03*
D12*
X218500000Y-91560000D03*
%TD*%
D10*
%TO.C,D24*%
X199750000Y-105690000D03*
D11*
X199750000Y-107850000D03*
X199750000Y-111150000D03*
D12*
X199750000Y-113310000D03*
%TD*%
D10*
%TO.C,D6*%
X124750000Y-108690000D03*
D11*
X124750000Y-110850000D03*
X124750000Y-114150000D03*
D12*
X124750000Y-116310000D03*
%TD*%
D10*
%TO.C,D26*%
X199750000Y-70190000D03*
D11*
X199750000Y-72350000D03*
X199750000Y-75650000D03*
D12*
X199750000Y-77810000D03*
%TD*%
D10*
%TO.C,D23*%
X199750000Y-123440000D03*
D11*
X199750000Y-125600000D03*
X199750000Y-128900000D03*
D12*
X199750000Y-131060000D03*
%TD*%
D10*
%TO.C,D25*%
X199750000Y-87940000D03*
D11*
X199750000Y-90100000D03*
X199750000Y-93400000D03*
D12*
X199750000Y-95560000D03*
%TD*%
D10*
%TO.C,D12*%
X143500000Y-66190000D03*
D11*
X143500000Y-68350000D03*
X143500000Y-71650000D03*
D12*
X143500000Y-73810000D03*
%TD*%
D14*
%TO.C,D31*%
X215588743Y-155868200D03*
D15*
X217459358Y-156948200D03*
X220317242Y-158598200D03*
D12*
X222187857Y-159678200D03*
%TD*%
D10*
%TO.C,D14*%
X162250000Y-114440000D03*
D11*
X162250000Y-116600000D03*
X162250000Y-119900000D03*
D12*
X162250000Y-122060000D03*
%TD*%
D23*
%TO.C,S29*%
X212500000Y-89750000D03*
D24*
X208100000Y-94450000D03*
X215100000Y-95500000D03*
%TD*%
D23*
%TO.C,S18*%
X175000000Y-144000000D03*
D24*
X170600000Y-148700000D03*
X177600000Y-149750000D03*
%TD*%
D23*
%TO.C,S31*%
X217620400Y-163969400D03*
D24*
X219490719Y-170129912D03*
X223900046Y-164592734D03*
%TD*%
D23*
%TO.C,S4*%
X100000000Y-79000000D03*
D24*
X95600000Y-83700000D03*
X102600000Y-84750000D03*
%TD*%
D23*
%TO.C,S9*%
X137500000Y-125250000D03*
D24*
X133100000Y-129950000D03*
X140100000Y-131000000D03*
%TD*%
D23*
%TO.C,S22*%
X175000000Y-73000000D03*
D24*
X170600000Y-77700000D03*
X177600000Y-78750000D03*
%TD*%
D23*
%TO.C,S10*%
X137500000Y-107500000D03*
D24*
X133100000Y-112200000D03*
X140100000Y-113250000D03*
%TD*%
D23*
%TO.C,S24*%
X193750000Y-111500000D03*
D24*
X189350000Y-116200000D03*
X196350000Y-117250000D03*
%TD*%
D23*
%TO.C,S20*%
X175000000Y-108500000D03*
D24*
X170600000Y-113200000D03*
X177600000Y-114250000D03*
%TD*%
D23*
%TO.C,S7*%
X118750000Y-96750000D03*
D24*
X114350000Y-101450000D03*
X121350000Y-102500000D03*
%TD*%
D23*
%TO.C,S8*%
X118750000Y-79000000D03*
D24*
X114350000Y-83700000D03*
X121350000Y-84750000D03*
%TD*%
D23*
%TO.C,S25*%
X193750000Y-93750000D03*
D24*
X189350000Y-98450000D03*
X196350000Y-99500000D03*
%TD*%
D23*
%TO.C,S26*%
X193750000Y-76000000D03*
D24*
X189350000Y-80700000D03*
X196350000Y-81750000D03*
%TD*%
D23*
%TO.C,S15*%
X156250000Y-102500000D03*
D24*
X151850000Y-107200000D03*
X158850000Y-108250000D03*
%TD*%
D23*
%TO.C,S12*%
X137500000Y-72000000D03*
D24*
X133100000Y-76700000D03*
X140100000Y-77750000D03*
%TD*%
D23*
%TO.C,S21*%
X175000000Y-90750000D03*
D24*
X170600000Y-95450000D03*
X177600000Y-96500000D03*
%TD*%
D23*
%TO.C,S28*%
X212500000Y-107500000D03*
D24*
X208100000Y-112200000D03*
X215100000Y-113250000D03*
%TD*%
D23*
%TO.C,S17*%
X156250000Y-67000000D03*
D24*
X151850000Y-71700000D03*
X158850000Y-72750000D03*
%TD*%
D23*
%TO.C,S1*%
X100000000Y-132250000D03*
D24*
X95600000Y-136950000D03*
X102600000Y-138000000D03*
%TD*%
D23*
%TO.C,S14*%
X156250000Y-120250000D03*
D24*
X151850000Y-124950000D03*
X158850000Y-126000000D03*
%TD*%
D23*
%TO.C,S19*%
X175000000Y-126250000D03*
D24*
X170600000Y-130950000D03*
X177600000Y-132000000D03*
%TD*%
D23*
%TO.C,S5*%
X118750000Y-132250000D03*
D24*
X114350000Y-136950000D03*
X121350000Y-138000000D03*
%TD*%
D23*
%TO.C,S11*%
X137500000Y-89750000D03*
D24*
X133100000Y-94450000D03*
X140100000Y-95500000D03*
%TD*%
D23*
%TO.C,S13*%
X156250000Y-138000000D03*
D24*
X151850000Y-142700000D03*
X158850000Y-143750000D03*
%TD*%
D23*
%TO.C,S3*%
X100000000Y-96750000D03*
D24*
X95600000Y-101450000D03*
X102600000Y-102500000D03*
%TD*%
D23*
%TO.C,S6*%
X118750000Y-114500000D03*
D24*
X114350000Y-119200000D03*
X121350000Y-120250000D03*
%TD*%
D23*
%TO.C,S27*%
X212500000Y-125250000D03*
D24*
X208100000Y-129950000D03*
X215100000Y-131000000D03*
%TD*%
D23*
%TO.C,S32*%
X234767700Y-173869400D03*
D24*
X236638019Y-180029912D03*
X241047346Y-174492734D03*
%TD*%
D23*
%TO.C,S2*%
X100000000Y-114500000D03*
D24*
X95600000Y-119200000D03*
X102600000Y-120250000D03*
%TD*%
D23*
%TO.C,S30*%
X198348100Y-157750000D03*
D24*
X192187588Y-159620319D03*
X197724766Y-164029646D03*
%TD*%
D23*
%TO.C,S16*%
X156250000Y-84750000D03*
D24*
X151850000Y-89450000D03*
X158850000Y-90500000D03*
%TD*%
D23*
%TO.C,S23*%
X193750000Y-129250000D03*
D24*
X189350000Y-133950000D03*
X196350000Y-135000000D03*
%TD*%
M02*
