%TF.GenerationSoftware,KiCad,Pcbnew,9.0.7*%
%TF.CreationDate,2026-01-28T22:46:33+01:00*%
%TF.ProjectId,board_left_finished,626f6172-645f-46c6-9566-745f66696e69,v1.0.0*%
%TF.SameCoordinates,Original*%
%TF.FileFunction,Legend,Top*%
%TF.FilePolarity,Positive*%
%FSLAX46Y46*%
G04 Gerber Fmt 4.6, Leading zero omitted, Abs format (unit mm)*
G04 Created by KiCad (PCBNEW 9.0.7) date 2026-01-28 22:46:33*
%MOMM*%
%LPD*%
G01*
G04 APERTURE LIST*
%ADD10C,0.000000*%
%ADD11C,0.200000*%
%ADD12C,0.150000*%
%ADD13C,0.100000*%
%ADD14C,0.120000*%
%ADD15R,1.752600X1.752600*%
%ADD16C,1.752600*%
G04 APERTURE END LIST*
D10*
G36*
X226275760Y-130800203D02*
G01*
X226317934Y-130842168D01*
X226367633Y-130893968D01*
X226393619Y-130922302D01*
X226419464Y-130951590D01*
X226444495Y-130981331D01*
X226468037Y-131011024D01*
X226489416Y-131040167D01*
X226507959Y-131068258D01*
X226515956Y-131081753D01*
X226522991Y-131094797D01*
X226528980Y-131107328D01*
X226533838Y-131119282D01*
X226535337Y-131124416D01*
X226536218Y-131129906D01*
X226536507Y-131135742D01*
X226536227Y-131141914D01*
X226535404Y-131148409D01*
X226534062Y-131155217D01*
X226532225Y-131162328D01*
X226529919Y-131169730D01*
X226523994Y-131185364D01*
X226516483Y-131202032D01*
X226507583Y-131219646D01*
X226497490Y-131238121D01*
X226486400Y-131257367D01*
X226474509Y-131277298D01*
X226449109Y-131318865D01*
X226422860Y-131362123D01*
X226409907Y-131384167D01*
X226397331Y-131406373D01*
X226384162Y-131431095D01*
X226372013Y-131455663D01*
X226360768Y-131480008D01*
X226350307Y-131504064D01*
X226331266Y-131551045D01*
X226313942Y-131596071D01*
X226297389Y-131638611D01*
X226280661Y-131678132D01*
X226271934Y-131696593D01*
X226262809Y-131714100D01*
X226253166Y-131730586D01*
X226242887Y-131745984D01*
X226216586Y-131772119D01*
X226215063Y-131763623D01*
X226209917Y-131739340D01*
X226205717Y-131721845D01*
X226200287Y-131701083D01*
X226193520Y-131677280D01*
X226185308Y-131650663D01*
X226175544Y-131621458D01*
X226164119Y-131589891D01*
X226150925Y-131556189D01*
X226135856Y-131520578D01*
X226118802Y-131483285D01*
X226099656Y-131444536D01*
X226078310Y-131404557D01*
X226066778Y-131384178D01*
X226054656Y-131363576D01*
X226035612Y-131332898D01*
X226017417Y-131305477D01*
X226000174Y-131281060D01*
X225983988Y-131259393D01*
X225968964Y-131240225D01*
X225955204Y-131223303D01*
X225931898Y-131195187D01*
X225922560Y-131183488D01*
X225914903Y-131173024D01*
X225909033Y-131163543D01*
X225905053Y-131154793D01*
X225903804Y-131150613D01*
X225903067Y-131146521D01*
X225902854Y-131142485D01*
X225903179Y-131138474D01*
X225904055Y-131134457D01*
X225905495Y-131130401D01*
X225907511Y-131126275D01*
X225910117Y-131122048D01*
X225931640Y-131091049D01*
X225951174Y-131064384D01*
X225969044Y-131041398D01*
X225985574Y-131021437D01*
X226001089Y-131003848D01*
X226015913Y-130987975D01*
X226044789Y-130958764D01*
X226074801Y-130928569D01*
X226091044Y-130911468D01*
X226108545Y-130892158D01*
X226127629Y-130869986D01*
X226148620Y-130844297D01*
X226171843Y-130814438D01*
X226197622Y-130779753D01*
X226235550Y-130761817D01*
X226275760Y-130800203D01*
G37*
G36*
X226281353Y-129654027D02*
G01*
X226358956Y-129709700D01*
X226451117Y-129777479D01*
X226548324Y-129851502D01*
X226595847Y-129889023D01*
X226641066Y-129925906D01*
X226682791Y-129961418D01*
X226719834Y-129994827D01*
X226751006Y-130025399D01*
X226775118Y-130052402D01*
X226801656Y-130050147D01*
X226826943Y-130045653D01*
X226851005Y-130039220D01*
X226873869Y-130031150D01*
X226895562Y-130021743D01*
X226916110Y-130011298D01*
X226935539Y-130000118D01*
X226953876Y-129988501D01*
X227016835Y-129943685D01*
X227042453Y-129926474D01*
X227053889Y-129920219D01*
X227064445Y-129915933D01*
X227074148Y-129913914D01*
X227083024Y-129914465D01*
X227091101Y-129917885D01*
X227098403Y-129924475D01*
X227104959Y-129934536D01*
X227110794Y-129948367D01*
X227115935Y-129966269D01*
X227120408Y-129988543D01*
X227124240Y-130015490D01*
X227127458Y-130047409D01*
X227132157Y-130127368D01*
X227134716Y-130230824D01*
X227135348Y-130360180D01*
X227198104Y-130438204D01*
X227262429Y-130519576D01*
X227336167Y-130614826D01*
X227409905Y-130713181D01*
X227443832Y-130760157D01*
X227474229Y-130803869D01*
X227499920Y-130842972D01*
X227519727Y-130876119D01*
X227532474Y-130901963D01*
X227535833Y-130911726D01*
X227536985Y-130919159D01*
X227308916Y-131058901D01*
X227287525Y-131076353D01*
X227266293Y-131095239D01*
X227245385Y-131115628D01*
X227224969Y-131137589D01*
X227205209Y-131161190D01*
X227186272Y-131186498D01*
X227168325Y-131213583D01*
X227151534Y-131242512D01*
X227136065Y-131273353D01*
X227122085Y-131306175D01*
X227109759Y-131341047D01*
X227099254Y-131378035D01*
X227090737Y-131417210D01*
X227084373Y-131458638D01*
X227080329Y-131502387D01*
X227078771Y-131548528D01*
X227103826Y-131550376D01*
X227128279Y-131550793D01*
X227152142Y-131549853D01*
X227175426Y-131547628D01*
X227198144Y-131544193D01*
X227220309Y-131539619D01*
X227241931Y-131533981D01*
X227263024Y-131527352D01*
X227283599Y-131519805D01*
X227303669Y-131511413D01*
X227342341Y-131492388D01*
X227379137Y-131470865D01*
X227414154Y-131447429D01*
X227641891Y-131261453D01*
X227634962Y-131303543D01*
X227621919Y-131353377D01*
X227603507Y-131409641D01*
X227580469Y-131471020D01*
X227553550Y-131536200D01*
X227523493Y-131603867D01*
X227456941Y-131741406D01*
X227386766Y-131873123D01*
X227352180Y-131933512D01*
X227318920Y-131988504D01*
X227287730Y-132036784D01*
X227259354Y-132077037D01*
X227234535Y-132107950D01*
X227214019Y-132128209D01*
X227188688Y-132075511D01*
X227162353Y-132025834D01*
X227134983Y-131980321D01*
X227120899Y-131959484D01*
X227106544Y-131940117D01*
X227091914Y-131922364D01*
X227077005Y-131906367D01*
X227061813Y-131892270D01*
X227046334Y-131880215D01*
X227030563Y-131870345D01*
X227014497Y-131862804D01*
X226998132Y-131857735D01*
X226981464Y-131855280D01*
X226964488Y-131855583D01*
X226947201Y-131858787D01*
X226929598Y-131865034D01*
X226911676Y-131874468D01*
X226893431Y-131887233D01*
X226874858Y-131903470D01*
X226855954Y-131923322D01*
X226836713Y-131946934D01*
X226817134Y-131974448D01*
X226797211Y-132006007D01*
X226776940Y-132041754D01*
X226756317Y-132081832D01*
X226735338Y-132126385D01*
X226714000Y-132175554D01*
X226692298Y-132229484D01*
X226670228Y-132288317D01*
X226645827Y-132358630D01*
X226625048Y-132424883D01*
X226607725Y-132487194D01*
X226593697Y-132545682D01*
X226582799Y-132600465D01*
X226574868Y-132651664D01*
X226569741Y-132699396D01*
X226567253Y-132743780D01*
X226567243Y-132784936D01*
X226569545Y-132822981D01*
X226573997Y-132858036D01*
X226580435Y-132890218D01*
X226588695Y-132919646D01*
X226598615Y-132946440D01*
X226610030Y-132970718D01*
X226622777Y-132992599D01*
X226636693Y-133012202D01*
X226651614Y-133029646D01*
X226667377Y-133045049D01*
X226683817Y-133058530D01*
X226718080Y-133080203D01*
X226753092Y-133095615D01*
X226787548Y-133105717D01*
X226820138Y-133111460D01*
X226849555Y-133113793D01*
X226874492Y-133113668D01*
X226837875Y-133152716D01*
X226804021Y-133192911D01*
X226772797Y-133234127D01*
X226744068Y-133276232D01*
X226717703Y-133319099D01*
X226693569Y-133362598D01*
X226651460Y-133450976D01*
X226616678Y-133540332D01*
X226588159Y-133629634D01*
X226564841Y-133717848D01*
X226545659Y-133803941D01*
X226489029Y-134106442D01*
X226474579Y-134166434D01*
X226457885Y-134218106D01*
X226437884Y-134260426D01*
X226426311Y-134277756D01*
X226413512Y-134292360D01*
X226404267Y-134226944D01*
X226396361Y-134125769D01*
X226385518Y-133836917D01*
X226382892Y-133467356D01*
X226390391Y-133058637D01*
X226409924Y-132652312D01*
X226424800Y-132463032D01*
X226443399Y-132289932D01*
X226465961Y-132138206D01*
X226492724Y-132013048D01*
X226523927Y-131919652D01*
X226541267Y-131886488D01*
X226559807Y-131863212D01*
X226601944Y-131817139D01*
X226647791Y-131754825D01*
X226694720Y-131678305D01*
X226740102Y-131589611D01*
X226781308Y-131490777D01*
X226799524Y-131438194D01*
X226815710Y-131383838D01*
X226829538Y-131327964D01*
X226840679Y-131270826D01*
X226848804Y-131212678D01*
X226853586Y-131153775D01*
X226854695Y-131094370D01*
X226851802Y-131034718D01*
X226844580Y-130975074D01*
X226832699Y-130915691D01*
X226815831Y-130856823D01*
X226793648Y-130798725D01*
X226765820Y-130741651D01*
X226732019Y-130685856D01*
X226691917Y-130631592D01*
X226645185Y-130579116D01*
X226591495Y-130528680D01*
X226530517Y-130480539D01*
X226461924Y-130434947D01*
X226385386Y-130392158D01*
X226300575Y-130352427D01*
X226207162Y-130316008D01*
X226113837Y-130352493D01*
X226029280Y-130392412D01*
X225953153Y-130435501D01*
X225885120Y-130481494D01*
X225824844Y-130530127D01*
X225771986Y-130581133D01*
X225726210Y-130634248D01*
X225687180Y-130689206D01*
X225654557Y-130745743D01*
X225628005Y-130803592D01*
X225607186Y-130862488D01*
X225591763Y-130922167D01*
X225581400Y-130982363D01*
X225575758Y-131042810D01*
X225574501Y-131103244D01*
X225577292Y-131163399D01*
X225583794Y-131223010D01*
X225593669Y-131281812D01*
X225606580Y-131339539D01*
X225622190Y-131395926D01*
X225660158Y-131503618D01*
X225704878Y-131602768D01*
X225753650Y-131691253D01*
X225803778Y-131766950D01*
X225852565Y-131827737D01*
X225897314Y-131871493D01*
X225908313Y-131882621D01*
X225919181Y-131897566D01*
X225940482Y-131937868D01*
X225961134Y-131990313D01*
X225981057Y-132052816D01*
X226000166Y-132123289D01*
X226018382Y-132199647D01*
X226051803Y-132361674D01*
X226133327Y-132827968D01*
X226133525Y-132848465D01*
X226131182Y-132876354D01*
X226126554Y-132910532D01*
X226119896Y-132949898D01*
X226101512Y-133039780D01*
X226078073Y-133137180D01*
X226051621Y-133233281D01*
X226037903Y-133278087D01*
X226024198Y-133319261D01*
X226010761Y-133355701D01*
X225997847Y-133386303D01*
X225985712Y-133409966D01*
X225974610Y-133425587D01*
X225956952Y-133411142D01*
X225938738Y-133394148D01*
X225900942Y-133353156D01*
X225861811Y-133303904D01*
X225821934Y-133247683D01*
X225781903Y-133185788D01*
X225742306Y-133119509D01*
X225703733Y-133050140D01*
X225666774Y-132978973D01*
X225632020Y-132907300D01*
X225600059Y-132836414D01*
X225571483Y-132767607D01*
X225546880Y-132702172D01*
X225526840Y-132641402D01*
X225511953Y-132586588D01*
X225502810Y-132539023D01*
X225500576Y-132518363D01*
X225500000Y-132500000D01*
X225525293Y-132522148D01*
X225549937Y-132541867D01*
X225573886Y-132559183D01*
X225597094Y-132574122D01*
X225619514Y-132586709D01*
X225641101Y-132596971D01*
X225661809Y-132604935D01*
X225681593Y-132610625D01*
X225700405Y-132614067D01*
X225718200Y-132615289D01*
X225734933Y-132614315D01*
X225750557Y-132611173D01*
X225765027Y-132605887D01*
X225778295Y-132598484D01*
X225790318Y-132588990D01*
X225801047Y-132577432D01*
X225810439Y-132563834D01*
X225818446Y-132548222D01*
X225825022Y-132530624D01*
X225830123Y-132511065D01*
X225833701Y-132489571D01*
X225835712Y-132466168D01*
X225836108Y-132440882D01*
X225834845Y-132413739D01*
X225831875Y-132384764D01*
X225827154Y-132353985D01*
X225820635Y-132321427D01*
X225812272Y-132287116D01*
X225802020Y-132251078D01*
X225789832Y-132213340D01*
X225775662Y-132173926D01*
X225759466Y-132132863D01*
X225741723Y-132091624D01*
X225723995Y-132054093D01*
X225706303Y-132020144D01*
X225688669Y-131989648D01*
X225671115Y-131962478D01*
X225653663Y-131938505D01*
X225636334Y-131917604D01*
X225619151Y-131899645D01*
X225602134Y-131884502D01*
X225585305Y-131872046D01*
X225568687Y-131862150D01*
X225552301Y-131854687D01*
X225536169Y-131849529D01*
X225520312Y-131846547D01*
X225504753Y-131845616D01*
X225489512Y-131846606D01*
X225474612Y-131849391D01*
X225460075Y-131853842D01*
X225445922Y-131859832D01*
X225432174Y-131867234D01*
X225418855Y-131875919D01*
X225405985Y-131885761D01*
X225393586Y-131896632D01*
X225381680Y-131908403D01*
X225359433Y-131934138D01*
X225339419Y-131961945D01*
X225321811Y-131990804D01*
X225306784Y-132019693D01*
X225288359Y-132010568D01*
X225269892Y-131999411D01*
X225251422Y-131986335D01*
X225232984Y-131971453D01*
X225214617Y-131954877D01*
X225196358Y-131936721D01*
X225160313Y-131896119D01*
X225125146Y-131850551D01*
X225091157Y-131800920D01*
X225058643Y-131748130D01*
X225027903Y-131693083D01*
X224999236Y-131636685D01*
X224972940Y-131579837D01*
X224949313Y-131523444D01*
X224928653Y-131468409D01*
X224911260Y-131415636D01*
X224897432Y-131366027D01*
X224887466Y-131320487D01*
X224881662Y-131279919D01*
X224905382Y-131296926D01*
X224929086Y-131315580D01*
X224977416Y-131356126D01*
X225002527Y-131377169D01*
X225028592Y-131398161D01*
X225055853Y-131418675D01*
X225084554Y-131438288D01*
X225099521Y-131447624D01*
X225114938Y-131456575D01*
X225130836Y-131465089D01*
X225147245Y-131473112D01*
X225164197Y-131480591D01*
X225181720Y-131487473D01*
X225199846Y-131493705D01*
X225218605Y-131499234D01*
X225238027Y-131504008D01*
X225258142Y-131507972D01*
X225278981Y-131511073D01*
X225300574Y-131513260D01*
X225322952Y-131514478D01*
X225346144Y-131514675D01*
X225370181Y-131513797D01*
X225395094Y-131511791D01*
X225393489Y-131465857D01*
X225389306Y-131422708D01*
X225382719Y-131382248D01*
X225373900Y-131344383D01*
X225363020Y-131309020D01*
X225350252Y-131276062D01*
X225335770Y-131245417D01*
X225319744Y-131216989D01*
X225302347Y-131190684D01*
X225283752Y-131166407D01*
X225264131Y-131144064D01*
X225243657Y-131123560D01*
X225222501Y-131104801D01*
X225200836Y-131087693D01*
X225178835Y-131072140D01*
X225156669Y-131058048D01*
X224920318Y-130954188D01*
X224921471Y-130942486D01*
X224924829Y-130928801D01*
X224937576Y-130896102D01*
X224957384Y-130857324D01*
X224983074Y-130813704D01*
X225013471Y-130766477D01*
X225047399Y-130716877D01*
X225121137Y-130615498D01*
X225194875Y-130519450D01*
X225259199Y-130438611D01*
X225321955Y-130362084D01*
X225324635Y-130100230D01*
X225328187Y-130013671D01*
X225333690Y-129952500D01*
X225341503Y-129913573D01*
X225346387Y-129901468D01*
X225351983Y-129893745D01*
X225358334Y-129890011D01*
X225365487Y-129889873D01*
X225373486Y-129892938D01*
X225382374Y-129898813D01*
X225403002Y-129917421D01*
X225427728Y-129942554D01*
X225456910Y-129971067D01*
X225490906Y-129999817D01*
X225530074Y-130025660D01*
X225551709Y-130036508D01*
X225574771Y-130045451D01*
X225599305Y-130052096D01*
X225625356Y-130056048D01*
X225652968Y-130056916D01*
X225682186Y-130054306D01*
X225705830Y-130027282D01*
X225735682Y-129996649D01*
X225770674Y-129963147D01*
X225809739Y-129927513D01*
X225895821Y-129852804D01*
X225985392Y-129778432D01*
X226140860Y-129654325D01*
X226207858Y-129602453D01*
X226281353Y-129654027D01*
G37*
D11*
X205322054Y-79819600D02*
X205464911Y-79867219D01*
X205464911Y-79867219D02*
X205703006Y-79867219D01*
X205703006Y-79867219D02*
X205798244Y-79819600D01*
X205798244Y-79819600D02*
X205845863Y-79771980D01*
X205845863Y-79771980D02*
X205893482Y-79676742D01*
X205893482Y-79676742D02*
X205893482Y-79581504D01*
X205893482Y-79581504D02*
X205845863Y-79486266D01*
X205845863Y-79486266D02*
X205798244Y-79438647D01*
X205798244Y-79438647D02*
X205703006Y-79391028D01*
X205703006Y-79391028D02*
X205512530Y-79343409D01*
X205512530Y-79343409D02*
X205417292Y-79295790D01*
X205417292Y-79295790D02*
X205369673Y-79248171D01*
X205369673Y-79248171D02*
X205322054Y-79152933D01*
X205322054Y-79152933D02*
X205322054Y-79057695D01*
X205322054Y-79057695D02*
X205369673Y-78962457D01*
X205369673Y-78962457D02*
X205417292Y-78914838D01*
X205417292Y-78914838D02*
X205512530Y-78867219D01*
X205512530Y-78867219D02*
X205750625Y-78867219D01*
X205750625Y-78867219D02*
X205893482Y-78914838D01*
X206322054Y-79867219D02*
X206322054Y-79200552D01*
X206322054Y-78867219D02*
X206274435Y-78914838D01*
X206274435Y-78914838D02*
X206322054Y-78962457D01*
X206322054Y-78962457D02*
X206369673Y-78914838D01*
X206369673Y-78914838D02*
X206322054Y-78867219D01*
X206322054Y-78867219D02*
X206322054Y-78962457D01*
X206798244Y-79200552D02*
X206798244Y-79867219D01*
X206798244Y-79295790D02*
X206845863Y-79248171D01*
X206845863Y-79248171D02*
X206941101Y-79200552D01*
X206941101Y-79200552D02*
X207083958Y-79200552D01*
X207083958Y-79200552D02*
X207179196Y-79248171D01*
X207179196Y-79248171D02*
X207226815Y-79343409D01*
X207226815Y-79343409D02*
X207226815Y-79867219D01*
X208131577Y-79867219D02*
X208131577Y-78867219D01*
X208131577Y-79819600D02*
X208036339Y-79867219D01*
X208036339Y-79867219D02*
X207845863Y-79867219D01*
X207845863Y-79867219D02*
X207750625Y-79819600D01*
X207750625Y-79819600D02*
X207703006Y-79771980D01*
X207703006Y-79771980D02*
X207655387Y-79676742D01*
X207655387Y-79676742D02*
X207655387Y-79391028D01*
X207655387Y-79391028D02*
X207703006Y-79295790D01*
X207703006Y-79295790D02*
X207750625Y-79248171D01*
X207750625Y-79248171D02*
X207845863Y-79200552D01*
X207845863Y-79200552D02*
X208036339Y-79200552D01*
X208036339Y-79200552D02*
X208131577Y-79248171D01*
X208607768Y-79867219D02*
X208607768Y-79200552D01*
X208607768Y-79391028D02*
X208655387Y-79295790D01*
X208655387Y-79295790D02*
X208703006Y-79248171D01*
X208703006Y-79248171D02*
X208798244Y-79200552D01*
X208798244Y-79200552D02*
X208893482Y-79200552D01*
X209655387Y-79867219D02*
X209655387Y-79343409D01*
X209655387Y-79343409D02*
X209607768Y-79248171D01*
X209607768Y-79248171D02*
X209512530Y-79200552D01*
X209512530Y-79200552D02*
X209322054Y-79200552D01*
X209322054Y-79200552D02*
X209226816Y-79248171D01*
X209655387Y-79819600D02*
X209560149Y-79867219D01*
X209560149Y-79867219D02*
X209322054Y-79867219D01*
X209322054Y-79867219D02*
X209226816Y-79819600D01*
X209226816Y-79819600D02*
X209179197Y-79724361D01*
X209179197Y-79724361D02*
X209179197Y-79629123D01*
X209179197Y-79629123D02*
X209226816Y-79533885D01*
X209226816Y-79533885D02*
X209322054Y-79486266D01*
X209322054Y-79486266D02*
X209560149Y-79486266D01*
X209560149Y-79486266D02*
X209655387Y-79438647D01*
X210560149Y-79200552D02*
X210560149Y-80010076D01*
X210560149Y-80010076D02*
X210512530Y-80105314D01*
X210512530Y-80105314D02*
X210464911Y-80152933D01*
X210464911Y-80152933D02*
X210369673Y-80200552D01*
X210369673Y-80200552D02*
X210226816Y-80200552D01*
X210226816Y-80200552D02*
X210131578Y-80152933D01*
X210560149Y-79819600D02*
X210464911Y-79867219D01*
X210464911Y-79867219D02*
X210274435Y-79867219D01*
X210274435Y-79867219D02*
X210179197Y-79819600D01*
X210179197Y-79819600D02*
X210131578Y-79771980D01*
X210131578Y-79771980D02*
X210083959Y-79676742D01*
X210083959Y-79676742D02*
X210083959Y-79391028D01*
X210083959Y-79391028D02*
X210131578Y-79295790D01*
X210131578Y-79295790D02*
X210179197Y-79248171D01*
X210179197Y-79248171D02*
X210274435Y-79200552D01*
X210274435Y-79200552D02*
X210464911Y-79200552D01*
X210464911Y-79200552D02*
X210560149Y-79248171D01*
X211179197Y-79867219D02*
X211083959Y-79819600D01*
X211083959Y-79819600D02*
X211036340Y-79771980D01*
X211036340Y-79771980D02*
X210988721Y-79676742D01*
X210988721Y-79676742D02*
X210988721Y-79391028D01*
X210988721Y-79391028D02*
X211036340Y-79295790D01*
X211036340Y-79295790D02*
X211083959Y-79248171D01*
X211083959Y-79248171D02*
X211179197Y-79200552D01*
X211179197Y-79200552D02*
X211322054Y-79200552D01*
X211322054Y-79200552D02*
X211417292Y-79248171D01*
X211417292Y-79248171D02*
X211464911Y-79295790D01*
X211464911Y-79295790D02*
X211512530Y-79391028D01*
X211512530Y-79391028D02*
X211512530Y-79676742D01*
X211512530Y-79676742D02*
X211464911Y-79771980D01*
X211464911Y-79771980D02*
X211417292Y-79819600D01*
X211417292Y-79819600D02*
X211322054Y-79867219D01*
X211322054Y-79867219D02*
X211179197Y-79867219D01*
X211893483Y-79819600D02*
X211988721Y-79867219D01*
X211988721Y-79867219D02*
X212179197Y-79867219D01*
X212179197Y-79867219D02*
X212274435Y-79819600D01*
X212274435Y-79819600D02*
X212322054Y-79724361D01*
X212322054Y-79724361D02*
X212322054Y-79676742D01*
X212322054Y-79676742D02*
X212274435Y-79581504D01*
X212274435Y-79581504D02*
X212179197Y-79533885D01*
X212179197Y-79533885D02*
X212036340Y-79533885D01*
X212036340Y-79533885D02*
X211941102Y-79486266D01*
X211941102Y-79486266D02*
X211893483Y-79391028D01*
X211893483Y-79391028D02*
X211893483Y-79343409D01*
X211893483Y-79343409D02*
X211941102Y-79248171D01*
X211941102Y-79248171D02*
X212036340Y-79200552D01*
X212036340Y-79200552D02*
X212179197Y-79200552D01*
X212179197Y-79200552D02*
X212274435Y-79248171D01*
X213179197Y-79867219D02*
X213179197Y-79343409D01*
X213179197Y-79343409D02*
X213131578Y-79248171D01*
X213131578Y-79248171D02*
X213036340Y-79200552D01*
X213036340Y-79200552D02*
X212845864Y-79200552D01*
X212845864Y-79200552D02*
X212750626Y-79248171D01*
X213179197Y-79819600D02*
X213083959Y-79867219D01*
X213083959Y-79867219D02*
X212845864Y-79867219D01*
X212845864Y-79867219D02*
X212750626Y-79819600D01*
X212750626Y-79819600D02*
X212703007Y-79724361D01*
X212703007Y-79724361D02*
X212703007Y-79629123D01*
X212703007Y-79629123D02*
X212750626Y-79533885D01*
X212750626Y-79533885D02*
X212845864Y-79486266D01*
X212845864Y-79486266D02*
X213083959Y-79486266D01*
X213083959Y-79486266D02*
X213179197Y-79438647D01*
X214703007Y-80248171D02*
X214655388Y-80200552D01*
X214655388Y-80200552D02*
X214560150Y-80057695D01*
X214560150Y-80057695D02*
X214512531Y-79962457D01*
X214512531Y-79962457D02*
X214464912Y-79819600D01*
X214464912Y-79819600D02*
X214417293Y-79581504D01*
X214417293Y-79581504D02*
X214417293Y-79391028D01*
X214417293Y-79391028D02*
X214464912Y-79152933D01*
X214464912Y-79152933D02*
X214512531Y-79010076D01*
X214512531Y-79010076D02*
X214560150Y-78914838D01*
X214560150Y-78914838D02*
X214655388Y-78771980D01*
X214655388Y-78771980D02*
X214703007Y-78724361D01*
X214988722Y-79200552D02*
X215226817Y-79867219D01*
X215226817Y-79867219D02*
X215464912Y-79200552D01*
X215750627Y-78867219D02*
X216369674Y-78867219D01*
X216369674Y-78867219D02*
X216036341Y-79248171D01*
X216036341Y-79248171D02*
X216179198Y-79248171D01*
X216179198Y-79248171D02*
X216274436Y-79295790D01*
X216274436Y-79295790D02*
X216322055Y-79343409D01*
X216322055Y-79343409D02*
X216369674Y-79438647D01*
X216369674Y-79438647D02*
X216369674Y-79676742D01*
X216369674Y-79676742D02*
X216322055Y-79771980D01*
X216322055Y-79771980D02*
X216274436Y-79819600D01*
X216274436Y-79819600D02*
X216179198Y-79867219D01*
X216179198Y-79867219D02*
X215893484Y-79867219D01*
X215893484Y-79867219D02*
X215798246Y-79819600D01*
X215798246Y-79819600D02*
X215750627Y-79771980D01*
X216798246Y-79771980D02*
X216845865Y-79819600D01*
X216845865Y-79819600D02*
X216798246Y-79867219D01*
X216798246Y-79867219D02*
X216750627Y-79819600D01*
X216750627Y-79819600D02*
X216798246Y-79771980D01*
X216798246Y-79771980D02*
X216798246Y-79867219D01*
X217464912Y-78867219D02*
X217560150Y-78867219D01*
X217560150Y-78867219D02*
X217655388Y-78914838D01*
X217655388Y-78914838D02*
X217703007Y-78962457D01*
X217703007Y-78962457D02*
X217750626Y-79057695D01*
X217750626Y-79057695D02*
X217798245Y-79248171D01*
X217798245Y-79248171D02*
X217798245Y-79486266D01*
X217798245Y-79486266D02*
X217750626Y-79676742D01*
X217750626Y-79676742D02*
X217703007Y-79771980D01*
X217703007Y-79771980D02*
X217655388Y-79819600D01*
X217655388Y-79819600D02*
X217560150Y-79867219D01*
X217560150Y-79867219D02*
X217464912Y-79867219D01*
X217464912Y-79867219D02*
X217369674Y-79819600D01*
X217369674Y-79819600D02*
X217322055Y-79771980D01*
X217322055Y-79771980D02*
X217274436Y-79676742D01*
X217274436Y-79676742D02*
X217226817Y-79486266D01*
X217226817Y-79486266D02*
X217226817Y-79248171D01*
X217226817Y-79248171D02*
X217274436Y-79057695D01*
X217274436Y-79057695D02*
X217322055Y-78962457D01*
X217322055Y-78962457D02*
X217369674Y-78914838D01*
X217369674Y-78914838D02*
X217464912Y-78867219D01*
X218226817Y-79771980D02*
X218274436Y-79819600D01*
X218274436Y-79819600D02*
X218226817Y-79867219D01*
X218226817Y-79867219D02*
X218179198Y-79819600D01*
X218179198Y-79819600D02*
X218226817Y-79771980D01*
X218226817Y-79771980D02*
X218226817Y-79867219D01*
X218893483Y-78867219D02*
X218988721Y-78867219D01*
X218988721Y-78867219D02*
X219083959Y-78914838D01*
X219083959Y-78914838D02*
X219131578Y-78962457D01*
X219131578Y-78962457D02*
X219179197Y-79057695D01*
X219179197Y-79057695D02*
X219226816Y-79248171D01*
X219226816Y-79248171D02*
X219226816Y-79486266D01*
X219226816Y-79486266D02*
X219179197Y-79676742D01*
X219179197Y-79676742D02*
X219131578Y-79771980D01*
X219131578Y-79771980D02*
X219083959Y-79819600D01*
X219083959Y-79819600D02*
X218988721Y-79867219D01*
X218988721Y-79867219D02*
X218893483Y-79867219D01*
X218893483Y-79867219D02*
X218798245Y-79819600D01*
X218798245Y-79819600D02*
X218750626Y-79771980D01*
X218750626Y-79771980D02*
X218703007Y-79676742D01*
X218703007Y-79676742D02*
X218655388Y-79486266D01*
X218655388Y-79486266D02*
X218655388Y-79248171D01*
X218655388Y-79248171D02*
X218703007Y-79057695D01*
X218703007Y-79057695D02*
X218750626Y-78962457D01*
X218750626Y-78962457D02*
X218798245Y-78914838D01*
X218798245Y-78914838D02*
X218893483Y-78867219D01*
X219560150Y-80248171D02*
X219607769Y-80200552D01*
X219607769Y-80200552D02*
X219703007Y-80057695D01*
X219703007Y-80057695D02*
X219750626Y-79962457D01*
X219750626Y-79962457D02*
X219798245Y-79819600D01*
X219798245Y-79819600D02*
X219845864Y-79581504D01*
X219845864Y-79581504D02*
X219845864Y-79391028D01*
X219845864Y-79391028D02*
X219798245Y-79152933D01*
X219798245Y-79152933D02*
X219750626Y-79010076D01*
X219750626Y-79010076D02*
X219703007Y-78914838D01*
X219703007Y-78914838D02*
X219607769Y-78771980D01*
X219607769Y-78771980D02*
X219560150Y-78724361D01*
D12*
X247532268Y-131407200D02*
X247675125Y-131454819D01*
X247675125Y-131454819D02*
X247913220Y-131454819D01*
X247913220Y-131454819D02*
X248008458Y-131407200D01*
X248008458Y-131407200D02*
X248056077Y-131359580D01*
X248056077Y-131359580D02*
X248103696Y-131264342D01*
X248103696Y-131264342D02*
X248103696Y-131169104D01*
X248103696Y-131169104D02*
X248056077Y-131073866D01*
X248056077Y-131073866D02*
X248008458Y-131026247D01*
X248008458Y-131026247D02*
X247913220Y-130978628D01*
X247913220Y-130978628D02*
X247722744Y-130931009D01*
X247722744Y-130931009D02*
X247627506Y-130883390D01*
X247627506Y-130883390D02*
X247579887Y-130835771D01*
X247579887Y-130835771D02*
X247532268Y-130740533D01*
X247532268Y-130740533D02*
X247532268Y-130645295D01*
X247532268Y-130645295D02*
X247579887Y-130550057D01*
X247579887Y-130550057D02*
X247627506Y-130502438D01*
X247627506Y-130502438D02*
X247722744Y-130454819D01*
X247722744Y-130454819D02*
X247960839Y-130454819D01*
X247960839Y-130454819D02*
X248103696Y-130502438D01*
X248532268Y-131454819D02*
X248532268Y-130454819D01*
X248532268Y-130454819D02*
X248770363Y-130454819D01*
X248770363Y-130454819D02*
X248913220Y-130502438D01*
X248913220Y-130502438D02*
X249008458Y-130597676D01*
X249008458Y-130597676D02*
X249056077Y-130692914D01*
X249056077Y-130692914D02*
X249103696Y-130883390D01*
X249103696Y-130883390D02*
X249103696Y-131026247D01*
X249103696Y-131026247D02*
X249056077Y-131216723D01*
X249056077Y-131216723D02*
X249008458Y-131311961D01*
X249008458Y-131311961D02*
X248913220Y-131407200D01*
X248913220Y-131407200D02*
X248770363Y-131454819D01*
X248770363Y-131454819D02*
X248532268Y-131454819D01*
X249484649Y-131169104D02*
X249960839Y-131169104D01*
X249389411Y-131454819D02*
X249722744Y-130454819D01*
X249722744Y-130454819D02*
X250056077Y-131454819D01*
X247865601Y-123002438D02*
X247770363Y-122954819D01*
X247770363Y-122954819D02*
X247627506Y-122954819D01*
X247627506Y-122954819D02*
X247484649Y-123002438D01*
X247484649Y-123002438D02*
X247389411Y-123097676D01*
X247389411Y-123097676D02*
X247341792Y-123192914D01*
X247341792Y-123192914D02*
X247294173Y-123383390D01*
X247294173Y-123383390D02*
X247294173Y-123526247D01*
X247294173Y-123526247D02*
X247341792Y-123716723D01*
X247341792Y-123716723D02*
X247389411Y-123811961D01*
X247389411Y-123811961D02*
X247484649Y-123907200D01*
X247484649Y-123907200D02*
X247627506Y-123954819D01*
X247627506Y-123954819D02*
X247722744Y-123954819D01*
X247722744Y-123954819D02*
X247865601Y-123907200D01*
X247865601Y-123907200D02*
X247913220Y-123859580D01*
X247913220Y-123859580D02*
X247913220Y-123526247D01*
X247913220Y-123526247D02*
X247722744Y-123526247D01*
X248341792Y-123954819D02*
X248341792Y-122954819D01*
X248341792Y-122954819D02*
X248913220Y-123954819D01*
X248913220Y-123954819D02*
X248913220Y-122954819D01*
X249389411Y-123954819D02*
X249389411Y-122954819D01*
X249389411Y-122954819D02*
X249627506Y-122954819D01*
X249627506Y-122954819D02*
X249770363Y-123002438D01*
X249770363Y-123002438D02*
X249865601Y-123097676D01*
X249865601Y-123097676D02*
X249913220Y-123192914D01*
X249913220Y-123192914D02*
X249960839Y-123383390D01*
X249960839Y-123383390D02*
X249960839Y-123526247D01*
X249960839Y-123526247D02*
X249913220Y-123716723D01*
X249913220Y-123716723D02*
X249865601Y-123811961D01*
X249865601Y-123811961D02*
X249770363Y-123907200D01*
X249770363Y-123907200D02*
X249627506Y-123954819D01*
X249627506Y-123954819D02*
X249389411Y-123954819D01*
X247579887Y-128907200D02*
X247722744Y-128954819D01*
X247722744Y-128954819D02*
X247960839Y-128954819D01*
X247960839Y-128954819D02*
X248056077Y-128907200D01*
X248056077Y-128907200D02*
X248103696Y-128859580D01*
X248103696Y-128859580D02*
X248151315Y-128764342D01*
X248151315Y-128764342D02*
X248151315Y-128669104D01*
X248151315Y-128669104D02*
X248103696Y-128573866D01*
X248103696Y-128573866D02*
X248056077Y-128526247D01*
X248056077Y-128526247D02*
X247960839Y-128478628D01*
X247960839Y-128478628D02*
X247770363Y-128431009D01*
X247770363Y-128431009D02*
X247675125Y-128383390D01*
X247675125Y-128383390D02*
X247627506Y-128335771D01*
X247627506Y-128335771D02*
X247579887Y-128240533D01*
X247579887Y-128240533D02*
X247579887Y-128145295D01*
X247579887Y-128145295D02*
X247627506Y-128050057D01*
X247627506Y-128050057D02*
X247675125Y-128002438D01*
X247675125Y-128002438D02*
X247770363Y-127954819D01*
X247770363Y-127954819D02*
X248008458Y-127954819D01*
X248008458Y-127954819D02*
X248151315Y-128002438D01*
X249151315Y-128859580D02*
X249103696Y-128907200D01*
X249103696Y-128907200D02*
X248960839Y-128954819D01*
X248960839Y-128954819D02*
X248865601Y-128954819D01*
X248865601Y-128954819D02*
X248722744Y-128907200D01*
X248722744Y-128907200D02*
X248627506Y-128811961D01*
X248627506Y-128811961D02*
X248579887Y-128716723D01*
X248579887Y-128716723D02*
X248532268Y-128526247D01*
X248532268Y-128526247D02*
X248532268Y-128383390D01*
X248532268Y-128383390D02*
X248579887Y-128192914D01*
X248579887Y-128192914D02*
X248627506Y-128097676D01*
X248627506Y-128097676D02*
X248722744Y-128002438D01*
X248722744Y-128002438D02*
X248865601Y-127954819D01*
X248865601Y-127954819D02*
X248960839Y-127954819D01*
X248960839Y-127954819D02*
X249103696Y-128002438D01*
X249103696Y-128002438D02*
X249151315Y-128050057D01*
X250056077Y-128954819D02*
X249579887Y-128954819D01*
X249579887Y-128954819D02*
X249579887Y-127954819D01*
X247389411Y-125704819D02*
X247722744Y-126704819D01*
X247722744Y-126704819D02*
X248056077Y-125704819D01*
X248960839Y-126609580D02*
X248913220Y-126657200D01*
X248913220Y-126657200D02*
X248770363Y-126704819D01*
X248770363Y-126704819D02*
X248675125Y-126704819D01*
X248675125Y-126704819D02*
X248532268Y-126657200D01*
X248532268Y-126657200D02*
X248437030Y-126561961D01*
X248437030Y-126561961D02*
X248389411Y-126466723D01*
X248389411Y-126466723D02*
X248341792Y-126276247D01*
X248341792Y-126276247D02*
X248341792Y-126133390D01*
X248341792Y-126133390D02*
X248389411Y-125942914D01*
X248389411Y-125942914D02*
X248437030Y-125847676D01*
X248437030Y-125847676D02*
X248532268Y-125752438D01*
X248532268Y-125752438D02*
X248675125Y-125704819D01*
X248675125Y-125704819D02*
X248770363Y-125704819D01*
X248770363Y-125704819D02*
X248913220Y-125752438D01*
X248913220Y-125752438D02*
X248960839Y-125800057D01*
X249960839Y-126609580D02*
X249913220Y-126657200D01*
X249913220Y-126657200D02*
X249770363Y-126704819D01*
X249770363Y-126704819D02*
X249675125Y-126704819D01*
X249675125Y-126704819D02*
X249532268Y-126657200D01*
X249532268Y-126657200D02*
X249437030Y-126561961D01*
X249437030Y-126561961D02*
X249389411Y-126466723D01*
X249389411Y-126466723D02*
X249341792Y-126276247D01*
X249341792Y-126276247D02*
X249341792Y-126133390D01*
X249341792Y-126133390D02*
X249389411Y-125942914D01*
X249389411Y-125942914D02*
X249437030Y-125847676D01*
X249437030Y-125847676D02*
X249532268Y-125752438D01*
X249532268Y-125752438D02*
X249675125Y-125704819D01*
X249675125Y-125704819D02*
X249770363Y-125704819D01*
X249770363Y-125704819D02*
X249913220Y-125752438D01*
X249913220Y-125752438D02*
X249960839Y-125800057D01*
X230099819Y-118062969D02*
X229099819Y-118062969D01*
X229099819Y-118062969D02*
X229099819Y-117682017D01*
X229099819Y-117682017D02*
X229147438Y-117586779D01*
X229147438Y-117586779D02*
X229195057Y-117539160D01*
X229195057Y-117539160D02*
X229290295Y-117491541D01*
X229290295Y-117491541D02*
X229433152Y-117491541D01*
X229433152Y-117491541D02*
X229528390Y-117539160D01*
X229528390Y-117539160D02*
X229576009Y-117586779D01*
X229576009Y-117586779D02*
X229623628Y-117682017D01*
X229623628Y-117682017D02*
X229623628Y-118062969D01*
X229195057Y-117110588D02*
X229147438Y-117062969D01*
X229147438Y-117062969D02*
X229099819Y-116967731D01*
X229099819Y-116967731D02*
X229099819Y-116729636D01*
X229099819Y-116729636D02*
X229147438Y-116634398D01*
X229147438Y-116634398D02*
X229195057Y-116586779D01*
X229195057Y-116586779D02*
X229290295Y-116539160D01*
X229290295Y-116539160D02*
X229385533Y-116539160D01*
X229385533Y-116539160D02*
X229528390Y-116586779D01*
X229528390Y-116586779D02*
X230099819Y-117158207D01*
X230099819Y-117158207D02*
X230099819Y-116539160D01*
X234179819Y-119110588D02*
X235179819Y-118777255D01*
X235179819Y-118777255D02*
X234179819Y-118443922D01*
X235084580Y-117539160D02*
X235132200Y-117586779D01*
X235132200Y-117586779D02*
X235179819Y-117729636D01*
X235179819Y-117729636D02*
X235179819Y-117824874D01*
X235179819Y-117824874D02*
X235132200Y-117967731D01*
X235132200Y-117967731D02*
X235036961Y-118062969D01*
X235036961Y-118062969D02*
X234941723Y-118110588D01*
X234941723Y-118110588D02*
X234751247Y-118158207D01*
X234751247Y-118158207D02*
X234608390Y-118158207D01*
X234608390Y-118158207D02*
X234417914Y-118110588D01*
X234417914Y-118110588D02*
X234322676Y-118062969D01*
X234322676Y-118062969D02*
X234227438Y-117967731D01*
X234227438Y-117967731D02*
X234179819Y-117824874D01*
X234179819Y-117824874D02*
X234179819Y-117729636D01*
X234179819Y-117729636D02*
X234227438Y-117586779D01*
X234227438Y-117586779D02*
X234275057Y-117539160D01*
X235084580Y-116539160D02*
X235132200Y-116586779D01*
X235132200Y-116586779D02*
X235179819Y-116729636D01*
X235179819Y-116729636D02*
X235179819Y-116824874D01*
X235179819Y-116824874D02*
X235132200Y-116967731D01*
X235132200Y-116967731D02*
X235036961Y-117062969D01*
X235036961Y-117062969D02*
X234941723Y-117110588D01*
X234941723Y-117110588D02*
X234751247Y-117158207D01*
X234751247Y-117158207D02*
X234608390Y-117158207D01*
X234608390Y-117158207D02*
X234417914Y-117110588D01*
X234417914Y-117110588D02*
X234322676Y-117062969D01*
X234322676Y-117062969D02*
X234227438Y-116967731D01*
X234227438Y-116967731D02*
X234179819Y-116824874D01*
X234179819Y-116824874D02*
X234179819Y-116729636D01*
X234179819Y-116729636D02*
X234227438Y-116586779D01*
X234227438Y-116586779D02*
X234275057Y-116539160D01*
X232639819Y-118062969D02*
X231639819Y-118062969D01*
X231639819Y-118062969D02*
X231639819Y-117682017D01*
X231639819Y-117682017D02*
X231687438Y-117586779D01*
X231687438Y-117586779D02*
X231735057Y-117539160D01*
X231735057Y-117539160D02*
X231830295Y-117491541D01*
X231830295Y-117491541D02*
X231973152Y-117491541D01*
X231973152Y-117491541D02*
X232068390Y-117539160D01*
X232068390Y-117539160D02*
X232116009Y-117586779D01*
X232116009Y-117586779D02*
X232163628Y-117682017D01*
X232163628Y-117682017D02*
X232163628Y-118062969D01*
X231639819Y-117158207D02*
X231639819Y-116539160D01*
X231639819Y-116539160D02*
X232020771Y-116872493D01*
X232020771Y-116872493D02*
X232020771Y-116729636D01*
X232020771Y-116729636D02*
X232068390Y-116634398D01*
X232068390Y-116634398D02*
X232116009Y-116586779D01*
X232116009Y-116586779D02*
X232211247Y-116539160D01*
X232211247Y-116539160D02*
X232449342Y-116539160D01*
X232449342Y-116539160D02*
X232544580Y-116586779D01*
X232544580Y-116586779D02*
X232592200Y-116634398D01*
X232592200Y-116634398D02*
X232639819Y-116729636D01*
X232639819Y-116729636D02*
X232639819Y-117015350D01*
X232639819Y-117015350D02*
X232592200Y-117110588D01*
X232592200Y-117110588D02*
X232544580Y-117158207D01*
X236767438Y-118634398D02*
X236719819Y-118729636D01*
X236719819Y-118729636D02*
X236719819Y-118872493D01*
X236719819Y-118872493D02*
X236767438Y-119015350D01*
X236767438Y-119015350D02*
X236862676Y-119110588D01*
X236862676Y-119110588D02*
X236957914Y-119158207D01*
X236957914Y-119158207D02*
X237148390Y-119205826D01*
X237148390Y-119205826D02*
X237291247Y-119205826D01*
X237291247Y-119205826D02*
X237481723Y-119158207D01*
X237481723Y-119158207D02*
X237576961Y-119110588D01*
X237576961Y-119110588D02*
X237672200Y-119015350D01*
X237672200Y-119015350D02*
X237719819Y-118872493D01*
X237719819Y-118872493D02*
X237719819Y-118777255D01*
X237719819Y-118777255D02*
X237672200Y-118634398D01*
X237672200Y-118634398D02*
X237624580Y-118586779D01*
X237624580Y-118586779D02*
X237291247Y-118586779D01*
X237291247Y-118586779D02*
X237291247Y-118777255D01*
X237719819Y-118158207D02*
X236719819Y-118158207D01*
X236719819Y-118158207D02*
X237719819Y-117586779D01*
X237719819Y-117586779D02*
X236719819Y-117586779D01*
X237719819Y-117110588D02*
X236719819Y-117110588D01*
X236719819Y-117110588D02*
X236719819Y-116872493D01*
X236719819Y-116872493D02*
X236767438Y-116729636D01*
X236767438Y-116729636D02*
X236862676Y-116634398D01*
X236862676Y-116634398D02*
X236957914Y-116586779D01*
X236957914Y-116586779D02*
X237148390Y-116539160D01*
X237148390Y-116539160D02*
X237291247Y-116539160D01*
X237291247Y-116539160D02*
X237481723Y-116586779D01*
X237481723Y-116586779D02*
X237576961Y-116634398D01*
X237576961Y-116634398D02*
X237672200Y-116729636D01*
X237672200Y-116729636D02*
X237719819Y-116872493D01*
X237719819Y-116872493D02*
X237719819Y-117110588D01*
X237188333Y-88962295D02*
X237455000Y-89762295D01*
X237455000Y-89762295D02*
X237721666Y-88962295D01*
X238445476Y-89686104D02*
X238407380Y-89724200D01*
X238407380Y-89724200D02*
X238293095Y-89762295D01*
X238293095Y-89762295D02*
X238216904Y-89762295D01*
X238216904Y-89762295D02*
X238102618Y-89724200D01*
X238102618Y-89724200D02*
X238026428Y-89648009D01*
X238026428Y-89648009D02*
X237988333Y-89571819D01*
X237988333Y-89571819D02*
X237950237Y-89419438D01*
X237950237Y-89419438D02*
X237950237Y-89305152D01*
X237950237Y-89305152D02*
X237988333Y-89152771D01*
X237988333Y-89152771D02*
X238026428Y-89076580D01*
X238026428Y-89076580D02*
X238102618Y-89000390D01*
X238102618Y-89000390D02*
X238216904Y-88962295D01*
X238216904Y-88962295D02*
X238293095Y-88962295D01*
X238293095Y-88962295D02*
X238407380Y-89000390D01*
X238407380Y-89000390D02*
X238445476Y-89038485D01*
X239245476Y-89686104D02*
X239207380Y-89724200D01*
X239207380Y-89724200D02*
X239093095Y-89762295D01*
X239093095Y-89762295D02*
X239016904Y-89762295D01*
X239016904Y-89762295D02*
X238902618Y-89724200D01*
X238902618Y-89724200D02*
X238826428Y-89648009D01*
X238826428Y-89648009D02*
X238788333Y-89571819D01*
X238788333Y-89571819D02*
X238750237Y-89419438D01*
X238750237Y-89419438D02*
X238750237Y-89305152D01*
X238750237Y-89305152D02*
X238788333Y-89152771D01*
X238788333Y-89152771D02*
X238826428Y-89076580D01*
X238826428Y-89076580D02*
X238902618Y-89000390D01*
X238902618Y-89000390D02*
X239016904Y-88962295D01*
X239016904Y-88962295D02*
X239093095Y-88962295D01*
X239093095Y-88962295D02*
X239207380Y-89000390D01*
X239207380Y-89000390D02*
X239245476Y-89038485D01*
X227683571Y-99922295D02*
X227683571Y-99122295D01*
X227683571Y-99122295D02*
X227988333Y-99122295D01*
X227988333Y-99122295D02*
X228064523Y-99160390D01*
X228064523Y-99160390D02*
X228102618Y-99198485D01*
X228102618Y-99198485D02*
X228140714Y-99274676D01*
X228140714Y-99274676D02*
X228140714Y-99388961D01*
X228140714Y-99388961D02*
X228102618Y-99465152D01*
X228102618Y-99465152D02*
X228064523Y-99503247D01*
X228064523Y-99503247D02*
X227988333Y-99541342D01*
X227988333Y-99541342D02*
X227683571Y-99541342D01*
X228635952Y-99122295D02*
X228712142Y-99122295D01*
X228712142Y-99122295D02*
X228788333Y-99160390D01*
X228788333Y-99160390D02*
X228826428Y-99198485D01*
X228826428Y-99198485D02*
X228864523Y-99274676D01*
X228864523Y-99274676D02*
X228902618Y-99427057D01*
X228902618Y-99427057D02*
X228902618Y-99617533D01*
X228902618Y-99617533D02*
X228864523Y-99769914D01*
X228864523Y-99769914D02*
X228826428Y-99846104D01*
X228826428Y-99846104D02*
X228788333Y-99884200D01*
X228788333Y-99884200D02*
X228712142Y-99922295D01*
X228712142Y-99922295D02*
X228635952Y-99922295D01*
X228635952Y-99922295D02*
X228559761Y-99884200D01*
X228559761Y-99884200D02*
X228521666Y-99846104D01*
X228521666Y-99846104D02*
X228483571Y-99769914D01*
X228483571Y-99769914D02*
X228445475Y-99617533D01*
X228445475Y-99617533D02*
X228445475Y-99427057D01*
X228445475Y-99427057D02*
X228483571Y-99274676D01*
X228483571Y-99274676D02*
X228521666Y-99198485D01*
X228521666Y-99198485D02*
X228559761Y-99160390D01*
X228559761Y-99160390D02*
X228635952Y-99122295D01*
X229626428Y-99122295D02*
X229245476Y-99122295D01*
X229245476Y-99122295D02*
X229207380Y-99503247D01*
X229207380Y-99503247D02*
X229245476Y-99465152D01*
X229245476Y-99465152D02*
X229321666Y-99427057D01*
X229321666Y-99427057D02*
X229512142Y-99427057D01*
X229512142Y-99427057D02*
X229588333Y-99465152D01*
X229588333Y-99465152D02*
X229626428Y-99503247D01*
X229626428Y-99503247D02*
X229664523Y-99579438D01*
X229664523Y-99579438D02*
X229664523Y-99769914D01*
X229664523Y-99769914D02*
X229626428Y-99846104D01*
X229626428Y-99846104D02*
X229588333Y-99884200D01*
X229588333Y-99884200D02*
X229512142Y-99922295D01*
X229512142Y-99922295D02*
X229321666Y-99922295D01*
X229321666Y-99922295D02*
X229245476Y-99884200D01*
X229245476Y-99884200D02*
X229207380Y-99846104D01*
X237283571Y-107542295D02*
X237283571Y-106742295D01*
X237283571Y-106742295D02*
X237588333Y-106742295D01*
X237588333Y-106742295D02*
X237664523Y-106780390D01*
X237664523Y-106780390D02*
X237702618Y-106818485D01*
X237702618Y-106818485D02*
X237740714Y-106894676D01*
X237740714Y-106894676D02*
X237740714Y-107008961D01*
X237740714Y-107008961D02*
X237702618Y-107085152D01*
X237702618Y-107085152D02*
X237664523Y-107123247D01*
X237664523Y-107123247D02*
X237588333Y-107161342D01*
X237588333Y-107161342D02*
X237283571Y-107161342D01*
X238502618Y-107542295D02*
X238045475Y-107542295D01*
X238274047Y-107542295D02*
X238274047Y-106742295D01*
X238274047Y-106742295D02*
X238197856Y-106856580D01*
X238197856Y-106856580D02*
X238121666Y-106932771D01*
X238121666Y-106932771D02*
X238045475Y-106970866D01*
X239188333Y-106742295D02*
X239035952Y-106742295D01*
X239035952Y-106742295D02*
X238959761Y-106780390D01*
X238959761Y-106780390D02*
X238921666Y-106818485D01*
X238921666Y-106818485D02*
X238845476Y-106932771D01*
X238845476Y-106932771D02*
X238807380Y-107085152D01*
X238807380Y-107085152D02*
X238807380Y-107389914D01*
X238807380Y-107389914D02*
X238845476Y-107466104D01*
X238845476Y-107466104D02*
X238883571Y-107504200D01*
X238883571Y-107504200D02*
X238959761Y-107542295D01*
X238959761Y-107542295D02*
X239112142Y-107542295D01*
X239112142Y-107542295D02*
X239188333Y-107504200D01*
X239188333Y-107504200D02*
X239226428Y-107466104D01*
X239226428Y-107466104D02*
X239264523Y-107389914D01*
X239264523Y-107389914D02*
X239264523Y-107199438D01*
X239264523Y-107199438D02*
X239226428Y-107123247D01*
X239226428Y-107123247D02*
X239188333Y-107085152D01*
X239188333Y-107085152D02*
X239112142Y-107047057D01*
X239112142Y-107047057D02*
X238959761Y-107047057D01*
X238959761Y-107047057D02*
X238883571Y-107085152D01*
X238883571Y-107085152D02*
X238845476Y-107123247D01*
X238845476Y-107123247D02*
X238807380Y-107199438D01*
X237283571Y-94842295D02*
X237283571Y-94042295D01*
X237283571Y-94042295D02*
X237588333Y-94042295D01*
X237588333Y-94042295D02*
X237664523Y-94080390D01*
X237664523Y-94080390D02*
X237702618Y-94118485D01*
X237702618Y-94118485D02*
X237740714Y-94194676D01*
X237740714Y-94194676D02*
X237740714Y-94308961D01*
X237740714Y-94308961D02*
X237702618Y-94385152D01*
X237702618Y-94385152D02*
X237664523Y-94423247D01*
X237664523Y-94423247D02*
X237588333Y-94461342D01*
X237588333Y-94461342D02*
X237283571Y-94461342D01*
X238045475Y-94118485D02*
X238083571Y-94080390D01*
X238083571Y-94080390D02*
X238159761Y-94042295D01*
X238159761Y-94042295D02*
X238350237Y-94042295D01*
X238350237Y-94042295D02*
X238426428Y-94080390D01*
X238426428Y-94080390D02*
X238464523Y-94118485D01*
X238464523Y-94118485D02*
X238502618Y-94194676D01*
X238502618Y-94194676D02*
X238502618Y-94270866D01*
X238502618Y-94270866D02*
X238464523Y-94385152D01*
X238464523Y-94385152D02*
X238007380Y-94842295D01*
X238007380Y-94842295D02*
X238502618Y-94842295D01*
X238997857Y-94042295D02*
X239074047Y-94042295D01*
X239074047Y-94042295D02*
X239150238Y-94080390D01*
X239150238Y-94080390D02*
X239188333Y-94118485D01*
X239188333Y-94118485D02*
X239226428Y-94194676D01*
X239226428Y-94194676D02*
X239264523Y-94347057D01*
X239264523Y-94347057D02*
X239264523Y-94537533D01*
X239264523Y-94537533D02*
X239226428Y-94689914D01*
X239226428Y-94689914D02*
X239188333Y-94766104D01*
X239188333Y-94766104D02*
X239150238Y-94804200D01*
X239150238Y-94804200D02*
X239074047Y-94842295D01*
X239074047Y-94842295D02*
X238997857Y-94842295D01*
X238997857Y-94842295D02*
X238921666Y-94804200D01*
X238921666Y-94804200D02*
X238883571Y-94766104D01*
X238883571Y-94766104D02*
X238845476Y-94689914D01*
X238845476Y-94689914D02*
X238807380Y-94537533D01*
X238807380Y-94537533D02*
X238807380Y-94347057D01*
X238807380Y-94347057D02*
X238845476Y-94194676D01*
X238845476Y-94194676D02*
X238883571Y-94118485D01*
X238883571Y-94118485D02*
X238921666Y-94080390D01*
X238921666Y-94080390D02*
X238997857Y-94042295D01*
X237283571Y-97382295D02*
X237283571Y-96582295D01*
X237283571Y-96582295D02*
X237588333Y-96582295D01*
X237588333Y-96582295D02*
X237664523Y-96620390D01*
X237664523Y-96620390D02*
X237702618Y-96658485D01*
X237702618Y-96658485D02*
X237740714Y-96734676D01*
X237740714Y-96734676D02*
X237740714Y-96848961D01*
X237740714Y-96848961D02*
X237702618Y-96925152D01*
X237702618Y-96925152D02*
X237664523Y-96963247D01*
X237664523Y-96963247D02*
X237588333Y-97001342D01*
X237588333Y-97001342D02*
X237283571Y-97001342D01*
X238502618Y-97382295D02*
X238045475Y-97382295D01*
X238274047Y-97382295D02*
X238274047Y-96582295D01*
X238274047Y-96582295D02*
X238197856Y-96696580D01*
X238197856Y-96696580D02*
X238121666Y-96772771D01*
X238121666Y-96772771D02*
X238045475Y-96810866D01*
X238883571Y-97382295D02*
X239035952Y-97382295D01*
X239035952Y-97382295D02*
X239112142Y-97344200D01*
X239112142Y-97344200D02*
X239150238Y-97306104D01*
X239150238Y-97306104D02*
X239226428Y-97191819D01*
X239226428Y-97191819D02*
X239264523Y-97039438D01*
X239264523Y-97039438D02*
X239264523Y-96734676D01*
X239264523Y-96734676D02*
X239226428Y-96658485D01*
X239226428Y-96658485D02*
X239188333Y-96620390D01*
X239188333Y-96620390D02*
X239112142Y-96582295D01*
X239112142Y-96582295D02*
X238959761Y-96582295D01*
X238959761Y-96582295D02*
X238883571Y-96620390D01*
X238883571Y-96620390D02*
X238845476Y-96658485D01*
X238845476Y-96658485D02*
X238807380Y-96734676D01*
X238807380Y-96734676D02*
X238807380Y-96925152D01*
X238807380Y-96925152D02*
X238845476Y-97001342D01*
X238845476Y-97001342D02*
X238883571Y-97039438D01*
X238883571Y-97039438D02*
X238959761Y-97077533D01*
X238959761Y-97077533D02*
X239112142Y-97077533D01*
X239112142Y-97077533D02*
X239188333Y-97039438D01*
X239188333Y-97039438D02*
X239226428Y-97001342D01*
X239226428Y-97001342D02*
X239264523Y-96925152D01*
X237283571Y-99922295D02*
X237283571Y-99122295D01*
X237283571Y-99122295D02*
X237588333Y-99122295D01*
X237588333Y-99122295D02*
X237664523Y-99160390D01*
X237664523Y-99160390D02*
X237702618Y-99198485D01*
X237702618Y-99198485D02*
X237740714Y-99274676D01*
X237740714Y-99274676D02*
X237740714Y-99388961D01*
X237740714Y-99388961D02*
X237702618Y-99465152D01*
X237702618Y-99465152D02*
X237664523Y-99503247D01*
X237664523Y-99503247D02*
X237588333Y-99541342D01*
X237588333Y-99541342D02*
X237283571Y-99541342D01*
X238502618Y-99922295D02*
X238045475Y-99922295D01*
X238274047Y-99922295D02*
X238274047Y-99122295D01*
X238274047Y-99122295D02*
X238197856Y-99236580D01*
X238197856Y-99236580D02*
X238121666Y-99312771D01*
X238121666Y-99312771D02*
X238045475Y-99350866D01*
X238959761Y-99465152D02*
X238883571Y-99427057D01*
X238883571Y-99427057D02*
X238845476Y-99388961D01*
X238845476Y-99388961D02*
X238807380Y-99312771D01*
X238807380Y-99312771D02*
X238807380Y-99274676D01*
X238807380Y-99274676D02*
X238845476Y-99198485D01*
X238845476Y-99198485D02*
X238883571Y-99160390D01*
X238883571Y-99160390D02*
X238959761Y-99122295D01*
X238959761Y-99122295D02*
X239112142Y-99122295D01*
X239112142Y-99122295D02*
X239188333Y-99160390D01*
X239188333Y-99160390D02*
X239226428Y-99198485D01*
X239226428Y-99198485D02*
X239264523Y-99274676D01*
X239264523Y-99274676D02*
X239264523Y-99312771D01*
X239264523Y-99312771D02*
X239226428Y-99388961D01*
X239226428Y-99388961D02*
X239188333Y-99427057D01*
X239188333Y-99427057D02*
X239112142Y-99465152D01*
X239112142Y-99465152D02*
X238959761Y-99465152D01*
X238959761Y-99465152D02*
X238883571Y-99503247D01*
X238883571Y-99503247D02*
X238845476Y-99541342D01*
X238845476Y-99541342D02*
X238807380Y-99617533D01*
X238807380Y-99617533D02*
X238807380Y-99769914D01*
X238807380Y-99769914D02*
X238845476Y-99846104D01*
X238845476Y-99846104D02*
X238883571Y-99884200D01*
X238883571Y-99884200D02*
X238959761Y-99922295D01*
X238959761Y-99922295D02*
X239112142Y-99922295D01*
X239112142Y-99922295D02*
X239188333Y-99884200D01*
X239188333Y-99884200D02*
X239226428Y-99846104D01*
X239226428Y-99846104D02*
X239264523Y-99769914D01*
X239264523Y-99769914D02*
X239264523Y-99617533D01*
X239264523Y-99617533D02*
X239226428Y-99541342D01*
X239226428Y-99541342D02*
X239188333Y-99503247D01*
X239188333Y-99503247D02*
X239112142Y-99465152D01*
X227683571Y-92302295D02*
X227683571Y-91502295D01*
X227683571Y-91502295D02*
X227988333Y-91502295D01*
X227988333Y-91502295D02*
X228064523Y-91540390D01*
X228064523Y-91540390D02*
X228102618Y-91578485D01*
X228102618Y-91578485D02*
X228140714Y-91654676D01*
X228140714Y-91654676D02*
X228140714Y-91768961D01*
X228140714Y-91768961D02*
X228102618Y-91845152D01*
X228102618Y-91845152D02*
X228064523Y-91883247D01*
X228064523Y-91883247D02*
X227988333Y-91921342D01*
X227988333Y-91921342D02*
X227683571Y-91921342D01*
X228635952Y-91502295D02*
X228712142Y-91502295D01*
X228712142Y-91502295D02*
X228788333Y-91540390D01*
X228788333Y-91540390D02*
X228826428Y-91578485D01*
X228826428Y-91578485D02*
X228864523Y-91654676D01*
X228864523Y-91654676D02*
X228902618Y-91807057D01*
X228902618Y-91807057D02*
X228902618Y-91997533D01*
X228902618Y-91997533D02*
X228864523Y-92149914D01*
X228864523Y-92149914D02*
X228826428Y-92226104D01*
X228826428Y-92226104D02*
X228788333Y-92264200D01*
X228788333Y-92264200D02*
X228712142Y-92302295D01*
X228712142Y-92302295D02*
X228635952Y-92302295D01*
X228635952Y-92302295D02*
X228559761Y-92264200D01*
X228559761Y-92264200D02*
X228521666Y-92226104D01*
X228521666Y-92226104D02*
X228483571Y-92149914D01*
X228483571Y-92149914D02*
X228445475Y-91997533D01*
X228445475Y-91997533D02*
X228445475Y-91807057D01*
X228445475Y-91807057D02*
X228483571Y-91654676D01*
X228483571Y-91654676D02*
X228521666Y-91578485D01*
X228521666Y-91578485D02*
X228559761Y-91540390D01*
X228559761Y-91540390D02*
X228635952Y-91502295D01*
X229207380Y-91578485D02*
X229245476Y-91540390D01*
X229245476Y-91540390D02*
X229321666Y-91502295D01*
X229321666Y-91502295D02*
X229512142Y-91502295D01*
X229512142Y-91502295D02*
X229588333Y-91540390D01*
X229588333Y-91540390D02*
X229626428Y-91578485D01*
X229626428Y-91578485D02*
X229664523Y-91654676D01*
X229664523Y-91654676D02*
X229664523Y-91730866D01*
X229664523Y-91730866D02*
X229626428Y-91845152D01*
X229626428Y-91845152D02*
X229169285Y-92302295D01*
X229169285Y-92302295D02*
X229664523Y-92302295D01*
X227683571Y-97382295D02*
X227683571Y-96582295D01*
X227683571Y-96582295D02*
X227988333Y-96582295D01*
X227988333Y-96582295D02*
X228064523Y-96620390D01*
X228064523Y-96620390D02*
X228102618Y-96658485D01*
X228102618Y-96658485D02*
X228140714Y-96734676D01*
X228140714Y-96734676D02*
X228140714Y-96848961D01*
X228140714Y-96848961D02*
X228102618Y-96925152D01*
X228102618Y-96925152D02*
X228064523Y-96963247D01*
X228064523Y-96963247D02*
X227988333Y-97001342D01*
X227988333Y-97001342D02*
X227683571Y-97001342D01*
X228635952Y-96582295D02*
X228712142Y-96582295D01*
X228712142Y-96582295D02*
X228788333Y-96620390D01*
X228788333Y-96620390D02*
X228826428Y-96658485D01*
X228826428Y-96658485D02*
X228864523Y-96734676D01*
X228864523Y-96734676D02*
X228902618Y-96887057D01*
X228902618Y-96887057D02*
X228902618Y-97077533D01*
X228902618Y-97077533D02*
X228864523Y-97229914D01*
X228864523Y-97229914D02*
X228826428Y-97306104D01*
X228826428Y-97306104D02*
X228788333Y-97344200D01*
X228788333Y-97344200D02*
X228712142Y-97382295D01*
X228712142Y-97382295D02*
X228635952Y-97382295D01*
X228635952Y-97382295D02*
X228559761Y-97344200D01*
X228559761Y-97344200D02*
X228521666Y-97306104D01*
X228521666Y-97306104D02*
X228483571Y-97229914D01*
X228483571Y-97229914D02*
X228445475Y-97077533D01*
X228445475Y-97077533D02*
X228445475Y-96887057D01*
X228445475Y-96887057D02*
X228483571Y-96734676D01*
X228483571Y-96734676D02*
X228521666Y-96658485D01*
X228521666Y-96658485D02*
X228559761Y-96620390D01*
X228559761Y-96620390D02*
X228635952Y-96582295D01*
X229588333Y-96848961D02*
X229588333Y-97382295D01*
X229397857Y-96544200D02*
X229207380Y-97115628D01*
X229207380Y-97115628D02*
X229702619Y-97115628D01*
X227683571Y-84682295D02*
X227683571Y-83882295D01*
X227683571Y-83882295D02*
X227988333Y-83882295D01*
X227988333Y-83882295D02*
X228064523Y-83920390D01*
X228064523Y-83920390D02*
X228102618Y-83958485D01*
X228102618Y-83958485D02*
X228140714Y-84034676D01*
X228140714Y-84034676D02*
X228140714Y-84148961D01*
X228140714Y-84148961D02*
X228102618Y-84225152D01*
X228102618Y-84225152D02*
X228064523Y-84263247D01*
X228064523Y-84263247D02*
X227988333Y-84301342D01*
X227988333Y-84301342D02*
X227683571Y-84301342D01*
X228635952Y-83882295D02*
X228712142Y-83882295D01*
X228712142Y-83882295D02*
X228788333Y-83920390D01*
X228788333Y-83920390D02*
X228826428Y-83958485D01*
X228826428Y-83958485D02*
X228864523Y-84034676D01*
X228864523Y-84034676D02*
X228902618Y-84187057D01*
X228902618Y-84187057D02*
X228902618Y-84377533D01*
X228902618Y-84377533D02*
X228864523Y-84529914D01*
X228864523Y-84529914D02*
X228826428Y-84606104D01*
X228826428Y-84606104D02*
X228788333Y-84644200D01*
X228788333Y-84644200D02*
X228712142Y-84682295D01*
X228712142Y-84682295D02*
X228635952Y-84682295D01*
X228635952Y-84682295D02*
X228559761Y-84644200D01*
X228559761Y-84644200D02*
X228521666Y-84606104D01*
X228521666Y-84606104D02*
X228483571Y-84529914D01*
X228483571Y-84529914D02*
X228445475Y-84377533D01*
X228445475Y-84377533D02*
X228445475Y-84187057D01*
X228445475Y-84187057D02*
X228483571Y-84034676D01*
X228483571Y-84034676D02*
X228521666Y-83958485D01*
X228521666Y-83958485D02*
X228559761Y-83920390D01*
X228559761Y-83920390D02*
X228635952Y-83882295D01*
X229397857Y-83882295D02*
X229474047Y-83882295D01*
X229474047Y-83882295D02*
X229550238Y-83920390D01*
X229550238Y-83920390D02*
X229588333Y-83958485D01*
X229588333Y-83958485D02*
X229626428Y-84034676D01*
X229626428Y-84034676D02*
X229664523Y-84187057D01*
X229664523Y-84187057D02*
X229664523Y-84377533D01*
X229664523Y-84377533D02*
X229626428Y-84529914D01*
X229626428Y-84529914D02*
X229588333Y-84606104D01*
X229588333Y-84606104D02*
X229550238Y-84644200D01*
X229550238Y-84644200D02*
X229474047Y-84682295D01*
X229474047Y-84682295D02*
X229397857Y-84682295D01*
X229397857Y-84682295D02*
X229321666Y-84644200D01*
X229321666Y-84644200D02*
X229283571Y-84606104D01*
X229283571Y-84606104D02*
X229245476Y-84529914D01*
X229245476Y-84529914D02*
X229207380Y-84377533D01*
X229207380Y-84377533D02*
X229207380Y-84187057D01*
X229207380Y-84187057D02*
X229245476Y-84034676D01*
X229245476Y-84034676D02*
X229283571Y-83958485D01*
X229283571Y-83958485D02*
X229321666Y-83920390D01*
X229321666Y-83920390D02*
X229397857Y-83882295D01*
X227683571Y-107542295D02*
X227683571Y-106742295D01*
X227683571Y-106742295D02*
X227988333Y-106742295D01*
X227988333Y-106742295D02*
X228064523Y-106780390D01*
X228064523Y-106780390D02*
X228102618Y-106818485D01*
X228102618Y-106818485D02*
X228140714Y-106894676D01*
X228140714Y-106894676D02*
X228140714Y-107008961D01*
X228140714Y-107008961D02*
X228102618Y-107085152D01*
X228102618Y-107085152D02*
X228064523Y-107123247D01*
X228064523Y-107123247D02*
X227988333Y-107161342D01*
X227988333Y-107161342D02*
X227683571Y-107161342D01*
X228635952Y-106742295D02*
X228712142Y-106742295D01*
X228712142Y-106742295D02*
X228788333Y-106780390D01*
X228788333Y-106780390D02*
X228826428Y-106818485D01*
X228826428Y-106818485D02*
X228864523Y-106894676D01*
X228864523Y-106894676D02*
X228902618Y-107047057D01*
X228902618Y-107047057D02*
X228902618Y-107237533D01*
X228902618Y-107237533D02*
X228864523Y-107389914D01*
X228864523Y-107389914D02*
X228826428Y-107466104D01*
X228826428Y-107466104D02*
X228788333Y-107504200D01*
X228788333Y-107504200D02*
X228712142Y-107542295D01*
X228712142Y-107542295D02*
X228635952Y-107542295D01*
X228635952Y-107542295D02*
X228559761Y-107504200D01*
X228559761Y-107504200D02*
X228521666Y-107466104D01*
X228521666Y-107466104D02*
X228483571Y-107389914D01*
X228483571Y-107389914D02*
X228445475Y-107237533D01*
X228445475Y-107237533D02*
X228445475Y-107047057D01*
X228445475Y-107047057D02*
X228483571Y-106894676D01*
X228483571Y-106894676D02*
X228521666Y-106818485D01*
X228521666Y-106818485D02*
X228559761Y-106780390D01*
X228559761Y-106780390D02*
X228635952Y-106742295D01*
X229359761Y-107085152D02*
X229283571Y-107047057D01*
X229283571Y-107047057D02*
X229245476Y-107008961D01*
X229245476Y-107008961D02*
X229207380Y-106932771D01*
X229207380Y-106932771D02*
X229207380Y-106894676D01*
X229207380Y-106894676D02*
X229245476Y-106818485D01*
X229245476Y-106818485D02*
X229283571Y-106780390D01*
X229283571Y-106780390D02*
X229359761Y-106742295D01*
X229359761Y-106742295D02*
X229512142Y-106742295D01*
X229512142Y-106742295D02*
X229588333Y-106780390D01*
X229588333Y-106780390D02*
X229626428Y-106818485D01*
X229626428Y-106818485D02*
X229664523Y-106894676D01*
X229664523Y-106894676D02*
X229664523Y-106932771D01*
X229664523Y-106932771D02*
X229626428Y-107008961D01*
X229626428Y-107008961D02*
X229588333Y-107047057D01*
X229588333Y-107047057D02*
X229512142Y-107085152D01*
X229512142Y-107085152D02*
X229359761Y-107085152D01*
X229359761Y-107085152D02*
X229283571Y-107123247D01*
X229283571Y-107123247D02*
X229245476Y-107161342D01*
X229245476Y-107161342D02*
X229207380Y-107237533D01*
X229207380Y-107237533D02*
X229207380Y-107389914D01*
X229207380Y-107389914D02*
X229245476Y-107466104D01*
X229245476Y-107466104D02*
X229283571Y-107504200D01*
X229283571Y-107504200D02*
X229359761Y-107542295D01*
X229359761Y-107542295D02*
X229512142Y-107542295D01*
X229512142Y-107542295D02*
X229588333Y-107504200D01*
X229588333Y-107504200D02*
X229626428Y-107466104D01*
X229626428Y-107466104D02*
X229664523Y-107389914D01*
X229664523Y-107389914D02*
X229664523Y-107237533D01*
X229664523Y-107237533D02*
X229626428Y-107161342D01*
X229626428Y-107161342D02*
X229588333Y-107123247D01*
X229588333Y-107123247D02*
X229512142Y-107085152D01*
X237702619Y-82142295D02*
X237435952Y-81761342D01*
X237245476Y-82142295D02*
X237245476Y-81342295D01*
X237245476Y-81342295D02*
X237550238Y-81342295D01*
X237550238Y-81342295D02*
X237626428Y-81380390D01*
X237626428Y-81380390D02*
X237664523Y-81418485D01*
X237664523Y-81418485D02*
X237702619Y-81494676D01*
X237702619Y-81494676D02*
X237702619Y-81608961D01*
X237702619Y-81608961D02*
X237664523Y-81685152D01*
X237664523Y-81685152D02*
X237626428Y-81723247D01*
X237626428Y-81723247D02*
X237550238Y-81761342D01*
X237550238Y-81761342D02*
X237245476Y-81761342D01*
X238007380Y-81913723D02*
X238388333Y-81913723D01*
X237931190Y-82142295D02*
X238197857Y-81342295D01*
X238197857Y-81342295D02*
X238464523Y-82142295D01*
X238654999Y-81342295D02*
X238845475Y-82142295D01*
X238845475Y-82142295D02*
X238997856Y-81570866D01*
X238997856Y-81570866D02*
X239150237Y-82142295D01*
X239150237Y-82142295D02*
X239340714Y-81342295D01*
X227683571Y-82142295D02*
X227683571Y-81342295D01*
X227683571Y-81342295D02*
X227988333Y-81342295D01*
X227988333Y-81342295D02*
X228064523Y-81380390D01*
X228064523Y-81380390D02*
X228102618Y-81418485D01*
X228102618Y-81418485D02*
X228140714Y-81494676D01*
X228140714Y-81494676D02*
X228140714Y-81608961D01*
X228140714Y-81608961D02*
X228102618Y-81685152D01*
X228102618Y-81685152D02*
X228064523Y-81723247D01*
X228064523Y-81723247D02*
X227988333Y-81761342D01*
X227988333Y-81761342D02*
X227683571Y-81761342D01*
X228635952Y-81342295D02*
X228712142Y-81342295D01*
X228712142Y-81342295D02*
X228788333Y-81380390D01*
X228788333Y-81380390D02*
X228826428Y-81418485D01*
X228826428Y-81418485D02*
X228864523Y-81494676D01*
X228864523Y-81494676D02*
X228902618Y-81647057D01*
X228902618Y-81647057D02*
X228902618Y-81837533D01*
X228902618Y-81837533D02*
X228864523Y-81989914D01*
X228864523Y-81989914D02*
X228826428Y-82066104D01*
X228826428Y-82066104D02*
X228788333Y-82104200D01*
X228788333Y-82104200D02*
X228712142Y-82142295D01*
X228712142Y-82142295D02*
X228635952Y-82142295D01*
X228635952Y-82142295D02*
X228559761Y-82104200D01*
X228559761Y-82104200D02*
X228521666Y-82066104D01*
X228521666Y-82066104D02*
X228483571Y-81989914D01*
X228483571Y-81989914D02*
X228445475Y-81837533D01*
X228445475Y-81837533D02*
X228445475Y-81647057D01*
X228445475Y-81647057D02*
X228483571Y-81494676D01*
X228483571Y-81494676D02*
X228521666Y-81418485D01*
X228521666Y-81418485D02*
X228559761Y-81380390D01*
X228559761Y-81380390D02*
X228635952Y-81342295D01*
X229664523Y-82142295D02*
X229207380Y-82142295D01*
X229435952Y-82142295D02*
X229435952Y-81342295D01*
X229435952Y-81342295D02*
X229359761Y-81456580D01*
X229359761Y-81456580D02*
X229283571Y-81532771D01*
X229283571Y-81532771D02*
X229207380Y-81570866D01*
X227683571Y-94842295D02*
X227683571Y-94042295D01*
X227683571Y-94042295D02*
X227988333Y-94042295D01*
X227988333Y-94042295D02*
X228064523Y-94080390D01*
X228064523Y-94080390D02*
X228102618Y-94118485D01*
X228102618Y-94118485D02*
X228140714Y-94194676D01*
X228140714Y-94194676D02*
X228140714Y-94308961D01*
X228140714Y-94308961D02*
X228102618Y-94385152D01*
X228102618Y-94385152D02*
X228064523Y-94423247D01*
X228064523Y-94423247D02*
X227988333Y-94461342D01*
X227988333Y-94461342D02*
X227683571Y-94461342D01*
X228635952Y-94042295D02*
X228712142Y-94042295D01*
X228712142Y-94042295D02*
X228788333Y-94080390D01*
X228788333Y-94080390D02*
X228826428Y-94118485D01*
X228826428Y-94118485D02*
X228864523Y-94194676D01*
X228864523Y-94194676D02*
X228902618Y-94347057D01*
X228902618Y-94347057D02*
X228902618Y-94537533D01*
X228902618Y-94537533D02*
X228864523Y-94689914D01*
X228864523Y-94689914D02*
X228826428Y-94766104D01*
X228826428Y-94766104D02*
X228788333Y-94804200D01*
X228788333Y-94804200D02*
X228712142Y-94842295D01*
X228712142Y-94842295D02*
X228635952Y-94842295D01*
X228635952Y-94842295D02*
X228559761Y-94804200D01*
X228559761Y-94804200D02*
X228521666Y-94766104D01*
X228521666Y-94766104D02*
X228483571Y-94689914D01*
X228483571Y-94689914D02*
X228445475Y-94537533D01*
X228445475Y-94537533D02*
X228445475Y-94347057D01*
X228445475Y-94347057D02*
X228483571Y-94194676D01*
X228483571Y-94194676D02*
X228521666Y-94118485D01*
X228521666Y-94118485D02*
X228559761Y-94080390D01*
X228559761Y-94080390D02*
X228635952Y-94042295D01*
X229169285Y-94042295D02*
X229664523Y-94042295D01*
X229664523Y-94042295D02*
X229397857Y-94347057D01*
X229397857Y-94347057D02*
X229512142Y-94347057D01*
X229512142Y-94347057D02*
X229588333Y-94385152D01*
X229588333Y-94385152D02*
X229626428Y-94423247D01*
X229626428Y-94423247D02*
X229664523Y-94499438D01*
X229664523Y-94499438D02*
X229664523Y-94689914D01*
X229664523Y-94689914D02*
X229626428Y-94766104D01*
X229626428Y-94766104D02*
X229588333Y-94804200D01*
X229588333Y-94804200D02*
X229512142Y-94842295D01*
X229512142Y-94842295D02*
X229283571Y-94842295D01*
X229283571Y-94842295D02*
X229207380Y-94804200D01*
X229207380Y-94804200D02*
X229169285Y-94766104D01*
X227683571Y-110082295D02*
X227683571Y-109282295D01*
X227683571Y-109282295D02*
X227988333Y-109282295D01*
X227988333Y-109282295D02*
X228064523Y-109320390D01*
X228064523Y-109320390D02*
X228102618Y-109358485D01*
X228102618Y-109358485D02*
X228140714Y-109434676D01*
X228140714Y-109434676D02*
X228140714Y-109548961D01*
X228140714Y-109548961D02*
X228102618Y-109625152D01*
X228102618Y-109625152D02*
X228064523Y-109663247D01*
X228064523Y-109663247D02*
X227988333Y-109701342D01*
X227988333Y-109701342D02*
X227683571Y-109701342D01*
X228635952Y-109282295D02*
X228712142Y-109282295D01*
X228712142Y-109282295D02*
X228788333Y-109320390D01*
X228788333Y-109320390D02*
X228826428Y-109358485D01*
X228826428Y-109358485D02*
X228864523Y-109434676D01*
X228864523Y-109434676D02*
X228902618Y-109587057D01*
X228902618Y-109587057D02*
X228902618Y-109777533D01*
X228902618Y-109777533D02*
X228864523Y-109929914D01*
X228864523Y-109929914D02*
X228826428Y-110006104D01*
X228826428Y-110006104D02*
X228788333Y-110044200D01*
X228788333Y-110044200D02*
X228712142Y-110082295D01*
X228712142Y-110082295D02*
X228635952Y-110082295D01*
X228635952Y-110082295D02*
X228559761Y-110044200D01*
X228559761Y-110044200D02*
X228521666Y-110006104D01*
X228521666Y-110006104D02*
X228483571Y-109929914D01*
X228483571Y-109929914D02*
X228445475Y-109777533D01*
X228445475Y-109777533D02*
X228445475Y-109587057D01*
X228445475Y-109587057D02*
X228483571Y-109434676D01*
X228483571Y-109434676D02*
X228521666Y-109358485D01*
X228521666Y-109358485D02*
X228559761Y-109320390D01*
X228559761Y-109320390D02*
X228635952Y-109282295D01*
X229283571Y-110082295D02*
X229435952Y-110082295D01*
X229435952Y-110082295D02*
X229512142Y-110044200D01*
X229512142Y-110044200D02*
X229550238Y-110006104D01*
X229550238Y-110006104D02*
X229626428Y-109891819D01*
X229626428Y-109891819D02*
X229664523Y-109739438D01*
X229664523Y-109739438D02*
X229664523Y-109434676D01*
X229664523Y-109434676D02*
X229626428Y-109358485D01*
X229626428Y-109358485D02*
X229588333Y-109320390D01*
X229588333Y-109320390D02*
X229512142Y-109282295D01*
X229512142Y-109282295D02*
X229359761Y-109282295D01*
X229359761Y-109282295D02*
X229283571Y-109320390D01*
X229283571Y-109320390D02*
X229245476Y-109358485D01*
X229245476Y-109358485D02*
X229207380Y-109434676D01*
X229207380Y-109434676D02*
X229207380Y-109625152D01*
X229207380Y-109625152D02*
X229245476Y-109701342D01*
X229245476Y-109701342D02*
X229283571Y-109739438D01*
X229283571Y-109739438D02*
X229359761Y-109777533D01*
X229359761Y-109777533D02*
X229512142Y-109777533D01*
X229512142Y-109777533D02*
X229588333Y-109739438D01*
X229588333Y-109739438D02*
X229626428Y-109701342D01*
X229626428Y-109701342D02*
X229664523Y-109625152D01*
X228045476Y-89000390D02*
X227969286Y-88962295D01*
X227969286Y-88962295D02*
X227855000Y-88962295D01*
X227855000Y-88962295D02*
X227740714Y-89000390D01*
X227740714Y-89000390D02*
X227664524Y-89076580D01*
X227664524Y-89076580D02*
X227626429Y-89152771D01*
X227626429Y-89152771D02*
X227588333Y-89305152D01*
X227588333Y-89305152D02*
X227588333Y-89419438D01*
X227588333Y-89419438D02*
X227626429Y-89571819D01*
X227626429Y-89571819D02*
X227664524Y-89648009D01*
X227664524Y-89648009D02*
X227740714Y-89724200D01*
X227740714Y-89724200D02*
X227855000Y-89762295D01*
X227855000Y-89762295D02*
X227931191Y-89762295D01*
X227931191Y-89762295D02*
X228045476Y-89724200D01*
X228045476Y-89724200D02*
X228083572Y-89686104D01*
X228083572Y-89686104D02*
X228083572Y-89419438D01*
X228083572Y-89419438D02*
X227931191Y-89419438D01*
X228426429Y-89762295D02*
X228426429Y-88962295D01*
X228426429Y-88962295D02*
X228883572Y-89762295D01*
X228883572Y-89762295D02*
X228883572Y-88962295D01*
X229264524Y-89762295D02*
X229264524Y-88962295D01*
X229264524Y-88962295D02*
X229455000Y-88962295D01*
X229455000Y-88962295D02*
X229569286Y-89000390D01*
X229569286Y-89000390D02*
X229645476Y-89076580D01*
X229645476Y-89076580D02*
X229683571Y-89152771D01*
X229683571Y-89152771D02*
X229721667Y-89305152D01*
X229721667Y-89305152D02*
X229721667Y-89419438D01*
X229721667Y-89419438D02*
X229683571Y-89571819D01*
X229683571Y-89571819D02*
X229645476Y-89648009D01*
X229645476Y-89648009D02*
X229569286Y-89724200D01*
X229569286Y-89724200D02*
X229455000Y-89762295D01*
X229455000Y-89762295D02*
X229264524Y-89762295D01*
X237645476Y-83920390D02*
X237569286Y-83882295D01*
X237569286Y-83882295D02*
X237455000Y-83882295D01*
X237455000Y-83882295D02*
X237340714Y-83920390D01*
X237340714Y-83920390D02*
X237264524Y-83996580D01*
X237264524Y-83996580D02*
X237226429Y-84072771D01*
X237226429Y-84072771D02*
X237188333Y-84225152D01*
X237188333Y-84225152D02*
X237188333Y-84339438D01*
X237188333Y-84339438D02*
X237226429Y-84491819D01*
X237226429Y-84491819D02*
X237264524Y-84568009D01*
X237264524Y-84568009D02*
X237340714Y-84644200D01*
X237340714Y-84644200D02*
X237455000Y-84682295D01*
X237455000Y-84682295D02*
X237531191Y-84682295D01*
X237531191Y-84682295D02*
X237645476Y-84644200D01*
X237645476Y-84644200D02*
X237683572Y-84606104D01*
X237683572Y-84606104D02*
X237683572Y-84339438D01*
X237683572Y-84339438D02*
X237531191Y-84339438D01*
X238026429Y-84682295D02*
X238026429Y-83882295D01*
X238026429Y-83882295D02*
X238483572Y-84682295D01*
X238483572Y-84682295D02*
X238483572Y-83882295D01*
X238864524Y-84682295D02*
X238864524Y-83882295D01*
X238864524Y-83882295D02*
X239055000Y-83882295D01*
X239055000Y-83882295D02*
X239169286Y-83920390D01*
X239169286Y-83920390D02*
X239245476Y-83996580D01*
X239245476Y-83996580D02*
X239283571Y-84072771D01*
X239283571Y-84072771D02*
X239321667Y-84225152D01*
X239321667Y-84225152D02*
X239321667Y-84339438D01*
X239321667Y-84339438D02*
X239283571Y-84491819D01*
X239283571Y-84491819D02*
X239245476Y-84568009D01*
X239245476Y-84568009D02*
X239169286Y-84644200D01*
X239169286Y-84644200D02*
X239055000Y-84682295D01*
X239055000Y-84682295D02*
X238864524Y-84682295D01*
X237283571Y-92302295D02*
X237283571Y-91502295D01*
X237283571Y-91502295D02*
X237588333Y-91502295D01*
X237588333Y-91502295D02*
X237664523Y-91540390D01*
X237664523Y-91540390D02*
X237702618Y-91578485D01*
X237702618Y-91578485D02*
X237740714Y-91654676D01*
X237740714Y-91654676D02*
X237740714Y-91768961D01*
X237740714Y-91768961D02*
X237702618Y-91845152D01*
X237702618Y-91845152D02*
X237664523Y-91883247D01*
X237664523Y-91883247D02*
X237588333Y-91921342D01*
X237588333Y-91921342D02*
X237283571Y-91921342D01*
X238045475Y-91578485D02*
X238083571Y-91540390D01*
X238083571Y-91540390D02*
X238159761Y-91502295D01*
X238159761Y-91502295D02*
X238350237Y-91502295D01*
X238350237Y-91502295D02*
X238426428Y-91540390D01*
X238426428Y-91540390D02*
X238464523Y-91578485D01*
X238464523Y-91578485D02*
X238502618Y-91654676D01*
X238502618Y-91654676D02*
X238502618Y-91730866D01*
X238502618Y-91730866D02*
X238464523Y-91845152D01*
X238464523Y-91845152D02*
X238007380Y-92302295D01*
X238007380Y-92302295D02*
X238502618Y-92302295D01*
X239264523Y-92302295D02*
X238807380Y-92302295D01*
X239035952Y-92302295D02*
X239035952Y-91502295D01*
X239035952Y-91502295D02*
X238959761Y-91616580D01*
X238959761Y-91616580D02*
X238883571Y-91692771D01*
X238883571Y-91692771D02*
X238807380Y-91730866D01*
X237283571Y-102462295D02*
X237283571Y-101662295D01*
X237283571Y-101662295D02*
X237588333Y-101662295D01*
X237588333Y-101662295D02*
X237664523Y-101700390D01*
X237664523Y-101700390D02*
X237702618Y-101738485D01*
X237702618Y-101738485D02*
X237740714Y-101814676D01*
X237740714Y-101814676D02*
X237740714Y-101928961D01*
X237740714Y-101928961D02*
X237702618Y-102005152D01*
X237702618Y-102005152D02*
X237664523Y-102043247D01*
X237664523Y-102043247D02*
X237588333Y-102081342D01*
X237588333Y-102081342D02*
X237283571Y-102081342D01*
X238502618Y-102462295D02*
X238045475Y-102462295D01*
X238274047Y-102462295D02*
X238274047Y-101662295D01*
X238274047Y-101662295D02*
X238197856Y-101776580D01*
X238197856Y-101776580D02*
X238121666Y-101852771D01*
X238121666Y-101852771D02*
X238045475Y-101890866D01*
X239226428Y-101662295D02*
X238845476Y-101662295D01*
X238845476Y-101662295D02*
X238807380Y-102043247D01*
X238807380Y-102043247D02*
X238845476Y-102005152D01*
X238845476Y-102005152D02*
X238921666Y-101967057D01*
X238921666Y-101967057D02*
X239112142Y-101967057D01*
X239112142Y-101967057D02*
X239188333Y-102005152D01*
X239188333Y-102005152D02*
X239226428Y-102043247D01*
X239226428Y-102043247D02*
X239264523Y-102119438D01*
X239264523Y-102119438D02*
X239264523Y-102309914D01*
X239264523Y-102309914D02*
X239226428Y-102386104D01*
X239226428Y-102386104D02*
X239188333Y-102424200D01*
X239188333Y-102424200D02*
X239112142Y-102462295D01*
X239112142Y-102462295D02*
X238921666Y-102462295D01*
X238921666Y-102462295D02*
X238845476Y-102424200D01*
X238845476Y-102424200D02*
X238807380Y-102386104D01*
X237283571Y-105002295D02*
X237283571Y-104202295D01*
X237283571Y-104202295D02*
X237588333Y-104202295D01*
X237588333Y-104202295D02*
X237664523Y-104240390D01*
X237664523Y-104240390D02*
X237702618Y-104278485D01*
X237702618Y-104278485D02*
X237740714Y-104354676D01*
X237740714Y-104354676D02*
X237740714Y-104468961D01*
X237740714Y-104468961D02*
X237702618Y-104545152D01*
X237702618Y-104545152D02*
X237664523Y-104583247D01*
X237664523Y-104583247D02*
X237588333Y-104621342D01*
X237588333Y-104621342D02*
X237283571Y-104621342D01*
X238502618Y-105002295D02*
X238045475Y-105002295D01*
X238274047Y-105002295D02*
X238274047Y-104202295D01*
X238274047Y-104202295D02*
X238197856Y-104316580D01*
X238197856Y-104316580D02*
X238121666Y-104392771D01*
X238121666Y-104392771D02*
X238045475Y-104430866D01*
X239188333Y-104468961D02*
X239188333Y-105002295D01*
X238997857Y-104164200D02*
X238807380Y-104735628D01*
X238807380Y-104735628D02*
X239302619Y-104735628D01*
X237816905Y-87222295D02*
X237550238Y-86841342D01*
X237359762Y-87222295D02*
X237359762Y-86422295D01*
X237359762Y-86422295D02*
X237664524Y-86422295D01*
X237664524Y-86422295D02*
X237740714Y-86460390D01*
X237740714Y-86460390D02*
X237778809Y-86498485D01*
X237778809Y-86498485D02*
X237816905Y-86574676D01*
X237816905Y-86574676D02*
X237816905Y-86688961D01*
X237816905Y-86688961D02*
X237778809Y-86765152D01*
X237778809Y-86765152D02*
X237740714Y-86803247D01*
X237740714Y-86803247D02*
X237664524Y-86841342D01*
X237664524Y-86841342D02*
X237359762Y-86841342D01*
X238121666Y-87184200D02*
X238235952Y-87222295D01*
X238235952Y-87222295D02*
X238426428Y-87222295D01*
X238426428Y-87222295D02*
X238502619Y-87184200D01*
X238502619Y-87184200D02*
X238540714Y-87146104D01*
X238540714Y-87146104D02*
X238578809Y-87069914D01*
X238578809Y-87069914D02*
X238578809Y-86993723D01*
X238578809Y-86993723D02*
X238540714Y-86917533D01*
X238540714Y-86917533D02*
X238502619Y-86879438D01*
X238502619Y-86879438D02*
X238426428Y-86841342D01*
X238426428Y-86841342D02*
X238274047Y-86803247D01*
X238274047Y-86803247D02*
X238197857Y-86765152D01*
X238197857Y-86765152D02*
X238159762Y-86727057D01*
X238159762Y-86727057D02*
X238121666Y-86650866D01*
X238121666Y-86650866D02*
X238121666Y-86574676D01*
X238121666Y-86574676D02*
X238159762Y-86498485D01*
X238159762Y-86498485D02*
X238197857Y-86460390D01*
X238197857Y-86460390D02*
X238274047Y-86422295D01*
X238274047Y-86422295D02*
X238464524Y-86422295D01*
X238464524Y-86422295D02*
X238578809Y-86460390D01*
X238807381Y-86422295D02*
X239264524Y-86422295D01*
X239035952Y-87222295D02*
X239035952Y-86422295D01*
X227683571Y-105002295D02*
X227683571Y-104202295D01*
X227683571Y-104202295D02*
X227988333Y-104202295D01*
X227988333Y-104202295D02*
X228064523Y-104240390D01*
X228064523Y-104240390D02*
X228102618Y-104278485D01*
X228102618Y-104278485D02*
X228140714Y-104354676D01*
X228140714Y-104354676D02*
X228140714Y-104468961D01*
X228140714Y-104468961D02*
X228102618Y-104545152D01*
X228102618Y-104545152D02*
X228064523Y-104583247D01*
X228064523Y-104583247D02*
X227988333Y-104621342D01*
X227988333Y-104621342D02*
X227683571Y-104621342D01*
X228635952Y-104202295D02*
X228712142Y-104202295D01*
X228712142Y-104202295D02*
X228788333Y-104240390D01*
X228788333Y-104240390D02*
X228826428Y-104278485D01*
X228826428Y-104278485D02*
X228864523Y-104354676D01*
X228864523Y-104354676D02*
X228902618Y-104507057D01*
X228902618Y-104507057D02*
X228902618Y-104697533D01*
X228902618Y-104697533D02*
X228864523Y-104849914D01*
X228864523Y-104849914D02*
X228826428Y-104926104D01*
X228826428Y-104926104D02*
X228788333Y-104964200D01*
X228788333Y-104964200D02*
X228712142Y-105002295D01*
X228712142Y-105002295D02*
X228635952Y-105002295D01*
X228635952Y-105002295D02*
X228559761Y-104964200D01*
X228559761Y-104964200D02*
X228521666Y-104926104D01*
X228521666Y-104926104D02*
X228483571Y-104849914D01*
X228483571Y-104849914D02*
X228445475Y-104697533D01*
X228445475Y-104697533D02*
X228445475Y-104507057D01*
X228445475Y-104507057D02*
X228483571Y-104354676D01*
X228483571Y-104354676D02*
X228521666Y-104278485D01*
X228521666Y-104278485D02*
X228559761Y-104240390D01*
X228559761Y-104240390D02*
X228635952Y-104202295D01*
X229169285Y-104202295D02*
X229702619Y-104202295D01*
X229702619Y-104202295D02*
X229359761Y-105002295D01*
X227683571Y-102462295D02*
X227683571Y-101662295D01*
X227683571Y-101662295D02*
X227988333Y-101662295D01*
X227988333Y-101662295D02*
X228064523Y-101700390D01*
X228064523Y-101700390D02*
X228102618Y-101738485D01*
X228102618Y-101738485D02*
X228140714Y-101814676D01*
X228140714Y-101814676D02*
X228140714Y-101928961D01*
X228140714Y-101928961D02*
X228102618Y-102005152D01*
X228102618Y-102005152D02*
X228064523Y-102043247D01*
X228064523Y-102043247D02*
X227988333Y-102081342D01*
X227988333Y-102081342D02*
X227683571Y-102081342D01*
X228635952Y-101662295D02*
X228712142Y-101662295D01*
X228712142Y-101662295D02*
X228788333Y-101700390D01*
X228788333Y-101700390D02*
X228826428Y-101738485D01*
X228826428Y-101738485D02*
X228864523Y-101814676D01*
X228864523Y-101814676D02*
X228902618Y-101967057D01*
X228902618Y-101967057D02*
X228902618Y-102157533D01*
X228902618Y-102157533D02*
X228864523Y-102309914D01*
X228864523Y-102309914D02*
X228826428Y-102386104D01*
X228826428Y-102386104D02*
X228788333Y-102424200D01*
X228788333Y-102424200D02*
X228712142Y-102462295D01*
X228712142Y-102462295D02*
X228635952Y-102462295D01*
X228635952Y-102462295D02*
X228559761Y-102424200D01*
X228559761Y-102424200D02*
X228521666Y-102386104D01*
X228521666Y-102386104D02*
X228483571Y-102309914D01*
X228483571Y-102309914D02*
X228445475Y-102157533D01*
X228445475Y-102157533D02*
X228445475Y-101967057D01*
X228445475Y-101967057D02*
X228483571Y-101814676D01*
X228483571Y-101814676D02*
X228521666Y-101738485D01*
X228521666Y-101738485D02*
X228559761Y-101700390D01*
X228559761Y-101700390D02*
X228635952Y-101662295D01*
X229588333Y-101662295D02*
X229435952Y-101662295D01*
X229435952Y-101662295D02*
X229359761Y-101700390D01*
X229359761Y-101700390D02*
X229321666Y-101738485D01*
X229321666Y-101738485D02*
X229245476Y-101852771D01*
X229245476Y-101852771D02*
X229207380Y-102005152D01*
X229207380Y-102005152D02*
X229207380Y-102309914D01*
X229207380Y-102309914D02*
X229245476Y-102386104D01*
X229245476Y-102386104D02*
X229283571Y-102424200D01*
X229283571Y-102424200D02*
X229359761Y-102462295D01*
X229359761Y-102462295D02*
X229512142Y-102462295D01*
X229512142Y-102462295D02*
X229588333Y-102424200D01*
X229588333Y-102424200D02*
X229626428Y-102386104D01*
X229626428Y-102386104D02*
X229664523Y-102309914D01*
X229664523Y-102309914D02*
X229664523Y-102119438D01*
X229664523Y-102119438D02*
X229626428Y-102043247D01*
X229626428Y-102043247D02*
X229588333Y-102005152D01*
X229588333Y-102005152D02*
X229512142Y-101967057D01*
X229512142Y-101967057D02*
X229359761Y-101967057D01*
X229359761Y-101967057D02*
X229283571Y-102005152D01*
X229283571Y-102005152D02*
X229245476Y-102043247D01*
X229245476Y-102043247D02*
X229207380Y-102119438D01*
X228045476Y-86460390D02*
X227969286Y-86422295D01*
X227969286Y-86422295D02*
X227855000Y-86422295D01*
X227855000Y-86422295D02*
X227740714Y-86460390D01*
X227740714Y-86460390D02*
X227664524Y-86536580D01*
X227664524Y-86536580D02*
X227626429Y-86612771D01*
X227626429Y-86612771D02*
X227588333Y-86765152D01*
X227588333Y-86765152D02*
X227588333Y-86879438D01*
X227588333Y-86879438D02*
X227626429Y-87031819D01*
X227626429Y-87031819D02*
X227664524Y-87108009D01*
X227664524Y-87108009D02*
X227740714Y-87184200D01*
X227740714Y-87184200D02*
X227855000Y-87222295D01*
X227855000Y-87222295D02*
X227931191Y-87222295D01*
X227931191Y-87222295D02*
X228045476Y-87184200D01*
X228045476Y-87184200D02*
X228083572Y-87146104D01*
X228083572Y-87146104D02*
X228083572Y-86879438D01*
X228083572Y-86879438D02*
X227931191Y-86879438D01*
X228426429Y-87222295D02*
X228426429Y-86422295D01*
X228426429Y-86422295D02*
X228883572Y-87222295D01*
X228883572Y-87222295D02*
X228883572Y-86422295D01*
X229264524Y-87222295D02*
X229264524Y-86422295D01*
X229264524Y-86422295D02*
X229455000Y-86422295D01*
X229455000Y-86422295D02*
X229569286Y-86460390D01*
X229569286Y-86460390D02*
X229645476Y-86536580D01*
X229645476Y-86536580D02*
X229683571Y-86612771D01*
X229683571Y-86612771D02*
X229721667Y-86765152D01*
X229721667Y-86765152D02*
X229721667Y-86879438D01*
X229721667Y-86879438D02*
X229683571Y-87031819D01*
X229683571Y-87031819D02*
X229645476Y-87108009D01*
X229645476Y-87108009D02*
X229569286Y-87184200D01*
X229569286Y-87184200D02*
X229455000Y-87222295D01*
X229455000Y-87222295D02*
X229264524Y-87222295D01*
X237283571Y-110082295D02*
X237283571Y-109282295D01*
X237283571Y-109282295D02*
X237588333Y-109282295D01*
X237588333Y-109282295D02*
X237664523Y-109320390D01*
X237664523Y-109320390D02*
X237702618Y-109358485D01*
X237702618Y-109358485D02*
X237740714Y-109434676D01*
X237740714Y-109434676D02*
X237740714Y-109548961D01*
X237740714Y-109548961D02*
X237702618Y-109625152D01*
X237702618Y-109625152D02*
X237664523Y-109663247D01*
X237664523Y-109663247D02*
X237588333Y-109701342D01*
X237588333Y-109701342D02*
X237283571Y-109701342D01*
X238502618Y-110082295D02*
X238045475Y-110082295D01*
X238274047Y-110082295D02*
X238274047Y-109282295D01*
X238274047Y-109282295D02*
X238197856Y-109396580D01*
X238197856Y-109396580D02*
X238121666Y-109472771D01*
X238121666Y-109472771D02*
X238045475Y-109510866D01*
X238997857Y-109282295D02*
X239074047Y-109282295D01*
X239074047Y-109282295D02*
X239150238Y-109320390D01*
X239150238Y-109320390D02*
X239188333Y-109358485D01*
X239188333Y-109358485D02*
X239226428Y-109434676D01*
X239226428Y-109434676D02*
X239264523Y-109587057D01*
X239264523Y-109587057D02*
X239264523Y-109777533D01*
X239264523Y-109777533D02*
X239226428Y-109929914D01*
X239226428Y-109929914D02*
X239188333Y-110006104D01*
X239188333Y-110006104D02*
X239150238Y-110044200D01*
X239150238Y-110044200D02*
X239074047Y-110082295D01*
X239074047Y-110082295D02*
X238997857Y-110082295D01*
X238997857Y-110082295D02*
X238921666Y-110044200D01*
X238921666Y-110044200D02*
X238883571Y-110006104D01*
X238883571Y-110006104D02*
X238845476Y-109929914D01*
X238845476Y-109929914D02*
X238807380Y-109777533D01*
X238807380Y-109777533D02*
X238807380Y-109587057D01*
X238807380Y-109587057D02*
X238845476Y-109434676D01*
X238845476Y-109434676D02*
X238883571Y-109358485D01*
X238883571Y-109358485D02*
X238921666Y-109320390D01*
X238921666Y-109320390D02*
X238997857Y-109282295D01*
D13*
%TO.C,D1*%
X105600000Y-130500000D02*
X106000000Y-129900000D01*
X106000000Y-129500000D02*
X106000000Y-129900000D01*
X106000000Y-129900000D02*
X105450000Y-129900000D01*
X106000000Y-129900000D02*
X106400000Y-130500000D01*
X106000000Y-129900000D02*
X106550000Y-129900000D01*
X106000000Y-130500000D02*
X106000000Y-131000000D01*
X106400000Y-130500000D02*
X105600000Y-130500000D01*
%TO.C,D10*%
X143100000Y-105750000D02*
X143500000Y-105150000D01*
X143500000Y-104750000D02*
X143500000Y-105150000D01*
X143500000Y-105150000D02*
X142950000Y-105150000D01*
X143500000Y-105150000D02*
X143900000Y-105750000D01*
X143500000Y-105150000D02*
X144050000Y-105150000D01*
X143500000Y-105750000D02*
X143500000Y-106250000D01*
X143900000Y-105750000D02*
X143100000Y-105750000D01*
D14*
%TO.C,I2COut*%
X250970000Y-132390000D02*
X250970000Y-122110000D01*
X253630000Y-122110000D02*
X250970000Y-122110000D01*
X253630000Y-132390000D02*
X250970000Y-132390000D01*
X253630000Y-132390000D02*
X253630000Y-122110000D01*
D13*
%TO.C,D8*%
X124350000Y-77250000D02*
X124750000Y-76650000D01*
X124750000Y-76250000D02*
X124750000Y-76650000D01*
X124750000Y-76650000D02*
X124200000Y-76650000D01*
X124750000Y-76650000D02*
X125150000Y-77250000D01*
X124750000Y-76650000D02*
X125300000Y-76650000D01*
X124750000Y-77250000D02*
X124750000Y-77750000D01*
X125150000Y-77250000D02*
X124350000Y-77250000D01*
%TO.C,D2*%
X105600000Y-112750000D02*
X106000000Y-112150000D01*
X106000000Y-111750000D02*
X106000000Y-112150000D01*
X106000000Y-112150000D02*
X105450000Y-112150000D01*
X106000000Y-112150000D02*
X106400000Y-112750000D01*
X106000000Y-112150000D02*
X106550000Y-112150000D01*
X106000000Y-112750000D02*
X106000000Y-113250000D01*
X106400000Y-112750000D02*
X105600000Y-112750000D01*
%TO.C,D18*%
X180600000Y-142250000D02*
X181000000Y-141650000D01*
X181000000Y-141250000D02*
X181000000Y-141650000D01*
X181000000Y-141650000D02*
X180450000Y-141650000D01*
X181000000Y-141650000D02*
X181400000Y-142250000D01*
X181000000Y-141650000D02*
X181550000Y-141650000D01*
X181000000Y-142250000D02*
X181000000Y-142750000D01*
X181400000Y-142250000D02*
X180600000Y-142250000D01*
%TO.C,D32*%
X235386081Y-167298200D02*
X235732491Y-167498200D01*
X235732491Y-167498200D02*
X235457491Y-167974514D01*
X235732491Y-167498200D02*
X236007491Y-167021886D01*
X235732491Y-167498200D02*
X236452106Y-167451790D01*
X236052106Y-168144610D02*
X235732491Y-167498200D01*
X236252106Y-167798200D02*
X236685119Y-168048200D01*
X236452106Y-167451790D02*
X236052106Y-168144610D01*
%TO.C,D7*%
X124350000Y-95000000D02*
X124750000Y-94400000D01*
X124750000Y-94000000D02*
X124750000Y-94400000D01*
X124750000Y-94400000D02*
X124200000Y-94400000D01*
X124750000Y-94400000D02*
X125150000Y-95000000D01*
X124750000Y-94400000D02*
X125300000Y-94400000D01*
X124750000Y-95000000D02*
X124750000Y-95500000D01*
X125150000Y-95000000D02*
X124350000Y-95000000D01*
%TO.C,D28*%
X218100000Y-105750000D02*
X218500000Y-105150000D01*
X218500000Y-104750000D02*
X218500000Y-105150000D01*
X218500000Y-105150000D02*
X217950000Y-105150000D01*
X218500000Y-105150000D02*
X218900000Y-105750000D01*
X218500000Y-105150000D02*
X219050000Y-105150000D01*
X218500000Y-105750000D02*
X218500000Y-106250000D01*
X218900000Y-105750000D02*
X218100000Y-105750000D01*
D14*
%TO.C,DISP1*%
X228315000Y-113120000D02*
X228315000Y-115780000D01*
X238595000Y-113120000D02*
X228315000Y-113120000D01*
X238595000Y-113120000D02*
X238595000Y-115780000D01*
X238595000Y-115780000D02*
X228315000Y-115780000D01*
D13*
%TO.C,D13*%
X161850000Y-136250000D02*
X162250000Y-135650000D01*
X162250000Y-135250000D02*
X162250000Y-135650000D01*
X162250000Y-135650000D02*
X161700000Y-135650000D01*
X162250000Y-135650000D02*
X162650000Y-136250000D01*
X162250000Y-135650000D02*
X162800000Y-135650000D01*
X162250000Y-136250000D02*
X162250000Y-136750000D01*
X162650000Y-136250000D02*
X161850000Y-136250000D01*
%TO.C,D30*%
X204072790Y-159034406D02*
X204719200Y-158714791D01*
X204419200Y-159234406D02*
X204169200Y-159667419D01*
X204719200Y-158714791D02*
X204242886Y-158439791D01*
X204719200Y-158714791D02*
X204765610Y-159434406D01*
X204719200Y-158714791D02*
X205195514Y-158989791D01*
X204765610Y-159434406D02*
X204072790Y-159034406D01*
X204919200Y-158368381D02*
X204719200Y-158714791D01*
D12*
%TO.C,MCU1*%
X224565000Y-77970000D02*
X224565000Y-110990000D01*
X224565000Y-110990000D02*
X242345000Y-110990000D01*
X239805000Y-80510000D02*
X239805000Y-83050000D01*
X239805000Y-80510000D02*
X242345000Y-80510000D01*
X239805000Y-83050000D02*
X242345000Y-83050000D01*
X242345000Y-77970000D02*
X224565000Y-77970000D01*
X242345000Y-110990000D02*
X242345000Y-77970000D01*
D13*
%TO.C,D17*%
X161850000Y-65250000D02*
X162250000Y-64650000D01*
X162250000Y-64250000D02*
X162250000Y-64650000D01*
X162250000Y-64650000D02*
X161700000Y-64650000D01*
X162250000Y-64650000D02*
X162650000Y-65250000D01*
X162250000Y-64650000D02*
X162800000Y-64650000D01*
X162250000Y-65250000D02*
X162250000Y-65750000D01*
X162650000Y-65250000D02*
X161850000Y-65250000D01*
%TO.C,D22*%
X180600000Y-71250000D02*
X181000000Y-70650000D01*
X181000000Y-70250000D02*
X181000000Y-70650000D01*
X181000000Y-70650000D02*
X180450000Y-70650000D01*
X181000000Y-70650000D02*
X181400000Y-71250000D01*
X181000000Y-70650000D02*
X181550000Y-70650000D01*
X181000000Y-71250000D02*
X181000000Y-71750000D01*
X181400000Y-71250000D02*
X180600000Y-71250000D01*
%TO.C,D27*%
X218100000Y-123500000D02*
X218500000Y-122900000D01*
X218500000Y-122500000D02*
X218500000Y-122900000D01*
X218500000Y-122900000D02*
X217950000Y-122900000D01*
X218500000Y-122900000D02*
X218900000Y-123500000D01*
X218500000Y-122900000D02*
X219050000Y-122900000D01*
X218500000Y-123500000D02*
X218500000Y-124000000D01*
X218900000Y-123500000D02*
X218100000Y-123500000D01*
%TO.C,D5*%
X124350000Y-130500000D02*
X124750000Y-129900000D01*
X124750000Y-129500000D02*
X124750000Y-129900000D01*
X124750000Y-129900000D02*
X124200000Y-129900000D01*
X124750000Y-129900000D02*
X125150000Y-130500000D01*
X124750000Y-129900000D02*
X125300000Y-129900000D01*
X124750000Y-130500000D02*
X124750000Y-131000000D01*
X125150000Y-130500000D02*
X124350000Y-130500000D01*
%TO.C,D3*%
X105600000Y-95000000D02*
X106000000Y-94400000D01*
X106000000Y-94000000D02*
X106000000Y-94400000D01*
X106000000Y-94400000D02*
X105450000Y-94400000D01*
X106000000Y-94400000D02*
X106400000Y-95000000D01*
X106000000Y-94400000D02*
X106550000Y-94400000D01*
X106000000Y-95000000D02*
X106000000Y-95500000D01*
X106400000Y-95000000D02*
X105600000Y-95000000D01*
%TO.C,D15*%
X161850000Y-100750000D02*
X162250000Y-100150000D01*
X162250000Y-99750000D02*
X162250000Y-100150000D01*
X162250000Y-100150000D02*
X161700000Y-100150000D01*
X162250000Y-100150000D02*
X162650000Y-100750000D01*
X162250000Y-100150000D02*
X162800000Y-100150000D01*
X162250000Y-100750000D02*
X162250000Y-101250000D01*
X162650000Y-100750000D02*
X161850000Y-100750000D01*
%TO.C,D20*%
X180600000Y-106750000D02*
X181000000Y-106150000D01*
X181000000Y-105750000D02*
X181000000Y-106150000D01*
X181000000Y-106150000D02*
X180450000Y-106150000D01*
X181000000Y-106150000D02*
X181400000Y-106750000D01*
X181000000Y-106150000D02*
X181550000Y-106150000D01*
X181000000Y-106750000D02*
X181000000Y-107250000D01*
X181400000Y-106750000D02*
X180600000Y-106750000D01*
%TO.C,D16*%
X161850000Y-83000000D02*
X162250000Y-82400000D01*
X162250000Y-82000000D02*
X162250000Y-82400000D01*
X162250000Y-82400000D02*
X161700000Y-82400000D01*
X162250000Y-82400000D02*
X162650000Y-83000000D01*
X162250000Y-82400000D02*
X162800000Y-82400000D01*
X162250000Y-83000000D02*
X162250000Y-83500000D01*
X162650000Y-83000000D02*
X161850000Y-83000000D01*
%TO.C,D9*%
X143100000Y-123500000D02*
X143500000Y-122900000D01*
X143500000Y-122500000D02*
X143500000Y-122900000D01*
X143500000Y-122900000D02*
X142950000Y-122900000D01*
X143500000Y-122900000D02*
X143900000Y-123500000D01*
X143500000Y-122900000D02*
X144050000Y-122900000D01*
X143500000Y-123500000D02*
X143500000Y-124000000D01*
X143900000Y-123500000D02*
X143100000Y-123500000D01*
%TO.C,D4*%
X105600000Y-77250000D02*
X106000000Y-76650000D01*
X106000000Y-76250000D02*
X106000000Y-76650000D01*
X106000000Y-76650000D02*
X105450000Y-76650000D01*
X106000000Y-76650000D02*
X106400000Y-77250000D01*
X106000000Y-76650000D02*
X106550000Y-76650000D01*
X106000000Y-77250000D02*
X106000000Y-77750000D01*
X106400000Y-77250000D02*
X105600000Y-77250000D01*
%TO.C,D19*%
X180600000Y-124500000D02*
X181000000Y-123900000D01*
X181000000Y-123500000D02*
X181000000Y-123900000D01*
X181000000Y-123900000D02*
X180450000Y-123900000D01*
X181000000Y-123900000D02*
X181400000Y-124500000D01*
X181000000Y-123900000D02*
X181550000Y-123900000D01*
X181000000Y-124500000D02*
X181000000Y-125000000D01*
X181400000Y-124500000D02*
X180600000Y-124500000D01*
%TO.C,D11*%
X143100000Y-88000000D02*
X143500000Y-87400000D01*
X143500000Y-87000000D02*
X143500000Y-87400000D01*
X143500000Y-87400000D02*
X142950000Y-87400000D01*
X143500000Y-87400000D02*
X143900000Y-88000000D01*
X143500000Y-87400000D02*
X144050000Y-87400000D01*
X143500000Y-88000000D02*
X143500000Y-88500000D01*
X143900000Y-88000000D02*
X143100000Y-88000000D01*
%TO.C,D21*%
X180600000Y-89000000D02*
X181000000Y-88400000D01*
X181000000Y-88000000D02*
X181000000Y-88400000D01*
X181000000Y-88400000D02*
X180450000Y-88400000D01*
X181000000Y-88400000D02*
X181400000Y-89000000D01*
X181000000Y-88400000D02*
X181550000Y-88400000D01*
X181000000Y-89000000D02*
X181000000Y-89500000D01*
X181400000Y-89000000D02*
X180600000Y-89000000D01*
%TO.C,D29*%
X218100000Y-88000000D02*
X218500000Y-87400000D01*
X218500000Y-87000000D02*
X218500000Y-87400000D01*
X218500000Y-87400000D02*
X217950000Y-87400000D01*
X218500000Y-87400000D02*
X218900000Y-88000000D01*
X218500000Y-87400000D02*
X219050000Y-87400000D01*
X218500000Y-88000000D02*
X218500000Y-88500000D01*
X218900000Y-88000000D02*
X218100000Y-88000000D01*
%TO.C,D24*%
X199350000Y-109750000D02*
X199750000Y-109150000D01*
X199750000Y-108750000D02*
X199750000Y-109150000D01*
X199750000Y-109150000D02*
X199200000Y-109150000D01*
X199750000Y-109150000D02*
X200150000Y-109750000D01*
X199750000Y-109150000D02*
X200300000Y-109150000D01*
X199750000Y-109750000D02*
X199750000Y-110250000D01*
X200150000Y-109750000D02*
X199350000Y-109750000D01*
%TO.C,D6*%
X124350000Y-112750000D02*
X124750000Y-112150000D01*
X124750000Y-111750000D02*
X124750000Y-112150000D01*
X124750000Y-112150000D02*
X124200000Y-112150000D01*
X124750000Y-112150000D02*
X125150000Y-112750000D01*
X124750000Y-112150000D02*
X125300000Y-112150000D01*
X124750000Y-112750000D02*
X124750000Y-113250000D01*
X125150000Y-112750000D02*
X124350000Y-112750000D01*
%TO.C,D26*%
X199350000Y-74250000D02*
X199750000Y-73650000D01*
X199750000Y-73250000D02*
X199750000Y-73650000D01*
X199750000Y-73650000D02*
X199200000Y-73650000D01*
X199750000Y-73650000D02*
X200150000Y-74250000D01*
X199750000Y-73650000D02*
X200300000Y-73650000D01*
X199750000Y-74250000D02*
X199750000Y-74750000D01*
X200150000Y-74250000D02*
X199350000Y-74250000D01*
%TO.C,D23*%
X199350000Y-127500000D02*
X199750000Y-126900000D01*
X199750000Y-126500000D02*
X199750000Y-126900000D01*
X199750000Y-126900000D02*
X199200000Y-126900000D01*
X199750000Y-126900000D02*
X200150000Y-127500000D01*
X199750000Y-126900000D02*
X200300000Y-126900000D01*
X199750000Y-127500000D02*
X199750000Y-128000000D01*
X200150000Y-127500000D02*
X199350000Y-127500000D01*
%TO.C,D25*%
X199350000Y-92000000D02*
X199750000Y-91400000D01*
X199750000Y-91000000D02*
X199750000Y-91400000D01*
X199750000Y-91400000D02*
X199200000Y-91400000D01*
X199750000Y-91400000D02*
X200150000Y-92000000D01*
X199750000Y-91400000D02*
X200300000Y-91400000D01*
X199750000Y-92000000D02*
X199750000Y-92500000D01*
X200150000Y-92000000D02*
X199350000Y-92000000D01*
%TO.C,D12*%
X143100000Y-70250000D02*
X143500000Y-69650000D01*
X143500000Y-69250000D02*
X143500000Y-69650000D01*
X143500000Y-69650000D02*
X142950000Y-69650000D01*
X143500000Y-69650000D02*
X143900000Y-70250000D01*
X143500000Y-69650000D02*
X144050000Y-69650000D01*
X143500000Y-70250000D02*
X143500000Y-70750000D01*
X143900000Y-70250000D02*
X143100000Y-70250000D01*
%TO.C,D31*%
X218238781Y-157398200D02*
X218585191Y-157598200D01*
X218585191Y-157598200D02*
X218310191Y-158074514D01*
X218585191Y-157598200D02*
X218860191Y-157121886D01*
X218585191Y-157598200D02*
X219304806Y-157551790D01*
X218904806Y-158244610D02*
X218585191Y-157598200D01*
X219104806Y-157898200D02*
X219537819Y-158148200D01*
X219304806Y-157551790D02*
X218904806Y-158244610D01*
%TO.C,D14*%
X161850000Y-118500000D02*
X162250000Y-117900000D01*
X162250000Y-117500000D02*
X162250000Y-117900000D01*
X162250000Y-117900000D02*
X161700000Y-117900000D01*
X162250000Y-117900000D02*
X162650000Y-118500000D01*
X162250000Y-117900000D02*
X162800000Y-117900000D01*
X162250000Y-118500000D02*
X162250000Y-119000000D01*
X162650000Y-118500000D02*
X161850000Y-118500000D01*
%TD*%
D15*
%TO.C,MCU1*%
X241075000Y-81780000D03*
D16*
X241075000Y-84320000D03*
X241075000Y-86860000D03*
X241075000Y-89400000D03*
X241075000Y-91940000D03*
X241075000Y-94480000D03*
X241075000Y-97020000D03*
X241075000Y-99560000D03*
X241075000Y-102100000D03*
X241075000Y-104640000D03*
X241075000Y-107180000D03*
X241075000Y-109720000D03*
X225835000Y-81780000D03*
X225835000Y-84320000D03*
X225835000Y-86860000D03*
X225835000Y-89400000D03*
X225835000Y-91940000D03*
X225835000Y-94480000D03*
X225835000Y-97020000D03*
X225835000Y-99560000D03*
X225835000Y-102100000D03*
X225835000Y-104640000D03*
X225835000Y-107180000D03*
X225835000Y-109720000D03*
%TD*%
M02*
