%TF.GenerationSoftware,KiCad,Pcbnew,9.0.7*%
%TF.CreationDate,2026-01-28T22:46:33+01:00*%
%TF.ProjectId,board_left_finished,626f6172-645f-46c6-9566-745f66696e69,v1.0.0*%
%TF.SameCoordinates,Original*%
%TF.FileFunction,Paste,Top*%
%TF.FilePolarity,Positive*%
%FSLAX46Y46*%
G04 Gerber Fmt 4.6, Leading zero omitted, Abs format (unit mm)*
G04 Created by KiCad (PCBNEW 9.0.7) date 2026-01-28 22:46:33*
%MOMM*%
%LPD*%
G01*
G04 APERTURE LIST*
G04 Aperture macros list*
%AMRotRect*
0 Rectangle, with rotation*
0 The origin of the aperture is its center*
0 $1 length*
0 $2 width*
0 $3 Rotation angle, in degrees counterclockwise*
0 Add horizontal line*
21,1,$1,$2,0,0,$3*%
G04 Aperture macros list end*
%ADD10R,1.200000X0.900000*%
%ADD11RotRect,0.900000X1.200000X330.000000*%
%ADD12RotRect,0.900000X1.200000X240.000000*%
G04 APERTURE END LIST*
D10*
%TO.C,D1*%
X106000000Y-128600000D03*
X106000000Y-131900000D03*
%TD*%
%TO.C,D10*%
X143500000Y-103850000D03*
X143500000Y-107150000D03*
%TD*%
%TO.C,D8*%
X124750000Y-75350000D03*
X124750000Y-78650000D03*
%TD*%
%TO.C,D2*%
X106000000Y-110850000D03*
X106000000Y-114150000D03*
%TD*%
%TO.C,D18*%
X181000000Y-140350000D03*
X181000000Y-143650000D03*
%TD*%
D11*
%TO.C,D32*%
X234606658Y-166848200D03*
X237464542Y-168498200D03*
%TD*%
D10*
%TO.C,D7*%
X124750000Y-93100000D03*
X124750000Y-96400000D03*
%TD*%
%TO.C,D28*%
X218500000Y-103850000D03*
X218500000Y-107150000D03*
%TD*%
%TO.C,D13*%
X162250000Y-134350000D03*
X162250000Y-137650000D03*
%TD*%
D12*
%TO.C,D30*%
X205369200Y-157588958D03*
X203719200Y-160446842D03*
%TD*%
D10*
%TO.C,D17*%
X162250000Y-63350000D03*
X162250000Y-66650000D03*
%TD*%
%TO.C,D22*%
X181000000Y-69350000D03*
X181000000Y-72650000D03*
%TD*%
%TO.C,D27*%
X218500000Y-121600000D03*
X218500000Y-124900000D03*
%TD*%
%TO.C,D5*%
X124750000Y-128600000D03*
X124750000Y-131900000D03*
%TD*%
%TO.C,D3*%
X106000000Y-93100000D03*
X106000000Y-96400000D03*
%TD*%
%TO.C,D15*%
X162250000Y-98850000D03*
X162250000Y-102150000D03*
%TD*%
%TO.C,D20*%
X181000000Y-104850000D03*
X181000000Y-108150000D03*
%TD*%
%TO.C,D16*%
X162250000Y-81100000D03*
X162250000Y-84400000D03*
%TD*%
%TO.C,D9*%
X143500000Y-121600000D03*
X143500000Y-124900000D03*
%TD*%
%TO.C,D4*%
X106000000Y-75350000D03*
X106000000Y-78650000D03*
%TD*%
%TO.C,D19*%
X181000000Y-122600000D03*
X181000000Y-125900000D03*
%TD*%
%TO.C,D11*%
X143500000Y-86100000D03*
X143500000Y-89400000D03*
%TD*%
%TO.C,D21*%
X181000000Y-87100000D03*
X181000000Y-90400000D03*
%TD*%
%TO.C,D29*%
X218500000Y-86100000D03*
X218500000Y-89400000D03*
%TD*%
%TO.C,D24*%
X199750000Y-107850000D03*
X199750000Y-111150000D03*
%TD*%
%TO.C,D6*%
X124750000Y-110850000D03*
X124750000Y-114150000D03*
%TD*%
%TO.C,D26*%
X199750000Y-72350000D03*
X199750000Y-75650000D03*
%TD*%
%TO.C,D23*%
X199750000Y-125600000D03*
X199750000Y-128900000D03*
%TD*%
%TO.C,D25*%
X199750000Y-90100000D03*
X199750000Y-93400000D03*
%TD*%
%TO.C,D12*%
X143500000Y-68350000D03*
X143500000Y-71650000D03*
%TD*%
D11*
%TO.C,D31*%
X217459358Y-156948200D03*
X220317242Y-158598200D03*
%TD*%
D10*
%TO.C,D14*%
X162250000Y-116600000D03*
X162250000Y-119900000D03*
%TD*%
M02*
