M48
; DRILL file {KiCad 9.0.7} date 2026-01-28T22:46:30+0100
; FORMAT={-:-/ absolute / metric / decimal}
; #@! TF.CreationDate,2026-01-28T22:46:30+01:00
; #@! TF.GenerationSoftware,Kicad,Pcbnew,9.0.7
; #@! TF.FileFunction,Plated,1,2,PTH
FMAT,2
METRIC
; #@! TA.AperFunction,Plated,PTH,ViaDrill
T1C0.300
; #@! TA.AperFunction,Plated,PTH,ComponentDrill
T2C0.900
; #@! TA.AperFunction,Plated,PTH,ComponentDrill
T3C0.991
; #@! TA.AperFunction,Plated,PTH,ComponentDrill
T4C1.000
; #@! TA.AperFunction,Plated,PTH,ComponentDrill
T5C1.092
; #@! TA.AperFunction,Plated,PTH,ComponentDrill
T6C3.000
; #@! TA.AperFunction,Plated,PTH,ComponentDrill
T7C5.100
%
G90
G05
T1
X223.421Y-100.582
X224.304Y-99.359
X227.0Y-98.29
X240.255Y-116.738
X241.282Y-79.614
X251.137Y-112.715
T3
X106.0Y-73.19
X106.0Y-80.81
X106.0Y-90.94
X106.0Y-98.56
X106.0Y-108.69
X106.0Y-116.31
X106.0Y-126.44
X106.0Y-134.06
X124.75Y-73.19
X124.75Y-80.81
X124.75Y-90.94
X124.75Y-98.56
X124.75Y-108.69
X124.75Y-116.31
X124.75Y-126.44
X124.75Y-134.06
X143.5Y-66.19
X143.5Y-73.81
X143.5Y-83.94
X143.5Y-91.56
X143.5Y-101.69
X143.5Y-109.31
X143.5Y-119.44
X143.5Y-127.06
X162.25Y-61.19
X162.25Y-68.81
X162.25Y-78.94
X162.25Y-86.56
X162.25Y-96.69
X162.25Y-104.31
X162.25Y-114.44
X162.25Y-122.06
X162.25Y-132.19
X162.25Y-139.81
X181.0Y-67.19
X181.0Y-74.81
X181.0Y-84.94
X181.0Y-92.56
X181.0Y-102.69
X181.0Y-110.31
X181.0Y-120.44
X181.0Y-128.06
X181.0Y-138.19
X181.0Y-145.81
X199.75Y-70.19
X199.75Y-77.81
X199.75Y-87.94
X199.75Y-95.56
X199.75Y-105.69
X199.75Y-113.31
X199.75Y-123.44
X199.75Y-131.06
X202.639Y-162.317
X206.449Y-155.718
X215.589Y-155.868
X218.5Y-83.94
X218.5Y-91.56
X218.5Y-101.69
X218.5Y-109.31
X218.5Y-119.44
X218.5Y-127.06
X222.188Y-159.678
X232.736Y-165.768
X239.335Y-169.578
T4
X229.645Y-114.45
X232.185Y-114.45
X234.725Y-114.45
X237.265Y-114.45
X252.3Y-123.44
X252.3Y-125.98
X252.3Y-128.52
X252.3Y-131.06
T5
X225.835Y-81.78
X225.835Y-84.32
X225.835Y-86.86
X225.835Y-89.4
X225.835Y-91.94
X225.835Y-94.48
X225.835Y-97.02
X225.835Y-99.56
X225.835Y-102.1
X225.835Y-104.64
X225.835Y-107.18
X225.835Y-109.72
X241.075Y-81.78
X241.075Y-84.32
X241.075Y-86.86
X241.075Y-89.4
X241.075Y-91.94
X241.075Y-94.48
X241.075Y-97.02
X241.075Y-99.56
X241.075Y-102.1
X241.075Y-104.64
X241.075Y-107.18
X241.075Y-109.72
T6
X95.6Y-83.7
X95.6Y-101.45
X95.6Y-119.2
X95.6Y-136.95
X102.6Y-84.75
X102.6Y-102.5
X102.6Y-120.25
X102.6Y-138.0
X114.35Y-83.7
X114.35Y-101.45
X114.35Y-119.2
X114.35Y-136.95
X121.35Y-84.75
X121.35Y-102.5
X121.35Y-120.25
X121.35Y-138.0
X133.1Y-76.7
X133.1Y-94.45
X133.1Y-112.2
X133.1Y-129.95
X140.1Y-77.75
X140.1Y-95.5
X140.1Y-113.25
X140.1Y-131.0
X151.85Y-71.7
X151.85Y-89.45
X151.85Y-107.2
X151.85Y-124.95
X151.85Y-142.7
X158.85Y-72.75
X158.85Y-90.5
X158.85Y-108.25
X158.85Y-126.0
X158.85Y-143.75
X170.6Y-77.7
X170.6Y-95.45
X170.6Y-113.2
X170.6Y-130.95
X170.6Y-148.7
X177.6Y-78.75
X177.6Y-96.5
X177.6Y-114.25
X177.6Y-132.0
X177.6Y-149.75
X189.35Y-80.7
X189.35Y-98.45
X189.35Y-116.2
X189.35Y-133.95
X192.188Y-159.62
X196.35Y-81.75
X196.35Y-99.5
X196.35Y-117.25
X196.35Y-135.0
X197.725Y-164.03
X208.1Y-94.45
X208.1Y-112.2
X208.1Y-129.95
X215.1Y-95.5
X215.1Y-113.25
X215.1Y-131.0
X219.491Y-170.13
X223.9Y-164.593
X236.638Y-180.03
X241.047Y-174.493
T7
X100.0Y-79.0
X100.0Y-96.75
X100.0Y-114.5
X100.0Y-132.25
X118.75Y-79.0
X118.75Y-96.75
X118.75Y-114.5
X118.75Y-132.25
X137.5Y-72.0
X137.5Y-89.75
X137.5Y-107.5
X137.5Y-125.25
X156.25Y-67.0
X156.25Y-84.75
X156.25Y-102.5
X156.25Y-120.25
X156.25Y-138.0
X175.0Y-73.0
X175.0Y-90.75
X175.0Y-108.5
X175.0Y-126.25
X175.0Y-144.0
X193.75Y-76.0
X193.75Y-93.75
X193.75Y-111.5
X193.75Y-129.25
X198.348Y-157.75
X212.5Y-89.75
X212.5Y-107.5
X212.5Y-125.25
X217.62Y-163.969
X234.768Y-173.869
T2
G00X248.3Y-90.25
M15
G01X248.3Y-90.85
M16
G05
G00X252.9Y-82.15
M15
G01X252.9Y-82.75
M16
G05
G00X252.9Y-85.15
M15
G01X252.9Y-85.75
M16
G05
G00X252.9Y-89.15
M15
G01X252.9Y-89.75
M16
G05
M30
