%TF.GenerationSoftware,KiCad,Pcbnew,9.0.7*%
%TF.CreationDate,2026-01-28T22:46:33+01:00*%
%TF.ProjectId,board_left_finished,626f6172-645f-46c6-9566-745f66696e69,v1.0.0*%
%TF.SameCoordinates,Original*%
%TF.FileFunction,Legend,Bot*%
%TF.FilePolarity,Positive*%
%FSLAX46Y46*%
G04 Gerber Fmt 4.6, Leading zero omitted, Abs format (unit mm)*
G04 Created by KiCad (PCBNEW 9.0.7) date 2026-01-28 22:46:33*
%MOMM*%
%LPD*%
G01*
G04 APERTURE LIST*
%ADD10C,0.100000*%
%ADD11R,1.752600X1.752600*%
%ADD12C,1.752600*%
G04 APERTURE END LIST*
D10*
%TO.C,D1*%
X105600000Y-130500000D02*
X106000000Y-129900000D01*
X106000000Y-129500000D02*
X106000000Y-129900000D01*
X106000000Y-129900000D02*
X105450000Y-129900000D01*
X106000000Y-129900000D02*
X106400000Y-130500000D01*
X106000000Y-129900000D02*
X106550000Y-129900000D01*
X106000000Y-130500000D02*
X106000000Y-131000000D01*
X106400000Y-130500000D02*
X105600000Y-130500000D01*
%TO.C,D10*%
X143100000Y-105750000D02*
X143500000Y-105150000D01*
X143500000Y-104750000D02*
X143500000Y-105150000D01*
X143500000Y-105150000D02*
X142950000Y-105150000D01*
X143500000Y-105150000D02*
X143900000Y-105750000D01*
X143500000Y-105150000D02*
X144050000Y-105150000D01*
X143500000Y-105750000D02*
X143500000Y-106250000D01*
X143900000Y-105750000D02*
X143100000Y-105750000D01*
%TO.C,D8*%
X124350000Y-77250000D02*
X124750000Y-76650000D01*
X124750000Y-76250000D02*
X124750000Y-76650000D01*
X124750000Y-76650000D02*
X124200000Y-76650000D01*
X124750000Y-76650000D02*
X125150000Y-77250000D01*
X124750000Y-76650000D02*
X125300000Y-76650000D01*
X124750000Y-77250000D02*
X124750000Y-77750000D01*
X125150000Y-77250000D02*
X124350000Y-77250000D01*
%TO.C,D2*%
X105600000Y-112750000D02*
X106000000Y-112150000D01*
X106000000Y-111750000D02*
X106000000Y-112150000D01*
X106000000Y-112150000D02*
X105450000Y-112150000D01*
X106000000Y-112150000D02*
X106400000Y-112750000D01*
X106000000Y-112150000D02*
X106550000Y-112150000D01*
X106000000Y-112750000D02*
X106000000Y-113250000D01*
X106400000Y-112750000D02*
X105600000Y-112750000D01*
%TO.C,D18*%
X180600000Y-142250000D02*
X181000000Y-141650000D01*
X181000000Y-141250000D02*
X181000000Y-141650000D01*
X181000000Y-141650000D02*
X180450000Y-141650000D01*
X181000000Y-141650000D02*
X181400000Y-142250000D01*
X181000000Y-141650000D02*
X181550000Y-141650000D01*
X181000000Y-142250000D02*
X181000000Y-142750000D01*
X181400000Y-142250000D02*
X180600000Y-142250000D01*
%TO.C,D32*%
X235386081Y-167298200D02*
X235732491Y-167498200D01*
X235732491Y-167498200D02*
X235457491Y-167974514D01*
X235732491Y-167498200D02*
X236007491Y-167021886D01*
X235732491Y-167498200D02*
X236452106Y-167451790D01*
X236052106Y-168144610D02*
X235732491Y-167498200D01*
X236252106Y-167798200D02*
X236685119Y-168048200D01*
X236452106Y-167451790D02*
X236052106Y-168144610D01*
%TO.C,D7*%
X124350000Y-95000000D02*
X124750000Y-94400000D01*
X124750000Y-94000000D02*
X124750000Y-94400000D01*
X124750000Y-94400000D02*
X124200000Y-94400000D01*
X124750000Y-94400000D02*
X125150000Y-95000000D01*
X124750000Y-94400000D02*
X125300000Y-94400000D01*
X124750000Y-95000000D02*
X124750000Y-95500000D01*
X125150000Y-95000000D02*
X124350000Y-95000000D01*
%TO.C,D28*%
X218100000Y-105750000D02*
X218500000Y-105150000D01*
X218500000Y-104750000D02*
X218500000Y-105150000D01*
X218500000Y-105150000D02*
X217950000Y-105150000D01*
X218500000Y-105150000D02*
X218900000Y-105750000D01*
X218500000Y-105150000D02*
X219050000Y-105150000D01*
X218500000Y-105750000D02*
X218500000Y-106250000D01*
X218900000Y-105750000D02*
X218100000Y-105750000D01*
%TO.C,D13*%
X161850000Y-136250000D02*
X162250000Y-135650000D01*
X162250000Y-135250000D02*
X162250000Y-135650000D01*
X162250000Y-135650000D02*
X161700000Y-135650000D01*
X162250000Y-135650000D02*
X162650000Y-136250000D01*
X162250000Y-135650000D02*
X162800000Y-135650000D01*
X162250000Y-136250000D02*
X162250000Y-136750000D01*
X162650000Y-136250000D02*
X161850000Y-136250000D01*
%TO.C,D30*%
X204072790Y-159034406D02*
X204719200Y-158714791D01*
X204419200Y-159234406D02*
X204169200Y-159667419D01*
X204719200Y-158714791D02*
X204242886Y-158439791D01*
X204719200Y-158714791D02*
X204765610Y-159434406D01*
X204719200Y-158714791D02*
X205195514Y-158989791D01*
X204765610Y-159434406D02*
X204072790Y-159034406D01*
X204919200Y-158368381D02*
X204719200Y-158714791D01*
%TO.C,D17*%
X161850000Y-65250000D02*
X162250000Y-64650000D01*
X162250000Y-64250000D02*
X162250000Y-64650000D01*
X162250000Y-64650000D02*
X161700000Y-64650000D01*
X162250000Y-64650000D02*
X162650000Y-65250000D01*
X162250000Y-64650000D02*
X162800000Y-64650000D01*
X162250000Y-65250000D02*
X162250000Y-65750000D01*
X162650000Y-65250000D02*
X161850000Y-65250000D01*
%TO.C,D22*%
X180600000Y-71250000D02*
X181000000Y-70650000D01*
X181000000Y-70250000D02*
X181000000Y-70650000D01*
X181000000Y-70650000D02*
X180450000Y-70650000D01*
X181000000Y-70650000D02*
X181400000Y-71250000D01*
X181000000Y-70650000D02*
X181550000Y-70650000D01*
X181000000Y-71250000D02*
X181000000Y-71750000D01*
X181400000Y-71250000D02*
X180600000Y-71250000D01*
%TO.C,D27*%
X218100000Y-123500000D02*
X218500000Y-122900000D01*
X218500000Y-122500000D02*
X218500000Y-122900000D01*
X218500000Y-122900000D02*
X217950000Y-122900000D01*
X218500000Y-122900000D02*
X218900000Y-123500000D01*
X218500000Y-122900000D02*
X219050000Y-122900000D01*
X218500000Y-123500000D02*
X218500000Y-124000000D01*
X218900000Y-123500000D02*
X218100000Y-123500000D01*
%TO.C,D5*%
X124350000Y-130500000D02*
X124750000Y-129900000D01*
X124750000Y-129500000D02*
X124750000Y-129900000D01*
X124750000Y-129900000D02*
X124200000Y-129900000D01*
X124750000Y-129900000D02*
X125150000Y-130500000D01*
X124750000Y-129900000D02*
X125300000Y-129900000D01*
X124750000Y-130500000D02*
X124750000Y-131000000D01*
X125150000Y-130500000D02*
X124350000Y-130500000D01*
%TO.C,D3*%
X105600000Y-95000000D02*
X106000000Y-94400000D01*
X106000000Y-94000000D02*
X106000000Y-94400000D01*
X106000000Y-94400000D02*
X105450000Y-94400000D01*
X106000000Y-94400000D02*
X106400000Y-95000000D01*
X106000000Y-94400000D02*
X106550000Y-94400000D01*
X106000000Y-95000000D02*
X106000000Y-95500000D01*
X106400000Y-95000000D02*
X105600000Y-95000000D01*
%TO.C,D15*%
X161850000Y-100750000D02*
X162250000Y-100150000D01*
X162250000Y-99750000D02*
X162250000Y-100150000D01*
X162250000Y-100150000D02*
X161700000Y-100150000D01*
X162250000Y-100150000D02*
X162650000Y-100750000D01*
X162250000Y-100150000D02*
X162800000Y-100150000D01*
X162250000Y-100750000D02*
X162250000Y-101250000D01*
X162650000Y-100750000D02*
X161850000Y-100750000D01*
%TO.C,D20*%
X180600000Y-106750000D02*
X181000000Y-106150000D01*
X181000000Y-105750000D02*
X181000000Y-106150000D01*
X181000000Y-106150000D02*
X180450000Y-106150000D01*
X181000000Y-106150000D02*
X181400000Y-106750000D01*
X181000000Y-106150000D02*
X181550000Y-106150000D01*
X181000000Y-106750000D02*
X181000000Y-107250000D01*
X181400000Y-106750000D02*
X180600000Y-106750000D01*
%TO.C,D16*%
X161850000Y-83000000D02*
X162250000Y-82400000D01*
X162250000Y-82000000D02*
X162250000Y-82400000D01*
X162250000Y-82400000D02*
X161700000Y-82400000D01*
X162250000Y-82400000D02*
X162650000Y-83000000D01*
X162250000Y-82400000D02*
X162800000Y-82400000D01*
X162250000Y-83000000D02*
X162250000Y-83500000D01*
X162650000Y-83000000D02*
X161850000Y-83000000D01*
%TO.C,D9*%
X143100000Y-123500000D02*
X143500000Y-122900000D01*
X143500000Y-122500000D02*
X143500000Y-122900000D01*
X143500000Y-122900000D02*
X142950000Y-122900000D01*
X143500000Y-122900000D02*
X143900000Y-123500000D01*
X143500000Y-122900000D02*
X144050000Y-122900000D01*
X143500000Y-123500000D02*
X143500000Y-124000000D01*
X143900000Y-123500000D02*
X143100000Y-123500000D01*
%TO.C,D4*%
X105600000Y-77250000D02*
X106000000Y-76650000D01*
X106000000Y-76250000D02*
X106000000Y-76650000D01*
X106000000Y-76650000D02*
X105450000Y-76650000D01*
X106000000Y-76650000D02*
X106400000Y-77250000D01*
X106000000Y-76650000D02*
X106550000Y-76650000D01*
X106000000Y-77250000D02*
X106000000Y-77750000D01*
X106400000Y-77250000D02*
X105600000Y-77250000D01*
%TO.C,D19*%
X180600000Y-124500000D02*
X181000000Y-123900000D01*
X181000000Y-123500000D02*
X181000000Y-123900000D01*
X181000000Y-123900000D02*
X180450000Y-123900000D01*
X181000000Y-123900000D02*
X181400000Y-124500000D01*
X181000000Y-123900000D02*
X181550000Y-123900000D01*
X181000000Y-124500000D02*
X181000000Y-125000000D01*
X181400000Y-124500000D02*
X180600000Y-124500000D01*
%TO.C,D11*%
X143100000Y-88000000D02*
X143500000Y-87400000D01*
X143500000Y-87000000D02*
X143500000Y-87400000D01*
X143500000Y-87400000D02*
X142950000Y-87400000D01*
X143500000Y-87400000D02*
X143900000Y-88000000D01*
X143500000Y-87400000D02*
X144050000Y-87400000D01*
X143500000Y-88000000D02*
X143500000Y-88500000D01*
X143900000Y-88000000D02*
X143100000Y-88000000D01*
%TO.C,D21*%
X180600000Y-89000000D02*
X181000000Y-88400000D01*
X181000000Y-88000000D02*
X181000000Y-88400000D01*
X181000000Y-88400000D02*
X180450000Y-88400000D01*
X181000000Y-88400000D02*
X181400000Y-89000000D01*
X181000000Y-88400000D02*
X181550000Y-88400000D01*
X181000000Y-89000000D02*
X181000000Y-89500000D01*
X181400000Y-89000000D02*
X180600000Y-89000000D01*
%TO.C,D29*%
X218100000Y-88000000D02*
X218500000Y-87400000D01*
X218500000Y-87000000D02*
X218500000Y-87400000D01*
X218500000Y-87400000D02*
X217950000Y-87400000D01*
X218500000Y-87400000D02*
X218900000Y-88000000D01*
X218500000Y-87400000D02*
X219050000Y-87400000D01*
X218500000Y-88000000D02*
X218500000Y-88500000D01*
X218900000Y-88000000D02*
X218100000Y-88000000D01*
%TO.C,D24*%
X199350000Y-109750000D02*
X199750000Y-109150000D01*
X199750000Y-108750000D02*
X199750000Y-109150000D01*
X199750000Y-109150000D02*
X199200000Y-109150000D01*
X199750000Y-109150000D02*
X200150000Y-109750000D01*
X199750000Y-109150000D02*
X200300000Y-109150000D01*
X199750000Y-109750000D02*
X199750000Y-110250000D01*
X200150000Y-109750000D02*
X199350000Y-109750000D01*
%TO.C,D6*%
X124350000Y-112750000D02*
X124750000Y-112150000D01*
X124750000Y-111750000D02*
X124750000Y-112150000D01*
X124750000Y-112150000D02*
X124200000Y-112150000D01*
X124750000Y-112150000D02*
X125150000Y-112750000D01*
X124750000Y-112150000D02*
X125300000Y-112150000D01*
X124750000Y-112750000D02*
X124750000Y-113250000D01*
X125150000Y-112750000D02*
X124350000Y-112750000D01*
%TO.C,D26*%
X199350000Y-74250000D02*
X199750000Y-73650000D01*
X199750000Y-73250000D02*
X199750000Y-73650000D01*
X199750000Y-73650000D02*
X199200000Y-73650000D01*
X199750000Y-73650000D02*
X200150000Y-74250000D01*
X199750000Y-73650000D02*
X200300000Y-73650000D01*
X199750000Y-74250000D02*
X199750000Y-74750000D01*
X200150000Y-74250000D02*
X199350000Y-74250000D01*
%TO.C,D23*%
X199350000Y-127500000D02*
X199750000Y-126900000D01*
X199750000Y-126500000D02*
X199750000Y-126900000D01*
X199750000Y-126900000D02*
X199200000Y-126900000D01*
X199750000Y-126900000D02*
X200150000Y-127500000D01*
X199750000Y-126900000D02*
X200300000Y-126900000D01*
X199750000Y-127500000D02*
X199750000Y-128000000D01*
X200150000Y-127500000D02*
X199350000Y-127500000D01*
%TO.C,D25*%
X199350000Y-92000000D02*
X199750000Y-91400000D01*
X199750000Y-91000000D02*
X199750000Y-91400000D01*
X199750000Y-91400000D02*
X199200000Y-91400000D01*
X199750000Y-91400000D02*
X200150000Y-92000000D01*
X199750000Y-91400000D02*
X200300000Y-91400000D01*
X199750000Y-92000000D02*
X199750000Y-92500000D01*
X200150000Y-92000000D02*
X199350000Y-92000000D01*
%TO.C,D12*%
X143100000Y-70250000D02*
X143500000Y-69650000D01*
X143500000Y-69250000D02*
X143500000Y-69650000D01*
X143500000Y-69650000D02*
X142950000Y-69650000D01*
X143500000Y-69650000D02*
X143900000Y-70250000D01*
X143500000Y-69650000D02*
X144050000Y-69650000D01*
X143500000Y-70250000D02*
X143500000Y-70750000D01*
X143900000Y-70250000D02*
X143100000Y-70250000D01*
%TO.C,D31*%
X218238781Y-157398200D02*
X218585191Y-157598200D01*
X218585191Y-157598200D02*
X218310191Y-158074514D01*
X218585191Y-157598200D02*
X218860191Y-157121886D01*
X218585191Y-157598200D02*
X219304806Y-157551790D01*
X218904806Y-158244610D02*
X218585191Y-157598200D01*
X219104806Y-157898200D02*
X219537819Y-158148200D01*
X219304806Y-157551790D02*
X218904806Y-158244610D01*
%TO.C,D14*%
X161850000Y-118500000D02*
X162250000Y-117900000D01*
X162250000Y-117500000D02*
X162250000Y-117900000D01*
X162250000Y-117900000D02*
X161700000Y-117900000D01*
X162250000Y-117900000D02*
X162650000Y-118500000D01*
X162250000Y-117900000D02*
X162800000Y-117900000D01*
X162250000Y-118500000D02*
X162250000Y-119000000D01*
X162650000Y-118500000D02*
X161850000Y-118500000D01*
%TD*%
D11*
%TO.C,MCU1*%
X241075000Y-81780000D03*
D12*
X241075000Y-84320000D03*
X241075000Y-86860000D03*
X241075000Y-89400000D03*
X241075000Y-91940000D03*
X241075000Y-94480000D03*
X241075000Y-97020000D03*
X241075000Y-99560000D03*
X241075000Y-102100000D03*
X241075000Y-104640000D03*
X241075000Y-107180000D03*
X241075000Y-109720000D03*
X225835000Y-81780000D03*
X225835000Y-84320000D03*
X225835000Y-86860000D03*
X225835000Y-89400000D03*
X225835000Y-91940000D03*
X225835000Y-94480000D03*
X225835000Y-97020000D03*
X225835000Y-99560000D03*
X225835000Y-102100000D03*
X225835000Y-104640000D03*
X225835000Y-107180000D03*
X225835000Y-109720000D03*
%TD*%
M02*
