%TF.GenerationSoftware,KiCad,Pcbnew,9.0.7*%
%TF.CreationDate,2026-01-28T22:46:33+01:00*%
%TF.ProjectId,board_left_finished,626f6172-645f-46c6-9566-745f66696e69,v1.0.0*%
%TF.SameCoordinates,Original*%
%TF.FileFunction,Copper,L1,Top*%
%TF.FilePolarity,Positive*%
%FSLAX46Y46*%
G04 Gerber Fmt 4.6, Leading zero omitted, Abs format (unit mm)*
G04 Created by KiCad (PCBNEW 9.0.7) date 2026-01-28 22:46:33*
%MOMM*%
%LPD*%
G01*
G04 APERTURE LIST*
G04 Aperture macros list*
%AMRotRect*
0 Rectangle, with rotation*
0 The origin of the aperture is its center*
0 $1 length*
0 $2 width*
0 $3 Rotation angle, in degrees counterclockwise*
0 Add horizontal line*
21,1,$1,$2,0,0,$3*%
G04 Aperture macros list end*
%TA.AperFunction,ComponentPad*%
%ADD10R,1.778000X1.778000*%
%TD*%
%TA.AperFunction,SMDPad,CuDef*%
%ADD11R,1.200000X0.900000*%
%TD*%
%TA.AperFunction,ComponentPad*%
%ADD12C,1.905000*%
%TD*%
%TA.AperFunction,ComponentPad*%
%ADD13O,1.700000X1.700000*%
%TD*%
%TA.AperFunction,ComponentPad*%
%ADD14RotRect,1.778000X1.778000X330.000000*%
%TD*%
%TA.AperFunction,SMDPad,CuDef*%
%ADD15RotRect,0.900000X1.200000X330.000000*%
%TD*%
%TA.AperFunction,ComponentPad*%
%ADD16RotRect,1.778000X1.778000X240.000000*%
%TD*%
%TA.AperFunction,SMDPad,CuDef*%
%ADD17RotRect,0.900000X1.200000X240.000000*%
%TD*%
%TA.AperFunction,ComponentPad*%
%ADD18R,1.752600X1.752600*%
%TD*%
%TA.AperFunction,ComponentPad*%
%ADD19C,1.752600*%
%TD*%
%TA.AperFunction,ComponentPad*%
%ADD20O,1.600000X2.200000*%
%TD*%
%TA.AperFunction,ComponentPad*%
%ADD21C,5.600000*%
%TD*%
%TA.AperFunction,ComponentPad*%
%ADD22C,3.500000*%
%TD*%
%TA.AperFunction,ViaPad*%
%ADD23C,0.600000*%
%TD*%
%TA.AperFunction,Conductor*%
%ADD24C,0.200000*%
%TD*%
G04 APERTURE END LIST*
D10*
%TO.P,D1,1*%
%TO.N,P18*%
X106000000Y-126440000D03*
D11*
X106000000Y-128600000D03*
%TO.P,D1,2*%
%TO.N,first_bottom*%
X106000000Y-131900000D03*
D12*
X106000000Y-134060000D03*
%TD*%
D10*
%TO.P,D10,1*%
%TO.N,P19*%
X143500000Y-101690000D03*
D11*
X143500000Y-103850000D03*
%TO.P,D10,2*%
%TO.N,third_home*%
X143500000Y-107150000D03*
D12*
X143500000Y-109310000D03*
%TD*%
D13*
%TO.P,I2COut,1*%
%TO.N,GND*%
X252300000Y-123440000D03*
%TO.P,I2COut,2*%
%TO.N,VCC*%
X252300000Y-125980000D03*
%TO.P,I2COut,3*%
%TO.N,P3*%
X252300000Y-128520000D03*
%TO.P,I2COut,4*%
%TO.N,P2*%
X252300000Y-131060000D03*
%TD*%
D10*
%TO.P,D8,1*%
%TO.N,P21*%
X124750000Y-73190000D03*
D11*
X124750000Y-75350000D03*
%TO.P,D8,2*%
%TO.N,second_num*%
X124750000Y-78650000D03*
D12*
X124750000Y-80810000D03*
%TD*%
D10*
%TO.P,D2,1*%
%TO.N,P19*%
X106000000Y-108690000D03*
D11*
X106000000Y-110850000D03*
%TO.P,D2,2*%
%TO.N,first_home*%
X106000000Y-114150000D03*
D12*
X106000000Y-116310000D03*
%TD*%
D10*
%TO.P,D18,1*%
%TO.N,P15*%
X181000000Y-138190000D03*
D11*
X181000000Y-140350000D03*
%TO.P,D18,2*%
%TO.N,fifth_mod*%
X181000000Y-143650000D03*
D12*
X181000000Y-145810000D03*
%TD*%
D14*
%TO.P,D32,1*%
%TO.N,P15*%
X232736043Y-165768200D03*
D15*
X234606658Y-166848200D03*
%TO.P,D32,2*%
%TO.N,big_thumb_cluster*%
X237464542Y-168498200D03*
D12*
X239335157Y-169578200D03*
%TD*%
D10*
%TO.P,D7,1*%
%TO.N,P20*%
X124750000Y-90940000D03*
D11*
X124750000Y-93100000D03*
%TO.P,D7,2*%
%TO.N,second_top*%
X124750000Y-96400000D03*
D12*
X124750000Y-98560000D03*
%TD*%
D10*
%TO.P,D28,1*%
%TO.N,P19*%
X218500000Y-101690000D03*
D11*
X218500000Y-103850000D03*
%TO.P,D28,2*%
%TO.N,seventh_home*%
X218500000Y-107150000D03*
D12*
X218500000Y-109310000D03*
%TD*%
D13*
%TO.P,DISP1,1*%
%TO.N,P2*%
X229645000Y-114450000D03*
%TO.P,DISP1,2*%
%TO.N,P3*%
X232185000Y-114450000D03*
%TO.P,DISP1,3*%
%TO.N,VCC*%
X234725000Y-114450000D03*
%TO.P,DISP1,4*%
%TO.N,GND*%
X237265000Y-114450000D03*
%TD*%
D10*
%TO.P,D13,1*%
%TO.N,P15*%
X162250000Y-132190000D03*
D11*
X162250000Y-134350000D03*
%TO.P,D13,2*%
%TO.N,fourth_mod*%
X162250000Y-137650000D03*
D12*
X162250000Y-139810000D03*
%TD*%
D16*
%TO.P,D30,1*%
%TO.N,P15*%
X206449200Y-155718343D03*
D17*
X205369200Y-157588958D03*
%TO.P,D30,2*%
%TO.N,small_thumb_cluster*%
X203719200Y-160446842D03*
D12*
X202639200Y-162317457D03*
%TD*%
D18*
%TO.P,MCU1,1*%
%TO.N,RAW*%
X241075000Y-81780000D03*
D19*
%TO.P,MCU1,2*%
%TO.N,GND*%
X241075000Y-84320000D03*
%TO.P,MCU1,3*%
%TO.N,RST*%
X241075000Y-86860000D03*
%TO.P,MCU1,4*%
%TO.N,VCC*%
X241075000Y-89400000D03*
%TO.P,MCU1,5*%
%TO.N,P21*%
X241075000Y-91940000D03*
%TO.P,MCU1,6*%
%TO.N,P20*%
X241075000Y-94480000D03*
%TO.P,MCU1,7*%
%TO.N,P19*%
X241075000Y-97020000D03*
%TO.P,MCU1,8*%
%TO.N,P18*%
X241075000Y-99560000D03*
%TO.P,MCU1,9*%
%TO.N,P15*%
X241075000Y-102100000D03*
%TO.P,MCU1,10*%
%TO.N,P14*%
X241075000Y-104640000D03*
%TO.P,MCU1,11*%
%TO.N,P16*%
X241075000Y-107180000D03*
%TO.P,MCU1,12*%
%TO.N,P10*%
X241075000Y-109720000D03*
%TO.P,MCU1,13*%
%TO.N,P1*%
X225835000Y-81780000D03*
%TO.P,MCU1,14*%
%TO.N,P0*%
X225835000Y-84320000D03*
%TO.P,MCU1,15*%
%TO.N,GND*%
X225835000Y-86860000D03*
%TO.P,MCU1,16*%
X225835000Y-89400000D03*
%TO.P,MCU1,17*%
%TO.N,P2*%
X225835000Y-91940000D03*
%TO.P,MCU1,18*%
%TO.N,P3*%
X225835000Y-94480000D03*
%TO.P,MCU1,19*%
%TO.N,P4*%
X225835000Y-97020000D03*
%TO.P,MCU1,20*%
%TO.N,P5*%
X225835000Y-99560000D03*
%TO.P,MCU1,21*%
%TO.N,P6*%
X225835000Y-102100000D03*
%TO.P,MCU1,22*%
%TO.N,P7*%
X225835000Y-104640000D03*
%TO.P,MCU1,23*%
%TO.N,P8*%
X225835000Y-107180000D03*
%TO.P,MCU1,24*%
%TO.N,P9*%
X225835000Y-109720000D03*
%TD*%
D10*
%TO.P,D17,1*%
%TO.N,P21*%
X162250000Y-61190000D03*
D11*
X162250000Y-63350000D03*
%TO.P,D17,2*%
%TO.N,fourth_num*%
X162250000Y-66650000D03*
D12*
X162250000Y-68810000D03*
%TD*%
D10*
%TO.P,D22,1*%
%TO.N,P21*%
X181000000Y-67190000D03*
D11*
X181000000Y-69350000D03*
%TO.P,D22,2*%
%TO.N,fifth_num*%
X181000000Y-72650000D03*
D12*
X181000000Y-74810000D03*
%TD*%
D10*
%TO.P,D27,1*%
%TO.N,P18*%
X218500000Y-119440000D03*
D11*
X218500000Y-121600000D03*
%TO.P,D27,2*%
%TO.N,seventh_bottom*%
X218500000Y-124900000D03*
D12*
X218500000Y-127060000D03*
%TD*%
D10*
%TO.P,D5,1*%
%TO.N,P18*%
X124750000Y-126440000D03*
D11*
X124750000Y-128600000D03*
%TO.P,D5,2*%
%TO.N,second_bottom*%
X124750000Y-131900000D03*
D12*
X124750000Y-134060000D03*
%TD*%
D10*
%TO.P,D3,1*%
%TO.N,P20*%
X106000000Y-90940000D03*
D11*
X106000000Y-93100000D03*
%TO.P,D3,2*%
%TO.N,first_top*%
X106000000Y-96400000D03*
D12*
X106000000Y-98560000D03*
%TD*%
D10*
%TO.P,D15,1*%
%TO.N,P19*%
X162250000Y-96690000D03*
D11*
X162250000Y-98850000D03*
%TO.P,D15,2*%
%TO.N,fourth_home*%
X162250000Y-102150000D03*
D12*
X162250000Y-104310000D03*
%TD*%
D20*
%TO.P,TRRS1,2*%
%TO.N,GND*%
X252900000Y-82450000D03*
%TO.P,TRRS1,3*%
%TO.N,P3*%
X252900000Y-85450000D03*
%TO.P,TRRS1,4*%
%TO.N,VCC*%
X252900000Y-89450000D03*
%TO.P,TRRS1,5*%
%TO.N,P2*%
X248300000Y-90550000D03*
%TD*%
D10*
%TO.P,D20,1*%
%TO.N,P19*%
X181000000Y-102690000D03*
D11*
X181000000Y-104850000D03*
%TO.P,D20,2*%
%TO.N,fifth_home*%
X181000000Y-108150000D03*
D12*
X181000000Y-110310000D03*
%TD*%
D10*
%TO.P,D16,1*%
%TO.N,P20*%
X162250000Y-78940000D03*
D11*
X162250000Y-81100000D03*
%TO.P,D16,2*%
%TO.N,fourth_top*%
X162250000Y-84400000D03*
D12*
X162250000Y-86560000D03*
%TD*%
D10*
%TO.P,D9,1*%
%TO.N,P18*%
X143500000Y-119440000D03*
D11*
X143500000Y-121600000D03*
%TO.P,D9,2*%
%TO.N,third_bottom*%
X143500000Y-124900000D03*
D12*
X143500000Y-127060000D03*
%TD*%
D10*
%TO.P,D4,1*%
%TO.N,P21*%
X106000000Y-73190000D03*
D11*
X106000000Y-75350000D03*
%TO.P,D4,2*%
%TO.N,first_num*%
X106000000Y-78650000D03*
D12*
X106000000Y-80810000D03*
%TD*%
D10*
%TO.P,D19,1*%
%TO.N,P18*%
X181000000Y-120440000D03*
D11*
X181000000Y-122600000D03*
%TO.P,D19,2*%
%TO.N,fifth_bottom*%
X181000000Y-125900000D03*
D12*
X181000000Y-128060000D03*
%TD*%
D10*
%TO.P,D11,1*%
%TO.N,P20*%
X143500000Y-83940000D03*
D11*
X143500000Y-86100000D03*
%TO.P,D11,2*%
%TO.N,third_top*%
X143500000Y-89400000D03*
D12*
X143500000Y-91560000D03*
%TD*%
D10*
%TO.P,D21,1*%
%TO.N,P20*%
X181000000Y-84940000D03*
D11*
X181000000Y-87100000D03*
%TO.P,D21,2*%
%TO.N,fifth_top*%
X181000000Y-90400000D03*
D12*
X181000000Y-92560000D03*
%TD*%
D10*
%TO.P,D29,1*%
%TO.N,P20*%
X218500000Y-83940000D03*
D11*
X218500000Y-86100000D03*
%TO.P,D29,2*%
%TO.N,seventh_top*%
X218500000Y-89400000D03*
D12*
X218500000Y-91560000D03*
%TD*%
D10*
%TO.P,D24,1*%
%TO.N,P19*%
X199750000Y-105690000D03*
D11*
X199750000Y-107850000D03*
%TO.P,D24,2*%
%TO.N,sixth_home*%
X199750000Y-111150000D03*
D12*
X199750000Y-113310000D03*
%TD*%
D10*
%TO.P,D6,1*%
%TO.N,P19*%
X124750000Y-108690000D03*
D11*
X124750000Y-110850000D03*
%TO.P,D6,2*%
%TO.N,second_home*%
X124750000Y-114150000D03*
D12*
X124750000Y-116310000D03*
%TD*%
D10*
%TO.P,D26,1*%
%TO.N,P21*%
X199750000Y-70190000D03*
D11*
X199750000Y-72350000D03*
%TO.P,D26,2*%
%TO.N,sixth_num*%
X199750000Y-75650000D03*
D12*
X199750000Y-77810000D03*
%TD*%
D10*
%TO.P,D23,1*%
%TO.N,P18*%
X199750000Y-123440000D03*
D11*
X199750000Y-125600000D03*
%TO.P,D23,2*%
%TO.N,sixth_bottom*%
X199750000Y-128900000D03*
D12*
X199750000Y-131060000D03*
%TD*%
D10*
%TO.P,D25,1*%
%TO.N,P20*%
X199750000Y-87940000D03*
D11*
X199750000Y-90100000D03*
%TO.P,D25,2*%
%TO.N,sixth_top*%
X199750000Y-93400000D03*
D12*
X199750000Y-95560000D03*
%TD*%
D10*
%TO.P,D12,1*%
%TO.N,P21*%
X143500000Y-66190000D03*
D11*
X143500000Y-68350000D03*
%TO.P,D12,2*%
%TO.N,third_num*%
X143500000Y-71650000D03*
D12*
X143500000Y-73810000D03*
%TD*%
D14*
%TO.P,D31,1*%
%TO.N,P15*%
X215588743Y-155868200D03*
D15*
X217459358Y-156948200D03*
%TO.P,D31,2*%
%TO.N,medium_thumb_cluster*%
X220317242Y-158598200D03*
D12*
X222187857Y-159678200D03*
%TD*%
D10*
%TO.P,D14,1*%
%TO.N,P18*%
X162250000Y-114440000D03*
D11*
X162250000Y-116600000D03*
%TO.P,D14,2*%
%TO.N,fourth_bottom*%
X162250000Y-119900000D03*
D12*
X162250000Y-122060000D03*
%TD*%
D21*
%TO.P,S29,*%
%TO.N,*%
X212500000Y-89750000D03*
D22*
%TO.P,S29,1*%
%TO.N,P10*%
X208100000Y-94450000D03*
%TO.P,S29,2*%
%TO.N,seventh_top*%
X215100000Y-95500000D03*
%TD*%
D21*
%TO.P,S18,*%
%TO.N,*%
X175000000Y-144000000D03*
D22*
%TO.P,S18,1*%
%TO.N,P9*%
X170600000Y-148700000D03*
%TO.P,S18,2*%
%TO.N,fifth_mod*%
X177600000Y-149750000D03*
%TD*%
D21*
%TO.P,S31,*%
%TO.N,*%
X217620400Y-163969400D03*
D22*
%TO.P,S31,1*%
%TO.N,P10*%
X219490719Y-170129912D03*
%TO.P,S31,2*%
%TO.N,medium_thumb_cluster*%
X223900046Y-164592734D03*
%TD*%
D21*
%TO.P,S4,*%
%TO.N,*%
X100000000Y-79000000D03*
D22*
%TO.P,S4,1*%
%TO.N,P5*%
X95600000Y-83700000D03*
%TO.P,S4,2*%
%TO.N,first_num*%
X102600000Y-84750000D03*
%TD*%
D21*
%TO.P,S9,*%
%TO.N,*%
X137500000Y-125250000D03*
D22*
%TO.P,S9,1*%
%TO.N,P7*%
X133100000Y-129950000D03*
%TO.P,S9,2*%
%TO.N,third_bottom*%
X140100000Y-131000000D03*
%TD*%
D21*
%TO.P,S22,*%
%TO.N,*%
X175000000Y-73000000D03*
D22*
%TO.P,S22,1*%
%TO.N,P9*%
X170600000Y-77700000D03*
%TO.P,S22,2*%
%TO.N,fifth_num*%
X177600000Y-78750000D03*
%TD*%
D21*
%TO.P,S10,*%
%TO.N,*%
X137500000Y-107500000D03*
D22*
%TO.P,S10,1*%
%TO.N,P7*%
X133100000Y-112200000D03*
%TO.P,S10,2*%
%TO.N,third_home*%
X140100000Y-113250000D03*
%TD*%
D21*
%TO.P,S24,*%
%TO.N,*%
X193750000Y-111500000D03*
D22*
%TO.P,S24,1*%
%TO.N,P4*%
X189350000Y-116200000D03*
%TO.P,S24,2*%
%TO.N,sixth_home*%
X196350000Y-117250000D03*
%TD*%
D21*
%TO.P,S20,*%
%TO.N,*%
X175000000Y-108500000D03*
D22*
%TO.P,S20,1*%
%TO.N,P9*%
X170600000Y-113200000D03*
%TO.P,S20,2*%
%TO.N,fifth_home*%
X177600000Y-114250000D03*
%TD*%
D21*
%TO.P,S7,*%
%TO.N,*%
X118750000Y-96750000D03*
D22*
%TO.P,S7,1*%
%TO.N,P6*%
X114350000Y-101450000D03*
%TO.P,S7,2*%
%TO.N,second_top*%
X121350000Y-102500000D03*
%TD*%
D21*
%TO.P,S8,*%
%TO.N,*%
X118750000Y-79000000D03*
D22*
%TO.P,S8,1*%
%TO.N,P6*%
X114350000Y-83700000D03*
%TO.P,S8,2*%
%TO.N,second_num*%
X121350000Y-84750000D03*
%TD*%
D21*
%TO.P,S25,*%
%TO.N,*%
X193750000Y-93750000D03*
D22*
%TO.P,S25,1*%
%TO.N,P4*%
X189350000Y-98450000D03*
%TO.P,S25,2*%
%TO.N,sixth_top*%
X196350000Y-99500000D03*
%TD*%
D21*
%TO.P,S26,*%
%TO.N,*%
X193750000Y-76000000D03*
D22*
%TO.P,S26,1*%
%TO.N,P4*%
X189350000Y-80700000D03*
%TO.P,S26,2*%
%TO.N,sixth_num*%
X196350000Y-81750000D03*
%TD*%
D21*
%TO.P,S15,*%
%TO.N,*%
X156250000Y-102500000D03*
D22*
%TO.P,S15,1*%
%TO.N,P8*%
X151850000Y-107200000D03*
%TO.P,S15,2*%
%TO.N,fourth_home*%
X158850000Y-108250000D03*
%TD*%
D21*
%TO.P,S12,*%
%TO.N,*%
X137500000Y-72000000D03*
D22*
%TO.P,S12,1*%
%TO.N,P7*%
X133100000Y-76700000D03*
%TO.P,S12,2*%
%TO.N,third_num*%
X140100000Y-77750000D03*
%TD*%
D21*
%TO.P,S21,*%
%TO.N,*%
X175000000Y-90750000D03*
D22*
%TO.P,S21,1*%
%TO.N,P9*%
X170600000Y-95450000D03*
%TO.P,S21,2*%
%TO.N,fifth_top*%
X177600000Y-96500000D03*
%TD*%
D21*
%TO.P,S28,*%
%TO.N,*%
X212500000Y-107500000D03*
D22*
%TO.P,S28,1*%
%TO.N,P10*%
X208100000Y-112200000D03*
%TO.P,S28,2*%
%TO.N,seventh_home*%
X215100000Y-113250000D03*
%TD*%
D21*
%TO.P,S17,*%
%TO.N,*%
X156250000Y-67000000D03*
D22*
%TO.P,S17,1*%
%TO.N,P8*%
X151850000Y-71700000D03*
%TO.P,S17,2*%
%TO.N,fourth_num*%
X158850000Y-72750000D03*
%TD*%
D21*
%TO.P,S1,*%
%TO.N,*%
X100000000Y-132250000D03*
D22*
%TO.P,S1,1*%
%TO.N,P5*%
X95600000Y-136950000D03*
%TO.P,S1,2*%
%TO.N,first_bottom*%
X102600000Y-138000000D03*
%TD*%
D21*
%TO.P,S14,*%
%TO.N,*%
X156250000Y-120250000D03*
D22*
%TO.P,S14,1*%
%TO.N,P8*%
X151850000Y-124950000D03*
%TO.P,S14,2*%
%TO.N,fourth_bottom*%
X158850000Y-126000000D03*
%TD*%
D21*
%TO.P,S19,*%
%TO.N,*%
X175000000Y-126250000D03*
D22*
%TO.P,S19,1*%
%TO.N,P9*%
X170600000Y-130950000D03*
%TO.P,S19,2*%
%TO.N,fifth_bottom*%
X177600000Y-132000000D03*
%TD*%
D21*
%TO.P,S5,*%
%TO.N,*%
X118750000Y-132250000D03*
D22*
%TO.P,S5,1*%
%TO.N,P6*%
X114350000Y-136950000D03*
%TO.P,S5,2*%
%TO.N,second_bottom*%
X121350000Y-138000000D03*
%TD*%
D21*
%TO.P,S11,*%
%TO.N,*%
X137500000Y-89750000D03*
D22*
%TO.P,S11,1*%
%TO.N,P7*%
X133100000Y-94450000D03*
%TO.P,S11,2*%
%TO.N,third_top*%
X140100000Y-95500000D03*
%TD*%
D21*
%TO.P,S13,*%
%TO.N,*%
X156250000Y-138000000D03*
D22*
%TO.P,S13,1*%
%TO.N,P8*%
X151850000Y-142700000D03*
%TO.P,S13,2*%
%TO.N,fourth_mod*%
X158850000Y-143750000D03*
%TD*%
D21*
%TO.P,S3,*%
%TO.N,*%
X100000000Y-96750000D03*
D22*
%TO.P,S3,1*%
%TO.N,P5*%
X95600000Y-101450000D03*
%TO.P,S3,2*%
%TO.N,first_top*%
X102600000Y-102500000D03*
%TD*%
D21*
%TO.P,S6,*%
%TO.N,*%
X118750000Y-114500000D03*
D22*
%TO.P,S6,1*%
%TO.N,P6*%
X114350000Y-119200000D03*
%TO.P,S6,2*%
%TO.N,second_home*%
X121350000Y-120250000D03*
%TD*%
D21*
%TO.P,S27,*%
%TO.N,*%
X212500000Y-125250000D03*
D22*
%TO.P,S27,1*%
%TO.N,P10*%
X208100000Y-129950000D03*
%TO.P,S27,2*%
%TO.N,seventh_bottom*%
X215100000Y-131000000D03*
%TD*%
D21*
%TO.P,S32,*%
%TO.N,*%
X234767700Y-173869400D03*
D22*
%TO.P,S32,1*%
%TO.N,P7*%
X236638019Y-180029912D03*
%TO.P,S32,2*%
%TO.N,big_thumb_cluster*%
X241047346Y-174492734D03*
%TD*%
D21*
%TO.P,S2,*%
%TO.N,*%
X100000000Y-114500000D03*
D22*
%TO.P,S2,1*%
%TO.N,P5*%
X95600000Y-119200000D03*
%TO.P,S2,2*%
%TO.N,first_home*%
X102600000Y-120250000D03*
%TD*%
D21*
%TO.P,S30,*%
%TO.N,*%
X198348100Y-157750000D03*
D22*
%TO.P,S30,1*%
%TO.N,P4*%
X192187588Y-159620319D03*
%TO.P,S30,2*%
%TO.N,small_thumb_cluster*%
X197724766Y-164029646D03*
%TD*%
D21*
%TO.P,S16,*%
%TO.N,*%
X156250000Y-84750000D03*
D22*
%TO.P,S16,1*%
%TO.N,P8*%
X151850000Y-89450000D03*
%TO.P,S16,2*%
%TO.N,fourth_top*%
X158850000Y-90500000D03*
%TD*%
D21*
%TO.P,S23,*%
%TO.N,*%
X193750000Y-129250000D03*
D22*
%TO.P,S23,1*%
%TO.N,P4*%
X189350000Y-133950000D03*
%TO.P,S23,2*%
%TO.N,sixth_bottom*%
X196350000Y-135000000D03*
%TD*%
D23*
%TO.N,P6*%
X223420500Y-100582300D03*
%TO.N,P7*%
X227000300Y-98290000D03*
%TO.N,P4*%
X224304300Y-99358700D03*
%TO.N,P18*%
X240254900Y-116738000D03*
%TO.N,P21*%
X241281800Y-79613800D03*
%TO.N,P3*%
X251137500Y-112714700D03*
%TD*%
D24*
%TO.N,P5*%
X164250900Y-95044800D02*
X143605300Y-95044800D01*
X197704500Y-101956300D02*
X185307800Y-101956300D01*
X224552300Y-99961600D02*
X199699200Y-99961600D01*
X143605300Y-95044800D02*
X138798300Y-99851800D01*
X117465300Y-93648300D02*
X110670100Y-100443500D01*
X121851700Y-95465200D02*
X120034800Y-93648300D01*
X224953800Y-99560100D02*
X224552300Y-99961600D01*
X138798300Y-99851800D02*
X124228500Y-99851800D01*
X169660100Y-100454000D02*
X164250900Y-95044800D01*
X225835000Y-99560000D02*
X224953800Y-99560000D01*
X183805500Y-100454000D02*
X169660100Y-100454000D01*
X185307800Y-101956300D02*
X183805500Y-100454000D01*
X120034800Y-93648300D02*
X117465300Y-93648300D01*
X199699200Y-99961600D02*
X197704500Y-101956300D01*
X121851700Y-97475000D02*
X121851700Y-95465200D01*
X96606500Y-100443500D02*
X95600000Y-101450000D01*
X110670100Y-100443500D02*
X96606500Y-100443500D01*
X124228500Y-99851800D02*
X121851700Y-97475000D01*
X224953800Y-99560000D02*
X224953800Y-99560100D01*
%TO.N,first_bottom*%
X106000000Y-131900000D02*
X106000000Y-134060000D01*
%TO.N,GND*%
X241075000Y-84320000D02*
X249928300Y-84320000D01*
X252300000Y-123440000D02*
X251148300Y-123440000D01*
X225835000Y-86860000D02*
X228375000Y-84320000D01*
X237265000Y-114450000D02*
X238416700Y-114450000D01*
X249928300Y-84320000D02*
X251798300Y-82450000D01*
X252900000Y-82450000D02*
X251798300Y-82450000D01*
X242158300Y-114450000D02*
X238416700Y-114450000D01*
X251148300Y-123440000D02*
X242158300Y-114450000D01*
X228375000Y-84320000D02*
X241075000Y-84320000D01*
%TO.N,first_home*%
X106000000Y-114150000D02*
X106000000Y-116310000D01*
%TO.N,first_top*%
X106000000Y-96400000D02*
X106000000Y-98560000D01*
%TO.N,first_num*%
X106000000Y-80810000D02*
X106000000Y-78650000D01*
%TO.N,P6*%
X114350000Y-101450000D02*
X115351700Y-100448300D01*
X223503500Y-100582300D02*
X223420500Y-100582300D01*
X182742200Y-101255900D02*
X183853500Y-102367200D01*
X183853500Y-102367200D02*
X213657600Y-102367200D01*
X215525500Y-100499300D02*
X223337500Y-100499300D01*
X169305900Y-101255900D02*
X182742200Y-101255900D01*
X163549300Y-95499300D02*
X169305900Y-101255900D01*
X149442200Y-95499300D02*
X163549300Y-95499300D01*
X223420500Y-100582300D02*
X223503500Y-100582300D01*
X144493200Y-100448300D02*
X149442200Y-95499300D01*
X213657600Y-102367200D02*
X215525500Y-100499300D01*
X115351700Y-100448300D02*
X144493200Y-100448300D01*
X223337500Y-100499300D02*
X223420500Y-100582300D01*
%TO.N,second_bottom*%
X124750000Y-131900000D02*
X124750000Y-134060000D01*
%TO.N,second_home*%
X124750000Y-116310000D02*
X124750000Y-114150000D01*
%TO.N,second_top*%
X124750000Y-96400000D02*
X124750000Y-98560000D01*
%TO.N,second_num*%
X124750000Y-78650000D02*
X124750000Y-80810000D01*
%TO.N,P7*%
X213665900Y-97159500D02*
X214796400Y-98290000D01*
X173340100Y-94372300D02*
X189090100Y-94372300D01*
X134177100Y-93372900D02*
X172340700Y-93372900D01*
X133100000Y-94450000D02*
X134177100Y-93372900D01*
X191877300Y-97159500D02*
X213665900Y-97159500D01*
X189090100Y-94372300D02*
X191877300Y-97159500D01*
X172340700Y-93372900D02*
X173340100Y-94372300D01*
X214796400Y-98290000D02*
X227000300Y-98290000D01*
%TO.N,third_bottom*%
X143500000Y-124900000D02*
X143500000Y-127060000D01*
%TO.N,third_home*%
X143500000Y-107150000D02*
X143500000Y-109310000D01*
%TO.N,third_top*%
X143500000Y-89400000D02*
X143500000Y-91560000D01*
%TO.N,third_num*%
X143500000Y-71650000D02*
X143500000Y-73810000D01*
%TO.N,P8*%
X210538700Y-103949800D02*
X215095000Y-103949800D01*
X205886800Y-108601700D02*
X210538700Y-103949800D01*
X215095000Y-103949800D02*
X216302900Y-105157700D01*
X152856500Y-106193500D02*
X172897700Y-106193500D01*
X172897700Y-106193500D02*
X173726200Y-105365000D01*
X151850000Y-107200000D02*
X152856500Y-106193500D01*
X197738200Y-108601700D02*
X205886800Y-108601700D01*
X216302900Y-105157700D02*
X223812700Y-105157700D01*
X173726200Y-105365000D02*
X179738900Y-105365000D01*
X223812700Y-105157700D02*
X225835000Y-107180000D01*
X181980500Y-107606600D02*
X196743100Y-107606600D01*
X196743100Y-107606600D02*
X197738200Y-108601700D01*
X179738900Y-105365000D02*
X181980500Y-107606600D01*
%TO.N,fourth_mod*%
X162250000Y-137650000D02*
X162250000Y-139810000D01*
%TO.N,fourth_bottom*%
X162250000Y-119900000D02*
X162250000Y-122060000D01*
%TO.N,fourth_home*%
X162250000Y-102150000D02*
X162250000Y-104310000D01*
%TO.N,fourth_top*%
X162250000Y-84400000D02*
X162250000Y-86560000D01*
%TO.N,fourth_num*%
X162250000Y-66650000D02*
X162250000Y-68810000D01*
%TO.N,P9*%
X222113700Y-105998700D02*
X225835000Y-109720000D01*
X191178700Y-108396300D02*
X196078300Y-108396300D01*
X187391400Y-112183600D02*
X191178700Y-108396300D01*
X170600000Y-113200000D02*
X171616400Y-112183600D01*
X210733100Y-104394100D02*
X214638300Y-104394100D01*
X196685400Y-109003400D02*
X206123800Y-109003400D01*
X216242900Y-105998700D02*
X222113700Y-105998700D01*
X206123800Y-109003400D02*
X210733100Y-104394100D01*
X214638300Y-104394100D02*
X216242900Y-105998700D01*
X196078300Y-108396300D02*
X196685400Y-109003400D01*
X171616400Y-112183600D02*
X187391400Y-112183600D01*
%TO.N,fifth_mod*%
X181000000Y-143650000D02*
X181000000Y-145810000D01*
%TO.N,fifth_bottom*%
X181000000Y-125900000D02*
X181000000Y-128060000D01*
%TO.N,fifth_home*%
X181000000Y-110310000D02*
X181000000Y-108150000D01*
%TO.N,fifth_top*%
X181000000Y-90400000D02*
X181000000Y-92560000D01*
%TO.N,fifth_num*%
X181000000Y-72650000D02*
X181000000Y-74810000D01*
%TO.N,P4*%
X197439800Y-101553100D02*
X192453100Y-101553100D01*
X199634200Y-99358700D02*
X197439800Y-101553100D01*
X192453100Y-101553100D02*
X189350000Y-98450000D01*
X224304300Y-99358700D02*
X199634200Y-99358700D01*
%TO.N,sixth_bottom*%
X199750000Y-128900000D02*
X199750000Y-131060000D01*
%TO.N,sixth_home*%
X199750000Y-111150000D02*
X199750000Y-113310000D01*
%TO.N,sixth_top*%
X199750000Y-93400000D02*
X199750000Y-95560000D01*
%TO.N,sixth_num*%
X199750000Y-75650000D02*
X199750000Y-77810000D01*
%TO.N,P10*%
X208100000Y-112200000D02*
X209157500Y-111142500D01*
X209157500Y-111142500D02*
X239652500Y-111142500D01*
X239652500Y-111142500D02*
X241075000Y-109720000D01*
%TO.N,seventh_bottom*%
X218500000Y-124900000D02*
X218500000Y-127060000D01*
%TO.N,seventh_home*%
X218500000Y-107150000D02*
X218500000Y-109310000D01*
%TO.N,seventh_top*%
X218500000Y-89400000D02*
X218500000Y-91560000D01*
%TO.N,small_thumb_cluster*%
X197724800Y-164029600D02*
X200927100Y-164029600D01*
X203222500Y-161307100D02*
X203222500Y-161734200D01*
X203222500Y-161734200D02*
X202639200Y-162317500D01*
X203719200Y-160446800D02*
X203222500Y-161307100D01*
X200927100Y-164029600D02*
X202639200Y-162317500D01*
%TO.N,medium_thumb_cluster*%
X220317200Y-158598200D02*
X221177500Y-159094900D01*
X221177500Y-159094900D02*
X221604600Y-159094900D01*
X221604600Y-159094900D02*
X222187900Y-159678200D01*
%TO.N,big_thumb_cluster*%
X239335200Y-169578200D02*
X238908100Y-169578200D01*
X237464500Y-168498200D02*
X238324800Y-168994900D01*
X238908100Y-169578200D02*
X238324800Y-168994900D01*
%TO.N,P18*%
X124154700Y-126440000D02*
X123559300Y-126440000D01*
X106000000Y-128600000D02*
X106000000Y-126440000D01*
X162250000Y-116600000D02*
X162250000Y-114440000D01*
X240254900Y-116738000D02*
X237552900Y-119440000D01*
X237552900Y-119440000D02*
X218500000Y-119440000D01*
X124750000Y-126440000D02*
X124154700Y-126440000D01*
X165338300Y-120440000D02*
X162250000Y-117351700D01*
X124154700Y-126440000D02*
X128994700Y-121600000D01*
X199750000Y-123440000D02*
X181088300Y-123440000D01*
X144690700Y-119440000D02*
X147530700Y-116600000D01*
X199750000Y-123440000D02*
X200940700Y-123440000D01*
X181000000Y-120440000D02*
X165338300Y-120440000D01*
X181000000Y-122600000D02*
X181000000Y-120440000D01*
X124750000Y-128600000D02*
X124750000Y-126440000D01*
X200940700Y-123440000D02*
X202780700Y-121600000D01*
X162250000Y-116600000D02*
X162250000Y-117351700D01*
X202780700Y-121600000D02*
X218500000Y-121600000D01*
X143500000Y-119440000D02*
X144690700Y-119440000D01*
X106000000Y-126440000D02*
X123559300Y-126440000D01*
X147530700Y-116600000D02*
X162250000Y-116600000D01*
X218500000Y-119440000D02*
X218500000Y-121600000D01*
X143500000Y-121600000D02*
X143500000Y-119440000D01*
X128994700Y-121600000D02*
X143500000Y-121600000D01*
X181088300Y-123440000D02*
X181000000Y-123351700D01*
X199750000Y-125600000D02*
X199750000Y-123440000D01*
X181000000Y-122600000D02*
X181000000Y-123351700D01*
%TO.N,P19*%
X218500000Y-101690000D02*
X219690700Y-101690000D01*
X237265000Y-100830000D02*
X241075000Y-97020000D01*
X181000000Y-104850000D02*
X181000000Y-102690000D01*
X106000000Y-110098300D02*
X106000000Y-108690000D01*
X143500000Y-103850000D02*
X143500000Y-101690000D01*
X219690700Y-101690000D02*
X223329600Y-101690000D01*
X124750000Y-108690000D02*
X125940700Y-108690000D01*
X147530700Y-98850000D02*
X162250000Y-98850000D01*
X143500000Y-101690000D02*
X144690700Y-101690000D01*
X218500000Y-103850000D02*
X217598300Y-103850000D01*
X144690700Y-101690000D02*
X147530700Y-98850000D01*
X217598300Y-103850000D02*
X217253900Y-103505600D01*
X198559300Y-105690000D02*
X198471000Y-105601700D01*
X125940700Y-108690000D02*
X130780700Y-103850000D01*
X124750000Y-110098300D02*
X106000000Y-110098300D01*
X124750000Y-110850000D02*
X124750000Y-110098300D01*
X106000000Y-110850000D02*
X106000000Y-110098300D01*
X198471000Y-105601700D02*
X181000000Y-105601700D01*
X224189600Y-100830000D02*
X237265000Y-100830000D01*
X202782200Y-103848500D02*
X200940700Y-105690000D01*
X162250000Y-96690000D02*
X162250000Y-98850000D01*
X199750000Y-107850000D02*
X199750000Y-105690000D01*
X209132400Y-103505600D02*
X208954300Y-103683700D01*
X208789500Y-103848500D02*
X202782200Y-103848500D01*
X208954300Y-103683700D02*
X208789500Y-103848500D01*
X208954300Y-103683700D02*
X208789500Y-103848500D01*
X130780700Y-103850000D02*
X143500000Y-103850000D01*
X218500000Y-103850000D02*
X218500000Y-101690000D01*
X199750000Y-105690000D02*
X198559300Y-105690000D01*
X181000000Y-104850000D02*
X181000000Y-105601700D01*
X223329600Y-101690000D02*
X224189600Y-100830000D01*
X199750000Y-105690000D02*
X200940700Y-105690000D01*
X165338300Y-102690000D02*
X162250000Y-99601700D01*
X162250000Y-98850000D02*
X162250000Y-99601700D01*
X217253900Y-103505600D02*
X209132400Y-103505600D01*
X124750000Y-110098300D02*
X124750000Y-108690000D01*
X181000000Y-102690000D02*
X165338300Y-102690000D01*
%TO.N,P20*%
X181000000Y-84940000D02*
X181000000Y-87100000D01*
X199750000Y-90100000D02*
X199750000Y-87940000D01*
X218500000Y-86100000D02*
X218500000Y-83940000D01*
X200940700Y-87940000D02*
X202780700Y-86100000D01*
X143500000Y-86100000D02*
X143500000Y-83940000D01*
X181000000Y-84940000D02*
X165338300Y-84940000D01*
X124750000Y-90940000D02*
X125940700Y-90940000D01*
X199750000Y-87940000D02*
X200940700Y-87940000D01*
X241075000Y-94480000D02*
X239744800Y-93149800D01*
X181000000Y-87851700D02*
X198471000Y-87851700D01*
X162250000Y-81100000D02*
X162250000Y-78940000D01*
X165338300Y-84940000D02*
X162250000Y-81851700D01*
X162250000Y-81100000D02*
X147530700Y-81100000D01*
X224798100Y-93149800D02*
X218500000Y-86851700D01*
X125940700Y-90940000D02*
X130780700Y-86100000D01*
X239744800Y-93149800D02*
X224798100Y-93149800D01*
X218500000Y-86100000D02*
X218500000Y-86851700D01*
X147530700Y-81100000D02*
X144690700Y-83940000D01*
X143500000Y-83940000D02*
X144690700Y-83940000D01*
X124750000Y-90940000D02*
X124750000Y-92348300D01*
X106000000Y-93100000D02*
X106000000Y-92348300D01*
X181000000Y-87100000D02*
X181000000Y-87851700D01*
X106000000Y-92348300D02*
X106000000Y-90940000D01*
X202780700Y-86100000D02*
X218500000Y-86100000D01*
X199750000Y-87940000D02*
X198559300Y-87940000D01*
X124750000Y-93100000D02*
X124750000Y-92348300D01*
X130780700Y-86100000D02*
X143500000Y-86100000D01*
X106000000Y-92348300D02*
X124750000Y-92348300D01*
X198471000Y-87851700D02*
X198559300Y-87940000D01*
X162250000Y-81100000D02*
X162250000Y-81851700D01*
%TO.N,P21*%
X199750000Y-72350000D02*
X199750000Y-73101700D01*
X125940700Y-73190000D02*
X130780700Y-68350000D01*
X130780700Y-68350000D02*
X143500000Y-68350000D01*
X124750000Y-73190000D02*
X125940700Y-73190000D01*
X124750000Y-75350000D02*
X124750000Y-74598300D01*
X181000000Y-67190000D02*
X165338300Y-67190000D01*
X106000000Y-74598300D02*
X106000000Y-73190000D01*
X162250000Y-63725000D02*
X162250000Y-64101700D01*
X199750000Y-70190000D02*
X199154700Y-70190000D01*
X162250000Y-63725000D02*
X147155700Y-63725000D01*
X197719300Y-69350000D02*
X198559300Y-70190000D01*
X143500000Y-66190000D02*
X143500000Y-68350000D01*
X143500000Y-66190000D02*
X144690700Y-66190000D01*
X181000000Y-69350000D02*
X181000000Y-67190000D01*
X124750000Y-74598300D02*
X124750000Y-73190000D01*
X106000000Y-75350000D02*
X106000000Y-74598300D01*
X199154700Y-70190000D02*
X198559300Y-70190000D01*
X241281800Y-79613800D02*
X206262100Y-79613800D01*
X147155700Y-63725000D02*
X144690700Y-66190000D01*
X162250000Y-63350000D02*
X162250000Y-63725000D01*
X199154700Y-70190000D02*
X199750000Y-70785300D01*
X162250000Y-63350000D02*
X162250000Y-61190000D01*
X206262100Y-79613800D02*
X199750000Y-73101700D01*
X199750000Y-70785300D02*
X199750000Y-72350000D01*
X181000000Y-69350000D02*
X197719300Y-69350000D01*
X106000000Y-74598300D02*
X124750000Y-74598300D01*
X165338300Y-67190000D02*
X162250000Y-64101700D01*
%TO.N,P15*%
X217459400Y-156948200D02*
X218319600Y-157444900D01*
X206449200Y-156145400D02*
X206449200Y-155718300D01*
X215588700Y-155868200D02*
X214281100Y-155113300D01*
X190528200Y-140350000D02*
X205141600Y-154963400D01*
X165338300Y-138190000D02*
X162250000Y-135101700D01*
X162250000Y-134350000D02*
X162250000Y-135101700D01*
X234281600Y-166523100D02*
X234606700Y-166848200D01*
X205369200Y-157589000D02*
X205865900Y-156728700D01*
X207756800Y-156473200D02*
X208511700Y-155718300D01*
X208511700Y-155718300D02*
X213676100Y-155718300D01*
X223859900Y-157444800D02*
X218319700Y-157444800D01*
X181000000Y-140350000D02*
X190528200Y-140350000D01*
X205865900Y-156728700D02*
X206449200Y-156145400D01*
X213676100Y-155718300D02*
X214281100Y-155113300D01*
X181000000Y-140350000D02*
X181000000Y-138190000D01*
X216172000Y-156451500D02*
X215588700Y-155868200D01*
X232736000Y-165768200D02*
X231428400Y-165013300D01*
X217459400Y-156948200D02*
X216599100Y-156451500D01*
X218319700Y-157444800D02*
X218319600Y-157444900D01*
X234043600Y-166523100D02*
X234281600Y-166523100D01*
X162250000Y-134350000D02*
X162250000Y-132190000D01*
X181000000Y-138190000D02*
X165338300Y-138190000D01*
X206449200Y-155718300D02*
X205141600Y-154963400D01*
X231428400Y-165013300D02*
X223859900Y-157444800D01*
X232736000Y-165768200D02*
X234043600Y-166523100D01*
X216599100Y-156451500D02*
X216172000Y-156451500D01*
X206449200Y-155718300D02*
X207756800Y-156473200D01*
%TO.N,VCC*%
X249600100Y-89450000D02*
X249244500Y-89094400D01*
X241380600Y-89094400D02*
X241075000Y-89400000D01*
X249244500Y-89094400D02*
X241380600Y-89094400D01*
X252900000Y-89450000D02*
X249600100Y-89450000D01*
%TO.N,P2*%
X248300000Y-90550000D02*
X247198300Y-90550000D01*
X225835000Y-91940000D02*
X227105000Y-90670000D01*
X227105000Y-90670000D02*
X247078300Y-90670000D01*
X247078300Y-90670000D02*
X247198300Y-90550000D01*
%TO.N,P3*%
X233336700Y-114181500D02*
X234803500Y-112714700D01*
X233336700Y-114450000D02*
X233336700Y-114181500D01*
X232185000Y-114450000D02*
X233336700Y-114450000D01*
X234803500Y-112714700D02*
X251137500Y-112714700D01*
%TD*%
M02*
