%TF.GenerationSoftware,KiCad,Pcbnew,9.0.7*%
%TF.CreationDate,2026-01-28T22:47:07+01:00*%
%TF.ProjectId,board_right_finished,626f6172-645f-4726-9967-68745f66696e,v1.0.0*%
%TF.SameCoordinates,Original*%
%TF.FileFunction,Profile,NP*%
%FSLAX46Y46*%
G04 Gerber Fmt 4.6, Leading zero omitted, Abs format (unit mm)*
G04 Created by KiCad (PCBNEW 9.0.7) date 2026-01-28 22:47:07*
%MOMM*%
%LPD*%
G01*
G04 APERTURE LIST*
%TA.AperFunction,Profile*%
%ADD10C,0.150000*%
%TD*%
G04 APERTURE END LIST*
D10*
X104179661Y-161144466D02*
G75*
G02*
X104130565Y-159627010I1824939J818566D01*
G01*
X162124649Y-80758929D02*
G75*
G02*
X160127618Y-82650018I-1997049J108929D01*
G01*
X162668351Y-70791071D02*
G75*
G02*
X164665382Y-68899982I1997049J-108929D01*
G01*
X220549125Y-59900000D02*
G75*
G02*
X222527057Y-61603310I-25J-2000100D01*
G01*
X239224339Y-64900000D02*
X224743875Y-64900000D01*
X282521500Y-152337704D02*
G75*
G02*
X280717970Y-154328027I-2000000J4D01*
G01*
X224743875Y-64900000D02*
G75*
G02*
X222765943Y-63196690I25J2000100D01*
G01*
X199740491Y-64148069D02*
G75*
G02*
X197755936Y-65899936I-1984491J248069D01*
G01*
X151249729Y-190530083D02*
G75*
G02*
X151450124Y-190428926I999571J-1731117D01*
G01*
X181142733Y-67414868D02*
X180771400Y-68900000D01*
X129696449Y-202973875D02*
X151249729Y-190530083D01*
X282521500Y-152337704D02*
X282521500Y-71900000D01*
X224494705Y-159877967D02*
X280717970Y-154328031D01*
X282521500Y-71900000D02*
X243568661Y-71900000D01*
X200052509Y-61651931D02*
G75*
G02*
X202037064Y-59900064I1984491J-248069D01*
G01*
X110895420Y-141488064D02*
X104130546Y-159627003D01*
X220549125Y-59900000D02*
X202037064Y-59900000D01*
X212189363Y-163935826D02*
G75*
G02*
X212356511Y-163871666I799137J-1832074D01*
G01*
X151450126Y-190428930D02*
X212189363Y-163935826D01*
X181142733Y-67414868D02*
G75*
G02*
X183083002Y-65900003I1940267J-485132D01*
G01*
X104179661Y-161144466D02*
X107422648Y-168373762D01*
X243568661Y-71900000D02*
G75*
G02*
X241579992Y-70113071I39J2000100D01*
G01*
X224058720Y-159970927D02*
G75*
G02*
X224494704Y-159877961I632380J-1896873D01*
G01*
X197755936Y-65900000D02*
X183083002Y-65900000D01*
X222766002Y-63196681D02*
X222526998Y-61603319D01*
X200052509Y-61651931D02*
X199740491Y-64148069D01*
X162668351Y-70791071D02*
X162124649Y-80758929D01*
X160127618Y-82650000D02*
X113021500Y-82650000D01*
X180771400Y-68900000D02*
X164665382Y-68900000D01*
X107515402Y-168555174D02*
G75*
G02*
X107422647Y-168373762I1731798J999874D01*
G01*
X111021500Y-140789190D02*
G75*
G02*
X110895417Y-141488063I-1999900J-10D01*
G01*
X111021500Y-84650000D02*
G75*
G02*
X113021500Y-82650000I2000000J0D01*
G01*
X129696449Y-202973875D02*
G75*
G02*
X126964364Y-202241844I-1000049J1731975D01*
G01*
X239224339Y-64900000D02*
G75*
G02*
X241213008Y-66686929I-39J-2000100D01*
G01*
X111021500Y-84650000D02*
X111021500Y-140789190D01*
X107515402Y-168555174D02*
X126964399Y-202241824D01*
X241580043Y-70113066D02*
X241212957Y-66686934D01*
X212356510Y-163871663D02*
X224058720Y-159970927D01*
M02*
