M48
; DRILL file {KiCad 9.0.7} date 2026-01-28T22:47:04+0100
; FORMAT={-:-/ absolute / metric / decimal}
; #@! TF.CreationDate,2026-01-28T22:47:04+01:00
; #@! TF.GenerationSoftware,Kicad,Pcbnew,9.0.7
; #@! TF.FileFunction,Plated,1,2,PTH
FMAT,2
METRIC
; #@! TA.AperFunction,Plated,PTH,ViaDrill
T1C0.300
; #@! TA.AperFunction,Plated,PTH,ComponentDrill
T2C0.900
; #@! TA.AperFunction,Plated,PTH,ComponentDrill
T3C0.991
; #@! TA.AperFunction,Plated,PTH,ComponentDrill
T4C1.000
; #@! TA.AperFunction,Plated,PTH,ComponentDrill
T5C1.092
; #@! TA.AperFunction,Plated,PTH,ComponentDrill
T6C3.000
; #@! TA.AperFunction,Plated,PTH,ComponentDrill
T7C5.100
%
G90
G05
T1
X115.928Y-121.105
X126.421Y-136.058
X136.718Y-183.404
X139.823Y-171.944
X150.972Y-173.978
X153.052Y-105.824
X153.052Y-107.419
X160.675Y-111.584
X161.06Y-129.216
X177.471Y-134.026
X196.906Y-80.275
X197.082Y-149.058
X197.733Y-76.4
X197.733Y-129.716
X197.784Y-82.031
X197.784Y-135.356
X200.017Y-153.257
X206.669Y-133.331
X215.217Y-73.257
X215.217Y-91.2
X216.094Y-72.51
X217.483Y-141.572
X234.917Y-109.143
X252.205Y-120.335
X253.461Y-120.419
X253.577Y-122.631
X254.328Y-100.15
X254.771Y-82.844
X257.307Y-85.219
X271.816Y-80.967
X272.466Y-120.279
X275.571Y-103.162
T3
X134.186Y-185.37
X140.785Y-181.56
X151.334Y-175.47
X157.933Y-171.66
X161.022Y-89.34
X161.022Y-96.96
X161.022Y-107.09
X161.022Y-114.71
X161.022Y-124.84
X161.022Y-132.46
X171.465Y-155.118
X175.275Y-161.717
X179.772Y-75.59
X179.772Y-83.21
X179.772Y-93.34
X179.772Y-100.96
X179.772Y-111.09
X179.772Y-118.71
X179.772Y-128.84
X179.772Y-136.46
X198.522Y-72.59
X198.522Y-80.21
X198.522Y-90.34
X198.522Y-97.96
X198.522Y-108.09
X198.522Y-115.71
X198.522Y-125.84
X198.522Y-133.46
X198.522Y-143.59
X198.522Y-151.21
X217.272Y-66.59
X217.272Y-74.21
X217.272Y-84.34
X217.272Y-91.96
X217.272Y-102.09
X217.272Y-109.71
X217.272Y-119.84
X217.272Y-127.46
X217.272Y-137.59
X217.272Y-145.21
X236.022Y-71.59
X236.022Y-79.21
X236.022Y-89.34
X236.022Y-96.96
X236.022Y-107.09
X236.022Y-114.71
X236.022Y-124.84
X236.022Y-132.46
X254.771Y-78.59
X254.771Y-86.21
X254.771Y-96.34
X254.771Y-103.96
X254.771Y-114.09
X254.771Y-121.71
X254.771Y-131.84
X254.771Y-139.46
X273.522Y-78.59
X273.522Y-86.21
X273.522Y-96.34
X273.522Y-103.96
X273.522Y-114.09
X273.522Y-121.71
X273.522Y-131.84
X273.522Y-139.46
T4
X114.947Y-130.3
X114.947Y-132.84
X114.947Y-135.38
X114.947Y-137.92
X130.256Y-119.85
X132.796Y-119.85
X135.337Y-119.85
X137.876Y-119.85
T5
X126.447Y-87.18
X126.447Y-89.72
X126.447Y-92.26
X126.447Y-94.8
X126.447Y-97.34
X126.447Y-99.88
X126.447Y-102.42
X126.447Y-104.96
X126.447Y-107.5
X126.447Y-110.04
X126.447Y-112.58
X126.447Y-115.12
X141.686Y-87.18
X141.686Y-89.72
X141.686Y-92.26
X141.686Y-94.8
X141.686Y-97.34
X141.686Y-99.88
X141.686Y-102.42
X141.686Y-104.96
X141.686Y-107.5
X141.686Y-110.04
X141.686Y-112.58
X141.686Y-115.12
T6
X126.483Y-177.809
X129.074Y-184.396
X143.631Y-167.909
X146.221Y-174.496
X150.621Y-99.85
X150.621Y-117.6
X150.621Y-135.35
X157.621Y-100.9
X157.621Y-118.65
X157.621Y-136.4
X167.713Y-169.42
X169.371Y-86.1
X169.371Y-103.85
X169.371Y-121.6
X169.371Y-139.35
X174.3Y-166.83
X176.371Y-87.15
X176.371Y-104.9
X176.371Y-122.65
X176.371Y-140.4
X188.121Y-83.1
X188.121Y-100.85
X188.121Y-118.6
X188.121Y-136.35
X188.121Y-154.1
X195.121Y-84.15
X195.121Y-101.9
X195.121Y-119.65
X195.121Y-137.4
X195.121Y-155.15
X206.871Y-77.1
X206.871Y-94.85
X206.871Y-112.6
X206.871Y-130.35
X206.871Y-148.1
X213.871Y-78.15
X213.871Y-95.9
X213.871Y-113.65
X213.871Y-131.4
X213.871Y-149.15
X225.621Y-82.1
X225.621Y-99.85
X225.621Y-117.6
X225.621Y-135.35
X232.621Y-83.15
X232.621Y-100.9
X232.621Y-118.65
X232.621Y-136.4
X244.371Y-89.1
X244.371Y-106.85
X244.371Y-124.6
X244.371Y-142.35
X251.371Y-90.15
X251.371Y-107.9
X251.371Y-125.65
X251.371Y-143.4
X263.121Y-89.1
X263.121Y-106.85
X263.121Y-124.6
X263.121Y-142.35
X270.121Y-90.15
X270.121Y-107.9
X270.121Y-125.65
X270.121Y-143.4
T7
X132.754Y-179.269
X149.901Y-169.369
X155.022Y-95.15
X155.022Y-112.9
X155.022Y-130.65
X169.173Y-163.15
X173.772Y-81.4
X173.772Y-99.15
X173.772Y-116.9
X173.772Y-134.65
X192.522Y-78.4
X192.522Y-96.15
X192.522Y-113.9
X192.522Y-131.65
X192.522Y-149.4
X211.272Y-72.4
X211.272Y-90.15
X211.272Y-107.9
X211.272Y-125.65
X211.272Y-143.4
X230.022Y-77.4
X230.022Y-95.15
X230.022Y-112.9
X230.022Y-130.65
X248.771Y-84.4
X248.771Y-102.15
X248.771Y-119.9
X248.771Y-137.65
X267.522Y-84.4
X267.522Y-102.15
X267.522Y-119.9
X267.522Y-137.65
T2
G00X114.621Y-95.65
M15
G01X114.621Y-96.25
M16
G05
G00X119.221Y-87.55
M15
G01X119.221Y-88.15
M16
G05
G00X119.221Y-90.55
M15
G01X119.221Y-91.15
M16
G05
G00X119.221Y-94.55
M15
G01X119.221Y-95.15
M16
G05
M30
