%TF.GenerationSoftware,KiCad,Pcbnew,9.0.7*%
%TF.CreationDate,2026-01-28T22:47:07+01:00*%
%TF.ProjectId,board_right_finished,626f6172-645f-4726-9967-68745f66696e,v1.0.0*%
%TF.SameCoordinates,Original*%
%TF.FileFunction,Soldermask,Top*%
%TF.FilePolarity,Negative*%
%FSLAX46Y46*%
G04 Gerber Fmt 4.6, Leading zero omitted, Abs format (unit mm)*
G04 Created by KiCad (PCBNEW 9.0.7) date 2026-01-28 22:47:07*
%MOMM*%
%LPD*%
G01*
G04 APERTURE LIST*
G04 Aperture macros list*
%AMRoundRect*
0 Rectangle with rounded corners*
0 $1 Rounding radius*
0 $2 $3 $4 $5 $6 $7 $8 $9 X,Y pos of 4 corners*
0 Add a 4 corners polygon primitive as box body*
4,1,4,$2,$3,$4,$5,$6,$7,$8,$9,$2,$3,0*
0 Add four circle primitives for the rounded corners*
1,1,$1+$1,$2,$3*
1,1,$1+$1,$4,$5*
1,1,$1+$1,$6,$7*
1,1,$1+$1,$8,$9*
0 Add four rect primitives between the rounded corners*
20,1,$1+$1,$2,$3,$4,$5,0*
20,1,$1+$1,$4,$5,$6,$7,0*
20,1,$1+$1,$6,$7,$8,$9,0*
20,1,$1+$1,$8,$9,$2,$3,0*%
G04 Aperture macros list end*
%ADD10RoundRect,0.050000X-0.889000X0.889000X-0.889000X-0.889000X0.889000X-0.889000X0.889000X0.889000X0*%
%ADD11RoundRect,0.050000X-0.600000X0.450000X-0.600000X-0.450000X0.600000X-0.450000X0.600000X0.450000X0*%
%ADD12C,2.005000*%
%ADD13O,1.800000X1.800000*%
%ADD14C,2.300000*%
%ADD15RoundRect,0.050000X-1.214397X0.325397X-0.325397X-1.214397X1.214397X-0.325397X0.325397X1.214397X0*%
%ADD16RoundRect,0.050000X-0.744615X0.089711X-0.294615X-0.689711X0.744615X-0.089711X0.294615X0.689711X0*%
%ADD17RoundRect,0.050000X-0.876300X0.876300X-0.876300X-0.876300X0.876300X-0.876300X0.876300X0.876300X0*%
%ADD18C,1.852600*%
%ADD19C,1.600000*%
%ADD20O,1.700000X2.300000*%
%ADD21RoundRect,0.050000X0.325397X1.214397X-1.214397X0.325397X-0.325397X-1.214397X1.214397X-0.325397X0*%
%ADD22RoundRect,0.050000X0.089711X0.744615X-0.689711X0.294615X-0.089711X-0.744615X0.689711X-0.294615X0*%
%ADD23C,5.700000*%
%ADD24C,3.600000*%
G04 APERTURE END LIST*
D10*
%TO.C,D12*%
X236021500Y-71590000D03*
D11*
X236021500Y-73750000D03*
X236021500Y-77050000D03*
D12*
X236021500Y-79210000D03*
%TD*%
D10*
%TO.C,D21*%
X198521500Y-90340000D03*
D11*
X198521500Y-92500000D03*
X198521500Y-95800000D03*
D12*
X198521500Y-97960000D03*
%TD*%
D10*
%TO.C,D20*%
X198521500Y-108090000D03*
D11*
X198521500Y-110250000D03*
X198521500Y-113550000D03*
D12*
X198521500Y-115710000D03*
%TD*%
D10*
%TO.C,D29*%
X161021500Y-89340000D03*
D11*
X161021500Y-91500000D03*
X161021500Y-94800000D03*
D12*
X161021500Y-96960000D03*
%TD*%
D10*
%TO.C,D18*%
X198521500Y-143590000D03*
D11*
X198521500Y-145750000D03*
X198521500Y-149050000D03*
D12*
X198521500Y-151210000D03*
%TD*%
D10*
%TO.C,D10*%
X236021500Y-107090000D03*
D11*
X236021500Y-109250000D03*
X236021500Y-112550000D03*
D12*
X236021500Y-114710000D03*
%TD*%
D13*
%TO.C,DISP1*%
X130256500Y-119850000D03*
X132796500Y-119850000D03*
X135336500Y-119850000D03*
X137876500Y-119850000D03*
%TD*%
D14*
%TO.C,MH2*%
X257771500Y-130100000D03*
%TD*%
%TO.C,MH3*%
X182771500Y-127100000D03*
%TD*%
D10*
%TO.C,D9*%
X236021500Y-124840000D03*
D11*
X236021500Y-127000000D03*
X236021500Y-130300000D03*
D12*
X236021500Y-132460000D03*
%TD*%
D10*
%TO.C,D7*%
X254771500Y-96340000D03*
D11*
X254771500Y-98500000D03*
X254771500Y-101800000D03*
D12*
X254771500Y-103960000D03*
%TD*%
D10*
%TO.C,D4*%
X273521500Y-78590000D03*
D11*
X273521500Y-80750000D03*
X273521500Y-84050000D03*
D12*
X273521500Y-86210000D03*
%TD*%
D10*
%TO.C,D27*%
X161021500Y-124840000D03*
D11*
X161021500Y-127000000D03*
X161021500Y-130300000D03*
D12*
X161021500Y-132460000D03*
%TD*%
D10*
%TO.C,D14*%
X217271500Y-119840000D03*
D11*
X217271500Y-122000000D03*
X217271500Y-125300000D03*
D12*
X217271500Y-127460000D03*
%TD*%
D10*
%TO.C,D25*%
X179771500Y-93340000D03*
D11*
X179771500Y-95500000D03*
X179771500Y-98800000D03*
D12*
X179771500Y-100960000D03*
%TD*%
D15*
%TO.C,D30*%
X171464600Y-155118343D03*
D16*
X172544600Y-156988958D03*
X174194600Y-159846842D03*
D12*
X175274600Y-161717457D03*
%TD*%
D17*
%TO.C,MCU1*%
X141686500Y-87180000D03*
D18*
X141686500Y-89720000D03*
X141686500Y-92260000D03*
X141686500Y-94800000D03*
X141686500Y-97340000D03*
X141686500Y-99880000D03*
X141686500Y-102420000D03*
X141686500Y-104960000D03*
X141686500Y-107500000D03*
X141686500Y-110040000D03*
X141686500Y-112580000D03*
X141686500Y-115120000D03*
X126446500Y-87180000D03*
X126446500Y-89720000D03*
X126446500Y-92260000D03*
X126446500Y-94800000D03*
X126446500Y-97340000D03*
X126446500Y-99880000D03*
X126446500Y-102420000D03*
X126446500Y-104960000D03*
X126446500Y-107500000D03*
X126446500Y-110040000D03*
X126446500Y-112580000D03*
X126446500Y-115120000D03*
%TD*%
D10*
%TO.C,D24*%
X179771500Y-111090000D03*
D11*
X179771500Y-113250000D03*
X179771500Y-116550000D03*
D12*
X179771500Y-118710000D03*
%TD*%
D19*
%TO.C,TRRS1*%
X116921500Y-86250000D03*
X116921500Y-93250000D03*
D20*
X119221500Y-87850000D03*
X119221500Y-90850000D03*
X119221500Y-94850000D03*
X114621500Y-95950000D03*
%TD*%
D10*
%TO.C,D11*%
X236021500Y-89340000D03*
D11*
X236021500Y-91500000D03*
X236021500Y-94800000D03*
D12*
X236021500Y-96960000D03*
%TD*%
D10*
%TO.C,D13*%
X217271500Y-137590000D03*
D11*
X217271500Y-139750000D03*
X217271500Y-143050000D03*
D12*
X217271500Y-145210000D03*
%TD*%
D10*
%TO.C,D6*%
X254771500Y-114090000D03*
D11*
X254771500Y-116250000D03*
X254771500Y-119550000D03*
D12*
X254771500Y-121710000D03*
%TD*%
D21*
%TO.C,D32*%
X140785457Y-181560500D03*
D22*
X138914842Y-182640500D03*
X136056958Y-184290500D03*
D12*
X134186343Y-185370500D03*
%TD*%
D10*
%TO.C,D22*%
X198521500Y-72590000D03*
D11*
X198521500Y-74750000D03*
X198521500Y-78050000D03*
D12*
X198521500Y-80210000D03*
%TD*%
D10*
%TO.C,D5*%
X254771500Y-131840000D03*
D11*
X254771500Y-134000000D03*
X254771500Y-137300000D03*
D12*
X254771500Y-139460000D03*
%TD*%
D10*
%TO.C,D3*%
X273521500Y-96340000D03*
D11*
X273521500Y-98500000D03*
X273521500Y-101800000D03*
D12*
X273521500Y-103960000D03*
%TD*%
D10*
%TO.C,D15*%
X217271500Y-102090000D03*
D11*
X217271500Y-104250000D03*
X217271500Y-107550000D03*
D12*
X217271500Y-109710000D03*
%TD*%
D10*
%TO.C,D23*%
X179771500Y-128840000D03*
D11*
X179771500Y-131000000D03*
X179771500Y-134300000D03*
D12*
X179771500Y-136460000D03*
%TD*%
D14*
%TO.C,MH1*%
X257771500Y-95350000D03*
%TD*%
D10*
%TO.C,D19*%
X198521500Y-125840000D03*
D11*
X198521500Y-128000000D03*
X198521500Y-131300000D03*
D12*
X198521500Y-133460000D03*
%TD*%
D14*
%TO.C,MH5*%
X144417900Y-149672100D03*
%TD*%
D10*
%TO.C,D26*%
X179771500Y-75590000D03*
D11*
X179771500Y-77750000D03*
X179771500Y-81050000D03*
D12*
X179771500Y-83210000D03*
%TD*%
D21*
%TO.C,D31*%
X157932757Y-171660500D03*
D22*
X156062142Y-172740500D03*
X153204258Y-174390500D03*
D12*
X151333643Y-175470500D03*
%TD*%
D10*
%TO.C,D28*%
X161021500Y-107090000D03*
D11*
X161021500Y-109250000D03*
X161021500Y-112550000D03*
D12*
X161021500Y-114710000D03*
%TD*%
D14*
%TO.C,MH4*%
X182771500Y-91600000D03*
%TD*%
D10*
%TO.C,D8*%
X254771500Y-78590000D03*
D11*
X254771500Y-80750000D03*
X254771500Y-84050000D03*
D12*
X254771500Y-86210000D03*
%TD*%
D10*
%TO.C,D16*%
X217271500Y-84340000D03*
D11*
X217271500Y-86500000D03*
X217271500Y-89800000D03*
D12*
X217271500Y-91960000D03*
%TD*%
D10*
%TO.C,D17*%
X217271500Y-66590000D03*
D11*
X217271500Y-68750000D03*
X217271500Y-72050000D03*
D12*
X217271500Y-74210000D03*
%TD*%
D13*
%TO.C,I2COut*%
X114946500Y-130300000D03*
X114946500Y-132840000D03*
X114946500Y-135380000D03*
X114946500Y-137920000D03*
%TD*%
D10*
%TO.C,D1*%
X273521500Y-131840000D03*
D11*
X273521500Y-134000000D03*
X273521500Y-137300000D03*
D12*
X273521500Y-139460000D03*
%TD*%
D10*
%TO.C,D2*%
X273521500Y-114090000D03*
D11*
X273521500Y-116250000D03*
X273521500Y-119550000D03*
D12*
X273521500Y-121710000D03*
%TD*%
D23*
%TO.C,S22*%
X192521500Y-78400000D03*
D24*
X188121500Y-83100000D03*
X195121500Y-84150000D03*
%TD*%
D23*
%TO.C,S17*%
X211271500Y-72400000D03*
D24*
X206871500Y-77100000D03*
X213871500Y-78150000D03*
%TD*%
D23*
%TO.C,S9*%
X230021500Y-130650000D03*
D24*
X225621500Y-135350000D03*
X232621500Y-136400000D03*
%TD*%
D23*
%TO.C,S12*%
X230021500Y-77400000D03*
D24*
X225621500Y-82100000D03*
X232621500Y-83150000D03*
%TD*%
D23*
%TO.C,S6*%
X248771500Y-119900000D03*
D24*
X244371500Y-124600000D03*
X251371500Y-125650000D03*
%TD*%
D23*
%TO.C,S32*%
X132753800Y-179269400D03*
D24*
X126483481Y-177808888D03*
X129074154Y-184396066D03*
%TD*%
D23*
%TO.C,S1*%
X267521500Y-137650000D03*
D24*
X263121500Y-142350000D03*
X270121500Y-143400000D03*
%TD*%
D23*
%TO.C,S14*%
X211271500Y-125650000D03*
D24*
X206871500Y-130350000D03*
X213871500Y-131400000D03*
%TD*%
D23*
%TO.C,S13*%
X211271500Y-143400000D03*
D24*
X206871500Y-148100000D03*
X213871500Y-149150000D03*
%TD*%
D23*
%TO.C,S5*%
X248771500Y-137650000D03*
D24*
X244371500Y-142350000D03*
X251371500Y-143400000D03*
%TD*%
D23*
%TO.C,S20*%
X192521500Y-113900000D03*
D24*
X188121500Y-118600000D03*
X195121500Y-119650000D03*
%TD*%
D23*
%TO.C,S30*%
X169173400Y-163150000D03*
D24*
X167712888Y-169420319D03*
X174300066Y-166829646D03*
%TD*%
D23*
%TO.C,S15*%
X211271500Y-107900000D03*
D24*
X206871500Y-112600000D03*
X213871500Y-113650000D03*
%TD*%
D23*
%TO.C,S3*%
X267521500Y-102150000D03*
D24*
X263121500Y-106850000D03*
X270121500Y-107900000D03*
%TD*%
D23*
%TO.C,S8*%
X248771500Y-84400000D03*
D24*
X244371500Y-89100000D03*
X251371500Y-90150000D03*
%TD*%
D23*
%TO.C,S26*%
X173771500Y-81400000D03*
D24*
X169371500Y-86100000D03*
X176371500Y-87150000D03*
%TD*%
D23*
%TO.C,S28*%
X155021500Y-112900000D03*
D24*
X150621500Y-117600000D03*
X157621500Y-118650000D03*
%TD*%
D23*
%TO.C,S29*%
X155021500Y-95150000D03*
D24*
X150621500Y-99850000D03*
X157621500Y-100900000D03*
%TD*%
D23*
%TO.C,S18*%
X192521500Y-149400000D03*
D24*
X188121500Y-154100000D03*
X195121500Y-155150000D03*
%TD*%
D23*
%TO.C,S10*%
X230021500Y-112900000D03*
D24*
X225621500Y-117600000D03*
X232621500Y-118650000D03*
%TD*%
D23*
%TO.C,S2*%
X267521500Y-119900000D03*
D24*
X263121500Y-124600000D03*
X270121500Y-125650000D03*
%TD*%
D23*
%TO.C,S16*%
X211271500Y-90150000D03*
D24*
X206871500Y-94850000D03*
X213871500Y-95900000D03*
%TD*%
D23*
%TO.C,S11*%
X230021500Y-95150000D03*
D24*
X225621500Y-99850000D03*
X232621500Y-100900000D03*
%TD*%
D23*
%TO.C,S4*%
X267521500Y-84400000D03*
D24*
X263121500Y-89100000D03*
X270121500Y-90150000D03*
%TD*%
D23*
%TO.C,S7*%
X248771500Y-102150000D03*
D24*
X244371500Y-106850000D03*
X251371500Y-107900000D03*
%TD*%
D23*
%TO.C,S31*%
X149901100Y-169369400D03*
D24*
X143630781Y-167908888D03*
X146221454Y-174496066D03*
%TD*%
D23*
%TO.C,S24*%
X173771500Y-116900000D03*
D24*
X169371500Y-121600000D03*
X176371500Y-122650000D03*
%TD*%
D23*
%TO.C,S25*%
X173771500Y-99150000D03*
D24*
X169371500Y-103850000D03*
X176371500Y-104900000D03*
%TD*%
D23*
%TO.C,S19*%
X192521500Y-131650000D03*
D24*
X188121500Y-136350000D03*
X195121500Y-137400000D03*
%TD*%
D23*
%TO.C,S27*%
X155021500Y-130650000D03*
D24*
X150621500Y-135350000D03*
X157621500Y-136400000D03*
%TD*%
D23*
%TO.C,S21*%
X192521500Y-96150000D03*
D24*
X188121500Y-100850000D03*
X195121500Y-101900000D03*
%TD*%
D23*
%TO.C,S23*%
X173771500Y-134650000D03*
D24*
X169371500Y-139350000D03*
X176371500Y-140400000D03*
%TD*%
M02*
