%TF.GenerationSoftware,KiCad,Pcbnew,9.0.7*%
%TF.CreationDate,2026-01-28T22:47:06+01:00*%
%TF.ProjectId,board_right_finished,626f6172-645f-4726-9967-68745f66696e,v1.0.0*%
%TF.SameCoordinates,Original*%
%TF.FileFunction,Copper,L1,Top*%
%TF.FilePolarity,Positive*%
%FSLAX46Y46*%
G04 Gerber Fmt 4.6, Leading zero omitted, Abs format (unit mm)*
G04 Created by KiCad (PCBNEW 9.0.7) date 2026-01-28 22:47:06*
%MOMM*%
%LPD*%
G01*
G04 APERTURE LIST*
G04 Aperture macros list*
%AMRotRect*
0 Rectangle, with rotation*
0 The origin of the aperture is its center*
0 $1 length*
0 $2 width*
0 $3 Rotation angle, in degrees counterclockwise*
0 Add horizontal line*
21,1,$1,$2,0,0,$3*%
G04 Aperture macros list end*
%TA.AperFunction,ComponentPad*%
%ADD10R,1.778000X1.778000*%
%TD*%
%TA.AperFunction,SMDPad,CuDef*%
%ADD11R,1.200000X0.900000*%
%TD*%
%TA.AperFunction,ComponentPad*%
%ADD12C,1.905000*%
%TD*%
%TA.AperFunction,ComponentPad*%
%ADD13O,1.700000X1.700000*%
%TD*%
%TA.AperFunction,ComponentPad*%
%ADD14RotRect,1.778000X1.778000X300.000000*%
%TD*%
%TA.AperFunction,SMDPad,CuDef*%
%ADD15RotRect,0.900000X1.200000X300.000000*%
%TD*%
%TA.AperFunction,ComponentPad*%
%ADD16R,1.752600X1.752600*%
%TD*%
%TA.AperFunction,ComponentPad*%
%ADD17C,1.752600*%
%TD*%
%TA.AperFunction,ComponentPad*%
%ADD18O,1.600000X2.200000*%
%TD*%
%TA.AperFunction,ComponentPad*%
%ADD19RotRect,1.778000X1.778000X210.000000*%
%TD*%
%TA.AperFunction,SMDPad,CuDef*%
%ADD20RotRect,0.900000X1.200000X210.000000*%
%TD*%
%TA.AperFunction,ComponentPad*%
%ADD21C,5.600000*%
%TD*%
%TA.AperFunction,ComponentPad*%
%ADD22C,3.500000*%
%TD*%
%TA.AperFunction,ViaPad*%
%ADD23C,0.600000*%
%TD*%
%TA.AperFunction,Conductor*%
%ADD24C,0.200000*%
%TD*%
G04 APERTURE END LIST*
D10*
%TO.P,D12,1*%
%TO.N,P21*%
X236021500Y-71590000D03*
D11*
X236021500Y-73750000D03*
%TO.P,D12,2*%
%TO.N,mirror_third_num*%
X236021500Y-77050000D03*
D12*
X236021500Y-79210000D03*
%TD*%
D10*
%TO.P,D21,1*%
%TO.N,P20*%
X198521500Y-90340000D03*
D11*
X198521500Y-92500000D03*
%TO.P,D21,2*%
%TO.N,mirror_fifth_top*%
X198521500Y-95800000D03*
D12*
X198521500Y-97960000D03*
%TD*%
D10*
%TO.P,D20,1*%
%TO.N,P19*%
X198521500Y-108090000D03*
D11*
X198521500Y-110250000D03*
%TO.P,D20,2*%
%TO.N,mirror_fifth_home*%
X198521500Y-113550000D03*
D12*
X198521500Y-115710000D03*
%TD*%
D10*
%TO.P,D29,1*%
%TO.N,P20*%
X161021500Y-89340000D03*
D11*
X161021500Y-91500000D03*
%TO.P,D29,2*%
%TO.N,mirror_seventh_top*%
X161021500Y-94800000D03*
D12*
X161021500Y-96960000D03*
%TD*%
D10*
%TO.P,D18,1*%
%TO.N,P15*%
X198521500Y-143590000D03*
D11*
X198521500Y-145750000D03*
%TO.P,D18,2*%
%TO.N,mirror_fifth_mod*%
X198521500Y-149050000D03*
D12*
X198521500Y-151210000D03*
%TD*%
D10*
%TO.P,D10,1*%
%TO.N,P19*%
X236021500Y-107090000D03*
D11*
X236021500Y-109250000D03*
%TO.P,D10,2*%
%TO.N,mirror_third_home*%
X236021500Y-112550000D03*
D12*
X236021500Y-114710000D03*
%TD*%
D13*
%TO.P,DISP1,1*%
%TO.N,P2*%
X130256500Y-119850000D03*
%TO.P,DISP1,2*%
%TO.N,P3*%
X132796500Y-119850000D03*
%TO.P,DISP1,3*%
%TO.N,VCC*%
X135336500Y-119850000D03*
%TO.P,DISP1,4*%
%TO.N,GND*%
X137876500Y-119850000D03*
%TD*%
D10*
%TO.P,D9,1*%
%TO.N,P18*%
X236021500Y-124840000D03*
D11*
X236021500Y-127000000D03*
%TO.P,D9,2*%
%TO.N,mirror_third_bottom*%
X236021500Y-130300000D03*
D12*
X236021500Y-132460000D03*
%TD*%
D10*
%TO.P,D7,1*%
%TO.N,P20*%
X254771500Y-96340000D03*
D11*
X254771500Y-98500000D03*
%TO.P,D7,2*%
%TO.N,mirror_second_top*%
X254771500Y-101800000D03*
D12*
X254771500Y-103960000D03*
%TD*%
D10*
%TO.P,D4,1*%
%TO.N,P21*%
X273521500Y-78590000D03*
D11*
X273521500Y-80750000D03*
%TO.P,D4,2*%
%TO.N,mirror_first_num*%
X273521500Y-84050000D03*
D12*
X273521500Y-86210000D03*
%TD*%
D10*
%TO.P,D27,1*%
%TO.N,P18*%
X161021500Y-124840000D03*
D11*
X161021500Y-127000000D03*
%TO.P,D27,2*%
%TO.N,mirror_seventh_bottom*%
X161021500Y-130300000D03*
D12*
X161021500Y-132460000D03*
%TD*%
D10*
%TO.P,D14,1*%
%TO.N,P18*%
X217271500Y-119840000D03*
D11*
X217271500Y-122000000D03*
%TO.P,D14,2*%
%TO.N,mirror_fourth_bottom*%
X217271500Y-125300000D03*
D12*
X217271500Y-127460000D03*
%TD*%
D10*
%TO.P,D25,1*%
%TO.N,P20*%
X179771500Y-93340000D03*
D11*
X179771500Y-95500000D03*
%TO.P,D25,2*%
%TO.N,mirror_sixth_top*%
X179771500Y-98800000D03*
D12*
X179771500Y-100960000D03*
%TD*%
D14*
%TO.P,D30,1*%
%TO.N,P15*%
X171464600Y-155118343D03*
D15*
X172544600Y-156988958D03*
%TO.P,D30,2*%
%TO.N,mirror_small_thumb_cluster*%
X174194600Y-159846842D03*
D12*
X175274600Y-161717457D03*
%TD*%
D16*
%TO.P,MCU1,1*%
%TO.N,RAW*%
X141686500Y-87180000D03*
D17*
%TO.P,MCU1,2*%
%TO.N,GND*%
X141686500Y-89720000D03*
%TO.P,MCU1,3*%
%TO.N,RST*%
X141686500Y-92260000D03*
%TO.P,MCU1,4*%
%TO.N,VCC*%
X141686500Y-94800000D03*
%TO.P,MCU1,5*%
%TO.N,P21*%
X141686500Y-97340000D03*
%TO.P,MCU1,6*%
%TO.N,P20*%
X141686500Y-99880000D03*
%TO.P,MCU1,7*%
%TO.N,P19*%
X141686500Y-102420000D03*
%TO.P,MCU1,8*%
%TO.N,P18*%
X141686500Y-104960000D03*
%TO.P,MCU1,9*%
%TO.N,P15*%
X141686500Y-107500000D03*
%TO.P,MCU1,10*%
%TO.N,P14*%
X141686500Y-110040000D03*
%TO.P,MCU1,11*%
%TO.N,P16*%
X141686500Y-112580000D03*
%TO.P,MCU1,12*%
%TO.N,P10*%
X141686500Y-115120000D03*
%TO.P,MCU1,13*%
%TO.N,P1*%
X126446500Y-87180000D03*
%TO.P,MCU1,14*%
%TO.N,P0*%
X126446500Y-89720000D03*
%TO.P,MCU1,15*%
%TO.N,GND*%
X126446500Y-92260000D03*
%TO.P,MCU1,16*%
X126446500Y-94800000D03*
%TO.P,MCU1,17*%
%TO.N,P2*%
X126446500Y-97340000D03*
%TO.P,MCU1,18*%
%TO.N,P3*%
X126446500Y-99880000D03*
%TO.P,MCU1,19*%
%TO.N,P4*%
X126446500Y-102420000D03*
%TO.P,MCU1,20*%
%TO.N,P5*%
X126446500Y-104960000D03*
%TO.P,MCU1,21*%
%TO.N,P6*%
X126446500Y-107500000D03*
%TO.P,MCU1,22*%
%TO.N,P7*%
X126446500Y-110040000D03*
%TO.P,MCU1,23*%
%TO.N,P8*%
X126446500Y-112580000D03*
%TO.P,MCU1,24*%
%TO.N,P9*%
X126446500Y-115120000D03*
%TD*%
D10*
%TO.P,D24,1*%
%TO.N,P19*%
X179771500Y-111090000D03*
D11*
X179771500Y-113250000D03*
%TO.P,D24,2*%
%TO.N,mirror_sixth_home*%
X179771500Y-116550000D03*
D12*
X179771500Y-118710000D03*
%TD*%
D18*
%TO.P,TRRS1,2*%
%TO.N,GND*%
X119221500Y-87850000D03*
%TO.P,TRRS1,3*%
%TO.N,P3*%
X119221500Y-90850000D03*
%TO.P,TRRS1,4*%
%TO.N,VCC*%
X119221500Y-94850000D03*
%TO.P,TRRS1,5*%
%TO.N,P2*%
X114621500Y-95950000D03*
%TD*%
D10*
%TO.P,D11,1*%
%TO.N,P20*%
X236021500Y-89340000D03*
D11*
X236021500Y-91500000D03*
%TO.P,D11,2*%
%TO.N,mirror_third_top*%
X236021500Y-94800000D03*
D12*
X236021500Y-96960000D03*
%TD*%
D10*
%TO.P,D13,1*%
%TO.N,P15*%
X217271500Y-137590000D03*
D11*
X217271500Y-139750000D03*
%TO.P,D13,2*%
%TO.N,mirror_fourth_mod*%
X217271500Y-143050000D03*
D12*
X217271500Y-145210000D03*
%TD*%
D10*
%TO.P,D6,1*%
%TO.N,P19*%
X254771500Y-114090000D03*
D11*
X254771500Y-116250000D03*
%TO.P,D6,2*%
%TO.N,mirror_second_home*%
X254771500Y-119550000D03*
D12*
X254771500Y-121710000D03*
%TD*%
D19*
%TO.P,D32,1*%
%TO.N,P15*%
X140785457Y-181560500D03*
D20*
X138914842Y-182640500D03*
%TO.P,D32,2*%
%TO.N,mirror_big_thumb_cluster*%
X136056958Y-184290500D03*
D12*
X134186343Y-185370500D03*
%TD*%
D10*
%TO.P,D22,1*%
%TO.N,P21*%
X198521500Y-72590000D03*
D11*
X198521500Y-74750000D03*
%TO.P,D22,2*%
%TO.N,mirror_fifth_num*%
X198521500Y-78050000D03*
D12*
X198521500Y-80210000D03*
%TD*%
D10*
%TO.P,D5,1*%
%TO.N,P18*%
X254771500Y-131840000D03*
D11*
X254771500Y-134000000D03*
%TO.P,D5,2*%
%TO.N,mirror_second_bottom*%
X254771500Y-137300000D03*
D12*
X254771500Y-139460000D03*
%TD*%
D10*
%TO.P,D3,1*%
%TO.N,P20*%
X273521500Y-96340000D03*
D11*
X273521500Y-98500000D03*
%TO.P,D3,2*%
%TO.N,mirror_first_top*%
X273521500Y-101800000D03*
D12*
X273521500Y-103960000D03*
%TD*%
D10*
%TO.P,D15,1*%
%TO.N,P19*%
X217271500Y-102090000D03*
D11*
X217271500Y-104250000D03*
%TO.P,D15,2*%
%TO.N,mirror_fourth_home*%
X217271500Y-107550000D03*
D12*
X217271500Y-109710000D03*
%TD*%
D10*
%TO.P,D23,1*%
%TO.N,P18*%
X179771500Y-128840000D03*
D11*
X179771500Y-131000000D03*
%TO.P,D23,2*%
%TO.N,mirror_sixth_bottom*%
X179771500Y-134300000D03*
D12*
X179771500Y-136460000D03*
%TD*%
D10*
%TO.P,D19,1*%
%TO.N,P18*%
X198521500Y-125840000D03*
D11*
X198521500Y-128000000D03*
%TO.P,D19,2*%
%TO.N,mirror_fifth_bottom*%
X198521500Y-131300000D03*
D12*
X198521500Y-133460000D03*
%TD*%
D10*
%TO.P,D26,1*%
%TO.N,P21*%
X179771500Y-75590000D03*
D11*
X179771500Y-77750000D03*
%TO.P,D26,2*%
%TO.N,mirror_sixth_num*%
X179771500Y-81050000D03*
D12*
X179771500Y-83210000D03*
%TD*%
D19*
%TO.P,D31,1*%
%TO.N,P15*%
X157932757Y-171660500D03*
D20*
X156062142Y-172740500D03*
%TO.P,D31,2*%
%TO.N,mirror_medium_thumb_cluster*%
X153204258Y-174390500D03*
D12*
X151333643Y-175470500D03*
%TD*%
D10*
%TO.P,D28,1*%
%TO.N,P19*%
X161021500Y-107090000D03*
D11*
X161021500Y-109250000D03*
%TO.P,D28,2*%
%TO.N,mirror_seventh_home*%
X161021500Y-112550000D03*
D12*
X161021500Y-114710000D03*
%TD*%
D10*
%TO.P,D8,1*%
%TO.N,P21*%
X254771500Y-78590000D03*
D11*
X254771500Y-80750000D03*
%TO.P,D8,2*%
%TO.N,mirror_second_num*%
X254771500Y-84050000D03*
D12*
X254771500Y-86210000D03*
%TD*%
D10*
%TO.P,D16,1*%
%TO.N,P20*%
X217271500Y-84340000D03*
D11*
X217271500Y-86500000D03*
%TO.P,D16,2*%
%TO.N,mirror_fourth_top*%
X217271500Y-89800000D03*
D12*
X217271500Y-91960000D03*
%TD*%
D10*
%TO.P,D17,1*%
%TO.N,P21*%
X217271500Y-66590000D03*
D11*
X217271500Y-68750000D03*
%TO.P,D17,2*%
%TO.N,mirror_fourth_num*%
X217271500Y-72050000D03*
D12*
X217271500Y-74210000D03*
%TD*%
D13*
%TO.P,I2COut,1*%
%TO.N,GND*%
X114946500Y-130300000D03*
%TO.P,I2COut,2*%
%TO.N,VCC*%
X114946500Y-132840000D03*
%TO.P,I2COut,3*%
%TO.N,P3*%
X114946500Y-135380000D03*
%TO.P,I2COut,4*%
%TO.N,P2*%
X114946500Y-137920000D03*
%TD*%
D10*
%TO.P,D1,1*%
%TO.N,P18*%
X273521500Y-131840000D03*
D11*
X273521500Y-134000000D03*
%TO.P,D1,2*%
%TO.N,mirror_first_bottom*%
X273521500Y-137300000D03*
D12*
X273521500Y-139460000D03*
%TD*%
D10*
%TO.P,D2,1*%
%TO.N,P19*%
X273521500Y-114090000D03*
D11*
X273521500Y-116250000D03*
%TO.P,D2,2*%
%TO.N,mirror_first_home*%
X273521500Y-119550000D03*
D12*
X273521500Y-121710000D03*
%TD*%
D21*
%TO.P,S22,*%
%TO.N,*%
X192521500Y-78400000D03*
D22*
%TO.P,S22,1*%
%TO.N,P9*%
X188121500Y-83100000D03*
%TO.P,S22,2*%
%TO.N,mirror_fifth_num*%
X195121500Y-84150000D03*
%TD*%
D21*
%TO.P,S17,*%
%TO.N,*%
X211271500Y-72400000D03*
D22*
%TO.P,S17,1*%
%TO.N,P8*%
X206871500Y-77100000D03*
%TO.P,S17,2*%
%TO.N,mirror_fourth_num*%
X213871500Y-78150000D03*
%TD*%
D21*
%TO.P,S9,*%
%TO.N,*%
X230021500Y-130650000D03*
D22*
%TO.P,S9,1*%
%TO.N,P7*%
X225621500Y-135350000D03*
%TO.P,S9,2*%
%TO.N,mirror_third_bottom*%
X232621500Y-136400000D03*
%TD*%
D21*
%TO.P,S12,*%
%TO.N,*%
X230021500Y-77400000D03*
D22*
%TO.P,S12,1*%
%TO.N,P7*%
X225621500Y-82100000D03*
%TO.P,S12,2*%
%TO.N,mirror_third_num*%
X232621500Y-83150000D03*
%TD*%
D21*
%TO.P,S6,*%
%TO.N,*%
X248771500Y-119900000D03*
D22*
%TO.P,S6,1*%
%TO.N,P6*%
X244371500Y-124600000D03*
%TO.P,S6,2*%
%TO.N,mirror_second_home*%
X251371500Y-125650000D03*
%TD*%
D21*
%TO.P,S32,*%
%TO.N,*%
X132753800Y-179269400D03*
D22*
%TO.P,S32,1*%
%TO.N,P7*%
X126483481Y-177808888D03*
%TO.P,S32,2*%
%TO.N,mirror_big_thumb_cluster*%
X129074154Y-184396066D03*
%TD*%
D21*
%TO.P,S1,*%
%TO.N,*%
X267521500Y-137650000D03*
D22*
%TO.P,S1,1*%
%TO.N,P5*%
X263121500Y-142350000D03*
%TO.P,S1,2*%
%TO.N,mirror_first_bottom*%
X270121500Y-143400000D03*
%TD*%
D21*
%TO.P,S14,*%
%TO.N,*%
X211271500Y-125650000D03*
D22*
%TO.P,S14,1*%
%TO.N,P8*%
X206871500Y-130350000D03*
%TO.P,S14,2*%
%TO.N,mirror_fourth_bottom*%
X213871500Y-131400000D03*
%TD*%
D21*
%TO.P,S13,*%
%TO.N,*%
X211271500Y-143400000D03*
D22*
%TO.P,S13,1*%
%TO.N,P8*%
X206871500Y-148100000D03*
%TO.P,S13,2*%
%TO.N,mirror_fourth_mod*%
X213871500Y-149150000D03*
%TD*%
D21*
%TO.P,S5,*%
%TO.N,*%
X248771500Y-137650000D03*
D22*
%TO.P,S5,1*%
%TO.N,P6*%
X244371500Y-142350000D03*
%TO.P,S5,2*%
%TO.N,mirror_second_bottom*%
X251371500Y-143400000D03*
%TD*%
D21*
%TO.P,S20,*%
%TO.N,*%
X192521500Y-113900000D03*
D22*
%TO.P,S20,1*%
%TO.N,P9*%
X188121500Y-118600000D03*
%TO.P,S20,2*%
%TO.N,mirror_fifth_home*%
X195121500Y-119650000D03*
%TD*%
D21*
%TO.P,S30,*%
%TO.N,*%
X169173400Y-163150000D03*
D22*
%TO.P,S30,1*%
%TO.N,P4*%
X167712888Y-169420319D03*
%TO.P,S30,2*%
%TO.N,mirror_small_thumb_cluster*%
X174300066Y-166829646D03*
%TD*%
D21*
%TO.P,S15,*%
%TO.N,*%
X211271500Y-107900000D03*
D22*
%TO.P,S15,1*%
%TO.N,P8*%
X206871500Y-112600000D03*
%TO.P,S15,2*%
%TO.N,mirror_fourth_home*%
X213871500Y-113650000D03*
%TD*%
D21*
%TO.P,S3,*%
%TO.N,*%
X267521500Y-102150000D03*
D22*
%TO.P,S3,1*%
%TO.N,P5*%
X263121500Y-106850000D03*
%TO.P,S3,2*%
%TO.N,mirror_first_top*%
X270121500Y-107900000D03*
%TD*%
D21*
%TO.P,S8,*%
%TO.N,*%
X248771500Y-84400000D03*
D22*
%TO.P,S8,1*%
%TO.N,P6*%
X244371500Y-89100000D03*
%TO.P,S8,2*%
%TO.N,mirror_second_num*%
X251371500Y-90150000D03*
%TD*%
D21*
%TO.P,S26,*%
%TO.N,*%
X173771500Y-81400000D03*
D22*
%TO.P,S26,1*%
%TO.N,P4*%
X169371500Y-86100000D03*
%TO.P,S26,2*%
%TO.N,mirror_sixth_num*%
X176371500Y-87150000D03*
%TD*%
D21*
%TO.P,S28,*%
%TO.N,*%
X155021500Y-112900000D03*
D22*
%TO.P,S28,1*%
%TO.N,P10*%
X150621500Y-117600000D03*
%TO.P,S28,2*%
%TO.N,mirror_seventh_home*%
X157621500Y-118650000D03*
%TD*%
D21*
%TO.P,S29,*%
%TO.N,*%
X155021500Y-95150000D03*
D22*
%TO.P,S29,1*%
%TO.N,P10*%
X150621500Y-99850000D03*
%TO.P,S29,2*%
%TO.N,mirror_seventh_top*%
X157621500Y-100900000D03*
%TD*%
D21*
%TO.P,S18,*%
%TO.N,*%
X192521500Y-149400000D03*
D22*
%TO.P,S18,1*%
%TO.N,P9*%
X188121500Y-154100000D03*
%TO.P,S18,2*%
%TO.N,mirror_fifth_mod*%
X195121500Y-155150000D03*
%TD*%
D21*
%TO.P,S10,*%
%TO.N,*%
X230021500Y-112900000D03*
D22*
%TO.P,S10,1*%
%TO.N,P7*%
X225621500Y-117600000D03*
%TO.P,S10,2*%
%TO.N,mirror_third_home*%
X232621500Y-118650000D03*
%TD*%
D21*
%TO.P,S2,*%
%TO.N,*%
X267521500Y-119900000D03*
D22*
%TO.P,S2,1*%
%TO.N,P5*%
X263121500Y-124600000D03*
%TO.P,S2,2*%
%TO.N,mirror_first_home*%
X270121500Y-125650000D03*
%TD*%
D21*
%TO.P,S16,*%
%TO.N,*%
X211271500Y-90150000D03*
D22*
%TO.P,S16,1*%
%TO.N,P8*%
X206871500Y-94850000D03*
%TO.P,S16,2*%
%TO.N,mirror_fourth_top*%
X213871500Y-95900000D03*
%TD*%
D21*
%TO.P,S11,*%
%TO.N,*%
X230021500Y-95150000D03*
D22*
%TO.P,S11,1*%
%TO.N,P7*%
X225621500Y-99850000D03*
%TO.P,S11,2*%
%TO.N,mirror_third_top*%
X232621500Y-100900000D03*
%TD*%
D21*
%TO.P,S4,*%
%TO.N,*%
X267521500Y-84400000D03*
D22*
%TO.P,S4,1*%
%TO.N,P5*%
X263121500Y-89100000D03*
%TO.P,S4,2*%
%TO.N,mirror_first_num*%
X270121500Y-90150000D03*
%TD*%
D21*
%TO.P,S7,*%
%TO.N,*%
X248771500Y-102150000D03*
D22*
%TO.P,S7,1*%
%TO.N,P6*%
X244371500Y-106850000D03*
%TO.P,S7,2*%
%TO.N,mirror_second_top*%
X251371500Y-107900000D03*
%TD*%
D21*
%TO.P,S31,*%
%TO.N,*%
X149901100Y-169369400D03*
D22*
%TO.P,S31,1*%
%TO.N,P10*%
X143630781Y-167908888D03*
%TO.P,S31,2*%
%TO.N,mirror_medium_thumb_cluster*%
X146221454Y-174496066D03*
%TD*%
D21*
%TO.P,S24,*%
%TO.N,*%
X173771500Y-116900000D03*
D22*
%TO.P,S24,1*%
%TO.N,P4*%
X169371500Y-121600000D03*
%TO.P,S24,2*%
%TO.N,mirror_sixth_home*%
X176371500Y-122650000D03*
%TD*%
D21*
%TO.P,S25,*%
%TO.N,*%
X173771500Y-99150000D03*
D22*
%TO.P,S25,1*%
%TO.N,P4*%
X169371500Y-103850000D03*
%TO.P,S25,2*%
%TO.N,mirror_sixth_top*%
X176371500Y-104900000D03*
%TD*%
D21*
%TO.P,S19,*%
%TO.N,*%
X192521500Y-131650000D03*
D22*
%TO.P,S19,1*%
%TO.N,P9*%
X188121500Y-136350000D03*
%TO.P,S19,2*%
%TO.N,mirror_fifth_bottom*%
X195121500Y-137400000D03*
%TD*%
D21*
%TO.P,S27,*%
%TO.N,*%
X155021500Y-130650000D03*
D22*
%TO.P,S27,1*%
%TO.N,P10*%
X150621500Y-135350000D03*
%TO.P,S27,2*%
%TO.N,mirror_seventh_bottom*%
X157621500Y-136400000D03*
%TD*%
D21*
%TO.P,S21,*%
%TO.N,*%
X192521500Y-96150000D03*
D22*
%TO.P,S21,1*%
%TO.N,P9*%
X188121500Y-100850000D03*
%TO.P,S21,2*%
%TO.N,mirror_fifth_top*%
X195121500Y-101900000D03*
%TD*%
D21*
%TO.P,S23,*%
%TO.N,*%
X173771500Y-134650000D03*
D22*
%TO.P,S23,1*%
%TO.N,P4*%
X169371500Y-139350000D03*
%TO.P,S23,2*%
%TO.N,mirror_sixth_bottom*%
X176371500Y-140400000D03*
%TD*%
D23*
%TO.N,mirror_first_home*%
X272466100Y-120279000D03*
%TO.N,mirror_first_top*%
X275571100Y-103162200D03*
%TO.N,P6*%
X153052100Y-107419000D03*
X153052100Y-105823700D03*
%TO.N,mirror_second_home*%
X253576800Y-122631500D03*
X253460900Y-120418700D03*
X252205000Y-120334900D03*
%TO.N,mirror_second_top*%
X254327900Y-100150000D03*
%TO.N,mirror_second_num*%
X254771500Y-82843600D03*
X257306600Y-85219200D03*
%TO.N,P8*%
X206668700Y-133331200D03*
%TO.N,mirror_fourth_mod*%
X217482800Y-141571700D03*
%TO.N,mirror_fourth_top*%
X215217200Y-91200200D03*
%TO.N,mirror_fourth_num*%
X216094400Y-72509700D03*
X215217200Y-73257200D03*
%TO.N,mirror_fifth_mod*%
X200017400Y-153257400D03*
X197082400Y-149057500D03*
%TO.N,mirror_fifth_bottom*%
X197732600Y-129715700D03*
X197783700Y-135355800D03*
%TO.N,mirror_fifth_num*%
X196906100Y-80274500D03*
X197732600Y-76400000D03*
X197783700Y-82030800D03*
%TO.N,mirror_seventh_bottom*%
X161060200Y-129215700D03*
%TO.N,mirror_seventh_home*%
X160674800Y-111583700D03*
%TO.N,mirror_medium_thumb_cluster*%
X150971900Y-173978500D03*
%TO.N,mirror_big_thumb_cluster*%
X136717600Y-183404000D03*
%TO.N,P18*%
X177471300Y-134026300D03*
%TO.N,P19*%
X234917000Y-109143200D03*
%TO.N,P21*%
X271816100Y-80966700D03*
%TO.N,P15*%
X139822800Y-171943700D03*
%TO.N,VCC*%
X115928000Y-121105200D03*
%TO.N,P3*%
X126420800Y-136057700D03*
%TD*%
D24*
%TO.N,P5*%
X171268800Y-102807600D02*
X170206700Y-101745500D01*
X160606400Y-102970800D02*
X145348700Y-102970800D01*
X263121500Y-106850000D02*
X262079100Y-105807600D01*
X219196900Y-100457700D02*
X216116000Y-100457700D01*
X145348700Y-102970800D02*
X143619900Y-101242000D01*
X246268800Y-105807600D02*
X244366800Y-103905600D01*
X196432500Y-103952900D02*
X179652000Y-103952900D01*
X262079100Y-105807600D02*
X246268800Y-105807600D01*
X130164500Y-101242000D02*
X126446500Y-104960000D01*
X215714300Y-100859400D02*
X199526000Y-100859400D01*
X179652000Y-103952900D02*
X178506700Y-102807600D01*
X143619900Y-101242000D02*
X130164500Y-101242000D01*
X178506700Y-102807600D02*
X171268800Y-102807600D01*
X170206700Y-101745500D02*
X161831700Y-101745500D01*
X244366800Y-103905600D02*
X222644800Y-103905600D01*
X215880600Y-100693100D02*
X215714300Y-100859400D01*
X222644800Y-103905600D02*
X219196900Y-100457700D01*
X161831700Y-101745500D02*
X160606400Y-102970800D01*
X215880600Y-100693100D02*
X215714300Y-100859400D01*
X199526000Y-100859400D02*
X196432500Y-103952900D01*
X216116000Y-100457700D02*
X215880600Y-100693100D01*
%TO.N,mirror_first_bottom*%
X273521500Y-137300000D02*
X273521500Y-139460000D01*
%TO.N,GND*%
X119221500Y-87850000D02*
X120323200Y-87850000D01*
X137876500Y-119850000D02*
X136724800Y-119850000D01*
X126446500Y-92260000D02*
X124733200Y-92260000D01*
X136724800Y-120137900D02*
X126562700Y-130300000D01*
X126562700Y-130300000D02*
X114946500Y-130300000D01*
X136724800Y-119850000D02*
X136724800Y-120137900D01*
X124733200Y-92260000D02*
X120323200Y-87850000D01*
X141686500Y-89720000D02*
X139146500Y-92260000D01*
X139146500Y-92260000D02*
X126446500Y-92260000D01*
%TO.N,mirror_first_home*%
X272619800Y-119550000D02*
X272619800Y-120125300D01*
X273521500Y-119550000D02*
X272619800Y-119550000D01*
X273521500Y-119550000D02*
X273521500Y-121710000D01*
X272619800Y-120125300D02*
X272466100Y-120279000D01*
%TO.N,mirror_first_top*%
X273521500Y-101800000D02*
X274423200Y-101800000D01*
X274423200Y-101800000D02*
X274423200Y-102014300D01*
X275571100Y-103162200D02*
X274773300Y-103960000D01*
X274773300Y-103960000D02*
X273521500Y-103960000D01*
X274423200Y-102014300D02*
X275571100Y-103162200D01*
%TO.N,mirror_first_num*%
X273521500Y-84050000D02*
X273521500Y-86210000D01*
%TO.N,P6*%
X163209700Y-107106500D02*
X162035500Y-108280700D01*
X153052100Y-107419000D02*
X143271500Y-107419000D01*
X162035500Y-108280700D02*
X160007500Y-108280700D01*
X244371500Y-106850000D02*
X243382800Y-105861300D01*
X198071900Y-103362800D02*
X194328300Y-107106400D01*
X142174500Y-106322000D02*
X127624500Y-106322000D01*
X127624500Y-106322000D02*
X126446500Y-107500000D01*
X243382800Y-105861300D02*
X223957200Y-105861300D01*
X213794000Y-103362800D02*
X198071900Y-103362800D01*
X216297400Y-100859400D02*
X213794000Y-103362800D01*
X160007500Y-108280700D02*
X157550500Y-105823700D01*
X163209700Y-107106400D02*
X163209700Y-107106500D01*
X194328300Y-107106400D02*
X163209700Y-107106400D01*
X218955300Y-100859400D02*
X216297400Y-100859400D01*
X157550500Y-105823700D02*
X153052100Y-105823700D01*
X223957200Y-105861300D02*
X218955300Y-100859400D01*
X143271500Y-107419000D02*
X142174500Y-106322000D01*
%TO.N,mirror_second_bottom*%
X254771500Y-139460000D02*
X254771500Y-137300000D01*
%TO.N,mirror_second_home*%
X252205000Y-120334900D02*
X252989900Y-119550000D01*
X254771500Y-121710000D02*
X253850000Y-122631500D01*
X254771500Y-121710000D02*
X254752200Y-121710000D01*
X252989900Y-119550000D02*
X254771500Y-119550000D01*
X254752200Y-121710000D02*
X253460900Y-120418700D01*
X253850000Y-122631500D02*
X253576800Y-122631500D01*
%TO.N,mirror_second_top*%
X254771500Y-100593600D02*
X254327900Y-100150000D01*
X254771500Y-101800000D02*
X254771500Y-100593600D01*
X254771500Y-101800000D02*
X254771500Y-103960000D01*
%TO.N,mirror_second_num*%
X254771500Y-84050000D02*
X254771500Y-82843600D01*
X257306600Y-85219200D02*
X256137400Y-84050000D01*
X256137400Y-84050000D02*
X254771500Y-84050000D01*
%TO.N,P7*%
X196434900Y-121705500D02*
X182008400Y-121705500D01*
X125221300Y-115618500D02*
X125221300Y-111265200D01*
X127625000Y-118022200D02*
X125221300Y-115618500D01*
X180828800Y-120525900D02*
X171502200Y-120525900D01*
X160103700Y-119531700D02*
X158873200Y-120762200D01*
X142175300Y-120762200D02*
X139435300Y-118022200D01*
X171502200Y-120525900D02*
X170508000Y-119531700D01*
X125221300Y-111265200D02*
X126446500Y-110040000D01*
X225621500Y-117600000D02*
X200540400Y-117600000D01*
X158873200Y-120762200D02*
X142175300Y-120762200D01*
X182008400Y-121705500D02*
X180828800Y-120525900D01*
X139435300Y-118022200D02*
X127625000Y-118022200D01*
X200540400Y-117600000D02*
X196434900Y-121705500D01*
X170508000Y-119531700D02*
X160103700Y-119531700D01*
%TO.N,mirror_third_bottom*%
X236021500Y-130300000D02*
X236021500Y-132460000D01*
%TO.N,mirror_third_home*%
X236021500Y-114710000D02*
X236021500Y-112550000D01*
X236021500Y-115250000D02*
X236021500Y-114710000D01*
X232621500Y-118650000D02*
X236021500Y-115250000D01*
%TO.N,mirror_third_top*%
X236021500Y-94800000D02*
X236021500Y-96960000D01*
%TO.N,mirror_third_num*%
X236021500Y-77050000D02*
X236021500Y-79210000D01*
%TO.N,P8*%
X127808500Y-111218000D02*
X126446500Y-112580000D01*
X184350200Y-110778800D02*
X181127300Y-114001700D01*
X197002800Y-112600000D02*
X195181600Y-110778800D01*
X195181600Y-110778800D02*
X184350200Y-110778800D01*
X159712700Y-109759800D02*
X143632700Y-109759800D01*
X206871500Y-112600000D02*
X197002800Y-112600000D01*
X173783900Y-112503400D02*
X162456300Y-112503400D01*
X142174500Y-111218000D02*
X127808500Y-111218000D01*
X175282200Y-114001700D02*
X173783900Y-112503400D01*
X143632700Y-109759800D02*
X142174500Y-111218000D01*
X181127300Y-114001700D02*
X175282200Y-114001700D01*
X206871500Y-133128400D02*
X206668700Y-133331200D01*
X162456300Y-112503400D02*
X159712700Y-109759800D01*
X206871500Y-130350000D02*
X206871500Y-133128400D01*
%TO.N,mirror_fourth_mod*%
X217482800Y-141571700D02*
X217482800Y-142087000D01*
X217271500Y-143050000D02*
X217271500Y-142298300D01*
X217482800Y-142087000D02*
X217271500Y-142298300D01*
%TO.N,mirror_fourth_bottom*%
X217271500Y-125300000D02*
X217271500Y-127460000D01*
%TO.N,mirror_fourth_home*%
X217271500Y-107550000D02*
X217271500Y-109710000D01*
%TO.N,mirror_fourth_top*%
X215217200Y-91200200D02*
X216369800Y-90047600D01*
X217271500Y-89800000D02*
X216369800Y-89800000D01*
X216369800Y-90047600D02*
X216369800Y-89800000D01*
%TO.N,mirror_fourth_num*%
X216094400Y-73032900D02*
X216094400Y-72509700D01*
X216369800Y-72104600D02*
X216369800Y-72050000D01*
X215217200Y-73257200D02*
X216369800Y-72104600D01*
X217271500Y-72050000D02*
X216369800Y-72050000D01*
X217271500Y-74210000D02*
X216094400Y-73032900D01*
%TO.N,P9*%
X186669700Y-120051800D02*
X171829300Y-120051800D01*
X188121500Y-118600000D02*
X186669700Y-120051800D01*
X168279200Y-116501700D02*
X153293800Y-116501700D01*
X127624500Y-113942000D02*
X126446500Y-115120000D01*
X153293800Y-116501700D02*
X150734100Y-113942000D01*
X150734100Y-113942000D02*
X127624500Y-113942000D01*
X171829300Y-120051800D02*
X168279200Y-116501700D01*
%TO.N,mirror_fifth_mod*%
X197082400Y-149057500D02*
X197612300Y-149057500D01*
X197612300Y-149057500D02*
X197619800Y-149050000D01*
X195121500Y-155150000D02*
X198124800Y-155150000D01*
X198124800Y-155150000D02*
X200017400Y-153257400D01*
X198521500Y-149050000D02*
X197619800Y-149050000D01*
X198521500Y-149050000D02*
X198521500Y-151210000D01*
%TO.N,mirror_fifth_bottom*%
X198521500Y-131300000D02*
X198521500Y-131025000D01*
X198521500Y-134618000D02*
X197783700Y-135355800D01*
X198521500Y-133460000D02*
X198521500Y-134618000D01*
X198521500Y-131025000D02*
X198521500Y-133460000D01*
X198521500Y-131025000D02*
X198521500Y-130504600D01*
X198521500Y-130504600D02*
X197732600Y-129715700D01*
%TO.N,mirror_fifth_home*%
X198521500Y-115710000D02*
X198521500Y-113550000D01*
%TO.N,mirror_fifth_top*%
X198521500Y-95800000D02*
X198521500Y-97960000D01*
%TO.N,mirror_fifth_num*%
X198521500Y-78050000D02*
X198521500Y-77298300D01*
X196906100Y-80046100D02*
X198150500Y-78801700D01*
X197732600Y-76400000D02*
X197732600Y-76509400D01*
X197732600Y-76509400D02*
X198521500Y-77298300D01*
X198521500Y-78050000D02*
X198521500Y-78801700D01*
X198150500Y-78801700D02*
X198521500Y-78801700D01*
X198521500Y-80210000D02*
X198521500Y-81293000D01*
X198521500Y-81293000D02*
X197783700Y-82030800D01*
X196906100Y-80274500D02*
X196906100Y-80046100D01*
%TO.N,P4*%
X130164500Y-98702000D02*
X142781900Y-98702000D01*
X142781900Y-98702000D02*
X155383900Y-86100000D01*
X126446500Y-102420000D02*
X130164500Y-98702000D01*
X155383900Y-86100000D02*
X169371500Y-86100000D01*
%TO.N,mirror_sixth_bottom*%
X179771500Y-134300000D02*
X179771500Y-136460000D01*
%TO.N,mirror_sixth_home*%
X179771500Y-116550000D02*
X179771500Y-118710000D01*
%TO.N,mirror_sixth_top*%
X179771500Y-98800000D02*
X179771500Y-100960000D01*
%TO.N,mirror_sixth_num*%
X179771500Y-81050000D02*
X179771500Y-83210000D01*
%TO.N,P10*%
X144166500Y-117600000D02*
X141686500Y-115120000D01*
X150621500Y-117600000D02*
X144166500Y-117600000D01*
%TO.N,mirror_seventh_bottom*%
X161021500Y-130300000D02*
X161021500Y-129254400D01*
X161021500Y-129254400D02*
X161060200Y-129215700D01*
X161021500Y-132460000D02*
X161021500Y-130300000D01*
%TO.N,mirror_seventh_home*%
X161021500Y-112550000D02*
X161021500Y-111798300D01*
X161021500Y-111798300D02*
X160889400Y-111798300D01*
X160889400Y-111798300D02*
X160674800Y-111583700D01*
%TO.N,mirror_seventh_top*%
X161021500Y-94800000D02*
X161021500Y-96960000D01*
%TO.N,mirror_small_thumb_cluster*%
X174194600Y-159846800D02*
X174691300Y-160707100D01*
X175274600Y-161290400D02*
X175274600Y-161717500D01*
X174691300Y-160707100D02*
X175274600Y-161290400D01*
%TO.N,mirror_medium_thumb_cluster*%
X150359200Y-174496100D02*
X151333600Y-175470500D01*
X146221500Y-174496100D02*
X150359200Y-174496100D01*
X152109200Y-173978500D02*
X152652700Y-173435000D01*
X153204300Y-174390500D02*
X152652700Y-173435000D01*
X150971900Y-173978500D02*
X152109200Y-173978500D01*
%TO.N,mirror_big_thumb_cluster*%
X136717600Y-183594200D02*
X136717600Y-183404000D01*
X136917200Y-183793800D02*
X136717600Y-183594200D01*
X136057000Y-184290500D02*
X136917200Y-183793800D01*
%TO.N,P18*%
X236021500Y-127751700D02*
X249492500Y-127751700D01*
X249492500Y-127751700D02*
X253580800Y-131840000D01*
X254771500Y-131840000D02*
X253580800Y-131840000D01*
X254771500Y-131840000D02*
X254771500Y-131956900D01*
X161021500Y-127000000D02*
X161021500Y-124840000D01*
X198521500Y-125840000D02*
X198521500Y-128000000D01*
X191750000Y-128000000D02*
X198521500Y-128000000D01*
X217271500Y-122000000D02*
X231990800Y-122000000D01*
X203552200Y-122000000D02*
X199712200Y-125840000D01*
X273521500Y-131956900D02*
X254771500Y-131956900D01*
X190910000Y-128840000D02*
X191750000Y-128000000D01*
X236021500Y-127000000D02*
X236021500Y-124840000D01*
X177471300Y-134026300D02*
X179745900Y-131751700D01*
X179745900Y-131751700D02*
X179771500Y-131751700D01*
X254771500Y-131956900D02*
X254771500Y-134000000D01*
X273521500Y-131956900D02*
X273521500Y-131840000D01*
X176740800Y-127000000D02*
X161021500Y-127000000D01*
X179771500Y-128840000D02*
X190910000Y-128840000D01*
X236021500Y-124840000D02*
X234830800Y-124840000D01*
X179376300Y-128840000D02*
X178580800Y-128840000D01*
X217271500Y-122000000D02*
X217271500Y-119840000D01*
X178580800Y-128840000D02*
X176740800Y-127000000D01*
X236021500Y-127000000D02*
X236021500Y-127751700D01*
X273521500Y-134000000D02*
X273521500Y-131956900D01*
X198521500Y-125840000D02*
X199712200Y-125840000D01*
X179771500Y-131000000D02*
X179771500Y-131751700D01*
X231990800Y-122000000D02*
X234830800Y-124840000D01*
X217271500Y-122000000D02*
X203552200Y-122000000D01*
X179376300Y-128840000D02*
X179771500Y-128840000D01*
%TO.N,P19*%
X236021500Y-109250000D02*
X235119800Y-109250000D01*
X199712200Y-108090000D02*
X203176400Y-104625800D01*
X235013000Y-109143200D02*
X234917000Y-109143200D01*
X161021500Y-109250000D02*
X161021500Y-110001700D01*
X152450400Y-105574600D02*
X152450400Y-106083500D01*
X144841100Y-105574600D02*
X141686500Y-102420000D01*
X273521500Y-116250000D02*
X254771500Y-116250000D01*
X203176400Y-104625800D02*
X217271500Y-104625800D01*
X152803000Y-105222000D02*
X152450400Y-105574600D01*
X157374900Y-106505100D02*
X160119800Y-109250000D01*
X159830800Y-107090000D02*
X157962800Y-105222000D01*
X273521500Y-116250000D02*
X273521500Y-114090000D01*
X161021500Y-107090000D02*
X159830800Y-107090000D01*
X157962800Y-105222000D02*
X152803000Y-105222000D01*
X152872000Y-106505100D02*
X157374900Y-106505100D01*
X152450400Y-106083500D02*
X152872000Y-106505100D01*
X181802200Y-110250000D02*
X180962200Y-111090000D01*
X198521500Y-110250000D02*
X181802200Y-110250000D01*
X180366900Y-111090000D02*
X180962200Y-111090000D01*
X217271500Y-104625800D02*
X217271500Y-105001700D01*
X217271500Y-104250000D02*
X217271500Y-102090000D01*
X179771500Y-113250000D02*
X179771500Y-111090000D01*
X254771500Y-114090000D02*
X240109800Y-114090000D01*
X198521500Y-108090000D02*
X198521500Y-109280700D01*
X240109800Y-114090000D02*
X236021500Y-110001700D01*
X179771500Y-111090000D02*
X162109800Y-111090000D01*
X236021500Y-109250000D02*
X236021500Y-110001700D01*
X198521500Y-108090000D02*
X199712200Y-108090000D01*
X152450400Y-105574600D02*
X144841100Y-105574600D01*
X198521500Y-110250000D02*
X198521500Y-109280700D01*
X254771500Y-114090000D02*
X254771500Y-116250000D01*
X217271500Y-104250000D02*
X217271500Y-104625800D01*
X219359800Y-107090000D02*
X217271500Y-105001700D01*
X236021500Y-107090000D02*
X219359800Y-107090000D01*
X235119800Y-109250000D02*
X235013000Y-109143200D01*
X162109800Y-111090000D02*
X161021500Y-110001700D01*
X161021500Y-109250000D02*
X160119800Y-109250000D01*
X180366900Y-111090000D02*
X179771500Y-111090000D01*
%TO.N,P20*%
X273521500Y-96340000D02*
X273521500Y-98500000D01*
X254771500Y-98500000D02*
X254771500Y-96340000D01*
X176740800Y-91500000D02*
X178580800Y-93340000D01*
X179771500Y-93340000D02*
X178580800Y-93340000D01*
X273521500Y-98500000D02*
X255673200Y-98500000D01*
X249492500Y-92251700D02*
X253580800Y-96340000D01*
X142975900Y-99880000D02*
X151189600Y-91666300D01*
X236021500Y-92251700D02*
X249492500Y-92251700D01*
X219359800Y-89340000D02*
X217271500Y-87251700D01*
X198521500Y-92500000D02*
X198521500Y-90340000D01*
X151189600Y-91666300D02*
X151355900Y-91500000D01*
X217271500Y-86500000D02*
X217271500Y-87251700D01*
X198521500Y-90340000D02*
X199712200Y-90340000D01*
X236021500Y-89340000D02*
X236021500Y-91500000D01*
X217271500Y-86500000D02*
X203552200Y-86500000D01*
X151355900Y-91500000D02*
X161021500Y-91500000D01*
X141686500Y-99880000D02*
X142975900Y-99880000D01*
X185377300Y-93340000D02*
X179771500Y-93340000D01*
X236021500Y-91500000D02*
X236021500Y-92251700D01*
X254771500Y-98500000D02*
X255673200Y-98500000D01*
X203552200Y-86500000D02*
X199712200Y-90340000D01*
X236021500Y-89340000D02*
X219359800Y-89340000D01*
X186217300Y-92500000D02*
X185377300Y-93340000D01*
X179771500Y-93340000D02*
X179771500Y-95500000D01*
X151189600Y-91666300D02*
X151355900Y-91500000D01*
X217271500Y-86500000D02*
X217271500Y-84340000D01*
X254771500Y-96340000D02*
X253580800Y-96340000D01*
X198521500Y-92500000D02*
X186217300Y-92500000D01*
X161021500Y-91500000D02*
X176740800Y-91500000D01*
X161021500Y-89340000D02*
X161021500Y-91500000D01*
%TO.N,P21*%
X181802200Y-74750000D02*
X180962200Y-75590000D01*
X203177200Y-69125000D02*
X199712200Y-72590000D01*
X273521500Y-80750000D02*
X272619800Y-80750000D01*
X271816100Y-80966700D02*
X272403100Y-80966700D01*
X240109800Y-78590000D02*
X236021500Y-74501700D01*
X198521500Y-74750000D02*
X181802200Y-74750000D01*
X254771500Y-78590000D02*
X240109800Y-78590000D01*
X179771500Y-75590000D02*
X180962200Y-75590000D01*
X236021500Y-73750000D02*
X236021500Y-74501700D01*
X254771500Y-78590000D02*
X254771500Y-80750000D01*
X217271500Y-69125000D02*
X217271500Y-69501700D01*
X272403100Y-80966700D02*
X272619800Y-80750000D01*
X232742500Y-69501700D02*
X234830800Y-71590000D01*
X198521500Y-72590000D02*
X199712200Y-72590000D01*
X171284700Y-77750000D02*
X179771500Y-77750000D01*
X179771500Y-77750000D02*
X179771500Y-75590000D01*
X273521500Y-80750000D02*
X273521500Y-78590000D01*
X271599400Y-80750000D02*
X271816100Y-80966700D01*
X217271500Y-68750000D02*
X217271500Y-66590000D01*
X217271500Y-69125000D02*
X203177200Y-69125000D01*
X236021500Y-71590000D02*
X234830800Y-71590000D01*
X254771500Y-80750000D02*
X271599400Y-80750000D01*
X141686500Y-97340000D02*
X155810200Y-83216300D01*
X155810200Y-83216300D02*
X165818400Y-83216300D01*
X198521500Y-72590000D02*
X198521500Y-74750000D01*
X236021500Y-73750000D02*
X236021500Y-71590000D01*
X217271500Y-69501700D02*
X232742500Y-69501700D01*
X165818400Y-83216300D02*
X171284700Y-77750000D01*
X217271500Y-68750000D02*
X217271500Y-69125000D01*
%TO.N,P15*%
X198521500Y-145750000D02*
X198521500Y-143590000D01*
X154705200Y-172740500D02*
X155201900Y-173237200D01*
X157349500Y-172243800D02*
X157932800Y-171660500D01*
X156062100Y-172740500D02*
X156922400Y-172243800D01*
X139239900Y-182315400D02*
X138914800Y-182640500D01*
X157932800Y-171660500D02*
X157177900Y-170352900D01*
X203552200Y-139750000D02*
X199712200Y-143590000D01*
X157496900Y-170033900D02*
X157177900Y-170352900D01*
X198521500Y-145750000D02*
X181385600Y-145750000D01*
X156062100Y-172740500D02*
X155201900Y-173237200D01*
X140785500Y-181560500D02*
X139477900Y-182315400D01*
X148783600Y-172740500D02*
X154705200Y-172740500D01*
X172047900Y-156128700D02*
X171464600Y-155545400D01*
X171464600Y-155118300D02*
X172772200Y-154363400D01*
X139822800Y-171943700D02*
X147986800Y-171943700D01*
X171464600Y-155545400D02*
X171464600Y-155118300D01*
X171589200Y-157540600D02*
X170331400Y-157540600D01*
X172544600Y-156989000D02*
X171589200Y-157540600D01*
X156922400Y-172243800D02*
X157349500Y-172243800D01*
X181385600Y-145750000D02*
X172772200Y-154363400D01*
X139477900Y-182315400D02*
X139239900Y-182315400D01*
X217271500Y-139750000D02*
X203552200Y-139750000D01*
X172544600Y-156989000D02*
X172047900Y-156128700D01*
X170331400Y-157540600D02*
X157838100Y-170033900D01*
X147986800Y-171943700D02*
X148783600Y-172740500D01*
X157838100Y-170033900D02*
X157496900Y-170033900D01*
X198521500Y-143590000D02*
X199712200Y-143590000D01*
X217271500Y-139750000D02*
X217271500Y-137590000D01*
%TO.N,VCC*%
X134184800Y-120137900D02*
X133217500Y-121105200D01*
X135336500Y-119850000D02*
X134184800Y-119850000D01*
X119221500Y-94850000D02*
X120323200Y-94850000D01*
X134184800Y-119850000D02*
X134184800Y-120137900D01*
X140508500Y-95978000D02*
X121451200Y-95978000D01*
X133217500Y-121105200D02*
X115928000Y-121105200D01*
X121451200Y-95978000D02*
X120323200Y-94850000D01*
X141686500Y-94800000D02*
X140508500Y-95978000D01*
%TO.N,P2*%
X117113200Y-97340000D02*
X126446500Y-97340000D01*
X114621500Y-95950000D02*
X115723200Y-95950000D01*
X115723200Y-95950000D02*
X117113200Y-97340000D01*
%TO.N,P3*%
X114946500Y-135380000D02*
X116098200Y-135380000D01*
X126420800Y-136057700D02*
X116775900Y-136057700D01*
X116775900Y-136057700D02*
X116098200Y-135380000D01*
%TD*%
M02*
