%TF.GenerationSoftware,KiCad,Pcbnew,9.0.7*%
%TF.CreationDate,2026-01-28T22:47:06+01:00*%
%TF.ProjectId,board_right_finished,626f6172-645f-4726-9967-68745f66696e,v1.0.0*%
%TF.SameCoordinates,Original*%
%TF.FileFunction,Paste,Top*%
%TF.FilePolarity,Positive*%
%FSLAX46Y46*%
G04 Gerber Fmt 4.6, Leading zero omitted, Abs format (unit mm)*
G04 Created by KiCad (PCBNEW 9.0.7) date 2026-01-28 22:47:06*
%MOMM*%
%LPD*%
G01*
G04 APERTURE LIST*
G04 Aperture macros list*
%AMRotRect*
0 Rectangle, with rotation*
0 The origin of the aperture is its center*
0 $1 length*
0 $2 width*
0 $3 Rotation angle, in degrees counterclockwise*
0 Add horizontal line*
21,1,$1,$2,0,0,$3*%
G04 Aperture macros list end*
%ADD10R,1.200000X0.900000*%
%ADD11RotRect,0.900000X1.200000X300.000000*%
%ADD12RotRect,0.900000X1.200000X210.000000*%
G04 APERTURE END LIST*
D10*
%TO.C,D12*%
X236021500Y-73750000D03*
X236021500Y-77050000D03*
%TD*%
%TO.C,D21*%
X198521500Y-92500000D03*
X198521500Y-95800000D03*
%TD*%
%TO.C,D20*%
X198521500Y-110250000D03*
X198521500Y-113550000D03*
%TD*%
%TO.C,D29*%
X161021500Y-91500000D03*
X161021500Y-94800000D03*
%TD*%
%TO.C,D18*%
X198521500Y-145750000D03*
X198521500Y-149050000D03*
%TD*%
%TO.C,D10*%
X236021500Y-109250000D03*
X236021500Y-112550000D03*
%TD*%
%TO.C,D9*%
X236021500Y-127000000D03*
X236021500Y-130300000D03*
%TD*%
%TO.C,D7*%
X254771500Y-98500000D03*
X254771500Y-101800000D03*
%TD*%
%TO.C,D4*%
X273521500Y-80750000D03*
X273521500Y-84050000D03*
%TD*%
%TO.C,D27*%
X161021500Y-127000000D03*
X161021500Y-130300000D03*
%TD*%
%TO.C,D14*%
X217271500Y-122000000D03*
X217271500Y-125300000D03*
%TD*%
%TO.C,D25*%
X179771500Y-95500000D03*
X179771500Y-98800000D03*
%TD*%
D11*
%TO.C,D30*%
X172544600Y-156988958D03*
X174194600Y-159846842D03*
%TD*%
D10*
%TO.C,D24*%
X179771500Y-113250000D03*
X179771500Y-116550000D03*
%TD*%
%TO.C,D11*%
X236021500Y-91500000D03*
X236021500Y-94800000D03*
%TD*%
%TO.C,D13*%
X217271500Y-139750000D03*
X217271500Y-143050000D03*
%TD*%
%TO.C,D6*%
X254771500Y-116250000D03*
X254771500Y-119550000D03*
%TD*%
D12*
%TO.C,D32*%
X138914842Y-182640500D03*
X136056958Y-184290500D03*
%TD*%
D10*
%TO.C,D22*%
X198521500Y-74750000D03*
X198521500Y-78050000D03*
%TD*%
%TO.C,D5*%
X254771500Y-134000000D03*
X254771500Y-137300000D03*
%TD*%
%TO.C,D3*%
X273521500Y-98500000D03*
X273521500Y-101800000D03*
%TD*%
%TO.C,D15*%
X217271500Y-104250000D03*
X217271500Y-107550000D03*
%TD*%
%TO.C,D23*%
X179771500Y-131000000D03*
X179771500Y-134300000D03*
%TD*%
%TO.C,D19*%
X198521500Y-128000000D03*
X198521500Y-131300000D03*
%TD*%
%TO.C,D26*%
X179771500Y-77750000D03*
X179771500Y-81050000D03*
%TD*%
D12*
%TO.C,D31*%
X156062142Y-172740500D03*
X153204258Y-174390500D03*
%TD*%
D10*
%TO.C,D28*%
X161021500Y-109250000D03*
X161021500Y-112550000D03*
%TD*%
%TO.C,D8*%
X254771500Y-80750000D03*
X254771500Y-84050000D03*
%TD*%
%TO.C,D16*%
X217271500Y-86500000D03*
X217271500Y-89800000D03*
%TD*%
%TO.C,D17*%
X217271500Y-68750000D03*
X217271500Y-72050000D03*
%TD*%
%TO.C,D1*%
X273521500Y-134000000D03*
X273521500Y-137300000D03*
%TD*%
%TO.C,D2*%
X273521500Y-116250000D03*
X273521500Y-119550000D03*
%TD*%
M02*
